%TF.GenerationSoftware,KiCad,Pcbnew,9.0.7*%
%TF.CreationDate,2026-03-02T22:50:09+01:00*%
%TF.ProjectId,Sensorboard,53656e73-6f72-4626-9f61-72642e6b6963,0.1*%
%TF.SameCoordinates,Original*%
%TF.FileFunction,Paste,Top*%
%TF.FilePolarity,Positive*%
%FSLAX46Y46*%
G04 Gerber Fmt 4.6, Leading zero omitted, Abs format (unit mm)*
G04 Created by KiCad (PCBNEW 9.0.7) date 2026-03-02 22:50:09*
%MOMM*%
%LPD*%
G01*
G04 APERTURE LIST*
G04 Aperture macros list*
%AMRoundRect*
0 Rectangle with rounded corners*
0 $1 Rounding radius*
0 $2 $3 $4 $5 $6 $7 $8 $9 X,Y pos of 4 corners*
0 Add a 4 corners polygon primitive as box body*
4,1,4,$2,$3,$4,$5,$6,$7,$8,$9,$2,$3,0*
0 Add four circle primitives for the rounded corners*
1,1,$1+$1,$2,$3*
1,1,$1+$1,$4,$5*
1,1,$1+$1,$6,$7*
1,1,$1+$1,$8,$9*
0 Add four rect primitives between the rounded corners*
20,1,$1+$1,$2,$3,$4,$5,0*
20,1,$1+$1,$4,$5,$6,$7,0*
20,1,$1+$1,$6,$7,$8,$9,0*
20,1,$1+$1,$8,$9,$2,$3,0*%
G04 Aperture macros list end*
%ADD10RoundRect,0.135000X-0.135000X-0.185000X0.135000X-0.185000X0.135000X0.185000X-0.135000X0.185000X0*%
%ADD11RoundRect,0.135000X0.185000X-0.135000X0.185000X0.135000X-0.185000X0.135000X-0.185000X-0.135000X0*%
%ADD12RoundRect,0.150000X-0.587500X-0.150000X0.587500X-0.150000X0.587500X0.150000X-0.587500X0.150000X0*%
%ADD13R,1.800000X1.000000*%
%ADD14RoundRect,0.250000X-0.400000X-0.600000X0.400000X-0.600000X0.400000X0.600000X-0.400000X0.600000X0*%
%ADD15RoundRect,0.140000X-0.170000X0.140000X-0.170000X-0.140000X0.170000X-0.140000X0.170000X0.140000X0*%
%ADD16RoundRect,0.140000X0.140000X0.170000X-0.140000X0.170000X-0.140000X-0.170000X0.140000X-0.170000X0*%
%ADD17RoundRect,0.135000X-0.185000X0.135000X-0.185000X-0.135000X0.185000X-0.135000X0.185000X0.135000X0*%
%ADD18RoundRect,0.150000X-0.825000X-0.150000X0.825000X-0.150000X0.825000X0.150000X-0.825000X0.150000X0*%
%ADD19RoundRect,0.140000X0.170000X-0.140000X0.170000X0.140000X-0.170000X0.140000X-0.170000X-0.140000X0*%
%ADD20R,1.270000X5.080000*%
%ADD21RoundRect,0.375000X0.375000X-0.625000X0.375000X0.625000X-0.375000X0.625000X-0.375000X-0.625000X0*%
%ADD22RoundRect,0.500000X1.400000X-0.500000X1.400000X0.500000X-1.400000X0.500000X-1.400000X-0.500000X0*%
G04 APERTURE END LIST*
D10*
%TO.C,R11*%
X167090000Y-83400000D03*
X168110000Y-83400000D03*
%TD*%
D11*
%TO.C,R16*%
X167900000Y-101220000D03*
X167900000Y-100200000D03*
%TD*%
D12*
%TO.C,Q1*%
X172700000Y-78400000D03*
X172700000Y-80300000D03*
X174575000Y-79350000D03*
%TD*%
D13*
%TO.C,Y1*%
X102875000Y-75245000D03*
X102875000Y-72745000D03*
%TD*%
D14*
%TO.C,D1*%
X135250000Y-103000000D03*
X138750000Y-103000000D03*
%TD*%
D15*
%TO.C,C4*%
X104300000Y-86800000D03*
X104300000Y-87760000D03*
%TD*%
D14*
%TO.C,D3*%
X144250000Y-76300000D03*
X147750000Y-76300000D03*
%TD*%
D10*
%TO.C,R8*%
X144490000Y-81500000D03*
X145510000Y-81500000D03*
%TD*%
D14*
%TO.C,D4*%
X169100000Y-114200000D03*
X172600000Y-114200000D03*
%TD*%
D16*
%TO.C,C3*%
X111100000Y-94900000D03*
X110140000Y-94900000D03*
%TD*%
D11*
%TO.C,R12*%
X167800000Y-79420000D03*
X167800000Y-78400000D03*
%TD*%
D17*
%TO.C,R1*%
X129200000Y-74280000D03*
X129200000Y-75300000D03*
%TD*%
D12*
%TO.C,Q2*%
X172825000Y-90950000D03*
X172825000Y-92850000D03*
X174700000Y-91900000D03*
%TD*%
D10*
%TO.C,R3*%
X133280000Y-89600000D03*
X134300000Y-89600000D03*
%TD*%
%TO.C,R13*%
X167180000Y-95500000D03*
X168200000Y-95500000D03*
%TD*%
%TO.C,R18*%
X181480000Y-117700000D03*
X182500000Y-117700000D03*
%TD*%
D17*
%TO.C,R2*%
X134600000Y-74380000D03*
X134600000Y-75400000D03*
%TD*%
D14*
%TO.C,D2*%
X135250000Y-111500000D03*
X138750000Y-111500000D03*
%TD*%
D18*
%TO.C,U5*%
X108125000Y-72995000D03*
X108125000Y-74265000D03*
X108125000Y-75535000D03*
X108125000Y-76805000D03*
X113075000Y-76805000D03*
X113075000Y-75535000D03*
X113075000Y-74265000D03*
X113075000Y-72995000D03*
%TD*%
D14*
%TO.C,D9*%
X156700000Y-76400000D03*
X160200000Y-76400000D03*
%TD*%
D11*
%TO.C,R14*%
X167500000Y-90920000D03*
X167500000Y-89900000D03*
%TD*%
D19*
%TO.C,C6*%
X117700000Y-78500000D03*
X117700000Y-77540000D03*
%TD*%
D16*
%TO.C,C5*%
X130260000Y-89500000D03*
X129300000Y-89500000D03*
%TD*%
D12*
%TO.C,Q3*%
X172900000Y-103000000D03*
X172900000Y-104900000D03*
X174775000Y-103950000D03*
%TD*%
D10*
%TO.C,R15*%
X167190000Y-106100000D03*
X168210000Y-106100000D03*
%TD*%
D20*
%TO.C,BT1*%
X97515000Y-56500000D03*
X119485000Y-56500000D03*
%TD*%
D10*
%TO.C,R4*%
X135980000Y-116500000D03*
X137000000Y-116500000D03*
%TD*%
%TO.C,R7*%
X148980000Y-81500000D03*
X150000000Y-81500000D03*
%TD*%
%TO.C,R10*%
X170490000Y-117700000D03*
X171510000Y-117700000D03*
%TD*%
D21*
%TO.C,U3*%
X109800000Y-90550000D03*
X112100000Y-90550000D03*
D22*
X112100000Y-84250000D03*
D21*
X114400000Y-90550000D03*
%TD*%
D10*
%TO.C,R6*%
X116880000Y-72500000D03*
X117900000Y-72500000D03*
%TD*%
%TO.C,R17*%
X175680000Y-114000000D03*
X176700000Y-114000000D03*
%TD*%
%TO.C,R19*%
X162290000Y-81000000D03*
X163310000Y-81000000D03*
%TD*%
%TO.C,R9*%
X164790000Y-113800000D03*
X165810000Y-113800000D03*
%TD*%
%TO.C,R20*%
X157480000Y-81000000D03*
X158500000Y-81000000D03*
%TD*%
D14*
%TO.C,D8*%
X180200000Y-113900000D03*
X183700000Y-113900000D03*
%TD*%
D10*
%TO.C,R5*%
X136480000Y-98000000D03*
X137500000Y-98000000D03*
%TD*%
M02*
