M48
; DRILL file {KiCad 9.0.7} date 2026-03-07T23:00:32+0100
; FORMAT={-:-/ absolute / metric / decimal}
; #@! TF.CreationDate,2026-03-07T23:00:32+01:00
; #@! TF.GenerationSoftware,Kicad,Pcbnew,9.0.7
; #@! TF.FileFunction,MixedPlating,1,2
FMAT,2
METRIC
; #@! TA.AperFunction,Plated,PTH,ViaDrill
T1C0.300
; #@! TA.AperFunction,Plated,PTH,ComponentDrill
T2C0.500
; #@! TA.AperFunction,Plated,PTH,ComponentDrill
T3C0.800
; #@! TA.AperFunction,Plated,PTH,ComponentDrill
T4C0.950
; #@! TA.AperFunction,Plated,PTH,ComponentDrill
T5C1.000
; #@! TA.AperFunction,Plated,PTH,ComponentDrill
T6C1.020
; #@! TA.AperFunction,Plated,PTH,ComponentDrill
T7C1.100
; #@! TA.AperFunction,Plated,PTH,ComponentDrill
T8C3.200
; #@! TA.AperFunction,NonPlated,NPTH,ComponentDrill
T9C1.020
%
G90
G05
T1
X82.0Y-77.0
X82.284Y-106.159
X83.232Y-115.879
X84.147Y-107.102
X84.31Y-105.89
X86.173Y-62.676
X87.948Y-112.554
X100.875Y-80.622
X106.756Y-116.728
X108.488Y-68.672
X110.134Y-75.656
X110.734Y-74.435
X112.408Y-88.792
X112.637Y-78.175
X117.303Y-65.708
X118.125Y-57.86
X121.459Y-66.055
X121.459Y-89.503
X127.34Y-118.755
X127.665Y-100.412
X128.055Y-106.579
X130.173Y-108.228
X136.766Y-110.942
X139.121Y-71.302
X142.207Y-92.432
X142.391Y-75.439
X144.921Y-109.936
X146.966Y-109.976
X147.668Y-81.499
X147.923Y-83.687
X148.01Y-68.049
X148.764Y-72.507
X149.677Y-104.156
X156.744Y-74.466
X156.745Y-104.938
X165.566Y-80.709
X168.507Y-98.296
X169.179Y-83.64
X169.607Y-78.4
X171.447Y-63.124
X177.328Y-112.581
X179.05Y-105.369
X188.5Y-62.0
T2
X204.5Y-58.0
T3
X79.205Y-68.5
X81.705Y-68.5
X85.0Y-49.0
X87.5Y-49.0
X129.19Y-78.595
X129.19Y-86.215
X131.73Y-78.595
X131.73Y-86.215
X132.28Y-70.0
X132.283Y-47.136
X134.27Y-78.595
X134.27Y-86.215
X134.82Y-70.0
X134.823Y-47.136
X136.81Y-78.595
X136.81Y-86.215
X137.36Y-70.0
X137.363Y-47.136
X139.9Y-47.14
X139.9Y-70.0
X142.44Y-47.14
X142.44Y-70.0
X144.98Y-47.14
X144.98Y-70.0
X147.52Y-47.14
X147.52Y-70.0
X150.06Y-47.14
X150.06Y-70.0
X152.6Y-47.14
X152.6Y-70.0
X155.14Y-47.14
X155.14Y-70.0
X157.68Y-47.14
X157.68Y-70.0
X160.22Y-47.14
X160.22Y-70.0
X162.76Y-47.14
X162.76Y-70.0
X165.3Y-47.14
X165.3Y-70.0
X167.84Y-47.14
X167.84Y-70.0
X170.38Y-47.14
X170.38Y-70.0
X172.92Y-47.14
X172.92Y-70.0
X175.46Y-47.14
X175.46Y-70.0
X178.0Y-47.14
X178.0Y-70.0
X180.54Y-47.14
X180.54Y-70.0
X181.0Y-75.89
X181.0Y-83.51
X181.0Y-87.79
X181.0Y-95.41
X181.0Y-99.39
X181.0Y-107.01
X183.08Y-47.14
X183.08Y-70.0
X185.62Y-47.14
X185.62Y-70.0
T4
X87.9Y-114.6
X90.4Y-114.6
X92.9Y-114.6
X95.4Y-114.6
X105.7Y-114.7
X105.75Y-102.525
X108.2Y-114.7
X108.25Y-102.525
X110.7Y-114.7
X110.75Y-102.525
X113.2Y-114.7
X113.25Y-102.525
X122.2Y-102.5
X122.2Y-114.6
X124.7Y-102.5
X124.7Y-114.6
X127.2Y-102.5
X127.2Y-114.6
T5
X76.7Y-98.6
X76.7Y-101.1
X145.04Y-114.1
X147.58Y-114.1
X150.12Y-114.1
X152.66Y-114.1
X155.2Y-114.1
X157.74Y-114.1
X192.1Y-111.235
X192.1Y-113.775
T6
X76.2Y-77.0
X76.2Y-80.0
X76.2Y-83.0
X76.2Y-86.0
X76.2Y-89.0
X79.2Y-77.0
X79.2Y-80.0
X79.2Y-83.0
X79.2Y-86.0
X79.2Y-89.0
T7
X78.42Y-59.1
X80.96Y-59.1
X83.5Y-59.1
T8
X76.0Y-49.5
X76.0Y-115.0
X202.0Y-49.5
X202.0Y-115.0
T9
X80.14Y-74.0
X80.14Y-92.0
M30
