%TF.GenerationSoftware,KiCad,Pcbnew,9.0.7*%
%TF.CreationDate,2026-02-25T22:08:44+01:00*%
%TF.ProjectId,GasBee,47617342-6565-42e6-9b69-6361645f7063,rev?*%
%TF.SameCoordinates,Original*%
%TF.FileFunction,Copper,L1,Top*%
%TF.FilePolarity,Positive*%
%FSLAX46Y46*%
G04 Gerber Fmt 4.6, Leading zero omitted, Abs format (unit mm)*
G04 Created by KiCad (PCBNEW 9.0.7) date 2026-02-25 22:08:44*
%MOMM*%
%LPD*%
G01*
G04 APERTURE LIST*
G04 Aperture macros list*
%AMRoundRect*
0 Rectangle with rounded corners*
0 $1 Rounding radius*
0 $2 $3 $4 $5 $6 $7 $8 $9 X,Y pos of 4 corners*
0 Add a 4 corners polygon primitive as box body*
4,1,4,$2,$3,$4,$5,$6,$7,$8,$9,$2,$3,0*
0 Add four circle primitives for the rounded corners*
1,1,$1+$1,$2,$3*
1,1,$1+$1,$4,$5*
1,1,$1+$1,$6,$7*
1,1,$1+$1,$8,$9*
0 Add four rect primitives between the rounded corners*
20,1,$1+$1,$2,$3,$4,$5,0*
20,1,$1+$1,$4,$5,$6,$7,0*
20,1,$1+$1,$6,$7,$8,$9,0*
20,1,$1+$1,$8,$9,$2,$3,0*%
%AMFreePoly0*
4,1,6,0.725000,-0.725000,-0.725000,-0.725000,-0.725000,0.125000,-0.125000,0.725000,0.725000,0.725000,0.725000,-0.725000,0.725000,-0.725000,$1*%
G04 Aperture macros list end*
%TA.AperFunction,SMDPad,CuDef*%
%ADD10RoundRect,0.218750X0.218750X0.381250X-0.218750X0.381250X-0.218750X-0.381250X0.218750X-0.381250X0*%
%TD*%
%TA.AperFunction,SMDPad,CuDef*%
%ADD11RoundRect,0.135000X0.135000X0.185000X-0.135000X0.185000X-0.135000X-0.185000X0.135000X-0.185000X0*%
%TD*%
%TA.AperFunction,SMDPad,CuDef*%
%ADD12RoundRect,0.150000X0.825000X0.150000X-0.825000X0.150000X-0.825000X-0.150000X0.825000X-0.150000X0*%
%TD*%
%TA.AperFunction,HeatsinkPad*%
%ADD13R,2.410000X3.300000*%
%TD*%
%TA.AperFunction,SMDPad,CuDef*%
%ADD14RoundRect,0.140000X-0.140000X-0.170000X0.140000X-0.170000X0.140000X0.170000X-0.140000X0.170000X0*%
%TD*%
%TA.AperFunction,SMDPad,CuDef*%
%ADD15RoundRect,0.135000X-0.185000X0.135000X-0.185000X-0.135000X0.185000X-0.135000X0.185000X0.135000X0*%
%TD*%
%TA.AperFunction,SMDPad,CuDef*%
%ADD16RoundRect,0.250000X0.475000X-0.250000X0.475000X0.250000X-0.475000X0.250000X-0.475000X-0.250000X0*%
%TD*%
%TA.AperFunction,SMDPad,CuDef*%
%ADD17RoundRect,0.135000X0.185000X-0.135000X0.185000X0.135000X-0.185000X0.135000X-0.185000X-0.135000X0*%
%TD*%
%TA.AperFunction,SMDPad,CuDef*%
%ADD18RoundRect,0.500000X0.500000X-0.500000X0.500000X0.500000X-0.500000X0.500000X-0.500000X-0.500000X0*%
%TD*%
%TA.AperFunction,SMDPad,CuDef*%
%ADD19RoundRect,0.112500X0.112500X-0.187500X0.112500X0.187500X-0.112500X0.187500X-0.112500X-0.187500X0*%
%TD*%
%TA.AperFunction,SMDPad,CuDef*%
%ADD20RoundRect,0.140000X0.170000X-0.140000X0.170000X0.140000X-0.170000X0.140000X-0.170000X-0.140000X0*%
%TD*%
%TA.AperFunction,ComponentPad*%
%ADD21RoundRect,0.250000X0.600000X0.725000X-0.600000X0.725000X-0.600000X-0.725000X0.600000X-0.725000X0*%
%TD*%
%TA.AperFunction,ComponentPad*%
%ADD22O,1.700000X1.950000*%
%TD*%
%TA.AperFunction,SMDPad,CuDef*%
%ADD23R,1.450000X0.600000*%
%TD*%
%TA.AperFunction,SMDPad,CuDef*%
%ADD24R,1.450000X0.300000*%
%TD*%
%TA.AperFunction,HeatsinkPad*%
%ADD25O,2.100000X1.000000*%
%TD*%
%TA.AperFunction,HeatsinkPad*%
%ADD26O,1.600000X1.000000*%
%TD*%
%TA.AperFunction,SMDPad,CuDef*%
%ADD27RoundRect,0.150000X-0.150000X0.825000X-0.150000X-0.825000X0.150000X-0.825000X0.150000X0.825000X0*%
%TD*%
%TA.AperFunction,SMDPad,CuDef*%
%ADD28R,0.400000X0.800000*%
%TD*%
%TA.AperFunction,SMDPad,CuDef*%
%ADD29R,0.800000X0.400000*%
%TD*%
%TA.AperFunction,SMDPad,CuDef*%
%ADD30FreePoly0,90.000000*%
%TD*%
%TA.AperFunction,SMDPad,CuDef*%
%ADD31R,1.450000X1.450000*%
%TD*%
%TA.AperFunction,SMDPad,CuDef*%
%ADD32R,0.700000X0.700000*%
%TD*%
%TA.AperFunction,SMDPad,CuDef*%
%ADD33RoundRect,0.050000X0.050000X-0.337500X0.050000X0.337500X-0.050000X0.337500X-0.050000X-0.337500X0*%
%TD*%
%TA.AperFunction,HeatsinkPad*%
%ADD34R,2.350000X1.780000*%
%TD*%
%TA.AperFunction,SMDPad,CuDef*%
%ADD35RoundRect,0.150000X-0.587500X-0.150000X0.587500X-0.150000X0.587500X0.150000X-0.587500X0.150000X0*%
%TD*%
%TA.AperFunction,SMDPad,CuDef*%
%ADD36RoundRect,0.250000X-0.475000X0.250000X-0.475000X-0.250000X0.475000X-0.250000X0.475000X0.250000X0*%
%TD*%
%TA.AperFunction,ComponentPad*%
%ADD37RoundRect,0.250000X0.350000X0.625000X-0.350000X0.625000X-0.350000X-0.625000X0.350000X-0.625000X0*%
%TD*%
%TA.AperFunction,ComponentPad*%
%ADD38O,1.200000X1.750000*%
%TD*%
%TA.AperFunction,SMDPad,CuDef*%
%ADD39RoundRect,0.140000X-0.170000X0.140000X-0.170000X-0.140000X0.170000X-0.140000X0.170000X0.140000X0*%
%TD*%
%TA.AperFunction,ViaPad*%
%ADD40C,0.800000*%
%TD*%
%TA.AperFunction,Conductor*%
%ADD41C,0.200000*%
%TD*%
G04 APERTURE END LIST*
D10*
%TO.P,L1,1,1*%
%TO.N,+BATT*%
X132562500Y-73500000D03*
%TO.P,L1,2,2*%
%TO.N,Net-(U4-SW)*%
X130437500Y-73500000D03*
%TD*%
D11*
%TO.P,R9,1*%
%TO.N,+3.3V*%
X109025000Y-78500000D03*
%TO.P,R9,2*%
%TO.N,/SDA*%
X108005000Y-78500000D03*
%TD*%
D12*
%TO.P,U5,1,TEMP*%
%TO.N,unconnected-(U5-TEMP-Pad1)*%
X143675000Y-69905000D03*
%TO.P,U5,2,PROG*%
%TO.N,Net-(U5-PROG)*%
X143675000Y-68635000D03*
%TO.P,U5,3,GND*%
%TO.N,GND*%
X143675000Y-67365000D03*
%TO.P,U5,4,V_{CC}*%
%TO.N,Net-(U5-CE)*%
X143675000Y-66095000D03*
%TO.P,U5,5,BAT*%
%TO.N,+BATT*%
X138725000Y-66095000D03*
%TO.P,U5,6,~{STDBY}*%
%TO.N,unconnected-(U5-~{STDBY}-Pad6)*%
X138725000Y-67365000D03*
%TO.P,U5,7,~{CHRG}*%
%TO.N,unconnected-(U5-~{CHRG}-Pad7)*%
X138725000Y-68635000D03*
%TO.P,U5,8,CE*%
%TO.N,Net-(U5-CE)*%
X138725000Y-69905000D03*
D13*
%TO.P,U5,9,EPAD*%
%TO.N,unconnected-(U5-EPAD-Pad9)*%
X141200000Y-68000000D03*
%TD*%
D11*
%TO.P,R10,1*%
%TO.N,Net-(U4-TH)*%
X128010000Y-71000000D03*
%TO.P,R10,2*%
%TO.N,GND*%
X126990000Y-71000000D03*
%TD*%
D14*
%TO.P,C8,1*%
%TO.N,+3.3V*%
X108065000Y-82000000D03*
%TO.P,C8,2*%
%TO.N,GND*%
X109025000Y-82000000D03*
%TD*%
%TO.P,C3,1*%
%TO.N,Net-(U4-REG)*%
X131520000Y-65000000D03*
%TO.P,C3,2*%
%TO.N,GND*%
X132480000Y-65000000D03*
%TD*%
D15*
%TO.P,R5,1*%
%TO.N,+3.3V*%
X96525000Y-71980000D03*
%TO.P,R5,2*%
%TO.N,Net-(U1-GPIO9)*%
X96525000Y-73000000D03*
%TD*%
D16*
%TO.P,C4,1*%
%TO.N,+BATT*%
X126437500Y-88400000D03*
%TO.P,C4,2*%
%TO.N,GND*%
X126437500Y-86500000D03*
%TD*%
D17*
%TO.P,R2,1*%
%TO.N,Net-(J1-CC2)*%
X137000000Y-79000000D03*
%TO.P,R2,2*%
%TO.N,GND*%
X137000000Y-77980000D03*
%TD*%
D15*
%TO.P,R7,1*%
%TO.N,Net-(J1-D+-PadA6)*%
X100525000Y-71980000D03*
%TO.P,R7,2*%
%TO.N,Net-(U1-GPIO19{slash}USB_D+)*%
X100525000Y-73000000D03*
%TD*%
D11*
%TO.P,R8,1*%
%TO.N,+3.3V*%
X109025000Y-75000000D03*
%TO.P,R8,2*%
%TO.N,/SCL*%
X108005000Y-75000000D03*
%TD*%
D18*
%TO.P,SW2,1,1*%
%TO.N,Net-(U1-GPIO9)*%
X118500000Y-72000000D03*
%TO.P,SW2,2,2*%
%TO.N,GND*%
X118500000Y-66000000D03*
%TD*%
D19*
%TO.P,D2,1,A1*%
%TO.N,+BATT*%
X137000000Y-88500000D03*
%TO.P,D2,2,A2*%
%TO.N,GND*%
X137000000Y-86400000D03*
%TD*%
D20*
%TO.P,C7,1*%
%TO.N,+3.3V*%
X122437500Y-78500000D03*
%TO.P,C7,2*%
%TO.N,GND*%
X122437500Y-77540000D03*
%TD*%
D14*
%TO.P,C9,1*%
%TO.N,+3.3V*%
X108065000Y-86000000D03*
%TO.P,C9,2*%
%TO.N,GND*%
X109025000Y-86000000D03*
%TD*%
D16*
%TO.P,C6,1*%
%TO.N,+3.3V*%
X126000000Y-78450000D03*
%TO.P,C6,2*%
%TO.N,GND*%
X126000000Y-76550000D03*
%TD*%
D21*
%TO.P,J3,1,Pin_1*%
%TO.N,+3.3V*%
X106250000Y-67025000D03*
D22*
%TO.P,J3,2,Pin_2*%
%TO.N,GND*%
X103750000Y-67025000D03*
%TO.P,J3,3,Pin_3*%
%TO.N,Net-(J3-Pin_3)*%
X101250000Y-67025000D03*
%TO.P,J3,4,Pin_4*%
%TO.N,Net-(J3-Pin_4)*%
X98750000Y-67025000D03*
%TD*%
D17*
%TO.P,R3,1*%
%TO.N,+3.3V*%
X112025000Y-85010000D03*
%TO.P,R3,2*%
%TO.N,Net-(U1-EN{slash}CHIP_PU)*%
X112025000Y-83990000D03*
%TD*%
D23*
%TO.P,J1,A1,GND*%
%TO.N,GND*%
X140455000Y-84750000D03*
%TO.P,J1,A4,VBUS*%
%TO.N,Net-(U5-CE)*%
X140455000Y-83950000D03*
D24*
%TO.P,J1,A5,CC1*%
%TO.N,Net-(J1-CC1)*%
X140455000Y-82750000D03*
%TO.P,J1,A6,D+*%
%TO.N,Net-(J1-D+-PadA6)*%
X140455000Y-81750000D03*
%TO.P,J1,A7,D-*%
%TO.N,Net-(J1-D--PadA7)*%
X140455000Y-81250000D03*
%TO.P,J1,A8*%
%TO.N,N/C*%
X140455000Y-80250000D03*
D23*
%TO.P,J1,A9,VBUS*%
%TO.N,Net-(U5-CE)*%
X140455000Y-79050000D03*
%TO.P,J1,A12,GND*%
%TO.N,GND*%
X140455000Y-78250000D03*
%TO.P,J1,B1,GND*%
X140455000Y-78250000D03*
%TO.P,J1,B4,VBUS*%
%TO.N,Net-(U5-CE)*%
X140455000Y-79050000D03*
D24*
%TO.P,J1,B5,CC2*%
%TO.N,Net-(J1-CC2)*%
X140455000Y-79750000D03*
%TO.P,J1,B6,D+*%
%TO.N,Net-(J1-D+-PadA6)*%
X140455000Y-80750000D03*
%TO.P,J1,B7,D-*%
%TO.N,Net-(J1-D--PadA7)*%
X140455000Y-82250000D03*
%TO.P,J1,B8*%
%TO.N,N/C*%
X140455000Y-83250000D03*
D23*
%TO.P,J1,B9,VBUS*%
%TO.N,Net-(U5-CE)*%
X140455000Y-83950000D03*
%TO.P,J1,B12,GND*%
%TO.N,GND*%
X140455000Y-84750000D03*
D25*
%TO.P,J1,S1,SHIELD*%
X141370000Y-85820000D03*
D26*
X145550000Y-85820000D03*
D25*
X141370000Y-77180000D03*
D26*
X145550000Y-77180000D03*
%TD*%
D27*
%TO.P,U2,1,VSUP*%
%TO.N,unconnected-(U2-VSUP-Pad1)*%
X108945000Y-90525000D03*
%TO.P,U2,2,BASE*%
%TO.N,unconnected-(U2-BASE-Pad2)*%
X107675000Y-90525000D03*
%TO.P,U2,3,AVDD*%
%TO.N,+3.3V*%
X106405000Y-90525000D03*
%TO.P,U2,4,VFB*%
X105135000Y-90525000D03*
%TO.P,U2,5,AGND*%
%TO.N,GND*%
X103865000Y-90525000D03*
%TO.P,U2,6,VBG*%
%TO.N,unconnected-(U2-VBG-Pad6)*%
X102595000Y-90525000D03*
%TO.P,U2,7,INA-*%
%TO.N,Net-(J3-Pin_4)*%
X101325000Y-90525000D03*
%TO.P,U2,8,INA+*%
%TO.N,Net-(J3-Pin_3)*%
X100055000Y-90525000D03*
%TO.P,U2,9,INB-*%
%TO.N,GND*%
X100055000Y-95475000D03*
%TO.P,U2,10,INB+*%
X101325000Y-95475000D03*
%TO.P,U2,11,PD_SCK*%
%TO.N,/HX711_SCK*%
X102595000Y-95475000D03*
%TO.P,U2,12,DOUT*%
%TO.N,/HX711_DOUT*%
X103865000Y-95475000D03*
%TO.P,U2,13,XO*%
%TO.N,unconnected-(U2-XO-Pad13)*%
X105135000Y-95475000D03*
%TO.P,U2,14,XI*%
%TO.N,unconnected-(U2-XI-Pad14)*%
X106405000Y-95475000D03*
%TO.P,U2,15,RATE*%
%TO.N,GND*%
X107675000Y-95475000D03*
%TO.P,U2,16,DVDD*%
%TO.N,+3.3V*%
X108945000Y-95475000D03*
%TD*%
D18*
%TO.P,SW1,1,1*%
%TO.N,GND*%
X118500000Y-94000000D03*
%TO.P,SW1,2,2*%
%TO.N,Net-(U1-EN{slash}CHIP_PU)*%
X118500000Y-88000000D03*
%TD*%
D28*
%TO.P,U1,1,GND*%
%TO.N,GND*%
X96025000Y-86900000D03*
%TO.P,U1,2,GND*%
X96825000Y-86900000D03*
%TO.P,U1,3,3V3*%
%TO.N,+3.3V*%
X97625000Y-86900000D03*
%TO.P,U1,4,NC*%
%TO.N,unconnected-(U1-NC-Pad4)*%
X98425000Y-86900000D03*
%TO.P,U1,5,GPIO2/ADC1_CH2*%
%TO.N,/HX711_DOUT*%
X99225000Y-86900000D03*
%TO.P,U1,6,GPIO3/ADC1_CH3*%
%TO.N,/HX711_SCK*%
X100025000Y-86900000D03*
%TO.P,U1,7,NC*%
%TO.N,unconnected-(U1-NC-Pad7)*%
X100825000Y-86900000D03*
%TO.P,U1,8,EN/CHIP_PU*%
%TO.N,Net-(U1-EN{slash}CHIP_PU)*%
X101625000Y-86900000D03*
%TO.P,U1,9,NC*%
%TO.N,unconnected-(U1-NC-Pad9)*%
X102425000Y-86900000D03*
%TO.P,U1,10,NC*%
%TO.N,unconnected-(U1-NC-Pad10)*%
X103225000Y-86900000D03*
%TO.P,U1,11,GND*%
%TO.N,GND*%
X104025000Y-86900000D03*
D29*
%TO.P,U1,12,GPIO0/ADC1_CH0/XTAL_32K_P*%
%TO.N,unconnected-(U1-GPIO0{slash}ADC1_CH0{slash}XTAL_32K_P-Pad12)*%
X104925000Y-85800000D03*
%TO.P,U1,13,GPIO1/ADC1_CH1/XTAL_32K_N*%
%TO.N,unconnected-(U1-GPIO1{slash}ADC1_CH1{slash}XTAL_32K_N-Pad13)*%
X104925000Y-85000000D03*
%TO.P,U1,14,GND*%
%TO.N,GND*%
X104925000Y-84200000D03*
%TO.P,U1,15,NC*%
%TO.N,unconnected-(U1-NC-Pad15)*%
X104925000Y-83400000D03*
%TO.P,U1,16,GPIO10*%
%TO.N,unconnected-(U1-GPIO10-Pad16)*%
X104925000Y-82600000D03*
%TO.P,U1,17,NC*%
%TO.N,unconnected-(U1-NC-Pad17)*%
X104925000Y-81800000D03*
%TO.P,U1,18,GPIO4/ADC1_CH4*%
%TO.N,unconnected-(U1-GPIO4{slash}ADC1_CH4-Pad18)*%
X104925000Y-81000000D03*
%TO.P,U1,19,GPIO5/ADC2_CH0*%
%TO.N,unconnected-(U1-GPIO5{slash}ADC2_CH0-Pad19)*%
X104925000Y-80200000D03*
%TO.P,U1,20,GPIO6*%
%TO.N,/SDA*%
X104925000Y-79400000D03*
%TO.P,U1,21,GPIO7*%
%TO.N,/SCL*%
X104925000Y-78600000D03*
%TO.P,U1,22,GPIO8*%
%TO.N,Net-(U1-GPIO8)*%
X104925000Y-77800000D03*
%TO.P,U1,23,GPIO9*%
%TO.N,Net-(U1-GPIO9)*%
X104925000Y-77000000D03*
%TO.P,U1,24,NC*%
%TO.N,unconnected-(U1-NC-Pad24)*%
X104925000Y-76200000D03*
D28*
%TO.P,U1,25,NC*%
%TO.N,unconnected-(U1-NC-Pad25)*%
X104025000Y-75100000D03*
%TO.P,U1,26,GPIO18/USB_D-*%
%TO.N,Net-(U1-GPIO18{slash}USB_D-)*%
X103225000Y-75100000D03*
%TO.P,U1,27,GPIO19/USB_D+*%
%TO.N,Net-(U1-GPIO19{slash}USB_D+)*%
X102425000Y-75100000D03*
%TO.P,U1,28,NC*%
%TO.N,unconnected-(U1-NC-Pad28)*%
X101625000Y-75100000D03*
%TO.P,U1,29,NC*%
%TO.N,unconnected-(U1-NC-Pad29)*%
X100825000Y-75100000D03*
%TO.P,U1,30,GPIO20/U0RXD*%
%TO.N,unconnected-(U1-GPIO20{slash}U0RXD-Pad30)*%
X100025000Y-75100000D03*
%TO.P,U1,31,GPIO21/U0TXD*%
%TO.N,unconnected-(U1-GPIO21{slash}U0TXD-Pad31)*%
X99225000Y-75100000D03*
%TO.P,U1,32,NC*%
%TO.N,unconnected-(U1-NC-Pad32)*%
X98425000Y-75100000D03*
%TO.P,U1,33,NC*%
%TO.N,unconnected-(U1-NC-Pad33)*%
X97625000Y-75100000D03*
%TO.P,U1,34,NC*%
%TO.N,unconnected-(U1-NC-Pad34)*%
X96825000Y-75100000D03*
%TO.P,U1,35,NC*%
%TO.N,unconnected-(U1-NC-Pad35)*%
X96025000Y-75100000D03*
D29*
%TO.P,U1,36,GND*%
%TO.N,GND*%
X95125000Y-76200000D03*
%TO.P,U1,37,GND*%
X95125000Y-77000000D03*
%TO.P,U1,38,GND*%
X95125000Y-77800000D03*
%TO.P,U1,39,GND*%
X95125000Y-78600000D03*
%TO.P,U1,40,GND*%
X95125000Y-79400000D03*
%TO.P,U1,41,GND*%
X95125000Y-80200000D03*
%TO.P,U1,42,GND*%
X95125000Y-81000000D03*
%TO.P,U1,43,GND*%
X95125000Y-81800000D03*
%TO.P,U1,44,GND*%
X95125000Y-82600000D03*
%TO.P,U1,45,GND*%
X95125000Y-83400000D03*
%TO.P,U1,46,GND*%
X95125000Y-84200000D03*
%TO.P,U1,47,GND*%
X95125000Y-85000000D03*
%TO.P,U1,48,GND*%
X95125000Y-85800000D03*
D30*
%TO.P,U1,49,GND*%
X98050000Y-82975000D03*
D31*
X100025000Y-82975000D03*
X102000000Y-82975000D03*
X98050000Y-81000000D03*
X100025000Y-81000000D03*
X102000000Y-81000000D03*
X98050000Y-79025000D03*
X100025000Y-79025000D03*
X102000000Y-79025000D03*
D32*
%TO.P,U1,50,GND*%
X95075000Y-75050000D03*
%TO.P,U1,51,GND*%
X104975000Y-75050000D03*
%TO.P,U1,52,GND*%
X104975000Y-86950000D03*
%TO.P,U1,53,GND*%
X95075000Y-86950000D03*
%TD*%
D33*
%TO.P,U4,1,TH*%
%TO.N,Net-(U4-TH)*%
X129890000Y-70542500D03*
%TO.P,U4,2,NC*%
%TO.N,unconnected-(U4-NC-Pad2)*%
X130290000Y-70542500D03*
%TO.P,U4,3,SW*%
%TO.N,Net-(U4-SW)*%
X130690000Y-70542500D03*
%TO.P,U4,4,NC*%
%TO.N,unconnected-(U4-NC-Pad4)*%
X131090000Y-70542500D03*
%TO.P,U4,5,NC*%
%TO.N,unconnected-(U4-NC-Pad5)*%
X131490000Y-70542500D03*
%TO.P,U4,6,BATT*%
%TO.N,+BATT*%
X131890000Y-70542500D03*
%TO.P,U4,7,CSN*%
%TO.N,unconnected-(U4-CSN-Pad7)*%
X132290000Y-70542500D03*
%TO.P,U4,8,GND*%
%TO.N,GND*%
X132290000Y-67567500D03*
%TO.P,U4,9,CSPL*%
%TO.N,unconnected-(U4-CSPL-Pad9)*%
X131890000Y-67567500D03*
%TO.P,U4,10,CELLX*%
%TO.N,+BATT*%
X131490000Y-67567500D03*
%TO.P,U4,11,REG*%
%TO.N,Net-(U4-REG)*%
X131090000Y-67567500D03*
%TO.P,U4,12,ALRT*%
%TO.N,Net-(U1-GPIO8)*%
X130690000Y-67567500D03*
%TO.P,U4,13,SDA*%
%TO.N,/SDA*%
X130290000Y-67567500D03*
%TO.P,U4,14,SCL*%
%TO.N,/SCL*%
X129890000Y-67567500D03*
D34*
%TO.P,U4,15,GND*%
%TO.N,GND*%
X131090000Y-69055000D03*
%TD*%
D17*
%TO.P,R1,1*%
%TO.N,Net-(J1-CC1)*%
X137000000Y-83000000D03*
%TO.P,R1,2*%
%TO.N,GND*%
X137000000Y-81980000D03*
%TD*%
%TO.P,R4,1*%
%TO.N,Net-(U5-PROG)*%
X147000000Y-68520000D03*
%TO.P,R4,2*%
%TO.N,GND*%
X147000000Y-67500000D03*
%TD*%
D35*
%TO.P,U6,1,GND*%
%TO.N,GND*%
X126000000Y-81500000D03*
%TO.P,U6,2,VI*%
%TO.N,+BATT*%
X126000000Y-83400000D03*
%TO.P,U6,3,VO*%
%TO.N,+3.3V*%
X127875000Y-82450000D03*
%TD*%
D36*
%TO.P,C10,1*%
%TO.N,+3.3V*%
X112025000Y-79050000D03*
%TO.P,C10,2*%
%TO.N,GND*%
X112025000Y-80950000D03*
%TD*%
D20*
%TO.P,C1,1*%
%TO.N,Net-(U1-EN{slash}CHIP_PU)*%
X112025000Y-76500000D03*
%TO.P,C1,2*%
%TO.N,GND*%
X112025000Y-75540000D03*
%TD*%
%TO.P,C5,1*%
%TO.N,+BATT*%
X122437500Y-82950000D03*
%TO.P,C5,2*%
%TO.N,GND*%
X122437500Y-81990000D03*
%TD*%
D37*
%TO.P,J2,1,Pin_1*%
%TO.N,GND*%
X144500000Y-94000000D03*
D38*
%TO.P,J2,2,Pin_2*%
%TO.N,+BATT*%
X142500000Y-94000000D03*
%TD*%
D15*
%TO.P,R6,1*%
%TO.N,Net-(J1-D--PadA7)*%
X105025000Y-71980000D03*
%TO.P,R6,2*%
%TO.N,Net-(U1-GPIO18{slash}USB_D-)*%
X105025000Y-73000000D03*
%TD*%
D39*
%TO.P,C11,1*%
%TO.N,+3.3V*%
X96000000Y-90540000D03*
%TO.P,C11,2*%
%TO.N,GND*%
X96000000Y-91500000D03*
%TD*%
D40*
%TO.N,Net-(U1-GPIO8)*%
X106500000Y-75000000D03*
%TO.N,/SDA*%
X128500000Y-65500000D03*
X103500000Y-79000000D03*
%TO.N,/SCL*%
X125500000Y-65000000D03*
X96500000Y-77500000D03*
%TO.N,Net-(U1-GPIO9)*%
X113250000Y-69750000D03*
%TO.N,Net-(J3-Pin_4)*%
X103500000Y-72500000D03*
X101325000Y-92175000D03*
%TO.N,/HX711_DOUT*%
X94500000Y-95000000D03*
%TO.N,Net-(J3-Pin_3)*%
X100799000Y-88299000D03*
%TO.N,Net-(U1-GPIO9)*%
X98000000Y-73000000D03*
X98000000Y-76500000D03*
%TO.N,+3.3V*%
X96500000Y-70500000D03*
X112500000Y-73000000D03*
%TO.N,/HX711_DOUT*%
X103500000Y-93500000D03*
X94500000Y-88500000D03*
X100000000Y-85500000D03*
%TO.N,/HX711_SCK*%
X98500000Y-88500000D03*
%TO.N,+3.3V*%
X98125000Y-89875000D03*
%TO.N,/HX711_SCK*%
X96500000Y-88500000D03*
%TO.N,Net-(J1-D+-PadA6)*%
X102500000Y-71500000D03*
%TO.N,Net-(J1-D--PadA7)*%
X108000000Y-72000000D03*
X119500000Y-80500000D03*
%TO.N,Net-(J1-D+-PadA6)*%
X120000000Y-79500000D03*
%TO.N,+3.3V*%
X118500000Y-79000000D03*
X114500000Y-79000000D03*
%TO.N,+BATT*%
X131500000Y-66000000D03*
X130500000Y-87500000D03*
X130500000Y-83500000D03*
X136500000Y-73500000D03*
X136500000Y-66500000D03*
%TO.N,Net-(U5-CE)*%
X138500000Y-73500000D03*
X138550000Y-79050000D03*
%TO.N,Net-(U1-EN{slash}CHIP_PU)*%
X101500000Y-85500000D03*
X110010000Y-83990000D03*
%TO.N,+3.3V*%
X112000000Y-95000000D03*
X108000000Y-87500000D03*
X112025000Y-87500000D03*
%TO.N,Net-(U1-GPIO8)*%
X130000000Y-65000000D03*
%TD*%
D41*
%TO.N,Net-(U1-GPIO9)*%
X98000000Y-73000000D02*
X96525000Y-73000000D01*
%TO.N,Net-(J3-Pin_4)*%
X98750000Y-69250000D02*
X98750000Y-67025000D01*
X99500000Y-70000000D02*
X98750000Y-69250000D01*
X103000000Y-70000000D02*
X99500000Y-70000000D01*
X103500000Y-70500000D02*
X103000000Y-70000000D01*
X103500000Y-72500000D02*
X103500000Y-70500000D01*
%TO.N,+3.3V*%
X112500000Y-73000000D02*
X111500000Y-72000000D01*
X111500000Y-72000000D02*
X111500000Y-67500000D01*
X110975000Y-67025000D02*
X106250000Y-67025000D01*
X111500000Y-67500000D02*
X111000000Y-67000000D01*
X111000000Y-67000000D02*
X110975000Y-67025000D01*
%TO.N,GND*%
X98050000Y-79025000D02*
X95550000Y-79025000D01*
X95550000Y-79025000D02*
X95125000Y-78600000D01*
X98050000Y-81000000D02*
X98050000Y-79025000D01*
X98050000Y-81000000D02*
X98050000Y-82975000D01*
X100025000Y-81000000D02*
X100025000Y-79025000D01*
X102000000Y-82975000D02*
X102000000Y-81000000D01*
%TO.N,Net-(U1-GPIO8)*%
X106000000Y-75500000D02*
X106000000Y-77500000D01*
X106500000Y-75000000D02*
X106000000Y-75500000D01*
X105700000Y-77800000D02*
X104925000Y-77800000D01*
X106000000Y-77500000D02*
X105700000Y-77800000D01*
%TO.N,/SDA*%
X130290000Y-67567500D02*
X130290000Y-66924200D01*
X130290000Y-66924200D02*
X128865800Y-65500000D01*
X128865800Y-65500000D02*
X128500000Y-65500000D01*
%TO.N,Net-(U1-GPIO8)*%
X130000000Y-66000000D02*
X130000000Y-65000000D01*
X130690000Y-66757100D02*
X130466450Y-66533550D01*
X130690000Y-67567500D02*
X130690000Y-66757100D01*
X130466450Y-66533550D02*
X130000000Y-66067100D01*
X130000000Y-66067100D02*
X130000000Y-66000000D01*
%TO.N,/SCL*%
X129890000Y-67567500D02*
X128567500Y-67567500D01*
X128567500Y-67567500D02*
X126000000Y-65000000D01*
X126000000Y-65000000D02*
X125500000Y-65000000D01*
%TO.N,Net-(U4-REG)*%
X131090000Y-67567500D02*
X131090000Y-66590000D01*
X131090000Y-66590000D02*
X130500000Y-66000000D01*
X130500000Y-66000000D02*
X130500000Y-65500000D01*
X130500000Y-65500000D02*
X131000000Y-65000000D01*
X131000000Y-65000000D02*
X131520000Y-65000000D01*
%TO.N,Net-(U1-GPIO9)*%
X113250000Y-69750000D02*
X115500000Y-72000000D01*
X115500000Y-72000000D02*
X118500000Y-72000000D01*
%TO.N,/SCL*%
X104925000Y-78600000D02*
X104100000Y-78600000D01*
X104100000Y-78600000D02*
X103000000Y-77500000D01*
X103000000Y-77500000D02*
X96500000Y-77500000D01*
%TO.N,Net-(U1-GPIO9)*%
X104000000Y-77000000D02*
X103500000Y-76500000D01*
X104925000Y-77000000D02*
X104000000Y-77000000D01*
X103500000Y-76500000D02*
X98000000Y-76500000D01*
%TO.N,/SDA*%
X103900000Y-79400000D02*
X103500000Y-79000000D01*
X104925000Y-79400000D02*
X103900000Y-79400000D01*
%TO.N,/HX711_DOUT*%
X94500000Y-88500000D02*
X94500000Y-95000000D01*
%TO.N,Net-(J3-Pin_4)*%
X101325000Y-90525000D02*
X101325000Y-92175000D01*
%TO.N,Net-(J3-Pin_3)*%
X100799000Y-88299000D02*
X100055000Y-89043000D01*
X100055000Y-89043000D02*
X100055000Y-90525000D01*
%TO.N,+3.3V*%
X96500000Y-70500000D02*
X96500000Y-71955000D01*
X96500000Y-71955000D02*
X96525000Y-71980000D01*
%TO.N,/HX711_DOUT*%
X103500000Y-93500000D02*
X103865000Y-93865000D01*
X103865000Y-93865000D02*
X103865000Y-95475000D01*
%TO.N,/HX711_SCK*%
X102595000Y-95475000D02*
X102595000Y-96905000D01*
X95500000Y-88500000D02*
X96500000Y-88500000D01*
X102595000Y-96905000D02*
X102500000Y-97000000D01*
X102500000Y-97000000D02*
X97500000Y-97000000D01*
X97500000Y-97000000D02*
X95000000Y-94500000D01*
X95000000Y-94500000D02*
X95000000Y-89000000D01*
X95000000Y-89000000D02*
X95500000Y-88500000D01*
%TO.N,/HX711_DOUT*%
X99225000Y-86275000D02*
X100000000Y-85500000D01*
X99225000Y-86900000D02*
X99225000Y-86275000D01*
%TO.N,/HX711_SCK*%
X98500000Y-88500000D02*
X99025000Y-88500000D01*
X99025000Y-88500000D02*
X100025000Y-87500000D01*
X100025000Y-87500000D02*
X100025000Y-86900000D01*
%TO.N,+3.3V*%
X98125000Y-89875000D02*
X97625000Y-89875000D01*
%TO.N,Net-(J1-D+-PadA6)*%
X102500000Y-71500000D02*
X102020000Y-71980000D01*
X102020000Y-71980000D02*
X100525000Y-71980000D01*
%TO.N,Net-(J1-D--PadA7)*%
X108000000Y-72000000D02*
X107500000Y-72000000D01*
X107500000Y-72000000D02*
X107480000Y-71980000D01*
X107480000Y-71980000D02*
X105025000Y-71980000D01*
%TO.N,GND*%
X109985000Y-73500000D02*
X109985000Y-70515000D01*
X109985000Y-70515000D02*
X110000000Y-70500000D01*
X110000000Y-70500000D02*
X104500000Y-70500000D01*
X104500000Y-70500000D02*
X103750000Y-69750000D01*
X103750000Y-69750000D02*
X103750000Y-67025000D01*
%TO.N,Net-(J1-D+-PadA6)*%
X120500000Y-80000000D02*
X120000000Y-79500000D01*
%TO.N,Net-(J1-D--PadA7)*%
X120500000Y-80500000D02*
X119500000Y-80500000D01*
%TO.N,/SCL*%
X106500000Y-78000000D02*
X106500000Y-76000000D01*
X104925000Y-78600000D02*
X105900000Y-78600000D01*
X105900000Y-78600000D02*
X106500000Y-78000000D01*
X106500000Y-76000000D02*
X107500000Y-75000000D01*
X107500000Y-75000000D02*
X108005000Y-75000000D01*
%TO.N,/SDA*%
X104925000Y-79400000D02*
X107105000Y-79400000D01*
X107105000Y-79400000D02*
X108005000Y-78500000D01*
%TO.N,Net-(J1-D+-PadA6)*%
X129000000Y-80000000D02*
X120500000Y-80000000D01*
X129500000Y-80500000D02*
X129000000Y-80000000D01*
X140455000Y-80750000D02*
X139250000Y-80750000D01*
X139250000Y-80750000D02*
X139000000Y-80500000D01*
X139000000Y-80500000D02*
X129500000Y-80500000D01*
%TO.N,Net-(J1-D--PadA7)*%
X138500000Y-81000000D02*
X129000000Y-81000000D01*
X128500000Y-80500000D02*
X120500000Y-80500000D01*
X139000000Y-81500000D02*
X138500000Y-81000000D01*
X129000000Y-81000000D02*
X128500000Y-80500000D01*
%TO.N,Net-(U5-CE)*%
X140455000Y-79050000D02*
X141380000Y-79050000D01*
X141380000Y-79050000D02*
X142500000Y-80170000D01*
X142500000Y-80170000D02*
X142500000Y-83000000D01*
X142500000Y-83000000D02*
X142333992Y-83000000D01*
X142333992Y-83000000D02*
X141383992Y-83950000D01*
X141383992Y-83950000D02*
X140455000Y-83950000D01*
%TO.N,Net-(J1-D--PadA7)*%
X139000000Y-81500000D02*
X139000000Y-82000000D01*
X140455000Y-81250000D02*
X139250000Y-81250000D01*
X139250000Y-81250000D02*
X139000000Y-81500000D01*
X139000000Y-82000000D02*
X139250000Y-82250000D01*
X139250000Y-82250000D02*
X140455000Y-82250000D01*
%TO.N,Net-(J1-D+-PadA6)*%
X142000000Y-81500000D02*
X142000000Y-81000000D01*
X140455000Y-81750000D02*
X141750000Y-81750000D01*
X141750000Y-81750000D02*
X142000000Y-81500000D01*
X142000000Y-81000000D02*
X141750000Y-80750000D01*
X141750000Y-80750000D02*
X140455000Y-80750000D01*
%TO.N,+3.3V*%
X114450000Y-79050000D02*
X114500000Y-79000000D01*
X112025000Y-79050000D02*
X114450000Y-79050000D01*
X122437500Y-78500000D02*
X125950000Y-78500000D01*
X125950000Y-78500000D02*
X126000000Y-78450000D01*
X118500000Y-79000000D02*
X119000000Y-78500000D01*
X131500000Y-85000000D02*
X119000000Y-85000000D01*
X131450000Y-82450000D02*
X131500000Y-82500000D01*
X119000000Y-85000000D02*
X118500000Y-84500000D01*
X118500000Y-84500000D02*
X118500000Y-79000000D01*
X127875000Y-82450000D02*
X131450000Y-82450000D01*
X131500000Y-82500000D02*
X131500000Y-85000000D01*
X119000000Y-78500000D02*
X122437500Y-78500000D01*
%TO.N,+BATT*%
X131490000Y-67567500D02*
X131490000Y-66010000D01*
X131490000Y-66010000D02*
X131500000Y-66000000D01*
X132562500Y-73500000D02*
X132562500Y-72562500D01*
X132562500Y-72562500D02*
X131890000Y-71890000D01*
X131890000Y-71890000D02*
X131890000Y-70542500D01*
%TO.N,GND*%
X132945000Y-69055000D02*
X133500000Y-68500000D01*
X133500000Y-64000000D02*
X132000000Y-64000000D01*
X131090000Y-69055000D02*
X132945000Y-69055000D01*
X133500000Y-68500000D02*
X133500000Y-64000000D01*
X126990000Y-71000000D02*
X126990000Y-75560000D01*
X126990000Y-75560000D02*
X126000000Y-76550000D01*
%TO.N,Net-(U4-TH)*%
X129890000Y-70542500D02*
X129432500Y-71000000D01*
X129432500Y-71000000D02*
X128010000Y-71000000D01*
%TO.N,GND*%
X126990000Y-71000000D02*
X128935000Y-69055000D01*
X128935000Y-69055000D02*
X131090000Y-69055000D01*
%TO.N,Net-(U4-SW)*%
X130437500Y-73500000D02*
X130437500Y-72062500D01*
X130437500Y-72062500D02*
X130690000Y-71810000D01*
X130690000Y-71810000D02*
X130690000Y-70542500D01*
%TO.N,+BATT*%
X137000000Y-88500000D02*
X130500000Y-88500000D01*
X130500000Y-87500000D02*
X130500000Y-88500000D01*
X130500000Y-83500000D02*
X130000000Y-83500000D01*
X130000000Y-83500000D02*
X129900000Y-83400000D01*
X129900000Y-83400000D02*
X126000000Y-83400000D01*
X132562500Y-73500000D02*
X136500000Y-73500000D01*
X136905000Y-66095000D02*
X136500000Y-66500000D01*
X138725000Y-66095000D02*
X136905000Y-66095000D01*
%TO.N,Net-(U5-CE)*%
X143675000Y-66095000D02*
X144905000Y-66095000D01*
X144905000Y-66095000D02*
X145500000Y-65500000D01*
X135500000Y-66000000D02*
X135500000Y-69000000D01*
X145500000Y-65500000D02*
X144500000Y-64500000D01*
X144500000Y-64500000D02*
X137000000Y-64500000D01*
X137000000Y-64500000D02*
X135500000Y-66000000D01*
X135500000Y-69000000D02*
X136405000Y-69905000D01*
X136405000Y-69905000D02*
X138725000Y-69905000D01*
%TO.N,GND*%
X132480000Y-65000000D02*
X132480000Y-67377500D01*
X132480000Y-67377500D02*
X132290000Y-67567500D01*
%TO.N,Net-(J1-CC2)*%
X140455000Y-79750000D02*
X137750000Y-79750000D01*
X137750000Y-79750000D02*
X137000000Y-79000000D01*
%TO.N,Net-(J1-CC1)*%
X137000000Y-83000000D02*
X137250000Y-82750000D01*
X137250000Y-82750000D02*
X140455000Y-82750000D01*
%TO.N,GND*%
X126000000Y-81500000D02*
X135500000Y-81500000D01*
X138750000Y-84750000D02*
X138000000Y-84000000D01*
X138000000Y-84000000D02*
X136000000Y-84000000D01*
X136000000Y-84000000D02*
X135500000Y-83500000D01*
X135500000Y-83500000D02*
X135500000Y-81500000D01*
%TO.N,+BATT*%
X126000000Y-83400000D02*
X122887500Y-83400000D01*
X122887500Y-83400000D02*
X122437500Y-82950000D01*
%TO.N,GND*%
X126000000Y-81500000D02*
X122927500Y-81500000D01*
X122927500Y-81500000D02*
X122437500Y-81990000D01*
%TO.N,+BATT*%
X130500000Y-88500000D02*
X126537500Y-88500000D01*
X126537500Y-88500000D02*
X126437500Y-88400000D01*
X142500000Y-89000000D02*
X142000000Y-88500000D01*
X142500000Y-94000000D02*
X142500000Y-89000000D01*
X142000000Y-88500000D02*
X137000000Y-88500000D01*
%TO.N,Net-(U5-CE)*%
X138500000Y-73500000D02*
X138500000Y-71500000D01*
X138500000Y-71500000D02*
X138725000Y-71275000D01*
X138725000Y-71275000D02*
X138725000Y-69905000D01*
X138550000Y-79050000D02*
X138500000Y-79000000D01*
X140455000Y-79050000D02*
X138550000Y-79050000D01*
%TO.N,Net-(U5-PROG)*%
X143675000Y-68635000D02*
X146885000Y-68635000D01*
X146885000Y-68635000D02*
X147000000Y-68520000D01*
%TO.N,GND*%
X143675000Y-67365000D02*
X146865000Y-67365000D01*
X146865000Y-67365000D02*
X147000000Y-67500000D01*
%TO.N,Net-(U1-EN{slash}CHIP_PU)*%
X101500000Y-85500000D02*
X101500000Y-86775000D01*
X101500000Y-86775000D02*
X101625000Y-86900000D01*
X110010000Y-83990000D02*
X110000000Y-84000000D01*
X112025000Y-83990000D02*
X110010000Y-83990000D01*
%TO.N,+3.3V*%
X111500000Y-95500000D02*
X110500000Y-95500000D01*
X112000000Y-95000000D02*
X111500000Y-95500000D01*
X110500000Y-95500000D02*
X110475000Y-95475000D01*
X110475000Y-95475000D02*
X108945000Y-95475000D01*
%TO.N,GND*%
X97000000Y-95500000D02*
X96000000Y-94500000D01*
X100055000Y-95475000D02*
X97025000Y-95475000D01*
X97025000Y-95475000D02*
X97000000Y-95500000D01*
X96000000Y-94500000D02*
X96000000Y-91500000D01*
%TO.N,+3.3V*%
X108000000Y-87500000D02*
X108000000Y-86065000D01*
X108000000Y-86065000D02*
X108065000Y-86000000D01*
X112025000Y-87500000D02*
X112025000Y-85010000D01*
%TO.N,Net-(U1-GPIO19{slash}USB_D+)*%
X102000000Y-73000000D02*
X102500000Y-73500000D01*
X100525000Y-73000000D02*
X102000000Y-73000000D01*
X102500000Y-73500000D02*
X102425000Y-73575000D01*
X102425000Y-73575000D02*
X102425000Y-75100000D01*
%TO.N,Net-(U1-GPIO18{slash}USB_D-)*%
X105025000Y-73000000D02*
X104000000Y-73000000D01*
X103225000Y-73775000D02*
X103225000Y-75100000D01*
X104000000Y-73000000D02*
X103225000Y-73775000D01*
%TO.N,GND*%
X95075000Y-75050000D02*
X95075000Y-65425000D01*
%TO.N,+3.3V*%
X96000000Y-90540000D02*
X96960000Y-90540000D01*
X96960000Y-90540000D02*
X97625000Y-89875000D01*
X97625000Y-89875000D02*
X97625000Y-86900000D01*
X106405000Y-90525000D02*
X106405000Y-89595000D01*
X106405000Y-89595000D02*
X107000000Y-89000000D01*
X107000000Y-89000000D02*
X111000000Y-89000000D01*
X111000000Y-89000000D02*
X112025000Y-87975000D01*
X112025000Y-87975000D02*
X112025000Y-87500000D01*
X105135000Y-90525000D02*
X106405000Y-90525000D01*
X108065000Y-86000000D02*
X108065000Y-82000000D01*
X108065000Y-82000000D02*
X108065000Y-80935000D01*
X108065000Y-80935000D02*
X109025000Y-79975000D01*
X109025000Y-79975000D02*
X109025000Y-78500000D01*
X110500000Y-77525000D02*
X110500000Y-75500000D01*
X112025000Y-79050000D02*
X110500000Y-77525000D01*
X110500000Y-75500000D02*
X110000000Y-75000000D01*
X110000000Y-75000000D02*
X109025000Y-75000000D01*
X109025000Y-78500000D02*
X111475000Y-78500000D01*
X111475000Y-78500000D02*
X112025000Y-79050000D01*
%TO.N,Net-(U1-EN{slash}CHIP_PU)*%
X115500000Y-77500000D02*
X114500000Y-76500000D01*
X115500000Y-84000000D02*
X115500000Y-77500000D01*
X118500000Y-87000000D02*
X115500000Y-84000000D01*
X114500000Y-76500000D02*
X112025000Y-76500000D01*
X118500000Y-88000000D02*
X118500000Y-87000000D01*
X115500000Y-84000000D02*
X115490000Y-83990000D01*
X115490000Y-83990000D02*
X112025000Y-83990000D01*
%TO.N,GND*%
X118500000Y-94000000D02*
X122500000Y-94000000D01*
X122500000Y-94000000D02*
X123500000Y-93000000D01*
X123500000Y-93000000D02*
X123500000Y-87500000D01*
X123500000Y-87500000D02*
X124500000Y-86500000D01*
X124500000Y-86500000D02*
X126437500Y-86500000D01*
X104975000Y-75025000D02*
X106500000Y-73500000D01*
X104975000Y-75050000D02*
X104975000Y-75025000D01*
X106500000Y-73500000D02*
X109985000Y-73500000D01*
X109985000Y-73500000D02*
X112025000Y-75540000D01*
X112025000Y-75540000D02*
X122040000Y-75540000D01*
X122040000Y-75540000D02*
X123000000Y-76500000D01*
X118500000Y-94000000D02*
X107850000Y-94000000D01*
X107850000Y-94000000D02*
X107675000Y-94175000D01*
X107675000Y-95475000D02*
X107675000Y-94175000D01*
X107675000Y-94175000D02*
X106000000Y-92500000D01*
X106000000Y-92500000D02*
X104500000Y-92500000D01*
X104500000Y-92500000D02*
X103865000Y-91865000D01*
X103865000Y-91865000D02*
X103865000Y-90525000D01*
X103865000Y-90525000D02*
X103865000Y-89085000D01*
X103865000Y-89085000D02*
X104975000Y-87975000D01*
X101325000Y-95475000D02*
X101325000Y-94175000D01*
X101325000Y-94175000D02*
X103865000Y-91635000D01*
X103865000Y-91635000D02*
X103865000Y-90525000D01*
X100055000Y-95475000D02*
X101325000Y-95475000D01*
X126437500Y-86500000D02*
X136900000Y-86500000D01*
X136900000Y-86500000D02*
X137000000Y-86400000D01*
X135500000Y-81500000D02*
X136520000Y-81500000D01*
X136520000Y-81500000D02*
X137000000Y-81980000D01*
X126000000Y-76550000D02*
X136050000Y-76550000D01*
X136050000Y-76550000D02*
X137000000Y-77500000D01*
X137000000Y-77500000D02*
X137000000Y-77980000D01*
X122437500Y-77062500D02*
X123000000Y-76500000D01*
X122437500Y-77540000D02*
X122437500Y-77062500D01*
X123000000Y-76500000D02*
X123050000Y-76550000D01*
X123050000Y-76550000D02*
X126000000Y-76550000D01*
X137000000Y-86400000D02*
X137100000Y-86400000D01*
X137100000Y-86400000D02*
X138750000Y-84750000D01*
X145550000Y-85820000D02*
X145550000Y-92950000D01*
X145550000Y-92950000D02*
X144500000Y-94000000D01*
X138750000Y-84750000D02*
X140455000Y-84750000D01*
X137000000Y-77980000D02*
X140185000Y-77980000D01*
X140185000Y-77980000D02*
X140455000Y-78250000D01*
X145550000Y-85820000D02*
X145550000Y-77180000D01*
X141370000Y-85820000D02*
X145550000Y-85820000D01*
X140455000Y-84750000D02*
X140455000Y-84905000D01*
X140455000Y-84905000D02*
X141370000Y-85820000D01*
X140455000Y-78250000D02*
X140455000Y-78095000D01*
X140455000Y-78095000D02*
X141370000Y-77180000D01*
X145550000Y-77180000D02*
X141370000Y-77180000D01*
X147000000Y-67500000D02*
X147500000Y-67500000D01*
X147500000Y-67500000D02*
X148000000Y-68000000D01*
X148000000Y-68000000D02*
X148000000Y-74730000D01*
X148000000Y-74730000D02*
X145550000Y-77180000D01*
X147000000Y-65000000D02*
X146000000Y-64000000D01*
X147000000Y-67500000D02*
X147000000Y-65000000D01*
X146000000Y-64000000D02*
X133500000Y-64000000D01*
X132480000Y-65000000D02*
X132480000Y-64480000D01*
X132480000Y-64480000D02*
X132000000Y-64000000D01*
X132000000Y-64000000D02*
X120500000Y-64000000D01*
X120500000Y-64000000D02*
X118500000Y-66000000D01*
X103000000Y-65000000D02*
X117500000Y-65000000D01*
X117500000Y-65000000D02*
X118500000Y-66000000D01*
X95075000Y-65425000D02*
X95500000Y-65000000D01*
X95500000Y-65000000D02*
X103000000Y-65000000D01*
X103000000Y-65000000D02*
X103750000Y-65750000D01*
X103750000Y-65750000D02*
X103750000Y-67025000D01*
X109025000Y-86000000D02*
X109025000Y-87975000D01*
X109025000Y-87975000D02*
X108500000Y-88500000D01*
X108500000Y-88500000D02*
X105500000Y-88500000D01*
X105500000Y-88500000D02*
X104975000Y-87975000D01*
X104975000Y-87975000D02*
X104975000Y-86950000D01*
X109025000Y-82000000D02*
X109025000Y-86000000D01*
X112025000Y-80950000D02*
X110075000Y-80950000D01*
X110075000Y-80950000D02*
X109025000Y-82000000D01*
X95125000Y-85800000D02*
X96000000Y-85800000D01*
X96025000Y-86900000D02*
X96025000Y-85825000D01*
X96025000Y-85825000D02*
X96000000Y-85800000D01*
X96000000Y-85800000D02*
X97000000Y-85800000D01*
X96825000Y-86900000D02*
X96825000Y-85975000D01*
X96825000Y-85975000D02*
X97000000Y-85800000D01*
X95125000Y-85800000D02*
X95125000Y-75100000D01*
X95125000Y-75100000D02*
X95075000Y-75050000D01*
X104025000Y-86025000D02*
X102250000Y-84250000D01*
X104925000Y-84200000D02*
X102300000Y-84200000D01*
X102300000Y-84200000D02*
X102250000Y-84250000D01*
X104025000Y-86900000D02*
X104025000Y-86025000D01*
X102250000Y-84250000D02*
X102000000Y-84000000D01*
X102000000Y-84000000D02*
X102000000Y-82975000D01*
X104975000Y-86950000D02*
X104075000Y-86950000D01*
X104075000Y-86950000D02*
X104025000Y-86900000D01*
X97000000Y-85800000D02*
X98700000Y-85800000D01*
X98700000Y-85800000D02*
X100025000Y-84475000D01*
X100025000Y-84475000D02*
X100025000Y-82975000D01*
X95075000Y-86950000D02*
X95075000Y-85850000D01*
X95075000Y-85850000D02*
X95125000Y-85800000D01*
X100025000Y-82975000D02*
X98050000Y-82975000D01*
X102000000Y-82975000D02*
X100025000Y-82975000D01*
X100025000Y-81000000D02*
X98050000Y-81000000D01*
X102000000Y-81000000D02*
X100025000Y-81000000D01*
X100025000Y-79025000D02*
X98050000Y-79025000D01*
X102000000Y-79025000D02*
X100025000Y-79025000D01*
%TD*%
%TA.AperFunction,Conductor*%
%TO.N,GND*%
G36*
X121826591Y-81101172D02*
G01*
X121828906Y-81100585D01*
X121859961Y-81110970D01*
X121891341Y-81120185D01*
X121892902Y-81121987D01*
X121895168Y-81122745D01*
X121915675Y-81148268D01*
X121937096Y-81172989D01*
X121937435Y-81175350D01*
X121938931Y-81177212D01*
X121942382Y-81209755D01*
X121947040Y-81242147D01*
X121946048Y-81244318D01*
X121946300Y-81246692D01*
X121931608Y-81275936D01*
X121918015Y-81305703D01*
X121915674Y-81307656D01*
X121914936Y-81309126D01*
X121887422Y-81331232D01*
X121872127Y-81340276D01*
X121872116Y-81340285D01*
X121757785Y-81454616D01*
X121757778Y-81454625D01*
X121675468Y-81593804D01*
X121632996Y-81740000D01*
X123242004Y-81740000D01*
X123199531Y-81593804D01*
X123117221Y-81454625D01*
X123117214Y-81454616D01*
X123002883Y-81340285D01*
X123002872Y-81340276D01*
X122987578Y-81331232D01*
X122939894Y-81280164D01*
X122927390Y-81211422D01*
X122954035Y-81146833D01*
X123011370Y-81106902D01*
X123050698Y-81100500D01*
X124643551Y-81100500D01*
X124710590Y-81120185D01*
X124756345Y-81172989D01*
X124766289Y-81242147D01*
X124765533Y-81246777D01*
X124765400Y-81247503D01*
X124765204Y-81249998D01*
X124765205Y-81250000D01*
X127234795Y-81250000D01*
X127234795Y-81249998D01*
X127234599Y-81247503D01*
X127234467Y-81246777D01*
X127234510Y-81246366D01*
X127234103Y-81241191D01*
X127235063Y-81241115D01*
X127241787Y-81177292D01*
X127285511Y-81122795D01*
X127351758Y-81100589D01*
X127356449Y-81100500D01*
X128199903Y-81100500D01*
X128266942Y-81120185D01*
X128287584Y-81136819D01*
X128588583Y-81437819D01*
X128622068Y-81499142D01*
X128617084Y-81568834D01*
X128575212Y-81624767D01*
X128509748Y-81649184D01*
X128500902Y-81649500D01*
X127221798Y-81649500D01*
X127184932Y-81652401D01*
X127184926Y-81652402D01*
X127027106Y-81698254D01*
X127027103Y-81698255D01*
X126968806Y-81732732D01*
X126905685Y-81750000D01*
X126250000Y-81750000D01*
X126250000Y-82300000D01*
X126513000Y-82300000D01*
X126521685Y-82302550D01*
X126530647Y-82301262D01*
X126554687Y-82312240D01*
X126580039Y-82319685D01*
X126585966Y-82326525D01*
X126594203Y-82330287D01*
X126608492Y-82352521D01*
X126625794Y-82372489D01*
X126628081Y-82383003D01*
X126631977Y-82389065D01*
X126637000Y-82424000D01*
X126637000Y-82475500D01*
X126617315Y-82542539D01*
X126564511Y-82588294D01*
X126513000Y-82599500D01*
X125346798Y-82599500D01*
X125309932Y-82602401D01*
X125309926Y-82602402D01*
X125152106Y-82648254D01*
X125152103Y-82648255D01*
X125010637Y-82731917D01*
X125010629Y-82731923D01*
X124979374Y-82763180D01*
X124918052Y-82796666D01*
X124891692Y-82799500D01*
X123364536Y-82799500D01*
X123341647Y-82792779D01*
X123317911Y-82790400D01*
X123308736Y-82783115D01*
X123297497Y-82779815D01*
X123281876Y-82761788D01*
X123263193Y-82746953D01*
X123255916Y-82731828D01*
X123251742Y-82727011D01*
X123247167Y-82715507D01*
X123245200Y-82709737D01*
X123245143Y-82709007D01*
X123199994Y-82553605D01*
X123181077Y-82521618D01*
X123176952Y-82509516D01*
X123175979Y-82486876D01*
X123170406Y-82464909D01*
X123174446Y-82451150D01*
X123173955Y-82439711D01*
X123181703Y-82426433D01*
X123187591Y-82406384D01*
X123199532Y-82386194D01*
X123242004Y-82240000D01*
X122935852Y-82240000D01*
X122872733Y-82222732D01*
X122863895Y-82217506D01*
X122863893Y-82217505D01*
X122863889Y-82217503D01*
X122708497Y-82172357D01*
X122708491Y-82172356D01*
X122672197Y-82169500D01*
X122672190Y-82169500D01*
X122202810Y-82169500D01*
X122202802Y-82169500D01*
X122166508Y-82172356D01*
X122166502Y-82172357D01*
X122011110Y-82217503D01*
X122011105Y-82217506D01*
X122002266Y-82222732D01*
X121939148Y-82240000D01*
X121632996Y-82240000D01*
X121675468Y-82386194D01*
X121687411Y-82406389D01*
X121704592Y-82474113D01*
X121687411Y-82532628D01*
X121675006Y-82553604D01*
X121675004Y-82553609D01*
X121629857Y-82709002D01*
X121629856Y-82709008D01*
X121627000Y-82745302D01*
X121627000Y-83154697D01*
X121629856Y-83190991D01*
X121629857Y-83190997D01*
X121675004Y-83346390D01*
X121675005Y-83346393D01*
X121675006Y-83346395D01*
X121690531Y-83372646D01*
X121757381Y-83485684D01*
X121757387Y-83485692D01*
X121871807Y-83600112D01*
X121871811Y-83600115D01*
X121871813Y-83600117D01*
X122011105Y-83682494D01*
X122052087Y-83694400D01*
X122166502Y-83727642D01*
X122166505Y-83727642D01*
X122166507Y-83727643D01*
X122202810Y-83730500D01*
X122317401Y-83730500D01*
X122384440Y-83750185D01*
X122405082Y-83766818D01*
X122406979Y-83768715D01*
X122406980Y-83768716D01*
X122518784Y-83880520D01*
X122597439Y-83925931D01*
X122597440Y-83925932D01*
X122655709Y-83959574D01*
X122655710Y-83959574D01*
X122655715Y-83959577D01*
X122808443Y-84000500D01*
X122966557Y-84000500D01*
X124891692Y-84000500D01*
X124958731Y-84020185D01*
X124979374Y-84036820D01*
X125010629Y-84068076D01*
X125010633Y-84068079D01*
X125010635Y-84068081D01*
X125152102Y-84151744D01*
X125152103Y-84151744D01*
X125152104Y-84151745D01*
X125168209Y-84156424D01*
X125227094Y-84194030D01*
X125256300Y-84257503D01*
X125246554Y-84326690D01*
X125200950Y-84379624D01*
X125133966Y-84399499D01*
X125133613Y-84399500D01*
X119300098Y-84399500D01*
X119270657Y-84390855D01*
X119240671Y-84384332D01*
X119235655Y-84380577D01*
X119233059Y-84379815D01*
X119212417Y-84363181D01*
X119136819Y-84287583D01*
X119103334Y-84226260D01*
X119100500Y-84199902D01*
X119100500Y-81750001D01*
X124765204Y-81750001D01*
X124765399Y-81752486D01*
X124811218Y-81910198D01*
X124894814Y-82051552D01*
X124894821Y-82051561D01*
X125010938Y-82167678D01*
X125010947Y-82167685D01*
X125152303Y-82251282D01*
X125152306Y-82251283D01*
X125310004Y-82297099D01*
X125310010Y-82297100D01*
X125346850Y-82299999D01*
X125346866Y-82300000D01*
X125750000Y-82300000D01*
X125750000Y-81750000D01*
X124765205Y-81750000D01*
X124765204Y-81750001D01*
X119100500Y-81750001D01*
X119100500Y-81489770D01*
X119120185Y-81422731D01*
X119172989Y-81376976D01*
X119242147Y-81367032D01*
X119248682Y-81368151D01*
X119276291Y-81373643D01*
X119411306Y-81400500D01*
X119411309Y-81400500D01*
X119588693Y-81400500D01*
X119588694Y-81400499D01*
X119668143Y-81384696D01*
X119762658Y-81365896D01*
X119762661Y-81365894D01*
X119762666Y-81365894D01*
X119903940Y-81307377D01*
X119926540Y-81298016D01*
X119926540Y-81298015D01*
X119926547Y-81298013D01*
X120074035Y-81199464D01*
X120136681Y-81136817D01*
X120198002Y-81103334D01*
X120224361Y-81100500D01*
X120420943Y-81100500D01*
X121824302Y-81100500D01*
X121826591Y-81101172D01*
G37*
%TD.AperFunction*%
%TA.AperFunction,Conductor*%
G36*
X148642539Y-62820185D02*
G01*
X148688294Y-62872989D01*
X148699500Y-62924500D01*
X148699500Y-97075500D01*
X148679815Y-97142539D01*
X148627011Y-97188294D01*
X148575500Y-97199500D01*
X103299372Y-97199500D01*
X103232333Y-97179815D01*
X103186578Y-97127011D01*
X103176634Y-97057853D01*
X103179594Y-97043418D01*
X103195500Y-96984058D01*
X103195500Y-96965906D01*
X103215185Y-96898867D01*
X103267989Y-96853112D01*
X103337147Y-96843168D01*
X103382617Y-96859172D01*
X103454602Y-96901744D01*
X103496224Y-96913836D01*
X103612426Y-96947597D01*
X103612429Y-96947597D01*
X103612431Y-96947598D01*
X103649306Y-96950500D01*
X103649314Y-96950500D01*
X104080686Y-96950500D01*
X104080694Y-96950500D01*
X104117569Y-96947598D01*
X104117571Y-96947597D01*
X104117573Y-96947597D01*
X104159191Y-96935505D01*
X104275398Y-96901744D01*
X104416865Y-96818081D01*
X104416870Y-96818075D01*
X104423031Y-96813298D01*
X104424933Y-96815750D01*
X104473579Y-96789155D01*
X104543274Y-96794104D01*
X104575695Y-96814940D01*
X104576969Y-96813298D01*
X104583132Y-96818078D01*
X104583135Y-96818081D01*
X104724602Y-96901744D01*
X104766224Y-96913836D01*
X104882426Y-96947597D01*
X104882429Y-96947597D01*
X104882431Y-96947598D01*
X104919306Y-96950500D01*
X104919314Y-96950500D01*
X105350686Y-96950500D01*
X105350694Y-96950500D01*
X105387569Y-96947598D01*
X105387571Y-96947597D01*
X105387573Y-96947597D01*
X105429191Y-96935505D01*
X105545398Y-96901744D01*
X105686865Y-96818081D01*
X105686870Y-96818075D01*
X105693031Y-96813298D01*
X105694933Y-96815750D01*
X105743579Y-96789155D01*
X105813274Y-96794104D01*
X105845695Y-96814940D01*
X105846969Y-96813298D01*
X105853132Y-96818078D01*
X105853135Y-96818081D01*
X105994602Y-96901744D01*
X106036224Y-96913836D01*
X106152426Y-96947597D01*
X106152429Y-96947597D01*
X106152431Y-96947598D01*
X106189306Y-96950500D01*
X106189314Y-96950500D01*
X106620686Y-96950500D01*
X106620694Y-96950500D01*
X106657569Y-96947598D01*
X106657571Y-96947597D01*
X106657573Y-96947597D01*
X106699191Y-96935505D01*
X106815398Y-96901744D01*
X106956865Y-96818081D01*
X106956870Y-96818076D01*
X106963026Y-96813301D01*
X106964839Y-96815638D01*
X107013949Y-96788798D01*
X107083643Y-96793756D01*
X107115996Y-96814551D01*
X107117278Y-96812900D01*
X107123447Y-96817685D01*
X107264801Y-96901281D01*
X107422514Y-96947100D01*
X107422511Y-96947100D01*
X107424998Y-96947295D01*
X107425000Y-96947295D01*
X107425000Y-94002703D01*
X107925000Y-94002703D01*
X107925000Y-96947295D01*
X107925001Y-96947295D01*
X107927486Y-96947100D01*
X108085198Y-96901281D01*
X108226550Y-96817686D01*
X108232717Y-96812903D01*
X108234630Y-96815369D01*
X108283222Y-96788802D01*
X108352917Y-96793749D01*
X108385762Y-96814853D01*
X108386969Y-96813298D01*
X108393132Y-96818078D01*
X108393135Y-96818081D01*
X108534602Y-96901744D01*
X108576224Y-96913836D01*
X108692426Y-96947597D01*
X108692429Y-96947597D01*
X108692431Y-96947598D01*
X108729306Y-96950500D01*
X108729314Y-96950500D01*
X109160686Y-96950500D01*
X109160694Y-96950500D01*
X109197569Y-96947598D01*
X109197571Y-96947597D01*
X109197573Y-96947597D01*
X109239191Y-96935505D01*
X109355398Y-96901744D01*
X109496865Y-96818081D01*
X109613081Y-96701865D01*
X109696744Y-96560398D01*
X109742598Y-96402569D01*
X109745500Y-96365694D01*
X109745500Y-96199500D01*
X109765185Y-96132461D01*
X109817989Y-96086706D01*
X109869500Y-96075500D01*
X110311317Y-96075500D01*
X110343406Y-96079724D01*
X110348838Y-96081179D01*
X110380019Y-96089534D01*
X110420942Y-96100500D01*
X110420943Y-96100500D01*
X111413331Y-96100500D01*
X111413347Y-96100501D01*
X111420943Y-96100501D01*
X111579054Y-96100501D01*
X111579057Y-96100501D01*
X111731785Y-96059577D01*
X111781904Y-96030639D01*
X111868716Y-95980520D01*
X111919312Y-95929923D01*
X111927194Y-95924195D01*
X111951288Y-95915593D01*
X111973739Y-95903334D01*
X111990753Y-95901504D01*
X111992996Y-95900704D01*
X111994642Y-95901086D01*
X112000098Y-95900500D01*
X112088693Y-95900500D01*
X112088694Y-95900499D01*
X112146682Y-95888964D01*
X112262658Y-95865896D01*
X112262661Y-95865894D01*
X112262666Y-95865894D01*
X112426547Y-95798013D01*
X112574035Y-95699464D01*
X112699464Y-95574035D01*
X112798013Y-95426547D01*
X112824581Y-95362405D01*
X117491145Y-95362405D01*
X117627140Y-95433443D01*
X117822671Y-95489390D01*
X117822674Y-95489391D01*
X117941999Y-95499999D01*
X117942002Y-95500000D01*
X119057998Y-95500000D01*
X119058000Y-95499999D01*
X119177325Y-95489391D01*
X119177328Y-95489390D01*
X119372861Y-95433442D01*
X119508854Y-95362405D01*
X118500000Y-94353552D01*
X117491145Y-95362405D01*
X112824581Y-95362405D01*
X112852554Y-95294873D01*
X112862165Y-95271669D01*
X112862577Y-95270672D01*
X112865894Y-95262666D01*
X112873387Y-95225000D01*
X112899574Y-95093345D01*
X112900500Y-95088691D01*
X112900500Y-94911309D01*
X112900500Y-94911306D01*
X112900499Y-94911304D01*
X112865896Y-94737341D01*
X112865893Y-94737332D01*
X112798016Y-94573459D01*
X112798009Y-94573446D01*
X112699464Y-94425965D01*
X112699461Y-94425961D01*
X112574038Y-94300538D01*
X112574034Y-94300535D01*
X112426553Y-94201990D01*
X112426540Y-94201983D01*
X112262667Y-94134106D01*
X112262658Y-94134103D01*
X112088694Y-94099500D01*
X112088691Y-94099500D01*
X111911309Y-94099500D01*
X111911306Y-94099500D01*
X111737341Y-94134103D01*
X111737332Y-94134106D01*
X111573459Y-94201983D01*
X111573446Y-94201990D01*
X111425965Y-94300535D01*
X111425961Y-94300538D01*
X111300538Y-94425961D01*
X111300535Y-94425965D01*
X111201990Y-94573446D01*
X111201983Y-94573459D01*
X111134106Y-94737332D01*
X111134103Y-94737341D01*
X111121702Y-94799691D01*
X111089317Y-94861602D01*
X111028602Y-94896176D01*
X111000085Y-94899500D01*
X110663687Y-94899500D01*
X110631594Y-94895275D01*
X110598482Y-94886403D01*
X110554057Y-94874499D01*
X110395943Y-94874499D01*
X110388347Y-94874499D01*
X110388331Y-94874500D01*
X109869500Y-94874500D01*
X109802461Y-94854815D01*
X109756706Y-94802011D01*
X109745500Y-94750500D01*
X109745500Y-94584313D01*
X109745499Y-94584298D01*
X109743429Y-94557998D01*
X109742598Y-94547431D01*
X109738318Y-94532701D01*
X109696745Y-94389606D01*
X109696744Y-94389603D01*
X109696744Y-94389602D01*
X109613081Y-94248135D01*
X109613079Y-94248133D01*
X109613076Y-94248129D01*
X109496870Y-94131923D01*
X109496862Y-94131917D01*
X109410091Y-94080601D01*
X109355398Y-94048256D01*
X109355397Y-94048255D01*
X109355396Y-94048255D01*
X109355393Y-94048254D01*
X109197573Y-94002402D01*
X109197567Y-94002401D01*
X109160701Y-93999500D01*
X109160694Y-93999500D01*
X108729306Y-93999500D01*
X108729298Y-93999500D01*
X108692432Y-94002401D01*
X108692426Y-94002402D01*
X108534606Y-94048254D01*
X108534603Y-94048255D01*
X108393140Y-94131915D01*
X108386974Y-94136699D01*
X108385174Y-94134379D01*
X108335913Y-94161230D01*
X108266225Y-94156193D01*
X108233992Y-94135461D01*
X108232722Y-94137100D01*
X108226552Y-94132314D01*
X108085196Y-94048717D01*
X108085193Y-94048716D01*
X107927494Y-94002900D01*
X107927497Y-94002900D01*
X107925000Y-94002703D01*
X107425000Y-94002703D01*
X107422503Y-94002900D01*
X107264806Y-94048716D01*
X107264803Y-94048717D01*
X107123449Y-94132313D01*
X107117283Y-94137097D01*
X107115389Y-94134655D01*
X107066580Y-94161239D01*
X106996894Y-94156179D01*
X106964227Y-94135159D01*
X106963031Y-94136702D01*
X106956862Y-94131917D01*
X106870091Y-94080601D01*
X106815398Y-94048256D01*
X106815397Y-94048255D01*
X106815396Y-94048255D01*
X106815393Y-94048254D01*
X106657573Y-94002402D01*
X106657567Y-94002401D01*
X106620701Y-93999500D01*
X106620694Y-93999500D01*
X106189306Y-93999500D01*
X106189298Y-93999500D01*
X106152432Y-94002401D01*
X106152426Y-94002402D01*
X105994606Y-94048254D01*
X105994603Y-94048255D01*
X105853137Y-94131917D01*
X105846969Y-94136702D01*
X105845072Y-94134256D01*
X105796358Y-94160857D01*
X105726666Y-94155873D01*
X105694296Y-94135069D01*
X105693031Y-94136702D01*
X105686862Y-94131917D01*
X105600091Y-94080601D01*
X105545398Y-94048256D01*
X105545397Y-94048255D01*
X105545396Y-94048255D01*
X105545393Y-94048254D01*
X105387573Y-94002402D01*
X105387567Y-94002401D01*
X105350701Y-93999500D01*
X105350694Y-93999500D01*
X104919306Y-93999500D01*
X104919298Y-93999500D01*
X104882432Y-94002401D01*
X104882426Y-94002402D01*
X104724606Y-94048254D01*
X104724599Y-94048257D01*
X104652620Y-94090825D01*
X104646096Y-94092480D01*
X104641011Y-94096887D01*
X104612661Y-94100963D01*
X104584896Y-94108008D01*
X104578513Y-94105873D01*
X104571853Y-94106831D01*
X104545800Y-94094933D01*
X104518634Y-94085848D01*
X104514418Y-94080601D01*
X104508297Y-94077806D01*
X104492810Y-94053708D01*
X104474871Y-94031381D01*
X104473270Y-94023302D01*
X104470523Y-94019028D01*
X104465500Y-93984093D01*
X104465500Y-93954059D01*
X104465501Y-93954046D01*
X104465501Y-93785945D01*
X104465501Y-93785943D01*
X104424577Y-93633215D01*
X104424576Y-93633214D01*
X104424576Y-93633212D01*
X104424575Y-93633211D01*
X104417113Y-93620286D01*
X104412962Y-93604797D01*
X104405523Y-93593221D01*
X104400500Y-93558286D01*
X104400500Y-93441999D01*
X117000000Y-93441999D01*
X117000000Y-94558000D01*
X117010608Y-94677325D01*
X117010609Y-94677328D01*
X117066556Y-94872859D01*
X117137593Y-95008853D01*
X117137594Y-95008854D01*
X118146448Y-94000000D01*
X118146448Y-93999999D01*
X118853552Y-93999999D01*
X118853552Y-94000000D01*
X119862405Y-95008854D01*
X119933442Y-94872861D01*
X119989390Y-94677328D01*
X119989391Y-94677325D01*
X119999999Y-94558000D01*
X120000000Y-94557998D01*
X120000000Y-93442002D01*
X119999999Y-93441999D01*
X119989391Y-93322674D01*
X119989390Y-93322671D01*
X119933443Y-93127140D01*
X119862405Y-92991145D01*
X118853552Y-93999999D01*
X118146448Y-93999999D01*
X117137593Y-92991144D01*
X117137592Y-92991145D01*
X117066558Y-93127134D01*
X117066557Y-93127138D01*
X117010609Y-93322671D01*
X117010608Y-93322674D01*
X117000000Y-93441999D01*
X104400500Y-93441999D01*
X104400500Y-93411306D01*
X104400499Y-93411304D01*
X104365896Y-93237341D01*
X104365893Y-93237332D01*
X104298016Y-93073459D01*
X104298009Y-93073446D01*
X104199464Y-92925965D01*
X104199461Y-92925961D01*
X104074038Y-92800538D01*
X104074034Y-92800535D01*
X104049258Y-92783980D01*
X103926553Y-92701990D01*
X103926540Y-92701983D01*
X103771086Y-92637593D01*
X117491144Y-92637593D01*
X118500000Y-93646448D01*
X118500001Y-93646448D01*
X119508854Y-92637594D01*
X119508853Y-92637593D01*
X119372859Y-92566556D01*
X119177328Y-92510609D01*
X119177325Y-92510608D01*
X119058000Y-92500000D01*
X117941999Y-92500000D01*
X117822674Y-92510608D01*
X117822671Y-92510609D01*
X117627138Y-92566557D01*
X117627134Y-92566558D01*
X117491145Y-92637592D01*
X117491144Y-92637593D01*
X103771086Y-92637593D01*
X103762667Y-92634106D01*
X103762658Y-92634103D01*
X103588694Y-92599500D01*
X103588691Y-92599500D01*
X103411309Y-92599500D01*
X103411306Y-92599500D01*
X103237341Y-92634103D01*
X103237332Y-92634106D01*
X103073459Y-92701983D01*
X103073446Y-92701990D01*
X102925965Y-92800535D01*
X102925961Y-92800538D01*
X102800538Y-92925961D01*
X102800535Y-92925965D01*
X102701990Y-93073446D01*
X102701983Y-93073459D01*
X102634106Y-93237332D01*
X102634103Y-93237341D01*
X102599500Y-93411304D01*
X102599500Y-93588695D01*
X102634103Y-93762658D01*
X102634106Y-93762667D01*
X102661188Y-93828048D01*
X102668657Y-93897517D01*
X102637382Y-93959996D01*
X102577293Y-93995648D01*
X102546627Y-93999500D01*
X102379298Y-93999500D01*
X102342432Y-94002401D01*
X102342426Y-94002402D01*
X102184606Y-94048254D01*
X102184603Y-94048255D01*
X102043140Y-94131915D01*
X102036974Y-94136699D01*
X102035174Y-94134379D01*
X101985913Y-94161230D01*
X101916225Y-94156193D01*
X101883992Y-94135461D01*
X101882722Y-94137100D01*
X101876552Y-94132314D01*
X101735196Y-94048717D01*
X101735193Y-94048716D01*
X101577494Y-94002900D01*
X101577497Y-94002900D01*
X101575000Y-94002703D01*
X101575000Y-95351000D01*
X101555315Y-95418039D01*
X101502511Y-95463794D01*
X101451000Y-95475000D01*
X101325000Y-95475000D01*
X101325000Y-95601000D01*
X101305315Y-95668039D01*
X101252511Y-95713794D01*
X101201000Y-95725000D01*
X99255000Y-95725000D01*
X99255000Y-96275500D01*
X99235315Y-96342539D01*
X99182511Y-96388294D01*
X99131000Y-96399500D01*
X97800097Y-96399500D01*
X97733058Y-96379815D01*
X97712416Y-96363181D01*
X95933585Y-94584350D01*
X99255000Y-94584350D01*
X99255000Y-95225000D01*
X99805000Y-95225000D01*
X99805000Y-94002703D01*
X100305000Y-94002703D01*
X100305000Y-95225000D01*
X101075000Y-95225000D01*
X101075000Y-94002703D01*
X101072503Y-94002900D01*
X100914806Y-94048716D01*
X100914803Y-94048717D01*
X100773447Y-94132314D01*
X100767278Y-94137100D01*
X100765457Y-94134753D01*
X100716358Y-94161564D01*
X100646666Y-94156580D01*
X100613930Y-94135541D01*
X100612722Y-94137100D01*
X100606552Y-94132314D01*
X100465196Y-94048717D01*
X100465193Y-94048716D01*
X100307494Y-94002900D01*
X100307497Y-94002900D01*
X100305000Y-94002703D01*
X99805000Y-94002703D01*
X99802503Y-94002900D01*
X99644806Y-94048716D01*
X99644803Y-94048717D01*
X99503447Y-94132314D01*
X99503438Y-94132321D01*
X99387321Y-94248438D01*
X99387314Y-94248447D01*
X99303717Y-94389803D01*
X99303716Y-94389806D01*
X99257900Y-94547504D01*
X99257899Y-94547510D01*
X99255000Y-94584350D01*
X95933585Y-94584350D01*
X95636819Y-94287584D01*
X95603334Y-94226261D01*
X95600500Y-94199903D01*
X95600500Y-92401167D01*
X95620185Y-92334128D01*
X95672989Y-92288373D01*
X95734224Y-92277549D01*
X95750000Y-92278789D01*
X96250000Y-92278789D01*
X96270910Y-92277145D01*
X96426195Y-92232031D01*
X96565374Y-92149721D01*
X96565383Y-92149714D01*
X96679714Y-92035383D01*
X96679721Y-92035374D01*
X96762031Y-91896195D01*
X96804504Y-91750000D01*
X96250000Y-91750000D01*
X96250000Y-92278789D01*
X95750000Y-92278789D01*
X95750000Y-91624000D01*
X95769685Y-91556961D01*
X95822489Y-91511206D01*
X95874000Y-91500000D01*
X96000000Y-91500000D01*
X96000000Y-91444500D01*
X96019685Y-91377461D01*
X96072489Y-91331706D01*
X96124000Y-91320500D01*
X96234682Y-91320500D01*
X96234690Y-91320500D01*
X96270993Y-91317643D01*
X96270995Y-91317642D01*
X96270997Y-91317642D01*
X96426389Y-91272496D01*
X96426389Y-91272495D01*
X96426395Y-91272494D01*
X96435233Y-91267267D01*
X96498352Y-91250000D01*
X96804505Y-91250000D01*
X96818961Y-91230745D01*
X96818966Y-91229230D01*
X96856906Y-91170559D01*
X96920544Y-91141714D01*
X96937844Y-91140501D01*
X97039054Y-91140501D01*
X97039057Y-91140501D01*
X97191785Y-91099577D01*
X97241904Y-91070639D01*
X97328716Y-91020520D01*
X97440520Y-90908716D01*
X97440520Y-90908714D01*
X97450728Y-90898507D01*
X97450730Y-90898504D01*
X97624148Y-90725085D01*
X97685469Y-90691602D01*
X97755161Y-90696586D01*
X97759226Y-90698186D01*
X97862334Y-90740894D01*
X97862337Y-90740894D01*
X97862341Y-90740896D01*
X98036304Y-90775499D01*
X98036307Y-90775500D01*
X98036309Y-90775500D01*
X98213693Y-90775500D01*
X98213694Y-90775499D01*
X98271682Y-90763964D01*
X98387658Y-90740896D01*
X98387661Y-90740894D01*
X98387666Y-90740894D01*
X98551547Y-90673013D01*
X98699035Y-90574464D01*
X98824464Y-90449035D01*
X98923013Y-90301547D01*
X98990894Y-90137666D01*
X99008883Y-90047232D01*
X99041268Y-89985321D01*
X99101983Y-89950747D01*
X99171753Y-89954486D01*
X99228425Y-89995353D01*
X99254006Y-90060371D01*
X99254500Y-90071423D01*
X99254500Y-91415701D01*
X99257401Y-91452567D01*
X99257402Y-91452573D01*
X99303254Y-91610393D01*
X99303255Y-91610396D01*
X99386917Y-91751862D01*
X99386923Y-91751870D01*
X99503129Y-91868076D01*
X99503133Y-91868079D01*
X99503135Y-91868081D01*
X99644602Y-91951744D01*
X99659599Y-91956101D01*
X99802426Y-91997597D01*
X99802429Y-91997597D01*
X99802431Y-91997598D01*
X99839306Y-92000500D01*
X99839314Y-92000500D01*
X100270686Y-92000500D01*
X100270694Y-92000500D01*
X100290768Y-91998920D01*
X100359144Y-92013281D01*
X100408903Y-92062331D01*
X100424500Y-92122537D01*
X100424500Y-92263695D01*
X100459103Y-92437658D01*
X100459106Y-92437667D01*
X100526983Y-92601540D01*
X100526990Y-92601553D01*
X100625535Y-92749034D01*
X100625538Y-92749038D01*
X100750961Y-92874461D01*
X100750965Y-92874464D01*
X100898446Y-92973009D01*
X100898459Y-92973016D01*
X101021363Y-93023923D01*
X101062334Y-93040894D01*
X101062336Y-93040894D01*
X101062341Y-93040896D01*
X101236304Y-93075499D01*
X101236307Y-93075500D01*
X101236309Y-93075500D01*
X101413693Y-93075500D01*
X101413694Y-93075499D01*
X101512327Y-93055880D01*
X101587658Y-93040896D01*
X101587661Y-93040894D01*
X101587666Y-93040894D01*
X101751547Y-92973013D01*
X101899035Y-92874464D01*
X102024464Y-92749035D01*
X102123013Y-92601547D01*
X102190894Y-92437666D01*
X102225500Y-92263691D01*
X102225500Y-92122537D01*
X102245185Y-92055498D01*
X102297989Y-92009743D01*
X102359231Y-91998920D01*
X102379306Y-92000500D01*
X102379314Y-92000500D01*
X102810686Y-92000500D01*
X102810694Y-92000500D01*
X102847569Y-91997598D01*
X102847571Y-91997597D01*
X102847573Y-91997597D01*
X102889191Y-91985505D01*
X103005398Y-91951744D01*
X103146865Y-91868081D01*
X103146870Y-91868076D01*
X103153026Y-91863301D01*
X103154839Y-91865638D01*
X103203949Y-91838798D01*
X103273643Y-91843756D01*
X103305996Y-91864551D01*
X103307278Y-91862900D01*
X103313447Y-91867685D01*
X103454801Y-91951281D01*
X103612514Y-91997100D01*
X103612511Y-91997100D01*
X103614998Y-91997295D01*
X103615000Y-91997295D01*
X103615000Y-89052703D01*
X103612503Y-89052900D01*
X103454806Y-89098716D01*
X103454803Y-89098717D01*
X103313449Y-89182313D01*
X103307283Y-89187097D01*
X103305389Y-89184655D01*
X103256580Y-89211239D01*
X103186894Y-89206179D01*
X103154227Y-89185159D01*
X103153031Y-89186702D01*
X103146862Y-89181917D01*
X103068681Y-89135681D01*
X103005398Y-89098256D01*
X103005397Y-89098255D01*
X103005396Y-89098255D01*
X103005393Y-89098254D01*
X102847573Y-89052402D01*
X102847567Y-89052401D01*
X102810701Y-89049500D01*
X102810694Y-89049500D01*
X102379306Y-89049500D01*
X102379298Y-89049500D01*
X102342432Y-89052401D01*
X102342426Y-89052402D01*
X102184606Y-89098254D01*
X102184603Y-89098255D01*
X102043137Y-89181917D01*
X102036969Y-89186702D01*
X102035072Y-89184256D01*
X101986358Y-89210857D01*
X101916666Y-89205873D01*
X101884296Y-89185069D01*
X101883031Y-89186702D01*
X101876862Y-89181917D01*
X101798681Y-89135681D01*
X101735398Y-89098256D01*
X101735397Y-89098255D01*
X101735396Y-89098255D01*
X101735393Y-89098254D01*
X101573506Y-89051221D01*
X101514620Y-89013615D01*
X101485414Y-88950142D01*
X101495160Y-88880956D01*
X101504993Y-88863263D01*
X101597013Y-88725547D01*
X101664894Y-88561666D01*
X101665617Y-88558034D01*
X101699499Y-88387695D01*
X101699500Y-88387693D01*
X101699500Y-88210306D01*
X101699499Y-88210304D01*
X101664896Y-88036341D01*
X101664893Y-88036332D01*
X101657912Y-88019479D01*
X101638226Y-87971951D01*
X101630757Y-87902482D01*
X101662033Y-87840003D01*
X101722122Y-87804351D01*
X101752787Y-87800499D01*
X101872871Y-87800499D01*
X101872872Y-87800499D01*
X101932483Y-87794091D01*
X101981665Y-87775746D01*
X102051355Y-87770761D01*
X102068333Y-87775747D01*
X102117508Y-87794088D01*
X102117511Y-87794089D01*
X102117517Y-87794091D01*
X102177127Y-87800500D01*
X102672872Y-87800499D01*
X102732483Y-87794091D01*
X102781665Y-87775746D01*
X102851355Y-87770761D01*
X102868333Y-87775747D01*
X102917508Y-87794088D01*
X102917511Y-87794089D01*
X102917517Y-87794091D01*
X102977127Y-87800500D01*
X103472872Y-87800499D01*
X103532483Y-87794091D01*
X103582382Y-87775479D01*
X103652069Y-87770494D01*
X103669048Y-87775479D01*
X103717628Y-87793598D01*
X103717627Y-87793598D01*
X103777155Y-87799999D01*
X103777172Y-87800000D01*
X103825000Y-87800000D01*
X103825000Y-87642106D01*
X103844685Y-87575067D01*
X103849734Y-87567794D01*
X103857598Y-87557289D01*
X103868796Y-87542331D01*
X103868888Y-87542086D01*
X103897609Y-87465079D01*
X103919091Y-87407483D01*
X103925500Y-87347873D01*
X103925499Y-87023997D01*
X103928049Y-87015313D01*
X103926761Y-87006353D01*
X103937738Y-86982316D01*
X103945183Y-86956961D01*
X103952025Y-86951032D01*
X103955786Y-86942797D01*
X103978017Y-86928510D01*
X103997987Y-86911206D01*
X104008502Y-86908918D01*
X104014564Y-86905023D01*
X104049499Y-86900000D01*
X104101000Y-86900000D01*
X104168039Y-86919685D01*
X104213794Y-86972489D01*
X104225000Y-87024000D01*
X104225000Y-87800000D01*
X104272828Y-87800000D01*
X104272844Y-87799999D01*
X104332377Y-87793597D01*
X104332378Y-87793597D01*
X104381665Y-87775214D01*
X104451356Y-87770228D01*
X104468335Y-87775214D01*
X104517621Y-87793597D01*
X104577155Y-87799999D01*
X104577172Y-87800000D01*
X104725000Y-87800000D01*
X105225000Y-87800000D01*
X105372828Y-87800000D01*
X105372844Y-87799999D01*
X105432372Y-87793598D01*
X105432379Y-87793596D01*
X105567086Y-87743354D01*
X105567093Y-87743350D01*
X105682187Y-87657190D01*
X105682190Y-87657187D01*
X105768350Y-87542093D01*
X105768354Y-87542086D01*
X105818596Y-87407379D01*
X105818598Y-87407372D01*
X105824999Y-87347844D01*
X105825000Y-87347827D01*
X105825000Y-87200000D01*
X105225000Y-87200000D01*
X105225000Y-87800000D01*
X104725000Y-87800000D01*
X104725000Y-87074000D01*
X104744685Y-87006961D01*
X104797489Y-86961206D01*
X104849000Y-86950000D01*
X104975000Y-86950000D01*
X104975000Y-86824000D01*
X104994685Y-86756961D01*
X105047489Y-86711206D01*
X105099000Y-86700000D01*
X105825000Y-86700000D01*
X105825000Y-86552172D01*
X105824999Y-86552155D01*
X105818598Y-86492627D01*
X105818597Y-86492623D01*
X105765253Y-86349602D01*
X105767067Y-86348925D01*
X105754616Y-86291674D01*
X105766570Y-86250966D01*
X105765696Y-86250640D01*
X105768794Y-86242333D01*
X105768796Y-86242331D01*
X105819091Y-86107483D01*
X105825500Y-86047873D01*
X105825499Y-85552128D01*
X105819091Y-85492517D01*
X105814618Y-85480524D01*
X105800747Y-85443334D01*
X105795762Y-85373643D01*
X105800747Y-85356665D01*
X105819091Y-85307483D01*
X105825500Y-85247873D01*
X105825499Y-84752128D01*
X105819091Y-84692517D01*
X105800480Y-84642618D01*
X105795495Y-84572927D01*
X105800480Y-84555949D01*
X105818597Y-84507375D01*
X105818598Y-84507372D01*
X105824999Y-84447844D01*
X105825000Y-84447827D01*
X105825000Y-84400000D01*
X105667107Y-84400000D01*
X105658421Y-84397449D01*
X105649460Y-84398738D01*
X105616951Y-84385272D01*
X105600068Y-84380315D01*
X105597316Y-84377139D01*
X105592796Y-84375267D01*
X105567331Y-84356204D01*
X105567328Y-84356202D01*
X105460027Y-84316182D01*
X105404093Y-84274311D01*
X105379676Y-84208847D01*
X105394527Y-84140574D01*
X105443932Y-84091168D01*
X105460027Y-84083818D01*
X105567328Y-84043797D01*
X105567327Y-84043797D01*
X105567331Y-84043796D01*
X105592796Y-84024733D01*
X105605418Y-84020025D01*
X105615596Y-84011206D01*
X105637512Y-84008054D01*
X105658261Y-84000316D01*
X105667107Y-84000000D01*
X105825000Y-84000000D01*
X105825000Y-83952172D01*
X105824999Y-83952155D01*
X105818598Y-83892627D01*
X105800479Y-83844048D01*
X105795495Y-83774356D01*
X105800476Y-83757391D01*
X105819091Y-83707483D01*
X105825500Y-83647873D01*
X105825499Y-83152128D01*
X105819091Y-83092517D01*
X105800747Y-83043334D01*
X105795762Y-82973643D01*
X105800747Y-82956665D01*
X105819091Y-82907483D01*
X105825500Y-82847873D01*
X105825499Y-82352128D01*
X105819091Y-82292517D01*
X105813352Y-82277131D01*
X105800747Y-82243334D01*
X105795762Y-82173643D01*
X105800747Y-82156665D01*
X105819089Y-82107488D01*
X105819088Y-82107488D01*
X105819091Y-82107483D01*
X105825500Y-82047873D01*
X105825499Y-81552128D01*
X105819091Y-81492517D01*
X105819089Y-81492511D01*
X105800747Y-81443334D01*
X105795762Y-81373643D01*
X105800747Y-81356665D01*
X105802230Y-81352690D01*
X105819091Y-81307483D01*
X105825500Y-81247873D01*
X105825499Y-80752128D01*
X105819091Y-80692517D01*
X105819089Y-80692511D01*
X105800747Y-80643334D01*
X105795762Y-80573643D01*
X105800747Y-80556665D01*
X105819089Y-80507488D01*
X105819088Y-80507488D01*
X105819091Y-80507483D01*
X105825500Y-80447873D01*
X105825499Y-80124499D01*
X105845183Y-80057461D01*
X105897987Y-80011706D01*
X105949499Y-80000500D01*
X107018331Y-80000500D01*
X107018347Y-80000501D01*
X107025943Y-80000501D01*
X107184054Y-80000501D01*
X107184057Y-80000501D01*
X107336785Y-79959577D01*
X107399211Y-79923535D01*
X107473716Y-79880520D01*
X107585520Y-79768716D01*
X107585520Y-79768714D01*
X107595724Y-79758511D01*
X107595728Y-79758506D01*
X107997416Y-79356818D01*
X108020652Y-79344129D01*
X108041861Y-79328281D01*
X108053520Y-79326182D01*
X108058739Y-79323333D01*
X108076354Y-79320808D01*
X108080726Y-79320499D01*
X108204180Y-79320499D01*
X108240204Y-79317665D01*
X108278586Y-79306513D01*
X108291757Y-79305583D01*
X108313507Y-79310333D01*
X108335773Y-79310397D01*
X108346980Y-79317644D01*
X108360018Y-79320492D01*
X108375747Y-79336247D01*
X108394444Y-79348338D01*
X108399953Y-79360494D01*
X108409382Y-79369938D01*
X108414096Y-79391696D01*
X108423288Y-79411976D01*
X108424500Y-79429274D01*
X108424500Y-79674902D01*
X108404815Y-79741941D01*
X108388181Y-79762583D01*
X107584481Y-80566282D01*
X107584477Y-80566287D01*
X107565014Y-80600000D01*
X107561603Y-80605909D01*
X107536131Y-80650028D01*
X107511600Y-80692517D01*
X107505423Y-80703215D01*
X107464499Y-80855943D01*
X107464499Y-80855945D01*
X107464499Y-81024046D01*
X107464500Y-81024059D01*
X107464500Y-81333333D01*
X107444815Y-81400372D01*
X107428181Y-81421014D01*
X107414887Y-81434307D01*
X107414881Y-81434315D01*
X107332505Y-81573606D01*
X107332504Y-81573609D01*
X107287357Y-81729002D01*
X107287356Y-81729008D01*
X107284500Y-81765302D01*
X107284500Y-82234697D01*
X107287356Y-82270991D01*
X107287357Y-82270997D01*
X107332503Y-82426388D01*
X107332505Y-82426393D01*
X107332506Y-82426395D01*
X107414883Y-82565687D01*
X107428180Y-82578984D01*
X107461666Y-82640305D01*
X107464500Y-82666666D01*
X107464500Y-85333333D01*
X107444815Y-85400372D01*
X107428181Y-85421014D01*
X107414887Y-85434307D01*
X107414881Y-85434315D01*
X107332505Y-85573606D01*
X107332504Y-85573609D01*
X107287357Y-85729002D01*
X107287356Y-85729008D01*
X107284500Y-85765302D01*
X107284500Y-86234697D01*
X107287356Y-86270991D01*
X107287357Y-86270997D01*
X107332504Y-86426390D01*
X107332505Y-86426393D01*
X107332506Y-86426395D01*
X107376331Y-86500499D01*
X107382232Y-86510476D01*
X107386582Y-86526377D01*
X107394477Y-86538662D01*
X107399500Y-86573597D01*
X107399500Y-86775638D01*
X107379815Y-86842677D01*
X107363181Y-86863319D01*
X107300538Y-86925961D01*
X107300535Y-86925965D01*
X107201990Y-87073446D01*
X107201983Y-87073459D01*
X107134106Y-87237332D01*
X107134103Y-87237341D01*
X107099500Y-87411304D01*
X107099500Y-87588695D01*
X107134103Y-87762658D01*
X107134106Y-87762667D01*
X107201983Y-87926540D01*
X107201990Y-87926553D01*
X107300535Y-88074034D01*
X107300538Y-88074038D01*
X107414319Y-88187819D01*
X107447804Y-88249142D01*
X107442820Y-88318834D01*
X107400948Y-88374767D01*
X107335484Y-88399184D01*
X107326638Y-88399500D01*
X106920943Y-88399500D01*
X106768216Y-88440422D01*
X106768211Y-88440424D01*
X106764617Y-88442500D01*
X106764612Y-88442503D01*
X106631287Y-88519477D01*
X106631282Y-88519481D01*
X106519478Y-88631286D01*
X106098734Y-89052029D01*
X106045651Y-89083423D01*
X105994603Y-89098255D01*
X105853137Y-89181917D01*
X105846969Y-89186702D01*
X105845072Y-89184256D01*
X105796358Y-89210857D01*
X105726666Y-89205873D01*
X105694296Y-89185069D01*
X105693031Y-89186702D01*
X105686862Y-89181917D01*
X105608681Y-89135681D01*
X105545398Y-89098256D01*
X105545397Y-89098255D01*
X105545396Y-89098255D01*
X105545393Y-89098254D01*
X105387573Y-89052402D01*
X105387567Y-89052401D01*
X105350701Y-89049500D01*
X105350694Y-89049500D01*
X104919306Y-89049500D01*
X104919298Y-89049500D01*
X104882432Y-89052401D01*
X104882426Y-89052402D01*
X104724606Y-89098254D01*
X104724603Y-89098255D01*
X104583140Y-89181915D01*
X104576974Y-89186699D01*
X104575174Y-89184379D01*
X104525913Y-89211230D01*
X104456225Y-89206193D01*
X104423992Y-89185461D01*
X104422722Y-89187100D01*
X104416552Y-89182314D01*
X104275196Y-89098717D01*
X104275193Y-89098716D01*
X104117494Y-89052900D01*
X104117497Y-89052900D01*
X104115000Y-89052703D01*
X104115000Y-91997295D01*
X104115001Y-91997295D01*
X104117486Y-91997100D01*
X104275198Y-91951281D01*
X104416550Y-91867686D01*
X104422717Y-91862903D01*
X104424630Y-91865369D01*
X104473222Y-91838802D01*
X104542917Y-91843749D01*
X104575762Y-91864853D01*
X104576969Y-91863298D01*
X104583132Y-91868078D01*
X104583135Y-91868081D01*
X104724602Y-91951744D01*
X104739599Y-91956101D01*
X104882426Y-91997597D01*
X104882429Y-91997597D01*
X104882431Y-91997598D01*
X104919306Y-92000500D01*
X104919314Y-92000500D01*
X105350686Y-92000500D01*
X105350694Y-92000500D01*
X105387569Y-91997598D01*
X105387571Y-91997597D01*
X105387573Y-91997597D01*
X105429191Y-91985505D01*
X105545398Y-91951744D01*
X105686865Y-91868081D01*
X105686870Y-91868075D01*
X105693031Y-91863298D01*
X105694933Y-91865750D01*
X105743579Y-91839155D01*
X105813274Y-91844104D01*
X105845695Y-91864940D01*
X105846969Y-91863298D01*
X105853132Y-91868078D01*
X105853135Y-91868081D01*
X105994602Y-91951744D01*
X106009599Y-91956101D01*
X106152426Y-91997597D01*
X106152429Y-91997597D01*
X106152431Y-91997598D01*
X106189306Y-92000500D01*
X106189314Y-92000500D01*
X106620686Y-92000500D01*
X106620694Y-92000500D01*
X106657569Y-91997598D01*
X106657571Y-91997597D01*
X106657573Y-91997597D01*
X106699191Y-91985505D01*
X106815398Y-91951744D01*
X106956865Y-91868081D01*
X106956870Y-91868075D01*
X106963031Y-91863298D01*
X106964933Y-91865750D01*
X107013579Y-91839155D01*
X107083274Y-91844104D01*
X107115695Y-91864940D01*
X107116969Y-91863298D01*
X107123132Y-91868078D01*
X107123135Y-91868081D01*
X107264602Y-91951744D01*
X107279599Y-91956101D01*
X107422426Y-91997597D01*
X107422429Y-91997597D01*
X107422431Y-91997598D01*
X107459306Y-92000500D01*
X107459314Y-92000500D01*
X107890686Y-92000500D01*
X107890694Y-92000500D01*
X107927569Y-91997598D01*
X107927571Y-91997597D01*
X107927573Y-91997597D01*
X107969191Y-91985505D01*
X108085398Y-91951744D01*
X108226865Y-91868081D01*
X108226870Y-91868075D01*
X108233031Y-91863298D01*
X108234933Y-91865750D01*
X108283579Y-91839155D01*
X108353274Y-91844104D01*
X108385695Y-91864940D01*
X108386969Y-91863298D01*
X108393132Y-91868078D01*
X108393135Y-91868081D01*
X108534602Y-91951744D01*
X108549599Y-91956101D01*
X108692426Y-91997597D01*
X108692429Y-91997597D01*
X108692431Y-91997598D01*
X108729306Y-92000500D01*
X108729314Y-92000500D01*
X109160686Y-92000500D01*
X109160694Y-92000500D01*
X109197569Y-91997598D01*
X109197571Y-91997597D01*
X109197573Y-91997597D01*
X109239191Y-91985505D01*
X109355398Y-91951744D01*
X109496865Y-91868081D01*
X109613081Y-91751865D01*
X109696744Y-91610398D01*
X109742598Y-91452569D01*
X109745500Y-91415694D01*
X109745500Y-89724500D01*
X109765185Y-89657461D01*
X109817989Y-89611706D01*
X109869500Y-89600500D01*
X110913331Y-89600500D01*
X110913347Y-89600501D01*
X110920943Y-89600501D01*
X111079054Y-89600501D01*
X111079057Y-89600501D01*
X111231785Y-89559577D01*
X111294239Y-89523519D01*
X111368716Y-89480520D01*
X111480520Y-89368716D01*
X111480520Y-89368714D01*
X111490724Y-89358511D01*
X111490728Y-89358506D01*
X112383506Y-88465728D01*
X112383511Y-88465724D01*
X112393714Y-88455520D01*
X112393716Y-88455520D01*
X112505520Y-88343716D01*
X112531906Y-88298013D01*
X112566940Y-88237333D01*
X112568300Y-88234977D01*
X112594752Y-88203796D01*
X112594727Y-88203771D01*
X112595032Y-88203465D01*
X112597035Y-88201105D01*
X112599027Y-88199468D01*
X112599035Y-88199464D01*
X112724464Y-88074035D01*
X112823013Y-87926547D01*
X112890894Y-87762666D01*
X112891852Y-87757853D01*
X112925499Y-87588695D01*
X112925500Y-87588693D01*
X112925500Y-87411306D01*
X112925499Y-87411304D01*
X112890896Y-87237341D01*
X112890893Y-87237332D01*
X112883028Y-87218345D01*
X112856415Y-87154093D01*
X112823016Y-87073459D01*
X112823009Y-87073446D01*
X112724464Y-86925965D01*
X112724461Y-86925961D01*
X112661819Y-86863319D01*
X112628334Y-86801996D01*
X112625500Y-86775638D01*
X112625500Y-85679595D01*
X112645185Y-85612556D01*
X112661814Y-85591918D01*
X112716135Y-85537598D01*
X112797869Y-85399393D01*
X112841890Y-85247872D01*
X112842664Y-85245208D01*
X112842664Y-85245206D01*
X112842665Y-85245204D01*
X112845500Y-85209181D01*
X112845499Y-84810820D01*
X112842665Y-84774796D01*
X112835198Y-84749094D01*
X112835397Y-84679227D01*
X112873338Y-84620556D01*
X112936976Y-84591712D01*
X112954274Y-84590500D01*
X115189903Y-84590500D01*
X115256942Y-84610185D01*
X115277584Y-84626819D01*
X117277390Y-86626626D01*
X117310875Y-86687949D01*
X117305891Y-86757641D01*
X117285811Y-86792668D01*
X117175047Y-86928510D01*
X117160302Y-86946593D01*
X117124406Y-87015313D01*
X117066089Y-87126954D01*
X117010114Y-87322583D01*
X117010113Y-87322586D01*
X116999500Y-87441966D01*
X116999500Y-88558028D01*
X116999501Y-88558034D01*
X117010113Y-88677415D01*
X117066089Y-88873045D01*
X117066090Y-88873048D01*
X117066091Y-88873049D01*
X117160302Y-89053407D01*
X117178126Y-89075266D01*
X117288890Y-89211109D01*
X117369932Y-89277189D01*
X117446593Y-89339698D01*
X117626951Y-89433909D01*
X117822582Y-89489886D01*
X117941963Y-89500500D01*
X119058036Y-89500499D01*
X119177418Y-89489886D01*
X119373049Y-89433909D01*
X119553407Y-89339698D01*
X119711109Y-89211109D01*
X119839698Y-89053407D01*
X119933909Y-88873049D01*
X119989886Y-88677418D01*
X120000500Y-88558037D01*
X120000499Y-88099983D01*
X125212000Y-88099983D01*
X125212000Y-88700001D01*
X125212001Y-88700019D01*
X125222500Y-88802796D01*
X125222501Y-88802799D01*
X125277685Y-88969331D01*
X125277687Y-88969336D01*
X125295653Y-88998464D01*
X125369788Y-89118656D01*
X125493844Y-89242712D01*
X125643166Y-89334814D01*
X125809703Y-89389999D01*
X125912491Y-89400500D01*
X126962508Y-89400499D01*
X126962516Y-89400498D01*
X126962519Y-89400498D01*
X127018802Y-89394748D01*
X127065297Y-89389999D01*
X127231834Y-89334814D01*
X127381156Y-89242712D01*
X127487050Y-89136818D01*
X127548373Y-89103334D01*
X127574731Y-89100500D01*
X130420943Y-89100500D01*
X130579057Y-89100500D01*
X136382225Y-89100500D01*
X136449264Y-89120185D01*
X136469907Y-89136820D01*
X136508796Y-89175710D01*
X136508805Y-89175717D01*
X136527375Y-89186699D01*
X136642113Y-89254555D01*
X136790844Y-89297765D01*
X136825595Y-89300500D01*
X137174404Y-89300499D01*
X137209156Y-89297765D01*
X137357887Y-89254555D01*
X137491198Y-89175715D01*
X137530093Y-89136820D01*
X137591416Y-89103334D01*
X137617775Y-89100500D01*
X141699903Y-89100500D01*
X141729343Y-89109144D01*
X141759330Y-89115668D01*
X141764345Y-89119422D01*
X141766942Y-89120185D01*
X141787583Y-89136818D01*
X141863181Y-89212416D01*
X141896666Y-89273739D01*
X141899500Y-89300097D01*
X141899500Y-92737814D01*
X141879815Y-92804853D01*
X141848387Y-92838131D01*
X141783072Y-92885585D01*
X141660588Y-93008069D01*
X141660588Y-93008070D01*
X141660586Y-93008072D01*
X141636738Y-93040896D01*
X141558768Y-93148211D01*
X141480128Y-93302552D01*
X141426597Y-93467302D01*
X141412187Y-93558286D01*
X141399500Y-93638389D01*
X141399500Y-94361611D01*
X141426598Y-94532701D01*
X141480127Y-94697445D01*
X141558768Y-94851788D01*
X141660586Y-94991928D01*
X141783072Y-95114414D01*
X141923212Y-95216232D01*
X142077555Y-95294873D01*
X142242299Y-95348402D01*
X142413389Y-95375500D01*
X142413390Y-95375500D01*
X142586610Y-95375500D01*
X142586611Y-95375500D01*
X142757701Y-95348402D01*
X142922445Y-95294873D01*
X143076788Y-95216232D01*
X143216928Y-95114414D01*
X143324836Y-95006505D01*
X143386155Y-94973023D01*
X143455847Y-94978007D01*
X143511781Y-95019878D01*
X143518053Y-95029093D01*
X143557682Y-95093343D01*
X143681654Y-95217315D01*
X143830875Y-95309356D01*
X143830880Y-95309358D01*
X143997302Y-95364505D01*
X143997309Y-95364506D01*
X144100019Y-95374999D01*
X144249999Y-95374999D01*
X144250000Y-95374998D01*
X144250000Y-94280330D01*
X144269745Y-94300075D01*
X144355255Y-94349444D01*
X144450630Y-94375000D01*
X144549370Y-94375000D01*
X144644745Y-94349444D01*
X144730255Y-94300075D01*
X144750000Y-94280330D01*
X144750000Y-95374999D01*
X144899972Y-95374999D01*
X144899986Y-95374998D01*
X145002697Y-95364505D01*
X145169119Y-95309358D01*
X145169124Y-95309356D01*
X145318345Y-95217315D01*
X145442315Y-95093345D01*
X145534356Y-94944124D01*
X145534358Y-94944119D01*
X145589505Y-94777697D01*
X145589506Y-94777690D01*
X145599999Y-94674986D01*
X145600000Y-94674973D01*
X145600000Y-94250000D01*
X144780330Y-94250000D01*
X144800075Y-94230255D01*
X144849444Y-94144745D01*
X144875000Y-94049370D01*
X144875000Y-93950630D01*
X144849444Y-93855255D01*
X144800075Y-93769745D01*
X144780330Y-93750000D01*
X145599999Y-93750000D01*
X145599999Y-93325028D01*
X145599998Y-93325013D01*
X145589505Y-93222302D01*
X145534358Y-93055880D01*
X145534356Y-93055875D01*
X145442315Y-92906654D01*
X145318345Y-92782684D01*
X145169124Y-92690643D01*
X145169119Y-92690641D01*
X145002697Y-92635494D01*
X145002690Y-92635493D01*
X144899986Y-92625000D01*
X144750000Y-92625000D01*
X144750000Y-93719670D01*
X144730255Y-93699925D01*
X144644745Y-93650556D01*
X144549370Y-93625000D01*
X144450630Y-93625000D01*
X144355255Y-93650556D01*
X144269745Y-93699925D01*
X144250000Y-93719670D01*
X144250000Y-92625000D01*
X144100027Y-92625000D01*
X144100012Y-92625001D01*
X143997302Y-92635494D01*
X143830880Y-92690641D01*
X143830875Y-92690643D01*
X143681654Y-92782684D01*
X143557684Y-92906654D01*
X143518053Y-92970907D01*
X143466105Y-93017631D01*
X143397142Y-93028853D01*
X143333060Y-93001010D01*
X143324833Y-92993491D01*
X143216927Y-92885585D01*
X143151613Y-92838131D01*
X143108948Y-92782801D01*
X143100500Y-92737814D01*
X143100500Y-89089060D01*
X143100501Y-89089047D01*
X143100501Y-88920944D01*
X143089786Y-88880956D01*
X143059577Y-88768216D01*
X143020204Y-88700019D01*
X142980524Y-88631290D01*
X142980518Y-88631282D01*
X142368717Y-88019481D01*
X142368716Y-88019480D01*
X142281904Y-87969360D01*
X142281904Y-87969359D01*
X142281900Y-87969358D01*
X142231785Y-87940423D01*
X142079057Y-87899499D01*
X141920943Y-87899499D01*
X141913347Y-87899499D01*
X141913331Y-87899500D01*
X137617775Y-87899500D01*
X137550736Y-87879815D01*
X137530093Y-87863180D01*
X137491203Y-87824289D01*
X137491194Y-87824282D01*
X137395073Y-87767437D01*
X137357887Y-87745445D01*
X137209156Y-87702235D01*
X137209153Y-87702234D01*
X137209151Y-87702234D01*
X137178395Y-87699814D01*
X137174405Y-87699500D01*
X137174404Y-87699500D01*
X136825606Y-87699500D01*
X136825584Y-87699501D01*
X136790847Y-87702234D01*
X136790844Y-87702235D01*
X136642113Y-87745445D01*
X136642111Y-87745445D01*
X136642111Y-87745446D01*
X136508805Y-87824282D01*
X136508796Y-87824289D01*
X136469907Y-87863180D01*
X136408584Y-87896666D01*
X136382225Y-87899500D01*
X131489771Y-87899500D01*
X131422732Y-87879815D01*
X131376977Y-87827011D01*
X131367033Y-87757853D01*
X131368154Y-87751309D01*
X131400499Y-87588695D01*
X131400500Y-87588693D01*
X131400500Y-87411306D01*
X131400499Y-87411304D01*
X131365896Y-87237341D01*
X131365893Y-87237332D01*
X131358028Y-87218345D01*
X131331415Y-87154093D01*
X131298016Y-87073459D01*
X131298009Y-87073446D01*
X131199464Y-86925965D01*
X131199461Y-86925961D01*
X131074038Y-86800538D01*
X131074034Y-86800535D01*
X130926553Y-86701990D01*
X130926546Y-86701986D01*
X130906012Y-86693481D01*
X130893260Y-86688199D01*
X130893259Y-86688198D01*
X130799501Y-86649363D01*
X136275001Y-86649363D01*
X136277733Y-86684078D01*
X136320906Y-86832681D01*
X136320907Y-86832684D01*
X136399682Y-86965885D01*
X136399688Y-86965894D01*
X136509105Y-87075311D01*
X136509114Y-87075317D01*
X136642315Y-87154092D01*
X136642318Y-87154093D01*
X136774998Y-87192641D01*
X136775000Y-87192640D01*
X137225000Y-87192640D01*
X137225001Y-87192641D01*
X137357681Y-87154093D01*
X137357684Y-87154092D01*
X137490885Y-87075317D01*
X137490894Y-87075311D01*
X137600311Y-86965894D01*
X137600317Y-86965885D01*
X137679092Y-86832684D01*
X137679093Y-86832681D01*
X137722265Y-86684084D01*
X137722267Y-86684073D01*
X137724999Y-86649359D01*
X137725000Y-86649346D01*
X137725000Y-86625000D01*
X137225000Y-86625000D01*
X137225000Y-87192640D01*
X136775000Y-87192640D01*
X136775000Y-86625000D01*
X136275001Y-86625000D01*
X136275001Y-86649363D01*
X130799501Y-86649363D01*
X130762667Y-86634106D01*
X130762658Y-86634103D01*
X130588694Y-86599500D01*
X130588691Y-86599500D01*
X130411309Y-86599500D01*
X130411306Y-86599500D01*
X130237341Y-86634103D01*
X130237332Y-86634106D01*
X130073459Y-86701983D01*
X130073446Y-86701990D01*
X129925965Y-86800535D01*
X129925961Y-86800538D01*
X129800538Y-86925961D01*
X129800535Y-86925965D01*
X129701990Y-87073446D01*
X129701983Y-87073459D01*
X129634106Y-87237332D01*
X129634103Y-87237341D01*
X129599500Y-87411304D01*
X129599500Y-87588695D01*
X129631846Y-87751309D01*
X129625619Y-87820900D01*
X129582756Y-87876078D01*
X129516866Y-87899322D01*
X129510229Y-87899500D01*
X127708408Y-87899500D01*
X127641369Y-87879815D01*
X127602863Y-87835728D01*
X127601105Y-87836813D01*
X127597312Y-87830663D01*
X127505212Y-87681344D01*
X127381156Y-87557288D01*
X127377842Y-87555243D01*
X127376046Y-87553248D01*
X127375489Y-87552807D01*
X127375564Y-87552711D01*
X127331118Y-87503297D01*
X127319897Y-87434334D01*
X127347740Y-87370252D01*
X127377848Y-87344165D01*
X127380842Y-87342318D01*
X127504815Y-87218345D01*
X127596856Y-87069124D01*
X127596858Y-87069119D01*
X127652005Y-86902697D01*
X127652006Y-86902690D01*
X127662499Y-86799986D01*
X127662500Y-86799973D01*
X127662500Y-86750000D01*
X125212501Y-86750000D01*
X125212501Y-86799986D01*
X125222994Y-86902697D01*
X125278141Y-87069119D01*
X125278143Y-87069124D01*
X125370184Y-87218345D01*
X125494155Y-87342316D01*
X125494159Y-87342319D01*
X125497156Y-87344168D01*
X125498779Y-87345972D01*
X125499823Y-87346798D01*
X125499681Y-87346976D01*
X125543881Y-87396116D01*
X125555102Y-87465079D01*
X125527259Y-87529161D01*
X125497161Y-87555241D01*
X125493849Y-87557283D01*
X125493843Y-87557288D01*
X125369789Y-87681342D01*
X125277687Y-87830663D01*
X125277685Y-87830668D01*
X125255816Y-87896666D01*
X125222501Y-87997203D01*
X125222501Y-87997204D01*
X125222500Y-87997204D01*
X125212000Y-88099983D01*
X120000499Y-88099983D01*
X120000499Y-87997204D01*
X120000499Y-87441971D01*
X120000499Y-87441964D01*
X119989886Y-87322582D01*
X119933909Y-87126951D01*
X119839698Y-86946593D01*
X119754966Y-86842677D01*
X119711109Y-86788890D01*
X119577708Y-86680117D01*
X119553407Y-86660302D01*
X119373049Y-86566091D01*
X119373048Y-86566090D01*
X119373045Y-86566089D01*
X119255829Y-86532550D01*
X119177418Y-86510114D01*
X119177415Y-86510113D01*
X119177413Y-86510113D01*
X119104631Y-86503642D01*
X119058037Y-86499500D01*
X119058033Y-86499500D01*
X118900098Y-86499500D01*
X118833059Y-86479815D01*
X118812417Y-86463181D01*
X116136819Y-83787583D01*
X116103334Y-83726260D01*
X116100500Y-83699902D01*
X116100500Y-78911304D01*
X117599500Y-78911304D01*
X117599500Y-79088695D01*
X117634103Y-79262658D01*
X117634106Y-79262667D01*
X117701983Y-79426540D01*
X117701990Y-79426553D01*
X117800534Y-79574033D01*
X117800535Y-79574034D01*
X117800536Y-79574035D01*
X117863182Y-79636681D01*
X117896666Y-79698002D01*
X117899500Y-79724361D01*
X117899500Y-84413330D01*
X117899499Y-84413348D01*
X117899499Y-84579054D01*
X117899498Y-84579054D01*
X117940423Y-84731785D01*
X117955365Y-84757665D01*
X118019477Y-84868712D01*
X118019479Y-84868715D01*
X118019480Y-84868716D01*
X118131284Y-84980520D01*
X118131285Y-84980521D01*
X118631284Y-85480520D01*
X118631286Y-85480521D01*
X118631290Y-85480524D01*
X118755390Y-85552172D01*
X118768216Y-85559577D01*
X118920943Y-85600501D01*
X118920945Y-85600501D01*
X119086654Y-85600501D01*
X119086670Y-85600500D01*
X125259746Y-85600500D01*
X125326785Y-85620185D01*
X125372540Y-85672989D01*
X125382484Y-85742147D01*
X125365285Y-85789597D01*
X125278143Y-85930875D01*
X125278141Y-85930880D01*
X125222994Y-86097302D01*
X125222993Y-86097309D01*
X125212500Y-86200013D01*
X125212500Y-86250000D01*
X127662499Y-86250000D01*
X127662499Y-86200028D01*
X127662498Y-86200010D01*
X127658494Y-86160813D01*
X127657455Y-86150640D01*
X136275000Y-86150640D01*
X136275000Y-86175000D01*
X136775000Y-86175000D01*
X137225000Y-86175000D01*
X137724999Y-86175000D01*
X137724999Y-86150658D01*
X137724998Y-86150636D01*
X137722267Y-86115924D01*
X137709292Y-86071263D01*
X137709292Y-86071260D01*
X137679093Y-85967318D01*
X137679092Y-85967315D01*
X137600317Y-85834114D01*
X137600311Y-85834105D01*
X137490894Y-85724688D01*
X137490885Y-85724682D01*
X137357684Y-85645907D01*
X137357683Y-85645906D01*
X137225000Y-85607357D01*
X137225000Y-86175000D01*
X136775000Y-86175000D01*
X136775000Y-85607357D01*
X136642316Y-85645906D01*
X136642315Y-85645907D01*
X136509114Y-85724682D01*
X136509105Y-85724688D01*
X136399688Y-85834105D01*
X136399682Y-85834114D01*
X136320907Y-85967315D01*
X136320906Y-85967318D01*
X136277734Y-86115915D01*
X136277732Y-86115926D01*
X136275000Y-86150640D01*
X127657455Y-86150640D01*
X127652005Y-86097302D01*
X127596858Y-85930880D01*
X127596856Y-85930875D01*
X127509715Y-85789597D01*
X127491275Y-85722204D01*
X127512198Y-85655541D01*
X127565840Y-85610771D01*
X127615254Y-85600500D01*
X131579055Y-85600500D01*
X131579057Y-85600500D01*
X131731784Y-85559577D01*
X131868716Y-85480520D01*
X131980520Y-85368716D01*
X132059577Y-85231784D01*
X132095466Y-85097844D01*
X139230000Y-85097844D01*
X139236401Y-85157372D01*
X139236403Y-85157379D01*
X139286645Y-85292086D01*
X139286649Y-85292093D01*
X139372809Y-85407187D01*
X139372812Y-85407190D01*
X139487906Y-85493350D01*
X139487913Y-85493354D01*
X139622620Y-85543596D01*
X139622627Y-85543598D01*
X139682155Y-85549999D01*
X139682172Y-85550000D01*
X139775076Y-85550000D01*
X139842115Y-85569685D01*
X139842469Y-85570000D01*
X140205000Y-85570000D01*
X140205000Y-85000000D01*
X139230000Y-85000000D01*
X139230000Y-85097844D01*
X132095466Y-85097844D01*
X132100500Y-85079057D01*
X132100500Y-82589060D01*
X132100501Y-82589047D01*
X132100501Y-82420944D01*
X132091190Y-82386194D01*
X132059577Y-82268216D01*
X132037161Y-82229390D01*
X131980524Y-82131290D01*
X131980518Y-82131282D01*
X131818717Y-81969481D01*
X131818709Y-81969475D01*
X131708608Y-81905909D01*
X131708607Y-81905908D01*
X131689753Y-81895023D01*
X131681785Y-81890423D01*
X131529057Y-81849499D01*
X131370943Y-81849499D01*
X131363347Y-81849499D01*
X131363331Y-81849500D01*
X128983308Y-81849500D01*
X128953833Y-81840845D01*
X128923827Y-81834302D01*
X128918850Y-81830573D01*
X128916269Y-81829815D01*
X128895583Y-81813137D01*
X128894585Y-81812138D01*
X128861131Y-81750798D01*
X128866150Y-81681109D01*
X128908049Y-81625197D01*
X128973526Y-81600813D01*
X128982310Y-81600501D01*
X129086654Y-81600501D01*
X129086670Y-81600500D01*
X136059626Y-81600500D01*
X136126665Y-81620185D01*
X136172420Y-81672989D01*
X136179068Y-81719229D01*
X136187155Y-81730000D01*
X137812845Y-81730000D01*
X137821412Y-81718587D01*
X137821497Y-81689225D01*
X137859440Y-81630555D01*
X137923078Y-81601712D01*
X137940374Y-81600500D01*
X138199903Y-81600500D01*
X138229343Y-81609144D01*
X138259330Y-81615668D01*
X138264345Y-81619422D01*
X138266942Y-81620185D01*
X138287584Y-81636819D01*
X138363181Y-81712416D01*
X138396666Y-81773739D01*
X138399500Y-81800097D01*
X138399500Y-81913330D01*
X138399499Y-81913348D01*
X138399499Y-82025500D01*
X138379814Y-82092539D01*
X138327010Y-82138294D01*
X138275499Y-82149500D01*
X137170941Y-82149500D01*
X137145922Y-82156204D01*
X137018219Y-82190421D01*
X136999997Y-82200941D01*
X136999996Y-82200940D01*
X136979302Y-82212888D01*
X136963940Y-82217027D01*
X136952573Y-82224378D01*
X136918059Y-82229390D01*
X136917653Y-82229500D01*
X136917594Y-82229500D01*
X136750820Y-82229501D01*
X136744644Y-82229986D01*
X136739956Y-82230000D01*
X136739914Y-82229987D01*
X136739607Y-82230000D01*
X136187156Y-82230000D01*
X136227594Y-82369193D01*
X136261419Y-82426388D01*
X136278601Y-82494112D01*
X136261419Y-82552628D01*
X136227130Y-82610607D01*
X136227129Y-82610611D01*
X136182335Y-82764791D01*
X136182334Y-82764797D01*
X136179500Y-82800811D01*
X136179500Y-83199169D01*
X136179501Y-83199191D01*
X136182335Y-83235205D01*
X136227129Y-83389388D01*
X136227131Y-83389393D01*
X136308863Y-83527595D01*
X136308869Y-83527603D01*
X136422396Y-83641130D01*
X136422400Y-83641133D01*
X136422402Y-83641135D01*
X136560607Y-83722869D01*
X136586870Y-83730499D01*
X136714791Y-83767664D01*
X136714794Y-83767664D01*
X136714796Y-83767665D01*
X136750819Y-83770500D01*
X137249180Y-83770499D01*
X137285204Y-83767665D01*
X137439393Y-83722869D01*
X137577598Y-83641135D01*
X137691135Y-83527598D01*
X137759867Y-83411377D01*
X137810935Y-83363696D01*
X137866598Y-83350500D01*
X139107649Y-83350500D01*
X139109852Y-83351147D01*
X139112079Y-83350579D01*
X139143219Y-83360944D01*
X139174688Y-83370185D01*
X139176191Y-83371920D01*
X139178372Y-83372646D01*
X139198969Y-83398207D01*
X139220443Y-83422989D01*
X139221219Y-83425819D01*
X139222212Y-83427051D01*
X139230939Y-83461249D01*
X139236367Y-83511752D01*
X139236367Y-83538257D01*
X139235909Y-83542516D01*
X139235909Y-83542517D01*
X139229500Y-83602127D01*
X139229500Y-83602132D01*
X139229500Y-83602133D01*
X139229500Y-84297869D01*
X139229501Y-84297880D01*
X139233931Y-84339093D01*
X139233931Y-84365596D01*
X139230000Y-84402165D01*
X139230000Y-84500000D01*
X139230051Y-84500051D01*
X139296915Y-84519685D01*
X139329140Y-84549686D01*
X139372454Y-84607546D01*
X139407930Y-84634103D01*
X139487664Y-84693793D01*
X139487671Y-84693797D01*
X139622517Y-84744091D01*
X139622516Y-84744091D01*
X139629444Y-84744835D01*
X139682127Y-84750500D01*
X140581001Y-84750499D01*
X140648039Y-84770183D01*
X140693794Y-84822987D01*
X140705000Y-84874499D01*
X140705000Y-85540230D01*
X140704204Y-85540444D01*
X140635795Y-85579940D01*
X140579940Y-85635795D01*
X140540444Y-85704204D01*
X140520000Y-85780504D01*
X140520000Y-85859496D01*
X140540444Y-85935796D01*
X140579940Y-86004205D01*
X140635795Y-86060060D01*
X140653012Y-86070000D01*
X139850138Y-86070000D01*
X139858430Y-86111690D01*
X139858430Y-86111692D01*
X139933807Y-86293671D01*
X139933814Y-86293684D01*
X140043248Y-86457462D01*
X140043251Y-86457466D01*
X140182533Y-86596748D01*
X140182537Y-86596751D01*
X140346315Y-86706185D01*
X140346328Y-86706192D01*
X140528306Y-86781569D01*
X140528318Y-86781572D01*
X140721504Y-86819999D01*
X140721508Y-86820000D01*
X141120000Y-86820000D01*
X141120000Y-86120000D01*
X141620000Y-86120000D01*
X141620000Y-86820000D01*
X142018492Y-86820000D01*
X142018495Y-86819999D01*
X142211681Y-86781572D01*
X142211693Y-86781569D01*
X142393671Y-86706192D01*
X142393684Y-86706185D01*
X142557462Y-86596751D01*
X142557466Y-86596748D01*
X142696748Y-86457466D01*
X142696751Y-86457462D01*
X142806185Y-86293684D01*
X142806192Y-86293671D01*
X142881569Y-86111692D01*
X142881569Y-86111690D01*
X142889862Y-86070000D01*
X142086988Y-86070000D01*
X142104205Y-86060060D01*
X142160060Y-86004205D01*
X142199556Y-85935796D01*
X142220000Y-85859496D01*
X142220000Y-85780504D01*
X142199556Y-85704204D01*
X142160060Y-85635795D01*
X142104205Y-85579940D01*
X142086988Y-85570000D01*
X142889862Y-85570000D01*
X144280138Y-85570000D01*
X145083012Y-85570000D01*
X145065795Y-85579940D01*
X145009940Y-85635795D01*
X144970444Y-85704204D01*
X144950000Y-85780504D01*
X144950000Y-85859496D01*
X144970444Y-85935796D01*
X145009940Y-86004205D01*
X145065795Y-86060060D01*
X145083012Y-86070000D01*
X144280138Y-86070000D01*
X144288430Y-86111690D01*
X144288430Y-86111692D01*
X144363807Y-86293671D01*
X144363814Y-86293684D01*
X144473248Y-86457462D01*
X144473251Y-86457466D01*
X144612533Y-86596748D01*
X144612537Y-86596751D01*
X144776315Y-86706185D01*
X144776328Y-86706192D01*
X144958306Y-86781569D01*
X144958318Y-86781572D01*
X145151504Y-86819999D01*
X145151508Y-86820000D01*
X145300000Y-86820000D01*
X145300000Y-86120000D01*
X145800000Y-86120000D01*
X145800000Y-86820000D01*
X145948492Y-86820000D01*
X145948495Y-86819999D01*
X146141681Y-86781572D01*
X146141693Y-86781569D01*
X146323671Y-86706192D01*
X146323684Y-86706185D01*
X146487462Y-86596751D01*
X146487466Y-86596748D01*
X146626748Y-86457466D01*
X146626751Y-86457462D01*
X146736185Y-86293684D01*
X146736192Y-86293671D01*
X146811569Y-86111692D01*
X146811569Y-86111690D01*
X146819862Y-86070000D01*
X146016988Y-86070000D01*
X146034205Y-86060060D01*
X146090060Y-86004205D01*
X146129556Y-85935796D01*
X146150000Y-85859496D01*
X146150000Y-85780504D01*
X146129556Y-85704204D01*
X146090060Y-85635795D01*
X146034205Y-85579940D01*
X146016988Y-85570000D01*
X146819862Y-85570000D01*
X146811569Y-85528309D01*
X146811569Y-85528307D01*
X146736192Y-85346328D01*
X146736185Y-85346315D01*
X146626751Y-85182537D01*
X146626748Y-85182533D01*
X146487466Y-85043251D01*
X146487462Y-85043248D01*
X146323684Y-84933814D01*
X146323671Y-84933807D01*
X146141693Y-84858430D01*
X146141681Y-84858427D01*
X145948495Y-84820000D01*
X145800000Y-84820000D01*
X145800000Y-85520000D01*
X145300000Y-85520000D01*
X145300000Y-84820000D01*
X145151504Y-84820000D01*
X144958318Y-84858427D01*
X144958306Y-84858430D01*
X144776328Y-84933807D01*
X144776315Y-84933814D01*
X144612537Y-85043248D01*
X144612533Y-85043251D01*
X144473251Y-85182533D01*
X144473248Y-85182537D01*
X144363814Y-85346315D01*
X144363807Y-85346328D01*
X144288430Y-85528307D01*
X144288430Y-85528309D01*
X144280138Y-85570000D01*
X142889862Y-85570000D01*
X142881569Y-85528309D01*
X142881569Y-85528307D01*
X142806192Y-85346328D01*
X142806185Y-85346315D01*
X142696751Y-85182537D01*
X142696748Y-85182533D01*
X142557466Y-85043251D01*
X142557462Y-85043248D01*
X142388613Y-84930426D01*
X142389568Y-84928996D01*
X142345568Y-84885777D01*
X142330105Y-84817640D01*
X142353934Y-84751960D01*
X142355702Y-84749913D01*
X142355568Y-84749811D01*
X142360507Y-84743372D01*
X142360515Y-84743365D01*
X142436281Y-84612135D01*
X142475500Y-84465766D01*
X142475500Y-84314234D01*
X142436281Y-84167865D01*
X142426973Y-84151744D01*
X142420524Y-84140574D01*
X142360515Y-84036635D01*
X142341234Y-84017354D01*
X142307749Y-83956031D01*
X142312733Y-83886339D01*
X142341234Y-83841992D01*
X142433041Y-83750185D01*
X142560577Y-83622648D01*
X142616160Y-83590557D01*
X142731784Y-83559577D01*
X142731788Y-83559574D01*
X142731790Y-83559574D01*
X142868709Y-83480524D01*
X142868708Y-83480524D01*
X142868716Y-83480520D01*
X142980520Y-83368716D01*
X143059577Y-83231784D01*
X143100500Y-83079057D01*
X143100500Y-80090943D01*
X143098997Y-80085331D01*
X143059577Y-79938215D01*
X143030639Y-79888095D01*
X142980520Y-79801284D01*
X142868716Y-79689480D01*
X142868715Y-79689479D01*
X142864385Y-79685149D01*
X142864374Y-79685139D01*
X142339238Y-79160003D01*
X142305753Y-79098680D01*
X142310737Y-79028988D01*
X142339235Y-78984644D01*
X142360515Y-78963365D01*
X142436281Y-78832135D01*
X142475500Y-78685766D01*
X142475500Y-78534234D01*
X142436281Y-78387865D01*
X142360515Y-78256635D01*
X142360510Y-78256630D01*
X142355568Y-78250189D01*
X142358386Y-78248026D01*
X142332697Y-78200979D01*
X142337681Y-78131287D01*
X142379553Y-78075354D01*
X142388620Y-78069585D01*
X142388613Y-78069574D01*
X142557462Y-77956751D01*
X142557466Y-77956748D01*
X142696748Y-77817466D01*
X142696751Y-77817462D01*
X142806185Y-77653684D01*
X142806192Y-77653671D01*
X142881569Y-77471692D01*
X142881569Y-77471690D01*
X142889862Y-77430000D01*
X142086988Y-77430000D01*
X142104205Y-77420060D01*
X142160060Y-77364205D01*
X142199556Y-77295796D01*
X142220000Y-77219496D01*
X142220000Y-77140504D01*
X142199556Y-77064204D01*
X142160060Y-76995795D01*
X142104205Y-76939940D01*
X142086988Y-76930000D01*
X142889862Y-76930000D01*
X144280138Y-76930000D01*
X145083012Y-76930000D01*
X145065795Y-76939940D01*
X145009940Y-76995795D01*
X144970444Y-77064204D01*
X144950000Y-77140504D01*
X144950000Y-77219496D01*
X144970444Y-77295796D01*
X145009940Y-77364205D01*
X145065795Y-77420060D01*
X145083012Y-77430000D01*
X144280138Y-77430000D01*
X144288430Y-77471690D01*
X144288430Y-77471692D01*
X144363807Y-77653671D01*
X144363814Y-77653684D01*
X144473248Y-77817462D01*
X144473251Y-77817466D01*
X144612533Y-77956748D01*
X144612537Y-77956751D01*
X144776315Y-78066185D01*
X144776328Y-78066192D01*
X144958306Y-78141569D01*
X144958318Y-78141572D01*
X145151504Y-78179999D01*
X145151508Y-78180000D01*
X145300000Y-78180000D01*
X145300000Y-77480000D01*
X145800000Y-77480000D01*
X145800000Y-78180000D01*
X145948492Y-78180000D01*
X145948495Y-78179999D01*
X146141681Y-78141572D01*
X146141693Y-78141569D01*
X146323671Y-78066192D01*
X146323684Y-78066185D01*
X146487462Y-77956751D01*
X146487466Y-77956748D01*
X146626748Y-77817466D01*
X146626751Y-77817462D01*
X146736185Y-77653684D01*
X146736192Y-77653671D01*
X146811569Y-77471692D01*
X146811569Y-77471690D01*
X146819862Y-77430000D01*
X146016988Y-77430000D01*
X146034205Y-77420060D01*
X146090060Y-77364205D01*
X146129556Y-77295796D01*
X146150000Y-77219496D01*
X146150000Y-77140504D01*
X146129556Y-77064204D01*
X146090060Y-76995795D01*
X146034205Y-76939940D01*
X146016988Y-76930000D01*
X146819862Y-76930000D01*
X146811569Y-76888309D01*
X146811569Y-76888307D01*
X146736192Y-76706328D01*
X146736185Y-76706315D01*
X146626751Y-76542537D01*
X146626748Y-76542533D01*
X146487466Y-76403251D01*
X146487462Y-76403248D01*
X146323684Y-76293814D01*
X146323671Y-76293807D01*
X146141693Y-76218430D01*
X146141681Y-76218427D01*
X145948495Y-76180000D01*
X145800000Y-76180000D01*
X145800000Y-76880000D01*
X145300000Y-76880000D01*
X145300000Y-76180000D01*
X145151504Y-76180000D01*
X144958318Y-76218427D01*
X144958306Y-76218430D01*
X144776328Y-76293807D01*
X144776315Y-76293814D01*
X144612537Y-76403248D01*
X144612533Y-76403251D01*
X144473251Y-76542533D01*
X144473248Y-76542537D01*
X144363814Y-76706315D01*
X144363807Y-76706328D01*
X144288430Y-76888307D01*
X144288430Y-76888309D01*
X144280138Y-76930000D01*
X142889862Y-76930000D01*
X142881569Y-76888309D01*
X142881569Y-76888307D01*
X142806192Y-76706328D01*
X142806185Y-76706315D01*
X142696751Y-76542537D01*
X142696748Y-76542533D01*
X142557466Y-76403251D01*
X142557462Y-76403248D01*
X142393684Y-76293814D01*
X142393671Y-76293807D01*
X142211693Y-76218430D01*
X142211681Y-76218427D01*
X142018495Y-76180000D01*
X141620000Y-76180000D01*
X141620000Y-76880000D01*
X141120000Y-76880000D01*
X141120000Y-76180000D01*
X140721504Y-76180000D01*
X140528318Y-76218427D01*
X140528306Y-76218430D01*
X140346328Y-76293807D01*
X140346315Y-76293814D01*
X140182537Y-76403248D01*
X140182533Y-76403251D01*
X140043251Y-76542533D01*
X140043248Y-76542537D01*
X139933814Y-76706315D01*
X139933807Y-76706328D01*
X139858430Y-76888307D01*
X139858430Y-76888309D01*
X139850138Y-76930000D01*
X140653012Y-76930000D01*
X140635795Y-76939940D01*
X140579940Y-76995795D01*
X140540444Y-77064204D01*
X140520000Y-77140504D01*
X140520000Y-77219496D01*
X140540444Y-77295796D01*
X140579940Y-77364205D01*
X140635795Y-77420060D01*
X140653012Y-77430000D01*
X139833735Y-77430000D01*
X139813182Y-77444000D01*
X139775076Y-77450000D01*
X139682155Y-77450000D01*
X139622627Y-77456401D01*
X139622620Y-77456403D01*
X139487913Y-77506645D01*
X139487906Y-77506649D01*
X139372812Y-77592809D01*
X139372809Y-77592812D01*
X139286649Y-77707906D01*
X139286645Y-77707913D01*
X139236403Y-77842620D01*
X139236401Y-77842627D01*
X139230000Y-77902155D01*
X139230000Y-78000000D01*
X140331000Y-78000000D01*
X140339685Y-78002550D01*
X140348647Y-78001262D01*
X140372687Y-78012240D01*
X140398039Y-78019685D01*
X140403966Y-78026525D01*
X140412203Y-78030287D01*
X140426492Y-78052521D01*
X140443794Y-78072489D01*
X140446081Y-78083003D01*
X140449977Y-78089065D01*
X140455000Y-78124000D01*
X140455000Y-78125500D01*
X140435315Y-78192539D01*
X140382511Y-78238294D01*
X140331000Y-78249500D01*
X139682129Y-78249500D01*
X139682123Y-78249501D01*
X139622516Y-78255908D01*
X139487671Y-78306202D01*
X139487664Y-78306206D01*
X139372457Y-78392451D01*
X139372450Y-78392457D01*
X139369804Y-78395993D01*
X139366269Y-78398638D01*
X139366180Y-78398728D01*
X139366167Y-78398715D01*
X139313868Y-78437862D01*
X139244177Y-78442843D01*
X139182859Y-78409359D01*
X139124038Y-78350538D01*
X139124034Y-78350535D01*
X138976553Y-78251990D01*
X138976540Y-78251983D01*
X138812667Y-78184106D01*
X138812658Y-78184103D01*
X138638694Y-78149500D01*
X138638691Y-78149500D01*
X138461309Y-78149500D01*
X138461306Y-78149500D01*
X138287341Y-78184103D01*
X138287332Y-78184106D01*
X138123459Y-78251983D01*
X138123441Y-78251993D01*
X138012983Y-78325799D01*
X137946306Y-78346677D01*
X137878926Y-78328192D01*
X137832236Y-78276213D01*
X137828023Y-78250216D01*
X137812844Y-78230000D01*
X137260409Y-78230000D01*
X137250680Y-78229618D01*
X137249186Y-78229500D01*
X136750830Y-78229500D01*
X136750813Y-78229501D01*
X136749692Y-78229589D01*
X136749330Y-78229618D01*
X136739607Y-78230000D01*
X136187156Y-78230000D01*
X136227594Y-78369193D01*
X136261419Y-78426388D01*
X136278601Y-78494112D01*
X136261419Y-78552628D01*
X136227130Y-78610607D01*
X136227129Y-78610611D01*
X136182335Y-78764791D01*
X136182334Y-78764797D01*
X136179500Y-78800811D01*
X136179500Y-79199169D01*
X136179501Y-79199191D01*
X136182335Y-79235205D01*
X136227129Y-79389388D01*
X136227131Y-79389393D01*
X136308863Y-79527595D01*
X136308869Y-79527603D01*
X136422396Y-79641130D01*
X136422400Y-79641133D01*
X136422402Y-79641135D01*
X136454039Y-79659845D01*
X136469127Y-79668768D01*
X136516810Y-79719837D01*
X136529314Y-79788578D01*
X136502669Y-79853168D01*
X136445334Y-79893098D01*
X136406006Y-79899500D01*
X129800098Y-79899500D01*
X129733059Y-79879815D01*
X129712417Y-79863181D01*
X129368717Y-79519481D01*
X129368709Y-79519475D01*
X129253218Y-79452797D01*
X129253217Y-79452796D01*
X129238152Y-79444099D01*
X129231785Y-79440423D01*
X129079057Y-79399499D01*
X128920943Y-79399499D01*
X128913347Y-79399499D01*
X128913331Y-79399500D01*
X127136230Y-79399500D01*
X127069191Y-79379815D01*
X127023436Y-79327011D01*
X127013492Y-79257853D01*
X127042517Y-79194297D01*
X127048549Y-79187819D01*
X127057270Y-79179098D01*
X127067712Y-79168656D01*
X127159814Y-79019334D01*
X127214999Y-78852797D01*
X127225500Y-78750009D01*
X127225499Y-78149992D01*
X127224153Y-78136819D01*
X127214999Y-78047203D01*
X127214998Y-78047200D01*
X127200202Y-78002550D01*
X127159814Y-77880666D01*
X127067712Y-77731344D01*
X127066368Y-77730000D01*
X136187156Y-77730000D01*
X136750000Y-77730000D01*
X137250000Y-77730000D01*
X137812844Y-77730000D01*
X137772404Y-77590805D01*
X137690738Y-77452714D01*
X137690731Y-77452705D01*
X137577294Y-77339268D01*
X137577285Y-77339261D01*
X137439191Y-77257593D01*
X137439188Y-77257592D01*
X137285130Y-77212834D01*
X137250000Y-77210068D01*
X137250000Y-77730000D01*
X136750000Y-77730000D01*
X136750000Y-77210068D01*
X136749999Y-77210068D01*
X136714869Y-77212834D01*
X136714868Y-77212834D01*
X136560811Y-77257592D01*
X136560808Y-77257593D01*
X136422714Y-77339261D01*
X136422705Y-77339268D01*
X136309268Y-77452705D01*
X136309261Y-77452714D01*
X136227595Y-77590805D01*
X136187156Y-77730000D01*
X127066368Y-77730000D01*
X126943656Y-77607288D01*
X126940342Y-77605243D01*
X126938546Y-77603248D01*
X126937989Y-77602807D01*
X126938064Y-77602711D01*
X126893618Y-77553297D01*
X126882397Y-77484334D01*
X126910240Y-77420252D01*
X126940348Y-77394165D01*
X126943342Y-77392318D01*
X127067315Y-77268345D01*
X127159356Y-77119124D01*
X127159358Y-77119119D01*
X127214505Y-76952697D01*
X127214506Y-76952689D01*
X127214707Y-76950730D01*
X127214707Y-76950728D01*
X127224999Y-76849986D01*
X127225000Y-76849973D01*
X127225000Y-76800000D01*
X124775001Y-76800000D01*
X124775001Y-76849986D01*
X124785494Y-76952697D01*
X124840641Y-77119119D01*
X124840643Y-77119124D01*
X124932684Y-77268345D01*
X125056655Y-77392316D01*
X125056659Y-77392319D01*
X125059656Y-77394168D01*
X125061279Y-77395972D01*
X125062323Y-77396798D01*
X125062181Y-77396976D01*
X125106381Y-77446116D01*
X125117602Y-77515079D01*
X125089759Y-77579161D01*
X125059661Y-77605241D01*
X125056349Y-77607283D01*
X125056343Y-77607288D01*
X124932289Y-77731342D01*
X124911429Y-77765162D01*
X124868995Y-77833960D01*
X124864901Y-77840597D01*
X124812953Y-77887321D01*
X124759362Y-77899500D01*
X123375344Y-77899500D01*
X123308305Y-77879815D01*
X123262550Y-77827011D01*
X123260834Y-77815078D01*
X123242005Y-77790000D01*
X122935852Y-77790000D01*
X122872733Y-77772732D01*
X122863895Y-77767506D01*
X122863893Y-77767505D01*
X122863889Y-77767503D01*
X122708497Y-77722357D01*
X122708491Y-77722356D01*
X122672197Y-77719500D01*
X122672190Y-77719500D01*
X122202810Y-77719500D01*
X122202802Y-77719500D01*
X122166508Y-77722356D01*
X122166502Y-77722357D01*
X122011110Y-77767503D01*
X122011105Y-77767506D01*
X122002266Y-77772732D01*
X121939148Y-77790000D01*
X121632995Y-77790000D01*
X121618537Y-77809255D01*
X121618533Y-77810774D01*
X121580591Y-77869444D01*
X121516953Y-77898288D01*
X121499656Y-77899500D01*
X119086670Y-77899500D01*
X119086654Y-77899499D01*
X119079058Y-77899499D01*
X118920943Y-77899499D01*
X118844579Y-77919961D01*
X118768214Y-77940423D01*
X118768209Y-77940426D01*
X118631290Y-78019475D01*
X118631282Y-78019481D01*
X118587583Y-78063181D01*
X118526260Y-78096666D01*
X118499902Y-78099500D01*
X118411306Y-78099500D01*
X118237341Y-78134103D01*
X118237332Y-78134106D01*
X118073459Y-78201983D01*
X118073446Y-78201990D01*
X117925965Y-78300535D01*
X117925961Y-78300538D01*
X117800538Y-78425961D01*
X117800535Y-78425965D01*
X117701990Y-78573446D01*
X117701983Y-78573459D01*
X117634106Y-78737332D01*
X117634103Y-78737341D01*
X117599500Y-78911304D01*
X116100500Y-78911304D01*
X116100500Y-77589060D01*
X116100501Y-77589047D01*
X116100501Y-77420944D01*
X116100264Y-77420060D01*
X116065414Y-77290000D01*
X121632996Y-77290000D01*
X122187500Y-77290000D01*
X122687500Y-77290000D01*
X123242004Y-77290000D01*
X123199531Y-77143804D01*
X123117221Y-77004625D01*
X123117214Y-77004616D01*
X123002883Y-76890285D01*
X123002874Y-76890278D01*
X122863695Y-76807968D01*
X122863690Y-76807966D01*
X122708418Y-76762855D01*
X122708412Y-76762854D01*
X122687500Y-76761209D01*
X122687500Y-77290000D01*
X122187500Y-77290000D01*
X122187500Y-76761210D01*
X122187499Y-76761209D01*
X122166587Y-76762854D01*
X122166581Y-76762855D01*
X122011309Y-76807966D01*
X122011304Y-76807968D01*
X121872125Y-76890278D01*
X121872116Y-76890285D01*
X121757785Y-77004616D01*
X121757778Y-77004625D01*
X121675468Y-77143804D01*
X121632996Y-77290000D01*
X116065414Y-77290000D01*
X116059577Y-77268216D01*
X116049788Y-77251260D01*
X115980524Y-77131290D01*
X115980518Y-77131282D01*
X115590229Y-76740993D01*
X115099248Y-76250013D01*
X124775000Y-76250013D01*
X124775000Y-76300000D01*
X125750000Y-76300000D01*
X126250000Y-76300000D01*
X127224999Y-76300000D01*
X127224999Y-76250028D01*
X127224998Y-76250013D01*
X127214505Y-76147302D01*
X127159358Y-75980880D01*
X127159356Y-75980875D01*
X127067315Y-75831654D01*
X126943345Y-75707684D01*
X126794124Y-75615643D01*
X126794119Y-75615641D01*
X126627697Y-75560494D01*
X126627690Y-75560493D01*
X126524986Y-75550000D01*
X126250000Y-75550000D01*
X126250000Y-76300000D01*
X125750000Y-76300000D01*
X125750000Y-75550000D01*
X125475029Y-75550000D01*
X125475012Y-75550001D01*
X125372302Y-75560494D01*
X125205880Y-75615641D01*
X125205875Y-75615643D01*
X125056654Y-75707684D01*
X124932684Y-75831654D01*
X124840643Y-75980875D01*
X124840641Y-75980880D01*
X124785494Y-76147302D01*
X124785493Y-76147309D01*
X124775000Y-76250013D01*
X115099248Y-76250013D01*
X114987589Y-76138354D01*
X114987588Y-76138352D01*
X114868717Y-76019481D01*
X114868709Y-76019475D01*
X114752059Y-75952128D01*
X114752056Y-75952127D01*
X114731785Y-75940423D01*
X114579057Y-75899499D01*
X114420943Y-75899499D01*
X114413347Y-75899499D01*
X114413331Y-75899500D01*
X112962844Y-75899500D01*
X112895805Y-75879815D01*
X112850050Y-75827011D01*
X112848334Y-75815078D01*
X112829505Y-75790000D01*
X112523352Y-75790000D01*
X112460233Y-75772732D01*
X112451395Y-75767506D01*
X112451393Y-75767505D01*
X112451389Y-75767503D01*
X112295997Y-75722357D01*
X112295991Y-75722356D01*
X112259697Y-75719500D01*
X112259690Y-75719500D01*
X112149000Y-75719500D01*
X112081961Y-75699815D01*
X112036206Y-75647011D01*
X112025000Y-75595500D01*
X112025000Y-75540000D01*
X111899000Y-75540000D01*
X111831961Y-75520315D01*
X111786206Y-75467511D01*
X111775000Y-75416000D01*
X111775000Y-75290000D01*
X112275000Y-75290000D01*
X112829504Y-75290000D01*
X112787031Y-75143804D01*
X112704721Y-75004625D01*
X112704714Y-75004616D01*
X112590383Y-74890285D01*
X112590374Y-74890278D01*
X112451195Y-74807968D01*
X112451190Y-74807966D01*
X112295918Y-74762855D01*
X112295912Y-74762854D01*
X112275000Y-74761209D01*
X112275000Y-75290000D01*
X111775000Y-75290000D01*
X111775000Y-74761210D01*
X111774999Y-74761209D01*
X111754087Y-74762854D01*
X111754081Y-74762855D01*
X111598809Y-74807966D01*
X111598804Y-74807968D01*
X111459625Y-74890278D01*
X111459616Y-74890285D01*
X111345285Y-75004616D01*
X111345278Y-75004625D01*
X111262968Y-75143804D01*
X111262966Y-75143809D01*
X111251943Y-75181752D01*
X111214337Y-75240638D01*
X111150864Y-75269844D01*
X111081678Y-75260098D01*
X111028743Y-75214494D01*
X111025480Y-75209157D01*
X110980522Y-75131287D01*
X110980518Y-75131282D01*
X110368717Y-74519481D01*
X110368716Y-74519480D01*
X110281904Y-74469360D01*
X110281904Y-74469359D01*
X110281900Y-74469358D01*
X110231785Y-74440423D01*
X110079057Y-74399499D01*
X109920943Y-74399499D01*
X109913347Y-74399499D01*
X109913331Y-74399500D01*
X109694595Y-74399500D01*
X109627556Y-74379815D01*
X109606918Y-74363185D01*
X109552598Y-74308865D01*
X109552591Y-74308861D01*
X109414393Y-74227131D01*
X109414388Y-74227129D01*
X109260208Y-74182335D01*
X109260202Y-74182334D01*
X109224181Y-74179500D01*
X108825830Y-74179500D01*
X108825808Y-74179501D01*
X108789794Y-74182335D01*
X108635611Y-74227129D01*
X108635604Y-74227132D01*
X108578119Y-74261128D01*
X108510395Y-74278309D01*
X108451881Y-74261128D01*
X108394395Y-74227132D01*
X108394388Y-74227129D01*
X108240208Y-74182335D01*
X108240202Y-74182334D01*
X108204181Y-74179500D01*
X107805830Y-74179500D01*
X107805808Y-74179501D01*
X107769794Y-74182335D01*
X107615611Y-74227129D01*
X107615606Y-74227131D01*
X107477407Y-74308861D01*
X107477401Y-74308865D01*
X107397749Y-74388516D01*
X107383863Y-74396532D01*
X107374608Y-74406714D01*
X107342164Y-74420607D01*
X107294549Y-74433366D01*
X107224699Y-74431705D01*
X107174773Y-74401273D01*
X107074038Y-74300538D01*
X107074034Y-74300535D01*
X106926553Y-74201990D01*
X106926540Y-74201983D01*
X106762667Y-74134106D01*
X106762658Y-74134103D01*
X106588694Y-74099500D01*
X106588691Y-74099500D01*
X106411309Y-74099500D01*
X106411306Y-74099500D01*
X106237341Y-74134103D01*
X106237332Y-74134106D01*
X106073459Y-74201983D01*
X106073446Y-74201990D01*
X105925965Y-74300535D01*
X105869642Y-74356858D01*
X105808318Y-74390342D01*
X105738626Y-74385357D01*
X105689191Y-74348350D01*
X105688460Y-74349082D01*
X105683373Y-74343995D01*
X105682693Y-74343486D01*
X105682692Y-74343484D01*
X105682186Y-74342808D01*
X105567093Y-74256649D01*
X105567086Y-74256645D01*
X105432379Y-74206403D01*
X105432372Y-74206401D01*
X105372844Y-74200000D01*
X105225000Y-74200000D01*
X105225000Y-74926000D01*
X105205315Y-74993039D01*
X105152511Y-75038794D01*
X105101000Y-75050000D01*
X104849499Y-75050000D01*
X104782460Y-75030315D01*
X104736705Y-74977511D01*
X104725499Y-74926000D01*
X104725499Y-74652129D01*
X104725321Y-74648804D01*
X104725426Y-74648798D01*
X104725000Y-74640836D01*
X104725000Y-74200000D01*
X104577155Y-74200000D01*
X104517627Y-74206401D01*
X104517623Y-74206402D01*
X104469046Y-74224520D01*
X104399354Y-74229503D01*
X104382382Y-74224519D01*
X104332485Y-74205909D01*
X104332483Y-74205908D01*
X104272883Y-74199501D01*
X104272881Y-74199500D01*
X104272873Y-74199500D01*
X104272865Y-74199500D01*
X103949500Y-74199500D01*
X103940814Y-74196949D01*
X103931853Y-74198238D01*
X103907812Y-74187259D01*
X103882461Y-74179815D01*
X103876533Y-74172974D01*
X103868297Y-74169213D01*
X103854007Y-74146978D01*
X103836706Y-74127011D01*
X103834418Y-74116496D01*
X103830523Y-74110435D01*
X103825500Y-74075500D01*
X103825500Y-74075097D01*
X103845185Y-74008058D01*
X103861819Y-73987416D01*
X104212417Y-73636819D01*
X104273740Y-73603334D01*
X104300098Y-73600500D01*
X104355404Y-73600500D01*
X104422443Y-73620185D01*
X104443085Y-73636819D01*
X104447396Y-73641130D01*
X104447400Y-73641133D01*
X104447402Y-73641135D01*
X104585607Y-73722869D01*
X104593276Y-73725097D01*
X104739791Y-73767664D01*
X104739794Y-73767664D01*
X104739796Y-73767665D01*
X104775819Y-73770500D01*
X105274180Y-73770499D01*
X105310204Y-73767665D01*
X105464393Y-73722869D01*
X105602598Y-73641135D01*
X105716135Y-73527598D01*
X105797869Y-73389393D01*
X105842044Y-73237341D01*
X105842664Y-73235208D01*
X105842664Y-73235206D01*
X105842665Y-73235204D01*
X105845500Y-73199181D01*
X105845499Y-72800820D01*
X105842665Y-72764796D01*
X105835198Y-72739094D01*
X105835397Y-72669227D01*
X105873338Y-72610556D01*
X105936976Y-72581712D01*
X105954274Y-72580500D01*
X107255639Y-72580500D01*
X107322678Y-72600185D01*
X107343315Y-72616814D01*
X107395728Y-72669227D01*
X107425966Y-72699465D01*
X107573446Y-72798009D01*
X107573459Y-72798016D01*
X107696363Y-72848923D01*
X107737334Y-72865894D01*
X107737336Y-72865894D01*
X107737341Y-72865896D01*
X107911304Y-72900499D01*
X107911307Y-72900500D01*
X107911309Y-72900500D01*
X108088693Y-72900500D01*
X108088694Y-72900499D01*
X108146682Y-72888964D01*
X108262658Y-72865896D01*
X108262661Y-72865894D01*
X108262666Y-72865894D01*
X108419799Y-72800808D01*
X108426540Y-72798016D01*
X108426540Y-72798015D01*
X108426547Y-72798013D01*
X108574035Y-72699464D01*
X108699464Y-72574035D01*
X108798013Y-72426547D01*
X108865894Y-72262666D01*
X108877964Y-72201989D01*
X108900499Y-72088695D01*
X108900500Y-72088693D01*
X108900500Y-71911306D01*
X108900499Y-71911304D01*
X108865896Y-71737341D01*
X108865893Y-71737332D01*
X108798016Y-71573459D01*
X108798009Y-71573446D01*
X108699464Y-71425965D01*
X108699461Y-71425961D01*
X108574038Y-71300538D01*
X108574034Y-71300535D01*
X108426553Y-71201990D01*
X108426540Y-71201983D01*
X108262667Y-71134106D01*
X108262658Y-71134103D01*
X108088694Y-71099500D01*
X108088691Y-71099500D01*
X107911309Y-71099500D01*
X107911306Y-71099500D01*
X107737341Y-71134103D01*
X107737332Y-71134106D01*
X107573459Y-71201983D01*
X107573446Y-71201990D01*
X107425965Y-71300535D01*
X107425961Y-71300538D01*
X107383321Y-71343180D01*
X107321998Y-71376666D01*
X107295639Y-71379500D01*
X105694596Y-71379500D01*
X105627557Y-71359815D01*
X105606915Y-71343181D01*
X105602603Y-71338869D01*
X105602595Y-71338863D01*
X105464393Y-71257131D01*
X105464388Y-71257129D01*
X105310208Y-71212335D01*
X105310202Y-71212334D01*
X105274181Y-71209500D01*
X104775830Y-71209500D01*
X104775808Y-71209501D01*
X104739794Y-71212335D01*
X104585611Y-71257129D01*
X104585606Y-71257131D01*
X104447404Y-71338863D01*
X104447396Y-71338869D01*
X104333869Y-71452396D01*
X104333860Y-71452407D01*
X104331230Y-71456856D01*
X104280160Y-71504538D01*
X104211417Y-71517040D01*
X104146829Y-71490392D01*
X104106900Y-71433056D01*
X104100500Y-71393732D01*
X104100500Y-70589060D01*
X104100501Y-70589047D01*
X104100501Y-70420944D01*
X104100501Y-70420943D01*
X104059577Y-70268216D01*
X104043231Y-70239904D01*
X103980524Y-70131290D01*
X103980518Y-70131282D01*
X103368716Y-69519480D01*
X103368714Y-69519479D01*
X103313048Y-69487341D01*
X103281904Y-69469360D01*
X103281904Y-69469359D01*
X103281900Y-69469358D01*
X103231785Y-69440423D01*
X103079057Y-69399499D01*
X102920943Y-69399499D01*
X102913347Y-69399499D01*
X102913331Y-69399500D01*
X99800097Y-69399500D01*
X99733058Y-69379815D01*
X99712416Y-69363181D01*
X99386819Y-69037584D01*
X99353334Y-68976261D01*
X99350500Y-68949903D01*
X99350500Y-68435718D01*
X99370185Y-68368679D01*
X99418207Y-68325233D01*
X99457815Y-68305052D01*
X99457815Y-68305051D01*
X99457816Y-68305051D01*
X99568544Y-68224603D01*
X99629786Y-68180109D01*
X99629788Y-68180106D01*
X99629792Y-68180104D01*
X99780104Y-68029792D01*
X99899683Y-67865204D01*
X99955011Y-67822540D01*
X100024624Y-67816561D01*
X100086420Y-67849166D01*
X100100313Y-67865199D01*
X100201815Y-68004905D01*
X100219896Y-68029792D01*
X100370213Y-68180109D01*
X100542179Y-68305048D01*
X100542181Y-68305049D01*
X100542184Y-68305051D01*
X100731588Y-68401557D01*
X100933757Y-68467246D01*
X101143713Y-68500500D01*
X101143714Y-68500500D01*
X101356286Y-68500500D01*
X101356287Y-68500500D01*
X101566243Y-68467246D01*
X101768412Y-68401557D01*
X101957816Y-68305051D01*
X102068544Y-68224603D01*
X102129786Y-68180109D01*
X102129788Y-68180106D01*
X102129792Y-68180104D01*
X102280104Y-68029792D01*
X102399991Y-67864779D01*
X102455320Y-67822115D01*
X102524933Y-67816136D01*
X102586729Y-67848741D01*
X102600627Y-67864781D01*
X102720272Y-68029459D01*
X102720276Y-68029464D01*
X102870535Y-68179723D01*
X102870540Y-68179727D01*
X103042442Y-68304620D01*
X103231782Y-68401095D01*
X103433871Y-68466757D01*
X103500000Y-68477231D01*
X103500000Y-67429145D01*
X103566657Y-67467630D01*
X103687465Y-67500000D01*
X103812535Y-67500000D01*
X103933343Y-67467630D01*
X104000000Y-67429145D01*
X104000000Y-68477230D01*
X104066126Y-68466757D01*
X104066129Y-68466757D01*
X104268217Y-68401095D01*
X104457557Y-68304620D01*
X104629458Y-68179728D01*
X104768330Y-68040856D01*
X104829653Y-68007371D01*
X104899345Y-68012355D01*
X104955279Y-68054226D01*
X104961551Y-68063440D01*
X104965185Y-68069331D01*
X104965186Y-68069334D01*
X105057288Y-68218656D01*
X105181344Y-68342712D01*
X105330666Y-68434814D01*
X105497203Y-68489999D01*
X105599991Y-68500500D01*
X106900008Y-68500499D01*
X107002797Y-68489999D01*
X107169334Y-68434814D01*
X107318656Y-68342712D01*
X107442712Y-68218656D01*
X107534814Y-68069334D01*
X107589999Y-67902797D01*
X107600500Y-67800009D01*
X107600500Y-67749500D01*
X107620185Y-67682461D01*
X107672989Y-67636706D01*
X107724500Y-67625500D01*
X110724903Y-67625500D01*
X110754343Y-67634144D01*
X110784330Y-67640668D01*
X110789345Y-67644422D01*
X110791942Y-67645185D01*
X110812584Y-67661819D01*
X110863181Y-67712416D01*
X110896666Y-67773739D01*
X110899500Y-67800097D01*
X110899500Y-71913330D01*
X110899499Y-71913348D01*
X110899499Y-72079054D01*
X110899498Y-72079054D01*
X110932438Y-72201987D01*
X110940423Y-72231785D01*
X110966604Y-72277131D01*
X110980117Y-72300536D01*
X111019479Y-72368714D01*
X111019481Y-72368717D01*
X111138349Y-72487585D01*
X111138355Y-72487590D01*
X111563181Y-72912416D01*
X111596666Y-72973739D01*
X111599500Y-73000097D01*
X111599500Y-73088695D01*
X111634103Y-73262658D01*
X111634106Y-73262667D01*
X111701983Y-73426540D01*
X111701990Y-73426553D01*
X111800535Y-73574034D01*
X111800538Y-73574038D01*
X111925961Y-73699461D01*
X111925965Y-73699464D01*
X112073446Y-73798009D01*
X112073459Y-73798016D01*
X112196363Y-73848923D01*
X112237334Y-73865894D01*
X112237336Y-73865894D01*
X112237341Y-73865896D01*
X112411304Y-73900499D01*
X112411307Y-73900500D01*
X112411309Y-73900500D01*
X112588693Y-73900500D01*
X112588694Y-73900499D01*
X112646682Y-73888964D01*
X112762658Y-73865896D01*
X112762661Y-73865894D01*
X112762666Y-73865894D01*
X112926547Y-73798013D01*
X113074035Y-73699464D01*
X113199464Y-73574035D01*
X113298013Y-73426547D01*
X113365894Y-73262666D01*
X113370932Y-73237341D01*
X113400499Y-73088695D01*
X113400500Y-73088693D01*
X113400500Y-72911306D01*
X113400499Y-72911304D01*
X113365896Y-72737341D01*
X113365893Y-72737332D01*
X113360966Y-72725438D01*
X113337841Y-72669608D01*
X113298016Y-72573459D01*
X113298009Y-72573446D01*
X113199464Y-72425965D01*
X113199461Y-72425961D01*
X113074038Y-72300538D01*
X113074034Y-72300535D01*
X112926553Y-72201990D01*
X112926540Y-72201983D01*
X112762667Y-72134106D01*
X112762658Y-72134103D01*
X112588694Y-72099500D01*
X112588691Y-72099500D01*
X112500098Y-72099500D01*
X112433059Y-72079815D01*
X112412417Y-72063181D01*
X112136819Y-71787583D01*
X112103334Y-71726260D01*
X112100500Y-71699902D01*
X112100500Y-69661304D01*
X112349500Y-69661304D01*
X112349500Y-69838695D01*
X112384103Y-70012658D01*
X112384106Y-70012667D01*
X112451983Y-70176540D01*
X112451990Y-70176553D01*
X112550535Y-70324034D01*
X112550538Y-70324038D01*
X112675961Y-70449461D01*
X112675965Y-70449464D01*
X112823446Y-70548009D01*
X112823459Y-70548016D01*
X112898403Y-70579058D01*
X112987334Y-70615894D01*
X112987336Y-70615894D01*
X112987341Y-70615896D01*
X113161304Y-70650499D01*
X113161307Y-70650500D01*
X113161309Y-70650500D01*
X113249903Y-70650500D01*
X113316942Y-70670185D01*
X113337583Y-70686818D01*
X115131284Y-72480520D01*
X115131286Y-72480521D01*
X115131290Y-72480524D01*
X115252873Y-72550719D01*
X115268216Y-72559577D01*
X115420943Y-72600501D01*
X115420945Y-72600501D01*
X115586654Y-72600501D01*
X115586670Y-72600500D01*
X116894610Y-72600500D01*
X116961649Y-72620185D01*
X117007404Y-72672989D01*
X117013823Y-72690382D01*
X117027258Y-72737332D01*
X117066089Y-72873045D01*
X117066090Y-72873048D01*
X117066091Y-72873049D01*
X117160302Y-73053407D01*
X117176652Y-73073459D01*
X117288890Y-73211109D01*
X117352122Y-73262667D01*
X117446593Y-73339698D01*
X117626951Y-73433909D01*
X117822582Y-73489886D01*
X117941963Y-73500500D01*
X119058036Y-73500499D01*
X119177418Y-73489886D01*
X119373049Y-73433909D01*
X119553407Y-73339698D01*
X119711109Y-73211109D01*
X119839698Y-73053407D01*
X119933909Y-72873049D01*
X119989886Y-72677418D01*
X120000500Y-72558037D01*
X120000499Y-71441964D01*
X119989886Y-71322582D01*
X119969118Y-71250000D01*
X126220069Y-71250000D01*
X126222832Y-71285122D01*
X126222833Y-71285128D01*
X126267592Y-71439188D01*
X126267593Y-71439191D01*
X126349261Y-71577285D01*
X126349268Y-71577294D01*
X126462705Y-71690731D01*
X126462714Y-71690738D01*
X126600805Y-71772404D01*
X126740000Y-71812844D01*
X126740000Y-71250000D01*
X126220069Y-71250000D01*
X119969118Y-71250000D01*
X119935956Y-71134106D01*
X119933910Y-71126954D01*
X119933909Y-71126953D01*
X119933909Y-71126951D01*
X119839698Y-70946593D01*
X119779449Y-70872704D01*
X119779449Y-70872702D01*
X119711111Y-70788892D01*
X119664418Y-70750819D01*
X127239500Y-70750819D01*
X127239500Y-70974902D01*
X127239501Y-71000000D01*
X127239501Y-71249181D01*
X127239618Y-71250663D01*
X127240000Y-71260393D01*
X127240000Y-71812844D01*
X127379194Y-71772405D01*
X127379196Y-71772404D01*
X127436386Y-71738582D01*
X127504109Y-71721398D01*
X127562629Y-71738581D01*
X127620607Y-71772869D01*
X127639187Y-71778267D01*
X127774791Y-71817664D01*
X127774794Y-71817664D01*
X127774796Y-71817665D01*
X127810819Y-71820500D01*
X128209180Y-71820499D01*
X128245204Y-71817665D01*
X128399393Y-71772869D01*
X128537598Y-71691135D01*
X128591915Y-71636817D01*
X128653236Y-71603334D01*
X128679595Y-71600500D01*
X129345831Y-71600500D01*
X129345847Y-71600501D01*
X129353443Y-71600501D01*
X129511554Y-71600501D01*
X129511557Y-71600501D01*
X129664285Y-71559577D01*
X129733733Y-71519481D01*
X129801216Y-71480520D01*
X129814917Y-71466819D01*
X129841844Y-71452115D01*
X129867663Y-71435523D01*
X129873863Y-71434631D01*
X129876240Y-71433334D01*
X129902598Y-71430500D01*
X129920902Y-71430500D01*
X129987941Y-71450185D01*
X130033696Y-71502989D01*
X130043640Y-71572147D01*
X130014615Y-71635703D01*
X130008583Y-71642181D01*
X129956981Y-71693782D01*
X129956975Y-71693790D01*
X129914008Y-71768213D01*
X129914008Y-71768214D01*
X129877923Y-71830714D01*
X129877923Y-71830715D01*
X129836999Y-71983443D01*
X129836999Y-71983445D01*
X129836999Y-72151546D01*
X129837000Y-72151559D01*
X129837000Y-72439944D01*
X129817315Y-72506983D01*
X129778099Y-72545481D01*
X129769611Y-72550716D01*
X129650716Y-72669612D01*
X129562455Y-72812704D01*
X129562450Y-72812715D01*
X129535773Y-72893219D01*
X129509564Y-72972315D01*
X129509564Y-72972316D01*
X129509563Y-72972316D01*
X129499500Y-73070818D01*
X129499500Y-73929181D01*
X129509563Y-74027683D01*
X129562450Y-74187284D01*
X129562455Y-74187295D01*
X129650716Y-74330387D01*
X129650719Y-74330391D01*
X129769608Y-74449280D01*
X129769612Y-74449283D01*
X129912704Y-74537544D01*
X129912707Y-74537545D01*
X129912713Y-74537549D01*
X130072315Y-74590436D01*
X130170826Y-74600500D01*
X130170831Y-74600500D01*
X130704169Y-74600500D01*
X130704174Y-74600500D01*
X130802685Y-74590436D01*
X130962287Y-74537549D01*
X131105391Y-74449281D01*
X131224281Y-74330391D01*
X131312549Y-74187287D01*
X131365436Y-74027685D01*
X131375500Y-73929174D01*
X131375500Y-73070826D01*
X131365436Y-72972315D01*
X131312549Y-72812713D01*
X131312545Y-72812707D01*
X131312544Y-72812704D01*
X131224283Y-72669612D01*
X131224282Y-72669611D01*
X131224281Y-72669609D01*
X131105391Y-72550719D01*
X131105390Y-72550718D01*
X131105388Y-72550716D01*
X131096901Y-72545481D01*
X131090078Y-72537895D01*
X131080797Y-72533657D01*
X131067108Y-72512356D01*
X131050177Y-72493532D01*
X131047533Y-72481896D01*
X131043023Y-72474879D01*
X131038000Y-72439944D01*
X131038000Y-72362598D01*
X131057685Y-72295559D01*
X131074314Y-72274921D01*
X131170520Y-72178716D01*
X131170520Y-72178715D01*
X131176268Y-72172968D01*
X131178152Y-72174852D01*
X131223945Y-72141395D01*
X131293690Y-72137220D01*
X131354620Y-72171415D01*
X131373311Y-72196069D01*
X131376728Y-72201987D01*
X131409479Y-72258715D01*
X131528349Y-72377585D01*
X131528355Y-72377590D01*
X131723425Y-72572660D01*
X131756910Y-72633983D01*
X131751926Y-72703675D01*
X131741283Y-72725438D01*
X131687452Y-72812710D01*
X131687450Y-72812715D01*
X131660773Y-72893219D01*
X131634564Y-72972315D01*
X131634564Y-72972316D01*
X131634563Y-72972316D01*
X131624500Y-73070818D01*
X131624500Y-73929181D01*
X131634563Y-74027683D01*
X131687450Y-74187284D01*
X131687455Y-74187295D01*
X131775716Y-74330387D01*
X131775719Y-74330391D01*
X131894608Y-74449280D01*
X131894612Y-74449283D01*
X132037704Y-74537544D01*
X132037707Y-74537545D01*
X132037713Y-74537549D01*
X132197315Y-74590436D01*
X132295826Y-74600500D01*
X132295831Y-74600500D01*
X132829169Y-74600500D01*
X132829174Y-74600500D01*
X132927685Y-74590436D01*
X133087287Y-74537549D01*
X133230391Y-74449281D01*
X133349281Y-74330391D01*
X133437549Y-74187287D01*
X133438142Y-74185494D01*
X133438880Y-74184428D01*
X133440599Y-74180744D01*
X133441228Y-74181037D01*
X133477915Y-74128051D01*
X133542430Y-74101228D01*
X133555848Y-74100500D01*
X135775639Y-74100500D01*
X135842678Y-74120185D01*
X135863315Y-74136814D01*
X135895714Y-74169213D01*
X135925966Y-74199465D01*
X136073446Y-74298009D01*
X136073459Y-74298016D01*
X136194979Y-74348350D01*
X136237334Y-74365894D01*
X136237336Y-74365894D01*
X136237341Y-74365896D01*
X136411304Y-74400499D01*
X136411307Y-74400500D01*
X136411309Y-74400500D01*
X136588693Y-74400500D01*
X136588694Y-74400499D01*
X136664820Y-74385357D01*
X136762658Y-74365896D01*
X136762661Y-74365894D01*
X136762666Y-74365894D01*
X136926547Y-74298013D01*
X137074035Y-74199464D01*
X137199464Y-74074035D01*
X137298013Y-73926547D01*
X137365894Y-73762666D01*
X137373811Y-73722869D01*
X137378383Y-73699882D01*
X137410768Y-73637971D01*
X137471483Y-73603397D01*
X137541253Y-73607136D01*
X137597925Y-73648003D01*
X137621617Y-73699882D01*
X137634103Y-73762658D01*
X137634106Y-73762667D01*
X137701983Y-73926540D01*
X137701990Y-73926553D01*
X137800535Y-74074034D01*
X137800538Y-74074038D01*
X137925961Y-74199461D01*
X137925965Y-74199464D01*
X138073446Y-74298009D01*
X138073459Y-74298016D01*
X138194979Y-74348350D01*
X138237334Y-74365894D01*
X138237336Y-74365894D01*
X138237341Y-74365896D01*
X138411304Y-74400499D01*
X138411307Y-74400500D01*
X138411309Y-74400500D01*
X138588693Y-74400500D01*
X138588694Y-74400499D01*
X138664820Y-74385357D01*
X138762658Y-74365896D01*
X138762661Y-74365894D01*
X138762666Y-74365894D01*
X138926547Y-74298013D01*
X139074035Y-74199464D01*
X139199464Y-74074035D01*
X139298013Y-73926547D01*
X139365894Y-73762666D01*
X139373811Y-73722868D01*
X139390927Y-73636819D01*
X139400500Y-73588691D01*
X139400500Y-73411309D01*
X139400500Y-73411306D01*
X139400499Y-73411304D01*
X139365896Y-73237341D01*
X139365893Y-73237332D01*
X139298016Y-73073459D01*
X139298009Y-73073446D01*
X139199464Y-72925965D01*
X139199461Y-72925961D01*
X139136819Y-72863319D01*
X139103334Y-72801996D01*
X139100500Y-72775638D01*
X139100500Y-71800098D01*
X139106910Y-71778267D01*
X139108763Y-71755591D01*
X139117530Y-71742098D01*
X139120185Y-71733059D01*
X139125990Y-71724787D01*
X139130992Y-71718243D01*
X139205520Y-71643716D01*
X139255639Y-71556904D01*
X139284577Y-71506785D01*
X139325500Y-71354057D01*
X139325500Y-71195943D01*
X139325500Y-70829500D01*
X139345185Y-70762461D01*
X139397989Y-70716706D01*
X139449500Y-70705500D01*
X139615686Y-70705500D01*
X139615694Y-70705500D01*
X139652569Y-70702598D01*
X139652571Y-70702597D01*
X139652573Y-70702597D01*
X139706880Y-70686819D01*
X139810398Y-70656744D01*
X139951865Y-70573081D01*
X140068081Y-70456865D01*
X140151744Y-70315398D01*
X140151745Y-70315394D01*
X140151746Y-70315393D01*
X140173678Y-70239904D01*
X140211284Y-70181018D01*
X140274757Y-70151812D01*
X140292754Y-70150499D01*
X142107246Y-70150499D01*
X142174285Y-70170184D01*
X142220040Y-70222988D01*
X142226322Y-70239904D01*
X142248253Y-70315393D01*
X142248255Y-70315396D01*
X142248256Y-70315398D01*
X142276514Y-70363180D01*
X142331917Y-70456862D01*
X142331923Y-70456870D01*
X142448129Y-70573076D01*
X142448133Y-70573079D01*
X142448135Y-70573081D01*
X142589602Y-70656744D01*
X142631224Y-70668836D01*
X142747426Y-70702597D01*
X142747429Y-70702597D01*
X142747431Y-70702598D01*
X142784306Y-70705500D01*
X142784314Y-70705500D01*
X144565686Y-70705500D01*
X144565694Y-70705500D01*
X144602569Y-70702598D01*
X144602571Y-70702597D01*
X144602573Y-70702597D01*
X144656880Y-70686819D01*
X144760398Y-70656744D01*
X144901865Y-70573081D01*
X145018081Y-70456865D01*
X145101744Y-70315398D01*
X145147598Y-70157569D01*
X145150500Y-70120694D01*
X145150500Y-69689306D01*
X145147598Y-69652431D01*
X145142273Y-69634103D01*
X145108972Y-69519480D01*
X145101744Y-69494602D01*
X145086816Y-69469360D01*
X145059175Y-69422620D01*
X145041992Y-69354896D01*
X145064152Y-69288634D01*
X145118619Y-69244871D01*
X145165907Y-69235500D01*
X146517898Y-69235500D01*
X146552540Y-69242670D01*
X146553115Y-69240693D01*
X146714791Y-69287664D01*
X146714794Y-69287664D01*
X146714796Y-69287665D01*
X146750819Y-69290500D01*
X147249180Y-69290499D01*
X147285204Y-69287665D01*
X147439393Y-69242869D01*
X147577598Y-69161135D01*
X147691135Y-69047598D01*
X147772869Y-68909393D01*
X147817665Y-68755204D01*
X147820500Y-68719181D01*
X147820499Y-68320820D01*
X147817665Y-68284796D01*
X147772869Y-68130607D01*
X147738581Y-68072629D01*
X147721398Y-68004905D01*
X147738582Y-67946386D01*
X147772404Y-67889196D01*
X147772405Y-67889194D01*
X147812844Y-67750000D01*
X147260409Y-67750000D01*
X147250680Y-67749618D01*
X147249186Y-67749500D01*
X146750830Y-67749500D01*
X146750813Y-67749501D01*
X146749692Y-67749589D01*
X146749330Y-67749618D01*
X146739607Y-67750000D01*
X146187155Y-67750000D01*
X146223734Y-67875906D01*
X146223534Y-67945775D01*
X146185591Y-68004445D01*
X146121953Y-68033288D01*
X146104657Y-68034500D01*
X145165326Y-68034500D01*
X145098287Y-68014815D01*
X145052532Y-67962011D01*
X145042588Y-67892853D01*
X145058594Y-67847379D01*
X145101281Y-67775198D01*
X145147100Y-67617486D01*
X145147295Y-67615001D01*
X145147295Y-67615000D01*
X143799000Y-67615000D01*
X143790314Y-67612449D01*
X143781353Y-67613738D01*
X143757312Y-67602759D01*
X143731961Y-67595315D01*
X143726033Y-67588474D01*
X143717797Y-67584713D01*
X143703507Y-67562478D01*
X143686206Y-67542511D01*
X143683918Y-67531996D01*
X143680023Y-67525935D01*
X143675000Y-67491000D01*
X143675000Y-67250000D01*
X146187156Y-67250000D01*
X146750000Y-67250000D01*
X147250000Y-67250000D01*
X147812844Y-67250000D01*
X147772404Y-67110805D01*
X147690738Y-66972714D01*
X147690731Y-66972705D01*
X147577294Y-66859268D01*
X147577285Y-66859261D01*
X147439191Y-66777593D01*
X147439188Y-66777592D01*
X147285130Y-66732834D01*
X147250000Y-66730068D01*
X147250000Y-67250000D01*
X146750000Y-67250000D01*
X146750000Y-66730068D01*
X146749999Y-66730068D01*
X146714869Y-66732834D01*
X146714868Y-66732834D01*
X146560811Y-66777592D01*
X146560808Y-66777593D01*
X146422714Y-66859261D01*
X146422705Y-66859268D01*
X146309268Y-66972705D01*
X146309261Y-66972714D01*
X146227595Y-67110805D01*
X146187156Y-67250000D01*
X143675000Y-67250000D01*
X143675000Y-67239000D01*
X143694685Y-67171961D01*
X143747489Y-67126206D01*
X143799000Y-67115000D01*
X145147295Y-67115000D01*
X145147295Y-67114998D01*
X145147100Y-67112513D01*
X145101282Y-66954803D01*
X145036031Y-66844471D01*
X145018848Y-66776747D01*
X145041008Y-66710484D01*
X145091359Y-66668506D01*
X145100724Y-66664239D01*
X145136785Y-66654577D01*
X145187146Y-66625501D01*
X145273716Y-66575520D01*
X145385520Y-66463716D01*
X145385520Y-66463714D01*
X145395724Y-66453511D01*
X145395728Y-66453506D01*
X145858506Y-65990728D01*
X145858511Y-65990724D01*
X145868714Y-65980520D01*
X145868716Y-65980520D01*
X145980520Y-65868716D01*
X146059577Y-65731785D01*
X146100501Y-65579058D01*
X146100501Y-65420943D01*
X146059577Y-65268216D01*
X146059577Y-65268215D01*
X146021340Y-65201987D01*
X145980520Y-65131284D01*
X144987589Y-64138354D01*
X144987588Y-64138352D01*
X144868717Y-64019481D01*
X144868716Y-64019480D01*
X144781904Y-63969360D01*
X144781904Y-63969359D01*
X144781900Y-63969358D01*
X144731785Y-63940423D01*
X144579057Y-63899499D01*
X144420943Y-63899499D01*
X144413347Y-63899499D01*
X144413331Y-63899500D01*
X136920940Y-63899500D01*
X136880019Y-63910464D01*
X136880019Y-63910465D01*
X136842751Y-63920451D01*
X136768214Y-63940423D01*
X136768209Y-63940426D01*
X136631290Y-64019475D01*
X136631282Y-64019481D01*
X135019481Y-65631282D01*
X135019479Y-65631285D01*
X134994420Y-65674689D01*
X134975600Y-65707288D01*
X134969361Y-65718094D01*
X134969359Y-65718096D01*
X134940425Y-65768209D01*
X134940424Y-65768210D01*
X134927689Y-65815739D01*
X134899499Y-65920943D01*
X134899499Y-65920945D01*
X134899499Y-66089046D01*
X134899500Y-66089059D01*
X134899500Y-68913330D01*
X134899499Y-68913348D01*
X134899499Y-69079054D01*
X134899498Y-69079054D01*
X134940424Y-69231789D01*
X134940425Y-69231790D01*
X134962186Y-69269480D01*
X134962187Y-69269482D01*
X135019475Y-69368709D01*
X135019481Y-69368717D01*
X135138349Y-69487585D01*
X135138355Y-69487590D01*
X135920139Y-70269374D01*
X135920149Y-70269385D01*
X135924479Y-70273715D01*
X135924480Y-70273716D01*
X136036284Y-70385520D01*
X136097640Y-70420943D01*
X136123095Y-70435639D01*
X136123097Y-70435641D01*
X136173213Y-70464576D01*
X136173215Y-70464577D01*
X136325942Y-70505500D01*
X136325943Y-70505500D01*
X137379192Y-70505500D01*
X137446231Y-70525185D01*
X137466874Y-70541820D01*
X137498129Y-70573076D01*
X137498133Y-70573079D01*
X137498135Y-70573081D01*
X137639602Y-70656744D01*
X137681224Y-70668836D01*
X137797426Y-70702597D01*
X137797429Y-70702597D01*
X137797431Y-70702598D01*
X137834306Y-70705500D01*
X138000500Y-70705500D01*
X138009185Y-70708050D01*
X138018147Y-70706762D01*
X138042187Y-70717740D01*
X138067539Y-70725185D01*
X138073466Y-70732025D01*
X138081703Y-70735787D01*
X138095992Y-70758021D01*
X138113294Y-70777989D01*
X138115581Y-70788503D01*
X138119477Y-70794565D01*
X138124500Y-70829500D01*
X138124500Y-70974902D01*
X138104815Y-71041941D01*
X138088181Y-71062583D01*
X138019481Y-71131282D01*
X138019475Y-71131290D01*
X137980117Y-71199462D01*
X137980117Y-71199464D01*
X137940423Y-71268214D01*
X137935893Y-71285122D01*
X137899499Y-71420943D01*
X137899499Y-71420945D01*
X137899499Y-71589046D01*
X137899500Y-71589059D01*
X137899500Y-72775638D01*
X137879815Y-72842677D01*
X137863181Y-72863319D01*
X137800538Y-72925961D01*
X137800535Y-72925965D01*
X137701990Y-73073446D01*
X137701983Y-73073459D01*
X137634106Y-73237332D01*
X137634104Y-73237340D01*
X137621617Y-73300118D01*
X137589232Y-73362028D01*
X137528516Y-73396603D01*
X137458747Y-73392863D01*
X137402075Y-73351996D01*
X137378383Y-73300118D01*
X137365895Y-73237340D01*
X137365894Y-73237334D01*
X137348923Y-73196363D01*
X137298016Y-73073459D01*
X137298009Y-73073446D01*
X137199464Y-72925965D01*
X137199461Y-72925961D01*
X137074038Y-72800538D01*
X137074034Y-72800535D01*
X136926553Y-72701990D01*
X136926540Y-72701983D01*
X136762667Y-72634106D01*
X136762658Y-72634103D01*
X136588694Y-72599500D01*
X136588691Y-72599500D01*
X136411309Y-72599500D01*
X136411306Y-72599500D01*
X136237341Y-72634103D01*
X136237332Y-72634106D01*
X136073459Y-72701983D01*
X136073446Y-72701990D01*
X135925966Y-72800534D01*
X135899500Y-72827001D01*
X135863318Y-72863182D01*
X135801998Y-72896666D01*
X135775639Y-72899500D01*
X133555848Y-72899500D01*
X133488809Y-72879815D01*
X133443054Y-72827011D01*
X133438142Y-72814504D01*
X133437549Y-72812713D01*
X133437545Y-72812707D01*
X133437544Y-72812704D01*
X133349283Y-72669612D01*
X133349280Y-72669608D01*
X133230390Y-72550718D01*
X133213180Y-72540103D01*
X133166456Y-72488155D01*
X133158505Y-72466665D01*
X133122077Y-72330716D01*
X133089861Y-72274916D01*
X133043024Y-72193790D01*
X133043018Y-72193782D01*
X132526819Y-71677583D01*
X132512115Y-71650655D01*
X132495523Y-71624837D01*
X132494631Y-71618636D01*
X132493334Y-71616260D01*
X132490500Y-71589902D01*
X132490500Y-71496803D01*
X132510185Y-71429764D01*
X132562989Y-71384009D01*
X132568996Y-71381454D01*
X132612342Y-71364361D01*
X132732922Y-71272922D01*
X132824361Y-71152342D01*
X132879877Y-71011564D01*
X132890500Y-70923102D01*
X132890500Y-70161898D01*
X132879877Y-70073436D01*
X132824361Y-69932658D01*
X132824360Y-69932657D01*
X132824360Y-69932656D01*
X132732922Y-69812077D01*
X132612343Y-69720639D01*
X132489999Y-69672393D01*
X132471564Y-69665123D01*
X132471563Y-69665122D01*
X132471561Y-69665122D01*
X132425926Y-69659642D01*
X132383102Y-69654500D01*
X132196898Y-69654500D01*
X132153440Y-69659718D01*
X132104783Y-69665561D01*
X132075217Y-69665561D01*
X132026559Y-69659718D01*
X131983102Y-69654500D01*
X131796898Y-69654500D01*
X131753440Y-69659718D01*
X131704783Y-69665561D01*
X131675217Y-69665561D01*
X131626559Y-69659718D01*
X131583102Y-69654500D01*
X131396898Y-69654500D01*
X131353440Y-69659718D01*
X131304783Y-69665561D01*
X131275217Y-69665561D01*
X131226559Y-69659718D01*
X131183102Y-69654500D01*
X130996898Y-69654500D01*
X130953440Y-69659718D01*
X130904783Y-69665561D01*
X130875217Y-69665561D01*
X130826559Y-69659718D01*
X130783102Y-69654500D01*
X130596898Y-69654500D01*
X130553440Y-69659718D01*
X130504783Y-69665561D01*
X130475217Y-69665561D01*
X130426559Y-69659718D01*
X130383102Y-69654500D01*
X130196898Y-69654500D01*
X130153440Y-69659718D01*
X130104783Y-69665561D01*
X130075217Y-69665561D01*
X130026559Y-69659718D01*
X129983102Y-69654500D01*
X129796898Y-69654500D01*
X129757853Y-69659188D01*
X129708438Y-69665122D01*
X129567656Y-69720639D01*
X129447077Y-69812077D01*
X129355639Y-69932656D01*
X129300122Y-70073438D01*
X129294449Y-70120686D01*
X129289500Y-70161898D01*
X129289500Y-70161903D01*
X129289500Y-70242401D01*
X129280855Y-70271840D01*
X129274333Y-70301826D01*
X129270577Y-70306843D01*
X129269815Y-70309440D01*
X129253183Y-70330081D01*
X129220085Y-70363180D01*
X129158762Y-70396666D01*
X129132402Y-70399500D01*
X128679595Y-70399500D01*
X128612556Y-70379815D01*
X128591918Y-70363185D01*
X128537598Y-70308865D01*
X128399393Y-70227131D01*
X128399388Y-70227129D01*
X128245208Y-70182335D01*
X128245202Y-70182334D01*
X128209181Y-70179500D01*
X127810830Y-70179500D01*
X127810808Y-70179501D01*
X127774794Y-70182335D01*
X127620611Y-70227129D01*
X127620607Y-70227130D01*
X127562628Y-70261419D01*
X127494903Y-70278600D01*
X127436388Y-70261419D01*
X127379189Y-70227592D01*
X127379188Y-70227591D01*
X127240001Y-70187153D01*
X127240000Y-70187154D01*
X127240000Y-70739591D01*
X127239747Y-70746020D01*
X127239800Y-70746630D01*
X127239722Y-70747988D01*
X127239500Y-70750819D01*
X119664418Y-70750819D01*
X119663414Y-70750000D01*
X126220069Y-70750000D01*
X126740000Y-70750000D01*
X126740000Y-70187154D01*
X126739998Y-70187153D01*
X126600811Y-70227591D01*
X126600808Y-70227593D01*
X126462714Y-70309261D01*
X126462705Y-70309268D01*
X126349268Y-70422705D01*
X126349261Y-70422714D01*
X126267593Y-70560808D01*
X126267592Y-70560811D01*
X126222833Y-70714871D01*
X126222832Y-70714877D01*
X126220069Y-70750000D01*
X119663414Y-70750000D01*
X119604530Y-70701987D01*
X119553407Y-70660302D01*
X119373049Y-70566091D01*
X119373048Y-70566090D01*
X119373045Y-70566089D01*
X119249150Y-70530639D01*
X119177418Y-70510114D01*
X119177415Y-70510113D01*
X119177413Y-70510113D01*
X119111102Y-70504217D01*
X119058037Y-70499500D01*
X119058032Y-70499500D01*
X117941971Y-70499500D01*
X117941965Y-70499500D01*
X117941964Y-70499501D01*
X117930316Y-70500536D01*
X117822584Y-70510113D01*
X117626954Y-70566089D01*
X117582979Y-70589060D01*
X117446593Y-70660302D01*
X117446591Y-70660303D01*
X117446590Y-70660304D01*
X117288890Y-70788890D01*
X117160304Y-70946590D01*
X117066089Y-71126954D01*
X117034507Y-71237332D01*
X117013825Y-71309612D01*
X116976459Y-71368649D01*
X116913105Y-71398113D01*
X116894610Y-71399500D01*
X115800098Y-71399500D01*
X115733059Y-71379815D01*
X115712417Y-71363181D01*
X114186819Y-69837583D01*
X114153334Y-69776260D01*
X114150500Y-69749902D01*
X114150500Y-69661306D01*
X114150499Y-69661304D01*
X114115896Y-69487341D01*
X114115893Y-69487332D01*
X114113597Y-69481790D01*
X114089089Y-69422620D01*
X114048016Y-69323459D01*
X114048009Y-69323446D01*
X113949464Y-69175965D01*
X113949461Y-69175961D01*
X113824038Y-69050538D01*
X113824034Y-69050535D01*
X113676553Y-68951990D01*
X113676540Y-68951983D01*
X113512667Y-68884106D01*
X113512658Y-68884103D01*
X113338694Y-68849500D01*
X113338691Y-68849500D01*
X113161309Y-68849500D01*
X113161306Y-68849500D01*
X112987341Y-68884103D01*
X112987332Y-68884106D01*
X112823459Y-68951983D01*
X112823446Y-68951990D01*
X112675965Y-69050535D01*
X112675961Y-69050538D01*
X112550538Y-69175961D01*
X112550535Y-69175965D01*
X112451990Y-69323446D01*
X112451983Y-69323459D01*
X112384106Y-69487332D01*
X112384103Y-69487341D01*
X112349500Y-69661304D01*
X112100500Y-69661304D01*
X112100500Y-67589060D01*
X112100501Y-67589047D01*
X112100501Y-67420944D01*
X112084815Y-67362405D01*
X117491145Y-67362405D01*
X117627140Y-67433443D01*
X117822671Y-67489390D01*
X117822674Y-67489391D01*
X117941999Y-67499999D01*
X117942002Y-67500000D01*
X119057998Y-67500000D01*
X119058000Y-67499999D01*
X119177325Y-67489391D01*
X119177328Y-67489390D01*
X119372861Y-67433442D01*
X119508854Y-67362405D01*
X118500000Y-66353552D01*
X117491145Y-67362405D01*
X112084815Y-67362405D01*
X112081817Y-67351215D01*
X112081817Y-67351212D01*
X112059578Y-67268220D01*
X112059577Y-67268216D01*
X112025010Y-67208343D01*
X111980524Y-67131290D01*
X111980518Y-67131282D01*
X111368718Y-66519483D01*
X111368716Y-66519481D01*
X111231785Y-66440423D01*
X111079057Y-66399499D01*
X110920943Y-66399499D01*
X110843406Y-66420275D01*
X110811313Y-66424500D01*
X107724499Y-66424500D01*
X107657460Y-66404815D01*
X107611705Y-66352011D01*
X107600499Y-66300500D01*
X107600499Y-66249998D01*
X107600498Y-66249981D01*
X107589999Y-66147203D01*
X107589998Y-66147200D01*
X107570732Y-66089059D01*
X107534814Y-65980666D01*
X107442712Y-65831344D01*
X107318656Y-65707288D01*
X107169334Y-65615186D01*
X107071458Y-65582753D01*
X107002795Y-65560000D01*
X106900010Y-65549500D01*
X105599998Y-65549500D01*
X105599981Y-65549501D01*
X105497203Y-65560000D01*
X105497200Y-65560001D01*
X105330668Y-65615185D01*
X105330663Y-65615187D01*
X105181342Y-65707289D01*
X105057289Y-65831342D01*
X104961551Y-65986559D01*
X104909603Y-66033283D01*
X104840640Y-66044506D01*
X104776558Y-66016662D01*
X104768331Y-66009143D01*
X104629464Y-65870276D01*
X104629459Y-65870272D01*
X104457557Y-65745379D01*
X104268215Y-65648903D01*
X104066124Y-65583241D01*
X104000000Y-65572768D01*
X104000000Y-66620854D01*
X103933343Y-66582370D01*
X103812535Y-66550000D01*
X103687465Y-66550000D01*
X103566657Y-66582370D01*
X103500000Y-66620854D01*
X103500000Y-65572768D01*
X103499999Y-65572768D01*
X103433875Y-65583241D01*
X103231784Y-65648903D01*
X103042442Y-65745379D01*
X102870540Y-65870272D01*
X102870535Y-65870276D01*
X102720276Y-66020535D01*
X102720272Y-66020540D01*
X102600627Y-66185218D01*
X102545297Y-66227884D01*
X102475684Y-66233863D01*
X102413889Y-66201257D01*
X102399991Y-66185218D01*
X102280109Y-66020214D01*
X102280105Y-66020209D01*
X102129786Y-65869890D01*
X101957820Y-65744951D01*
X101768414Y-65648444D01*
X101768413Y-65648443D01*
X101768412Y-65648443D01*
X101566243Y-65582754D01*
X101566241Y-65582753D01*
X101566240Y-65582753D01*
X101404957Y-65557208D01*
X101356287Y-65549500D01*
X101143713Y-65549500D01*
X101095042Y-65557208D01*
X100933760Y-65582753D01*
X100731585Y-65648444D01*
X100542179Y-65744951D01*
X100370213Y-65869890D01*
X100219894Y-66020209D01*
X100219890Y-66020214D01*
X100100318Y-66184793D01*
X100044989Y-66227459D01*
X99975375Y-66233438D01*
X99913580Y-66200833D01*
X99899682Y-66184793D01*
X99780109Y-66020214D01*
X99780105Y-66020209D01*
X99629786Y-65869890D01*
X99457820Y-65744951D01*
X99268414Y-65648444D01*
X99268413Y-65648443D01*
X99268412Y-65648443D01*
X99066243Y-65582754D01*
X99066241Y-65582753D01*
X99066240Y-65582753D01*
X98904957Y-65557208D01*
X98856287Y-65549500D01*
X98643713Y-65549500D01*
X98595042Y-65557208D01*
X98433760Y-65582753D01*
X98231585Y-65648444D01*
X98042179Y-65744951D01*
X97870213Y-65869890D01*
X97719890Y-66020213D01*
X97594951Y-66192179D01*
X97498444Y-66381585D01*
X97432753Y-66583760D01*
X97405581Y-66755319D01*
X97399500Y-66793713D01*
X97399500Y-67256287D01*
X97401390Y-67268220D01*
X97416307Y-67362405D01*
X97432754Y-67466243D01*
X97489428Y-67640668D01*
X97498444Y-67668414D01*
X97594951Y-67857820D01*
X97719890Y-68029786D01*
X97870213Y-68180109D01*
X98042184Y-68305051D01*
X98042184Y-68305052D01*
X98081793Y-68325233D01*
X98132590Y-68373206D01*
X98149500Y-68435718D01*
X98149500Y-69163330D01*
X98149499Y-69163348D01*
X98149499Y-69329054D01*
X98149498Y-69329054D01*
X98190424Y-69481789D01*
X98190425Y-69481790D01*
X98212186Y-69519480D01*
X98212187Y-69519482D01*
X98269475Y-69618709D01*
X98269481Y-69618717D01*
X98388349Y-69737585D01*
X98388355Y-69737590D01*
X99015139Y-70364374D01*
X99015149Y-70364385D01*
X99019479Y-70368715D01*
X99019480Y-70368716D01*
X99131284Y-70480520D01*
X99174552Y-70505500D01*
X99218095Y-70530639D01*
X99218097Y-70530641D01*
X99256151Y-70552611D01*
X99268215Y-70559577D01*
X99420943Y-70600500D01*
X101826638Y-70600500D01*
X101893677Y-70620185D01*
X101939432Y-70672989D01*
X101949376Y-70742147D01*
X101920351Y-70805703D01*
X101914319Y-70812181D01*
X101800538Y-70925961D01*
X101800535Y-70925965D01*
X101701990Y-71073446D01*
X101701983Y-71073459D01*
X101634106Y-71237332D01*
X101634104Y-71237340D01*
X101625680Y-71279692D01*
X101593295Y-71341603D01*
X101532579Y-71376177D01*
X101504063Y-71379500D01*
X101194596Y-71379500D01*
X101127557Y-71359815D01*
X101106915Y-71343181D01*
X101102603Y-71338869D01*
X101102595Y-71338863D01*
X100964393Y-71257131D01*
X100964388Y-71257129D01*
X100810208Y-71212335D01*
X100810202Y-71212334D01*
X100774181Y-71209500D01*
X100275830Y-71209500D01*
X100275808Y-71209501D01*
X100239794Y-71212335D01*
X100085611Y-71257129D01*
X100085606Y-71257131D01*
X99947404Y-71338863D01*
X99947396Y-71338869D01*
X99833869Y-71452396D01*
X99833863Y-71452404D01*
X99752131Y-71590606D01*
X99752129Y-71590611D01*
X99707335Y-71744791D01*
X99707334Y-71744797D01*
X99704500Y-71780811D01*
X99704500Y-72179169D01*
X99704501Y-72179191D01*
X99707335Y-72215205D01*
X99752129Y-72369388D01*
X99752132Y-72369395D01*
X99786128Y-72426881D01*
X99803309Y-72494605D01*
X99786128Y-72553119D01*
X99752132Y-72610604D01*
X99752129Y-72610611D01*
X99707335Y-72764791D01*
X99707334Y-72764797D01*
X99704500Y-72800811D01*
X99704500Y-73199169D01*
X99704501Y-73199191D01*
X99707335Y-73235205D01*
X99752129Y-73389388D01*
X99752131Y-73389393D01*
X99833863Y-73527595D01*
X99833869Y-73527603D01*
X99947396Y-73641130D01*
X99947400Y-73641133D01*
X99947402Y-73641135D01*
X100085607Y-73722869D01*
X100093276Y-73725097D01*
X100239791Y-73767664D01*
X100239794Y-73767664D01*
X100239796Y-73767665D01*
X100275819Y-73770500D01*
X100774180Y-73770499D01*
X100810204Y-73767665D01*
X100964393Y-73722869D01*
X101102598Y-73641135D01*
X101102603Y-73641130D01*
X101106915Y-73636819D01*
X101168238Y-73603334D01*
X101194596Y-73600500D01*
X101699903Y-73600500D01*
X101729343Y-73609144D01*
X101759330Y-73615668D01*
X101764345Y-73619422D01*
X101766942Y-73620185D01*
X101787584Y-73636819D01*
X101788181Y-73637416D01*
X101821666Y-73698739D01*
X101824500Y-73725097D01*
X101824500Y-74075500D01*
X101804815Y-74142539D01*
X101752011Y-74188294D01*
X101700500Y-74199500D01*
X101377130Y-74199500D01*
X101377123Y-74199501D01*
X101317516Y-74205908D01*
X101268332Y-74224253D01*
X101198640Y-74229237D01*
X101181667Y-74224253D01*
X101132486Y-74205910D01*
X101132485Y-74205909D01*
X101132483Y-74205909D01*
X101072873Y-74199500D01*
X101072863Y-74199500D01*
X100577129Y-74199500D01*
X100577123Y-74199501D01*
X100517516Y-74205908D01*
X100468332Y-74224253D01*
X100398640Y-74229237D01*
X100381667Y-74224253D01*
X100332486Y-74205910D01*
X100332485Y-74205909D01*
X100332483Y-74205909D01*
X100272873Y-74199500D01*
X100272863Y-74199500D01*
X99777129Y-74199500D01*
X99777123Y-74199501D01*
X99717516Y-74205908D01*
X99668332Y-74224253D01*
X99598640Y-74229237D01*
X99581667Y-74224253D01*
X99532486Y-74205910D01*
X99532485Y-74205909D01*
X99532483Y-74205909D01*
X99472873Y-74199500D01*
X99472863Y-74199500D01*
X98977129Y-74199500D01*
X98977123Y-74199501D01*
X98917516Y-74205908D01*
X98868332Y-74224253D01*
X98798640Y-74229237D01*
X98781667Y-74224253D01*
X98732486Y-74205910D01*
X98732485Y-74205909D01*
X98732483Y-74205909D01*
X98672873Y-74199500D01*
X98672863Y-74199500D01*
X98177129Y-74199500D01*
X98177123Y-74199501D01*
X98117516Y-74205908D01*
X98068332Y-74224253D01*
X97998640Y-74229237D01*
X97981667Y-74224253D01*
X97932486Y-74205910D01*
X97932485Y-74205909D01*
X97932483Y-74205909D01*
X97872873Y-74199500D01*
X97872863Y-74199500D01*
X97377129Y-74199500D01*
X97377123Y-74199501D01*
X97317516Y-74205908D01*
X97268332Y-74224253D01*
X97198640Y-74229237D01*
X97181667Y-74224253D01*
X97132486Y-74205910D01*
X97132485Y-74205909D01*
X97132483Y-74205909D01*
X97072873Y-74199500D01*
X97072863Y-74199500D01*
X96577129Y-74199500D01*
X96577123Y-74199501D01*
X96517516Y-74205908D01*
X96468332Y-74224253D01*
X96398640Y-74229237D01*
X96381667Y-74224253D01*
X96332486Y-74205910D01*
X96332485Y-74205909D01*
X96332483Y-74205909D01*
X96272873Y-74199500D01*
X96272863Y-74199500D01*
X95777129Y-74199500D01*
X95777123Y-74199501D01*
X95717517Y-74205908D01*
X95667616Y-74224520D01*
X95597925Y-74229503D01*
X95580953Y-74224519D01*
X95532383Y-74206403D01*
X95532372Y-74206401D01*
X95472844Y-74200000D01*
X95325000Y-74200000D01*
X95325000Y-74640826D01*
X95324572Y-74648798D01*
X95324678Y-74648804D01*
X95324500Y-74652128D01*
X95324500Y-75547863D01*
X95324679Y-75551180D01*
X95324572Y-75551185D01*
X95325000Y-75559156D01*
X95325000Y-76000000D01*
X95765833Y-76000000D01*
X95773811Y-76000427D01*
X95773817Y-76000322D01*
X95777102Y-76000497D01*
X95777127Y-76000500D01*
X96272872Y-76000499D01*
X96332483Y-75994091D01*
X96381665Y-75975746D01*
X96451355Y-75970761D01*
X96468333Y-75975747D01*
X96517508Y-75994088D01*
X96517511Y-75994089D01*
X96517517Y-75994091D01*
X96577127Y-76000500D01*
X97046627Y-76000499D01*
X97113666Y-76020183D01*
X97159421Y-76072987D01*
X97169365Y-76142146D01*
X97161188Y-76171951D01*
X97134106Y-76237332D01*
X97134103Y-76237341D01*
X97099500Y-76411304D01*
X97099500Y-76588047D01*
X97079815Y-76655086D01*
X97027011Y-76700841D01*
X96957853Y-76710785D01*
X96928048Y-76702608D01*
X96762667Y-76634106D01*
X96762658Y-76634103D01*
X96588694Y-76599500D01*
X96588691Y-76599500D01*
X96411309Y-76599500D01*
X96411306Y-76599500D01*
X96237341Y-76634103D01*
X96237337Y-76634105D01*
X96237335Y-76634105D01*
X96237334Y-76634106D01*
X96197433Y-76650633D01*
X96185517Y-76655569D01*
X96116047Y-76663036D01*
X96053569Y-76631761D01*
X96017917Y-76571671D01*
X96017388Y-76512496D01*
X96018598Y-76507372D01*
X96024999Y-76447844D01*
X96025000Y-76447827D01*
X96025000Y-76400000D01*
X95325000Y-76400000D01*
X95325000Y-78400000D01*
X96024998Y-78400000D01*
X96052719Y-78372279D01*
X96114042Y-78338794D01*
X96183734Y-78343778D01*
X96187846Y-78345396D01*
X96237334Y-78365894D01*
X96237338Y-78365894D01*
X96237341Y-78365896D01*
X96411304Y-78400499D01*
X96411307Y-78400500D01*
X96411309Y-78400500D01*
X96588693Y-78400500D01*
X96588694Y-78400499D01*
X96652221Y-78387863D01*
X96762658Y-78365896D01*
X96762661Y-78365894D01*
X96762666Y-78365894D01*
X96926547Y-78298013D01*
X97074035Y-78199464D01*
X97136681Y-78136817D01*
X97198002Y-78103334D01*
X97224361Y-78100500D01*
X102699903Y-78100500D01*
X102729343Y-78109144D01*
X102759330Y-78115668D01*
X102764345Y-78119422D01*
X102766942Y-78120185D01*
X102787584Y-78136819D01*
X102850951Y-78200186D01*
X102884436Y-78261509D01*
X102879452Y-78331201D01*
X102850952Y-78375547D01*
X102800539Y-78425960D01*
X102800535Y-78425965D01*
X102701990Y-78573446D01*
X102701983Y-78573459D01*
X102634106Y-78737332D01*
X102634103Y-78737341D01*
X102599500Y-78911304D01*
X102599500Y-79088695D01*
X102634103Y-79262658D01*
X102634106Y-79262667D01*
X102701983Y-79426540D01*
X102701990Y-79426553D01*
X102800535Y-79574034D01*
X102800538Y-79574038D01*
X102925961Y-79699461D01*
X102925965Y-79699464D01*
X103073446Y-79798009D01*
X103073459Y-79798016D01*
X103182871Y-79843335D01*
X103237334Y-79865894D01*
X103237336Y-79865894D01*
X103237341Y-79865896D01*
X103411304Y-79900499D01*
X103411307Y-79900500D01*
X103411309Y-79900500D01*
X103532666Y-79900500D01*
X103540804Y-79902116D01*
X103545851Y-79901203D01*
X103560899Y-79906107D01*
X103580053Y-79909912D01*
X103587596Y-79913031D01*
X103668216Y-79959577D01*
X103751098Y-79981785D01*
X103820942Y-80000500D01*
X103820943Y-80000500D01*
X103900500Y-80000500D01*
X103967539Y-80020185D01*
X104013294Y-80072989D01*
X104024500Y-80124500D01*
X104024500Y-80447869D01*
X104024501Y-80447876D01*
X104030908Y-80507482D01*
X104044004Y-80542593D01*
X104049252Y-80556665D01*
X104049253Y-80556666D01*
X104054237Y-80626358D01*
X104049253Y-80643331D01*
X104030910Y-80692511D01*
X104030910Y-80692514D01*
X104030909Y-80692517D01*
X104024500Y-80752127D01*
X104024500Y-80752134D01*
X104024500Y-80752135D01*
X104024500Y-81247870D01*
X104024501Y-81247876D01*
X104030908Y-81307482D01*
X104040550Y-81333333D01*
X104049252Y-81356665D01*
X104049253Y-81356666D01*
X104054237Y-81426358D01*
X104049253Y-81443331D01*
X104030910Y-81492511D01*
X104030910Y-81492514D01*
X104030909Y-81492517D01*
X104024500Y-81552127D01*
X104024500Y-81552134D01*
X104024500Y-81552135D01*
X104024500Y-82047870D01*
X104024501Y-82047876D01*
X104030908Y-82107482D01*
X104044004Y-82142593D01*
X104049252Y-82156665D01*
X104049253Y-82156666D01*
X104054237Y-82226358D01*
X104049253Y-82243331D01*
X104030910Y-82292511D01*
X104030910Y-82292514D01*
X104030909Y-82292517D01*
X104024500Y-82352127D01*
X104024500Y-82352134D01*
X104024500Y-82352135D01*
X104024500Y-82847870D01*
X104024501Y-82847876D01*
X104030908Y-82907482D01*
X104042233Y-82937845D01*
X104049252Y-82956665D01*
X104049253Y-82956666D01*
X104054237Y-83026358D01*
X104049253Y-83043331D01*
X104030910Y-83092511D01*
X104030910Y-83092514D01*
X104030909Y-83092517D01*
X104024500Y-83152127D01*
X104024500Y-83152134D01*
X104024500Y-83152135D01*
X104024500Y-83647870D01*
X104024501Y-83647876D01*
X104030909Y-83707484D01*
X104049519Y-83757382D01*
X104054503Y-83827074D01*
X104049520Y-83844046D01*
X104031402Y-83892623D01*
X104031401Y-83892627D01*
X104025000Y-83952155D01*
X104025000Y-84000000D01*
X104182893Y-84000000D01*
X104191578Y-84002550D01*
X104200540Y-84001262D01*
X104233048Y-84014727D01*
X104249932Y-84019685D01*
X104252683Y-84022860D01*
X104257204Y-84024733D01*
X104282668Y-84043795D01*
X104282671Y-84043797D01*
X104389972Y-84083818D01*
X104445906Y-84125689D01*
X104470323Y-84191154D01*
X104455471Y-84259427D01*
X104406066Y-84308832D01*
X104389972Y-84316182D01*
X104282671Y-84356202D01*
X104282668Y-84356204D01*
X104257204Y-84375267D01*
X104244581Y-84379974D01*
X104234404Y-84388794D01*
X104212487Y-84391945D01*
X104191739Y-84399684D01*
X104182893Y-84400000D01*
X104025000Y-84400000D01*
X104025000Y-84447844D01*
X104031401Y-84507372D01*
X104031403Y-84507383D01*
X104049519Y-84555953D01*
X104054503Y-84625644D01*
X104049520Y-84642616D01*
X104032047Y-84689465D01*
X104030909Y-84692517D01*
X104024500Y-84752127D01*
X104024500Y-84752134D01*
X104024500Y-84752135D01*
X104024500Y-85247870D01*
X104024501Y-85247876D01*
X104030908Y-85307482D01*
X104040550Y-85333333D01*
X104049252Y-85356665D01*
X104049253Y-85356666D01*
X104054237Y-85426358D01*
X104049253Y-85443331D01*
X104030910Y-85492511D01*
X104030910Y-85492514D01*
X104030909Y-85492517D01*
X104024500Y-85552127D01*
X104024500Y-85794480D01*
X104024501Y-85876000D01*
X104004817Y-85943039D01*
X103952013Y-85988794D01*
X103900501Y-86000000D01*
X103777155Y-86000000D01*
X103717627Y-86006401D01*
X103717623Y-86006402D01*
X103669046Y-86024520D01*
X103599354Y-86029503D01*
X103582382Y-86024519D01*
X103532488Y-86005910D01*
X103532484Y-86005909D01*
X103532483Y-86005909D01*
X103472873Y-85999500D01*
X103472863Y-85999500D01*
X102977129Y-85999500D01*
X102977123Y-85999501D01*
X102917516Y-86005908D01*
X102868332Y-86024253D01*
X102798640Y-86029237D01*
X102781667Y-86024253D01*
X102732482Y-86005908D01*
X102732483Y-86005908D01*
X102672883Y-85999501D01*
X102672881Y-85999500D01*
X102672873Y-85999500D01*
X102672865Y-85999500D01*
X102453373Y-85999500D01*
X102386334Y-85979815D01*
X102340579Y-85927011D01*
X102330635Y-85857853D01*
X102338812Y-85828048D01*
X102358505Y-85780504D01*
X102365894Y-85762666D01*
X102368414Y-85750000D01*
X102391130Y-85635795D01*
X102400500Y-85588691D01*
X102400500Y-85411309D01*
X102400500Y-85411306D01*
X102400499Y-85411304D01*
X102365896Y-85237341D01*
X102365893Y-85237332D01*
X102363597Y-85231790D01*
X102300494Y-85079442D01*
X102298016Y-85073459D01*
X102298009Y-85073446D01*
X102199464Y-84925965D01*
X102199461Y-84925961D01*
X102074038Y-84800538D01*
X102074034Y-84800535D01*
X101926553Y-84701990D01*
X101926540Y-84701983D01*
X101762667Y-84634106D01*
X101762658Y-84634103D01*
X101588694Y-84599500D01*
X101588691Y-84599500D01*
X101411309Y-84599500D01*
X101411306Y-84599500D01*
X101237341Y-84634103D01*
X101237332Y-84634106D01*
X101073459Y-84701983D01*
X101073446Y-84701990D01*
X100925965Y-84800535D01*
X100925961Y-84800538D01*
X100837681Y-84888819D01*
X100776358Y-84922304D01*
X100706666Y-84917320D01*
X100662319Y-84888819D01*
X100574038Y-84800538D01*
X100574034Y-84800535D01*
X100426553Y-84701990D01*
X100426540Y-84701983D01*
X100262667Y-84634106D01*
X100262658Y-84634103D01*
X100088694Y-84599500D01*
X100088691Y-84599500D01*
X99911309Y-84599500D01*
X99911306Y-84599500D01*
X99737341Y-84634103D01*
X99737332Y-84634106D01*
X99573459Y-84701983D01*
X99573446Y-84701990D01*
X99425965Y-84800535D01*
X99425961Y-84800538D01*
X99300538Y-84925961D01*
X99300535Y-84925965D01*
X99201990Y-85073446D01*
X99201983Y-85073459D01*
X99134106Y-85237332D01*
X99134103Y-85237341D01*
X99099500Y-85411304D01*
X99099500Y-85499902D01*
X99079815Y-85566941D01*
X99063181Y-85587583D01*
X98744481Y-85906282D01*
X98744477Y-85906287D01*
X98726457Y-85937500D01*
X98675890Y-85985716D01*
X98619070Y-85999500D01*
X98177129Y-85999500D01*
X98177123Y-85999501D01*
X98117516Y-86005908D01*
X98068332Y-86024253D01*
X97998640Y-86029237D01*
X97981667Y-86024253D01*
X97932486Y-86005910D01*
X97932485Y-86005909D01*
X97932483Y-86005909D01*
X97872873Y-85999500D01*
X97872863Y-85999500D01*
X97377129Y-85999500D01*
X97377123Y-85999501D01*
X97317517Y-86005908D01*
X97267616Y-86024520D01*
X97197925Y-86029503D01*
X97180953Y-86024519D01*
X97132383Y-86006403D01*
X97132372Y-86006401D01*
X97072844Y-86000000D01*
X97025000Y-86000000D01*
X97025000Y-86157893D01*
X97005315Y-86224932D01*
X97000267Y-86232204D01*
X96981204Y-86257668D01*
X96981202Y-86257671D01*
X96946915Y-86349602D01*
X96930909Y-86392517D01*
X96924500Y-86452127D01*
X96924500Y-86776002D01*
X96911521Y-86831233D01*
X96812020Y-87031233D01*
X96807279Y-87036349D01*
X96805315Y-87043039D01*
X96783845Y-87061642D01*
X96764534Y-87082486D01*
X96757781Y-87084227D01*
X96752511Y-87088794D01*
X96701000Y-87100000D01*
X96055000Y-87100000D01*
X96045023Y-87109976D01*
X96035315Y-87143039D01*
X95982511Y-87188794D01*
X95931000Y-87200000D01*
X95199000Y-87200000D01*
X95131961Y-87180315D01*
X95086206Y-87127511D01*
X95075000Y-87076000D01*
X95075000Y-86950000D01*
X94949000Y-86950000D01*
X94881961Y-86930315D01*
X94836206Y-86877511D01*
X94825000Y-86826000D01*
X94825000Y-86700000D01*
X95325000Y-86700000D01*
X95825000Y-86700000D01*
X96225000Y-86700000D01*
X96625000Y-86700000D01*
X96625000Y-86000000D01*
X96577155Y-86000000D01*
X96517627Y-86006401D01*
X96517619Y-86006403D01*
X96468333Y-86024786D01*
X96398641Y-86029770D01*
X96381667Y-86024786D01*
X96332380Y-86006403D01*
X96332372Y-86006401D01*
X96272844Y-86000000D01*
X96225000Y-86000000D01*
X96225000Y-86700000D01*
X95825000Y-86700000D01*
X95825000Y-86000000D01*
X95325000Y-86000000D01*
X95325000Y-86700000D01*
X94825000Y-86700000D01*
X94825000Y-86094000D01*
X94844685Y-86026961D01*
X94846840Y-86023720D01*
X94925000Y-85910105D01*
X94925000Y-85600000D01*
X95325000Y-85600000D01*
X96025000Y-85600000D01*
X96025000Y-85552172D01*
X96024999Y-85552155D01*
X96018597Y-85492622D01*
X96018597Y-85492621D01*
X96000214Y-85443335D01*
X95995228Y-85373644D01*
X96000214Y-85356665D01*
X96018597Y-85307378D01*
X96018597Y-85307377D01*
X96024999Y-85247844D01*
X96025000Y-85247827D01*
X96025000Y-85200000D01*
X95325000Y-85200000D01*
X95325000Y-85600000D01*
X94925000Y-85600000D01*
X94925000Y-84800000D01*
X95325000Y-84800000D01*
X96025000Y-84800000D01*
X96025000Y-84752172D01*
X96024999Y-84752155D01*
X96018597Y-84692622D01*
X96018597Y-84692621D01*
X96000214Y-84643335D01*
X95995228Y-84573644D01*
X96000214Y-84556665D01*
X96018597Y-84507378D01*
X96018597Y-84507377D01*
X96024999Y-84447844D01*
X96025000Y-84447827D01*
X96025000Y-84400000D01*
X95325000Y-84400000D01*
X95325000Y-84800000D01*
X94925000Y-84800000D01*
X94925000Y-84000000D01*
X95325000Y-84000000D01*
X96025000Y-84000000D01*
X96025000Y-83952172D01*
X96024999Y-83952155D01*
X96018597Y-83892622D01*
X96018597Y-83892621D01*
X96000214Y-83843335D01*
X95995228Y-83773644D01*
X96000214Y-83756665D01*
X96018597Y-83707378D01*
X96018597Y-83707377D01*
X96024999Y-83647844D01*
X96025000Y-83647827D01*
X96025000Y-83600000D01*
X95325000Y-83600000D01*
X95325000Y-84000000D01*
X94925000Y-84000000D01*
X94925000Y-83200000D01*
X95325000Y-83200000D01*
X96025000Y-83200000D01*
X96025000Y-83152172D01*
X96024999Y-83152155D01*
X96018597Y-83092622D01*
X96018597Y-83092621D01*
X96000214Y-83043335D01*
X95995228Y-82973644D01*
X96000214Y-82956665D01*
X96018597Y-82907378D01*
X96018597Y-82907377D01*
X96024999Y-82847844D01*
X96025000Y-82847827D01*
X96025000Y-82800000D01*
X95325000Y-82800000D01*
X95325000Y-83200000D01*
X94925000Y-83200000D01*
X94925000Y-82400000D01*
X95325000Y-82400000D01*
X96025000Y-82400000D01*
X96025000Y-82352172D01*
X96024999Y-82352155D01*
X96018597Y-82292622D01*
X96018597Y-82292621D01*
X96000214Y-82243335D01*
X95995228Y-82173644D01*
X96000214Y-82156665D01*
X96018597Y-82107378D01*
X96018597Y-82107377D01*
X96024999Y-82047844D01*
X96025000Y-82047827D01*
X96025000Y-82000000D01*
X95325000Y-82000000D01*
X95325000Y-82400000D01*
X94925000Y-82400000D01*
X94925000Y-81600000D01*
X95325000Y-81600000D01*
X96025000Y-81600000D01*
X96025000Y-81552172D01*
X96024999Y-81552155D01*
X96018597Y-81492622D01*
X96018597Y-81492621D01*
X96000214Y-81443335D01*
X95995228Y-81373644D01*
X96000214Y-81356665D01*
X96018597Y-81307378D01*
X96018597Y-81307377D01*
X96024999Y-81247844D01*
X96025000Y-81247827D01*
X96025000Y-81200000D01*
X95325000Y-81200000D01*
X95325000Y-81600000D01*
X94925000Y-81600000D01*
X94925000Y-80800000D01*
X95325000Y-80800000D01*
X96025000Y-80800000D01*
X96025000Y-80752172D01*
X96024999Y-80752155D01*
X96018597Y-80692622D01*
X96018597Y-80692621D01*
X96000214Y-80643335D01*
X95995228Y-80573644D01*
X96000214Y-80556665D01*
X96018597Y-80507378D01*
X96018597Y-80507377D01*
X96024999Y-80447844D01*
X96025000Y-80447827D01*
X96025000Y-80400000D01*
X95325000Y-80400000D01*
X95325000Y-80800000D01*
X94925000Y-80800000D01*
X94925000Y-80000000D01*
X95325000Y-80000000D01*
X96025000Y-80000000D01*
X96025000Y-79952172D01*
X96024999Y-79952155D01*
X96018597Y-79892622D01*
X96018597Y-79892621D01*
X96000214Y-79843335D01*
X95995228Y-79773644D01*
X96000214Y-79756665D01*
X96018597Y-79707378D01*
X96018597Y-79707377D01*
X96024999Y-79647844D01*
X96025000Y-79647827D01*
X96025000Y-79600000D01*
X95325000Y-79600000D01*
X95325000Y-80000000D01*
X94925000Y-80000000D01*
X94925000Y-79200000D01*
X95325000Y-79200000D01*
X96025000Y-79200000D01*
X96025000Y-79152172D01*
X96024999Y-79152155D01*
X96018597Y-79092622D01*
X96018597Y-79092621D01*
X96000214Y-79043335D01*
X95995228Y-78973644D01*
X96000214Y-78956665D01*
X96018597Y-78907378D01*
X96018597Y-78907377D01*
X96024999Y-78847844D01*
X96025000Y-78847827D01*
X96025000Y-78800000D01*
X95325000Y-78800000D01*
X95325000Y-79200000D01*
X94925000Y-79200000D01*
X94925000Y-76030000D01*
X94915023Y-76020023D01*
X94881961Y-76010315D01*
X94836206Y-75957511D01*
X94825000Y-75906000D01*
X94825000Y-74200000D01*
X94677155Y-74200000D01*
X94617627Y-74206401D01*
X94617620Y-74206403D01*
X94482913Y-74256645D01*
X94482906Y-74256649D01*
X94367814Y-74342808D01*
X94367808Y-74342814D01*
X94362198Y-74350309D01*
X94306266Y-74392181D01*
X94262930Y-74400000D01*
X93924500Y-74400000D01*
X93857461Y-74380315D01*
X93811706Y-74327511D01*
X93800500Y-74276000D01*
X93800500Y-70411304D01*
X95599500Y-70411304D01*
X95599500Y-70588695D01*
X95634103Y-70762658D01*
X95634106Y-70762667D01*
X95701983Y-70926540D01*
X95701990Y-70926553D01*
X95800534Y-71074033D01*
X95800535Y-71074034D01*
X95800536Y-71074035D01*
X95863182Y-71136681D01*
X95877888Y-71163612D01*
X95894477Y-71189426D01*
X95895368Y-71195625D01*
X95896666Y-71198002D01*
X95899500Y-71224361D01*
X95899500Y-71335404D01*
X95879815Y-71402443D01*
X95863181Y-71423085D01*
X95833869Y-71452396D01*
X95833863Y-71452404D01*
X95752131Y-71590606D01*
X95752129Y-71590611D01*
X95707335Y-71744791D01*
X95707334Y-71744797D01*
X95704500Y-71780811D01*
X95704500Y-72179169D01*
X95704501Y-72179191D01*
X95707335Y-72215205D01*
X95752129Y-72369388D01*
X95752132Y-72369395D01*
X95786128Y-72426881D01*
X95803309Y-72494605D01*
X95786128Y-72553119D01*
X95752132Y-72610604D01*
X95752129Y-72610611D01*
X95707335Y-72764791D01*
X95707334Y-72764797D01*
X95704500Y-72800811D01*
X95704500Y-73199169D01*
X95704501Y-73199191D01*
X95707335Y-73235205D01*
X95752129Y-73389388D01*
X95752131Y-73389393D01*
X95833863Y-73527595D01*
X95833869Y-73527603D01*
X95947396Y-73641130D01*
X95947400Y-73641133D01*
X95947402Y-73641135D01*
X96085607Y-73722869D01*
X96093276Y-73725097D01*
X96239791Y-73767664D01*
X96239794Y-73767664D01*
X96239796Y-73767665D01*
X96275819Y-73770500D01*
X96774180Y-73770499D01*
X96810204Y-73767665D01*
X96964393Y-73722869D01*
X97102598Y-73641135D01*
X97102603Y-73641130D01*
X97106915Y-73636819D01*
X97133842Y-73622115D01*
X97159661Y-73605523D01*
X97165861Y-73604631D01*
X97168238Y-73603334D01*
X97194596Y-73600500D01*
X97275639Y-73600500D01*
X97342678Y-73620185D01*
X97363315Y-73636814D01*
X97400236Y-73673735D01*
X97425966Y-73699465D01*
X97573446Y-73798009D01*
X97573459Y-73798016D01*
X97696363Y-73848923D01*
X97737334Y-73865894D01*
X97737336Y-73865894D01*
X97737341Y-73865896D01*
X97911304Y-73900499D01*
X97911307Y-73900500D01*
X97911309Y-73900500D01*
X98088693Y-73900500D01*
X98088694Y-73900499D01*
X98146682Y-73888964D01*
X98262658Y-73865896D01*
X98262661Y-73865894D01*
X98262666Y-73865894D01*
X98426547Y-73798013D01*
X98574035Y-73699464D01*
X98699464Y-73574035D01*
X98798013Y-73426547D01*
X98865894Y-73262666D01*
X98870932Y-73237341D01*
X98900499Y-73088695D01*
X98900500Y-73088693D01*
X98900500Y-72911306D01*
X98900499Y-72911304D01*
X98865896Y-72737341D01*
X98865893Y-72737332D01*
X98860966Y-72725438D01*
X98837841Y-72669608D01*
X98798016Y-72573459D01*
X98798009Y-72573446D01*
X98699464Y-72425965D01*
X98699461Y-72425961D01*
X98574038Y-72300538D01*
X98574034Y-72300535D01*
X98426553Y-72201990D01*
X98426540Y-72201983D01*
X98262667Y-72134106D01*
X98262658Y-72134103D01*
X98088694Y-72099500D01*
X98088691Y-72099500D01*
X97911309Y-72099500D01*
X97911306Y-72099500D01*
X97737341Y-72134103D01*
X97737332Y-72134106D01*
X97573459Y-72201983D01*
X97573448Y-72201989D01*
X97538389Y-72225415D01*
X97471711Y-72246292D01*
X97404331Y-72227807D01*
X97357641Y-72175827D01*
X97345499Y-72122315D01*
X97345499Y-71780820D01*
X97342665Y-71744796D01*
X97297869Y-71590607D01*
X97216135Y-71452402D01*
X97216133Y-71452400D01*
X97216130Y-71452396D01*
X97136819Y-71373085D01*
X97122115Y-71346157D01*
X97105523Y-71320339D01*
X97104631Y-71314138D01*
X97103334Y-71311762D01*
X97100500Y-71285404D01*
X97100500Y-71224361D01*
X97120185Y-71157322D01*
X97136814Y-71136684D01*
X97199464Y-71074035D01*
X97298013Y-70926547D01*
X97299443Y-70923096D01*
X97320316Y-70872702D01*
X97365894Y-70762666D01*
X97368035Y-70751906D01*
X97394235Y-70620185D01*
X97400500Y-70588691D01*
X97400500Y-70411309D01*
X97400500Y-70411306D01*
X97400499Y-70411304D01*
X97365896Y-70237341D01*
X97365893Y-70237332D01*
X97298016Y-70073459D01*
X97298009Y-70073446D01*
X97199464Y-69925965D01*
X97199461Y-69925961D01*
X97074038Y-69800538D01*
X97074034Y-69800535D01*
X96926553Y-69701990D01*
X96926540Y-69701983D01*
X96762667Y-69634106D01*
X96762658Y-69634103D01*
X96588694Y-69599500D01*
X96588691Y-69599500D01*
X96411309Y-69599500D01*
X96411306Y-69599500D01*
X96237341Y-69634103D01*
X96237332Y-69634106D01*
X96073459Y-69701983D01*
X96073446Y-69701990D01*
X95925965Y-69800535D01*
X95925961Y-69800538D01*
X95800538Y-69925961D01*
X95800535Y-69925965D01*
X95701990Y-70073446D01*
X95701983Y-70073459D01*
X95634106Y-70237332D01*
X95634103Y-70237341D01*
X95599500Y-70411304D01*
X93800500Y-70411304D01*
X93800500Y-65441999D01*
X117000000Y-65441999D01*
X117000000Y-66558000D01*
X117010608Y-66677325D01*
X117010609Y-66677328D01*
X117066556Y-66872859D01*
X117137593Y-67008853D01*
X117137594Y-67008854D01*
X118146448Y-66000000D01*
X118146448Y-65999999D01*
X118853552Y-65999999D01*
X118853552Y-66000000D01*
X119862405Y-67008854D01*
X119933442Y-66872861D01*
X119989390Y-66677328D01*
X119989391Y-66677325D01*
X119999999Y-66558000D01*
X120000000Y-66557998D01*
X120000000Y-65442002D01*
X119999999Y-65441999D01*
X119989391Y-65322674D01*
X119989390Y-65322671D01*
X119933443Y-65127140D01*
X119862405Y-64991145D01*
X118853552Y-65999999D01*
X118146448Y-65999999D01*
X117137593Y-64991144D01*
X117137592Y-64991145D01*
X117066558Y-65127134D01*
X117066557Y-65127138D01*
X117010609Y-65322671D01*
X117010608Y-65322674D01*
X117000000Y-65441999D01*
X93800500Y-65441999D01*
X93800500Y-64637593D01*
X117491144Y-64637593D01*
X118500000Y-65646448D01*
X118500001Y-65646448D01*
X119235144Y-64911304D01*
X124599500Y-64911304D01*
X124599500Y-65088695D01*
X124634103Y-65262658D01*
X124634106Y-65262667D01*
X124701983Y-65426540D01*
X124701990Y-65426553D01*
X124800535Y-65574034D01*
X124800538Y-65574038D01*
X124925961Y-65699461D01*
X124925965Y-65699464D01*
X125073446Y-65798009D01*
X125073459Y-65798016D01*
X125153917Y-65831342D01*
X125237334Y-65865894D01*
X125237336Y-65865894D01*
X125237341Y-65865896D01*
X125411304Y-65900499D01*
X125411307Y-65900500D01*
X125411309Y-65900500D01*
X125588693Y-65900500D01*
X125588694Y-65900499D01*
X125646682Y-65888964D01*
X125762658Y-65865896D01*
X125762661Y-65865894D01*
X125762666Y-65865894D01*
X125865720Y-65823207D01*
X125935189Y-65815739D01*
X125997668Y-65847014D01*
X126000853Y-65850088D01*
X128082639Y-67931874D01*
X128082649Y-67931885D01*
X128086979Y-67936215D01*
X128086980Y-67936216D01*
X128198784Y-68048020D01*
X128259606Y-68083135D01*
X128297660Y-68105106D01*
X128335712Y-68127076D01*
X128335714Y-68127076D01*
X128335715Y-68127077D01*
X128488442Y-68168000D01*
X128488443Y-68168000D01*
X129286965Y-68168000D01*
X129354004Y-68187685D01*
X129385768Y-68217073D01*
X129437126Y-68284799D01*
X129447079Y-68297923D01*
X129567656Y-68389360D01*
X129567657Y-68389360D01*
X129567658Y-68389361D01*
X129708436Y-68444877D01*
X129796898Y-68455500D01*
X129796903Y-68455500D01*
X129983103Y-68455500D01*
X129999178Y-68453569D01*
X130071564Y-68444877D01*
X130071565Y-68444876D01*
X130075215Y-68444438D01*
X130104785Y-68444438D01*
X130108434Y-68444876D01*
X130108436Y-68444877D01*
X130180821Y-68453569D01*
X130196897Y-68455500D01*
X130196898Y-68455500D01*
X130383103Y-68455500D01*
X130399178Y-68453569D01*
X130471564Y-68444877D01*
X130471565Y-68444876D01*
X130475215Y-68444438D01*
X130504785Y-68444438D01*
X130508434Y-68444876D01*
X130508436Y-68444877D01*
X130580821Y-68453569D01*
X130596897Y-68455500D01*
X130596898Y-68455500D01*
X130783103Y-68455500D01*
X130799178Y-68453569D01*
X130871564Y-68444877D01*
X130871565Y-68444876D01*
X130875215Y-68444438D01*
X130904785Y-68444438D01*
X130908434Y-68444876D01*
X130908436Y-68444877D01*
X130980821Y-68453569D01*
X130996897Y-68455500D01*
X130996898Y-68455500D01*
X131183103Y-68455500D01*
X131199178Y-68453569D01*
X131271564Y-68444877D01*
X131271565Y-68444876D01*
X131275215Y-68444438D01*
X131304785Y-68444438D01*
X131308434Y-68444876D01*
X131308436Y-68444877D01*
X131380821Y-68453569D01*
X131396897Y-68455500D01*
X131396898Y-68455500D01*
X131583103Y-68455500D01*
X131599178Y-68453569D01*
X131671564Y-68444877D01*
X131671565Y-68444876D01*
X131675215Y-68444438D01*
X131704785Y-68444438D01*
X131708434Y-68444876D01*
X131708436Y-68444877D01*
X131780821Y-68453569D01*
X131796897Y-68455500D01*
X131796898Y-68455500D01*
X131983101Y-68455500D01*
X131983102Y-68455500D01*
X132071564Y-68444877D01*
X132071567Y-68444875D01*
X132077318Y-68444185D01*
X132106890Y-68444185D01*
X132196941Y-68455000D01*
X132383054Y-68455000D01*
X132471443Y-68444386D01*
X132612095Y-68388920D01*
X132732564Y-68297564D01*
X132823920Y-68177095D01*
X132879386Y-68036443D01*
X132890000Y-67948053D01*
X132890000Y-67186946D01*
X132879386Y-67098556D01*
X132823920Y-66957904D01*
X132732564Y-66837435D01*
X132612095Y-66746079D01*
X132471443Y-66690613D01*
X132383054Y-66680000D01*
X132360649Y-66680000D01*
X132293610Y-66660315D01*
X132247855Y-66607511D01*
X132237911Y-66538353D01*
X132257547Y-66487109D01*
X132298009Y-66426553D01*
X132298009Y-66426552D01*
X132298013Y-66426547D01*
X132365894Y-66262666D01*
X132368416Y-66249991D01*
X132400499Y-66088695D01*
X132400500Y-66088693D01*
X132400500Y-65911306D01*
X132400499Y-65911304D01*
X132379255Y-65804503D01*
X132730000Y-65804503D01*
X132876195Y-65762031D01*
X133015374Y-65679721D01*
X133015383Y-65679714D01*
X133129714Y-65565383D01*
X133129721Y-65565374D01*
X133212031Y-65426195D01*
X133212033Y-65426190D01*
X133257144Y-65270918D01*
X133257145Y-65270912D01*
X133258790Y-65250000D01*
X132730000Y-65250000D01*
X132730000Y-65804503D01*
X132379255Y-65804503D01*
X132365896Y-65737341D01*
X132365893Y-65737332D01*
X132363595Y-65731785D01*
X132321967Y-65631284D01*
X132298016Y-65573459D01*
X132298009Y-65573446D01*
X132268599Y-65529431D01*
X132247721Y-65462753D01*
X132252625Y-65425945D01*
X132297642Y-65270997D01*
X132297643Y-65270991D01*
X132297649Y-65270912D01*
X132300500Y-65234690D01*
X132300500Y-64765310D01*
X132297643Y-64729007D01*
X132283021Y-64678679D01*
X132252495Y-64573608D01*
X132252492Y-64573600D01*
X132247266Y-64564763D01*
X132230000Y-64501645D01*
X132230000Y-64195494D01*
X132730000Y-64195494D01*
X132730000Y-64750000D01*
X133258790Y-64750000D01*
X133257145Y-64729089D01*
X133212031Y-64573804D01*
X133129721Y-64434625D01*
X133129714Y-64434616D01*
X133015383Y-64320285D01*
X133015374Y-64320278D01*
X132876193Y-64237967D01*
X132876190Y-64237965D01*
X132730001Y-64195493D01*
X132730000Y-64195494D01*
X132230000Y-64195494D01*
X132229998Y-64195493D01*
X132083809Y-64237965D01*
X132083806Y-64237967D01*
X132063608Y-64249912D01*
X131995884Y-64267092D01*
X131937370Y-64249910D01*
X131916397Y-64237507D01*
X131916390Y-64237504D01*
X131760997Y-64192357D01*
X131760991Y-64192356D01*
X131724697Y-64189500D01*
X131724690Y-64189500D01*
X131315310Y-64189500D01*
X131315302Y-64189500D01*
X131279008Y-64192356D01*
X131279002Y-64192357D01*
X131123609Y-64237504D01*
X131123606Y-64237505D01*
X130984318Y-64319879D01*
X130984308Y-64319887D01*
X130922240Y-64381953D01*
X130908354Y-64389969D01*
X130899100Y-64400150D01*
X130866656Y-64414044D01*
X130794549Y-64433366D01*
X130724699Y-64431705D01*
X130674773Y-64401273D01*
X130574038Y-64300538D01*
X130574034Y-64300535D01*
X130426553Y-64201990D01*
X130426540Y-64201983D01*
X130262667Y-64134106D01*
X130262658Y-64134103D01*
X130088694Y-64099500D01*
X130088691Y-64099500D01*
X129911309Y-64099500D01*
X129911306Y-64099500D01*
X129737341Y-64134103D01*
X129737332Y-64134106D01*
X129573459Y-64201983D01*
X129573446Y-64201990D01*
X129425965Y-64300535D01*
X129425961Y-64300538D01*
X129300538Y-64425961D01*
X129300535Y-64425965D01*
X129201990Y-64573446D01*
X129201985Y-64573455D01*
X129158401Y-64678679D01*
X129114560Y-64733082D01*
X129048266Y-64755147D01*
X128980567Y-64737868D01*
X128974949Y-64734328D01*
X128926552Y-64701990D01*
X128926540Y-64701983D01*
X128762667Y-64634106D01*
X128762658Y-64634103D01*
X128588694Y-64599500D01*
X128588691Y-64599500D01*
X128411309Y-64599500D01*
X128411306Y-64599500D01*
X128237341Y-64634103D01*
X128237332Y-64634106D01*
X128073459Y-64701983D01*
X128073446Y-64701990D01*
X127925965Y-64800535D01*
X127925961Y-64800538D01*
X127800538Y-64925961D01*
X127800535Y-64925965D01*
X127701990Y-65073446D01*
X127701983Y-65073459D01*
X127634106Y-65237332D01*
X127634103Y-65237341D01*
X127599500Y-65411304D01*
X127599500Y-65450903D01*
X127579815Y-65517942D01*
X127527011Y-65563697D01*
X127457853Y-65573641D01*
X127394297Y-65544616D01*
X127387819Y-65538584D01*
X126487590Y-64638355D01*
X126487588Y-64638352D01*
X126368717Y-64519481D01*
X126368716Y-64519480D01*
X126334975Y-64500000D01*
X126283332Y-64470184D01*
X126283319Y-64470177D01*
X126281904Y-64469360D01*
X126231785Y-64440423D01*
X126225305Y-64438686D01*
X126212416Y-64431690D01*
X126200873Y-64420204D01*
X126183891Y-64410391D01*
X126074038Y-64300538D01*
X126074034Y-64300535D01*
X125926553Y-64201990D01*
X125926540Y-64201983D01*
X125762667Y-64134106D01*
X125762658Y-64134103D01*
X125588694Y-64099500D01*
X125588691Y-64099500D01*
X125411309Y-64099500D01*
X125411306Y-64099500D01*
X125237341Y-64134103D01*
X125237332Y-64134106D01*
X125073459Y-64201983D01*
X125073446Y-64201990D01*
X124925965Y-64300535D01*
X124925961Y-64300538D01*
X124800538Y-64425961D01*
X124800535Y-64425965D01*
X124701990Y-64573446D01*
X124701983Y-64573459D01*
X124634106Y-64737332D01*
X124634103Y-64737341D01*
X124599500Y-64911304D01*
X119235144Y-64911304D01*
X119508854Y-64637594D01*
X119508853Y-64637593D01*
X119372859Y-64566556D01*
X119177328Y-64510609D01*
X119177325Y-64510608D01*
X119058000Y-64500000D01*
X117941999Y-64500000D01*
X117822674Y-64510608D01*
X117822671Y-64510609D01*
X117627138Y-64566557D01*
X117627134Y-64566558D01*
X117491145Y-64637592D01*
X117491144Y-64637593D01*
X93800500Y-64637593D01*
X93800500Y-62924500D01*
X93820185Y-62857461D01*
X93872989Y-62811706D01*
X93924500Y-62800500D01*
X148575500Y-62800500D01*
X148642539Y-62820185D01*
G37*
%TD.AperFunction*%
%TA.AperFunction,Conductor*%
G36*
X110684186Y-79103050D02*
G01*
X110693148Y-79101762D01*
X110717188Y-79112740D01*
X110742540Y-79120185D01*
X110748467Y-79127025D01*
X110756704Y-79130787D01*
X110770993Y-79153021D01*
X110788295Y-79172989D01*
X110790582Y-79183503D01*
X110794478Y-79189565D01*
X110799501Y-79224500D01*
X110799501Y-79350018D01*
X110810000Y-79452796D01*
X110810001Y-79452797D01*
X110865185Y-79619331D01*
X110865187Y-79619336D01*
X110882771Y-79647844D01*
X110957288Y-79768656D01*
X111081344Y-79892712D01*
X111084628Y-79894737D01*
X111084653Y-79894753D01*
X111086445Y-79896746D01*
X111087011Y-79897193D01*
X111086934Y-79897289D01*
X111131379Y-79946699D01*
X111142603Y-80015661D01*
X111114761Y-80079744D01*
X111084665Y-80105826D01*
X111081660Y-80107679D01*
X111081655Y-80107683D01*
X110957684Y-80231654D01*
X110865643Y-80380875D01*
X110865641Y-80380880D01*
X110810494Y-80547302D01*
X110810493Y-80547309D01*
X110800000Y-80650013D01*
X110800000Y-80700000D01*
X113249999Y-80700000D01*
X113249999Y-80650028D01*
X113249998Y-80650013D01*
X113239505Y-80547302D01*
X113184358Y-80380880D01*
X113184356Y-80380875D01*
X113092315Y-80231654D01*
X112968344Y-80107683D01*
X112968341Y-80107681D01*
X112965339Y-80105829D01*
X112963713Y-80104021D01*
X112962677Y-80103202D01*
X112962817Y-80103024D01*
X112918617Y-80053880D01*
X112907397Y-79984917D01*
X112935243Y-79920836D01*
X112965344Y-79894754D01*
X112968656Y-79892712D01*
X113092712Y-79768656D01*
X113129259Y-79709402D01*
X113181207Y-79662679D01*
X113234798Y-79650500D01*
X113825638Y-79650500D01*
X113892677Y-79670185D01*
X113913319Y-79686819D01*
X113925961Y-79699461D01*
X113925965Y-79699464D01*
X114073446Y-79798009D01*
X114073459Y-79798016D01*
X114182871Y-79843335D01*
X114237334Y-79865894D01*
X114237336Y-79865894D01*
X114237341Y-79865896D01*
X114411304Y-79900499D01*
X114411307Y-79900500D01*
X114411309Y-79900500D01*
X114588693Y-79900500D01*
X114720004Y-79874380D01*
X114751308Y-79868153D01*
X114820900Y-79874380D01*
X114876077Y-79917243D01*
X114899322Y-79983132D01*
X114899500Y-79989770D01*
X114899500Y-83265500D01*
X114879815Y-83332539D01*
X114827011Y-83378294D01*
X114775500Y-83389500D01*
X112694596Y-83389500D01*
X112627557Y-83369815D01*
X112606915Y-83353181D01*
X112602603Y-83348869D01*
X112602595Y-83348863D01*
X112464393Y-83267131D01*
X112464388Y-83267129D01*
X112310208Y-83222335D01*
X112310202Y-83222334D01*
X112274181Y-83219500D01*
X111775830Y-83219500D01*
X111775808Y-83219501D01*
X111739794Y-83222335D01*
X111585611Y-83267129D01*
X111585606Y-83267131D01*
X111447404Y-83348863D01*
X111447396Y-83348869D01*
X111443085Y-83353181D01*
X111381762Y-83386666D01*
X111355404Y-83389500D01*
X110734361Y-83389500D01*
X110667322Y-83369815D01*
X110646684Y-83353185D01*
X110584035Y-83290536D01*
X110584034Y-83290535D01*
X110584033Y-83290534D01*
X110436553Y-83191990D01*
X110436540Y-83191983D01*
X110272667Y-83124106D01*
X110272658Y-83124103D01*
X110098694Y-83089500D01*
X110098691Y-83089500D01*
X109921309Y-83089500D01*
X109921306Y-83089500D01*
X109747341Y-83124103D01*
X109747332Y-83124106D01*
X109583459Y-83191983D01*
X109583446Y-83191990D01*
X109435965Y-83290535D01*
X109435961Y-83290538D01*
X109310538Y-83415961D01*
X109310535Y-83415965D01*
X109211990Y-83563446D01*
X109211983Y-83563459D01*
X109144106Y-83727332D01*
X109144103Y-83727341D01*
X109109500Y-83901304D01*
X109109500Y-84078695D01*
X109144103Y-84252658D01*
X109144106Y-84252667D01*
X109211983Y-84416540D01*
X109211990Y-84416553D01*
X109310535Y-84564034D01*
X109310538Y-84564038D01*
X109435961Y-84689461D01*
X109435965Y-84689464D01*
X109583446Y-84788009D01*
X109583459Y-84788016D01*
X109706363Y-84838923D01*
X109747334Y-84855894D01*
X109747336Y-84855894D01*
X109747341Y-84855896D01*
X109921304Y-84890499D01*
X109921307Y-84890500D01*
X109921309Y-84890500D01*
X110098693Y-84890500D01*
X110098694Y-84890499D01*
X110179133Y-84874499D01*
X110272658Y-84855896D01*
X110272661Y-84855894D01*
X110272666Y-84855894D01*
X110436547Y-84788013D01*
X110584035Y-84689464D01*
X110646681Y-84626817D01*
X110708002Y-84593334D01*
X110734361Y-84590500D01*
X111095725Y-84590500D01*
X111162764Y-84610185D01*
X111208519Y-84662989D01*
X111218463Y-84732147D01*
X111214802Y-84749094D01*
X111207334Y-84774797D01*
X111204500Y-84810811D01*
X111204500Y-85209169D01*
X111204501Y-85209191D01*
X111207335Y-85245205D01*
X111252129Y-85399388D01*
X111252131Y-85399393D01*
X111328371Y-85528309D01*
X111333865Y-85537598D01*
X111388182Y-85591915D01*
X111421666Y-85653236D01*
X111424500Y-85679595D01*
X111424500Y-86775638D01*
X111404815Y-86842677D01*
X111388181Y-86863319D01*
X111325538Y-86925961D01*
X111325535Y-86925965D01*
X111226990Y-87073446D01*
X111226983Y-87073459D01*
X111159106Y-87237332D01*
X111159103Y-87237341D01*
X111124500Y-87411304D01*
X111124500Y-87588695D01*
X111159104Y-87762663D01*
X111194469Y-87848042D01*
X111201937Y-87917512D01*
X111170661Y-87979991D01*
X111167588Y-87983175D01*
X110787584Y-88363181D01*
X110726261Y-88396666D01*
X110699903Y-88399500D01*
X108673362Y-88399500D01*
X108606323Y-88379815D01*
X108560568Y-88327011D01*
X108550624Y-88257853D01*
X108579649Y-88194297D01*
X108585681Y-88187819D01*
X108699461Y-88074038D01*
X108699464Y-88074035D01*
X108798013Y-87926547D01*
X108865894Y-87762666D01*
X108866852Y-87757853D01*
X108900499Y-87588695D01*
X108900500Y-87588693D01*
X108900500Y-87411306D01*
X108900499Y-87411304D01*
X108865896Y-87237341D01*
X108865893Y-87237332D01*
X108858028Y-87218345D01*
X108831415Y-87154093D01*
X108798016Y-87073459D01*
X108798009Y-87073446D01*
X108735859Y-86980433D01*
X108714981Y-86913756D01*
X108733465Y-86846376D01*
X108764509Y-86812381D01*
X108775000Y-86804504D01*
X108775000Y-86804503D01*
X109275000Y-86804503D01*
X109421195Y-86762031D01*
X109560374Y-86679721D01*
X109560383Y-86679714D01*
X109674714Y-86565383D01*
X109674721Y-86565374D01*
X109757031Y-86426195D01*
X109757033Y-86426190D01*
X109802144Y-86270918D01*
X109802145Y-86270912D01*
X109803790Y-86250000D01*
X109275000Y-86250000D01*
X109275000Y-86804503D01*
X108775000Y-86804503D01*
X108775000Y-86498352D01*
X108792267Y-86435233D01*
X108797494Y-86426395D01*
X108820002Y-86348925D01*
X108842642Y-86270997D01*
X108842643Y-86270991D01*
X108843691Y-86257671D01*
X108845500Y-86234690D01*
X108845500Y-85765310D01*
X108842643Y-85729007D01*
X108841388Y-85724688D01*
X108797495Y-85573608D01*
X108797492Y-85573600D01*
X108792266Y-85564763D01*
X108775000Y-85501645D01*
X108775000Y-85200721D01*
X108766982Y-85195494D01*
X109275000Y-85195494D01*
X109275000Y-85750000D01*
X109803790Y-85750000D01*
X109802145Y-85729089D01*
X109757031Y-85573804D01*
X109674721Y-85434625D01*
X109674714Y-85434616D01*
X109560383Y-85320285D01*
X109560374Y-85320278D01*
X109421193Y-85237967D01*
X109421190Y-85237965D01*
X109275001Y-85195493D01*
X109275000Y-85195494D01*
X108766982Y-85195494D01*
X108721783Y-85166030D01*
X108710336Y-85152645D01*
X108695551Y-85143082D01*
X108688102Y-85126645D01*
X108676373Y-85112930D01*
X108673980Y-85095482D01*
X108666711Y-85079442D01*
X108665500Y-85062153D01*
X108665500Y-82937845D01*
X108685185Y-82870806D01*
X108737989Y-82825051D01*
X108749919Y-82823335D01*
X108775000Y-82804504D01*
X108775000Y-82804503D01*
X109275000Y-82804503D01*
X109421195Y-82762031D01*
X109560374Y-82679721D01*
X109560383Y-82679714D01*
X109674714Y-82565383D01*
X109674721Y-82565374D01*
X109757031Y-82426195D01*
X109757033Y-82426190D01*
X109802144Y-82270918D01*
X109802145Y-82270912D01*
X109803790Y-82250000D01*
X109275000Y-82250000D01*
X109275000Y-82804503D01*
X108775000Y-82804503D01*
X108775000Y-82498352D01*
X108792267Y-82435233D01*
X108797494Y-82426395D01*
X108797495Y-82426391D01*
X108797497Y-82426388D01*
X108842642Y-82270997D01*
X108842643Y-82270991D01*
X108842649Y-82270912D01*
X108845500Y-82234690D01*
X108845500Y-81765310D01*
X108842643Y-81729007D01*
X108839802Y-81719229D01*
X108797495Y-81573608D01*
X108797492Y-81573600D01*
X108792266Y-81564763D01*
X108775000Y-81501645D01*
X108775000Y-81195494D01*
X109275000Y-81195494D01*
X109275000Y-81750000D01*
X109803790Y-81750000D01*
X109802145Y-81729089D01*
X109757031Y-81573804D01*
X109674721Y-81434625D01*
X109674714Y-81434616D01*
X109560383Y-81320285D01*
X109560374Y-81320278D01*
X109450620Y-81255370D01*
X109441516Y-81249986D01*
X110800001Y-81249986D01*
X110810494Y-81352697D01*
X110865641Y-81519119D01*
X110865643Y-81519124D01*
X110957684Y-81668345D01*
X111081654Y-81792315D01*
X111230875Y-81884356D01*
X111230880Y-81884358D01*
X111397302Y-81939505D01*
X111397309Y-81939506D01*
X111500019Y-81949999D01*
X111774999Y-81949999D01*
X112275000Y-81949999D01*
X112549972Y-81949999D01*
X112549986Y-81949998D01*
X112652697Y-81939505D01*
X112819119Y-81884358D01*
X112819124Y-81884356D01*
X112968345Y-81792315D01*
X113092315Y-81668345D01*
X113184356Y-81519124D01*
X113184358Y-81519119D01*
X113239505Y-81352697D01*
X113239506Y-81352690D01*
X113249999Y-81249986D01*
X113250000Y-81249973D01*
X113250000Y-81200000D01*
X112275000Y-81200000D01*
X112275000Y-81949999D01*
X111774999Y-81949999D01*
X111775000Y-81949998D01*
X111775000Y-81200000D01*
X110800001Y-81200000D01*
X110800001Y-81249986D01*
X109441516Y-81249986D01*
X109421193Y-81237967D01*
X109421190Y-81237965D01*
X109275001Y-81195493D01*
X109275000Y-81195494D01*
X108775000Y-81195494D01*
X108775000Y-81133535D01*
X108775436Y-81133535D01*
X108773340Y-81103586D01*
X108806784Y-81042450D01*
X109383506Y-80465727D01*
X109383511Y-80465724D01*
X109393714Y-80455520D01*
X109393716Y-80455520D01*
X109505520Y-80343716D01*
X109570143Y-80231785D01*
X109584577Y-80206785D01*
X109625501Y-80054057D01*
X109625501Y-79895943D01*
X109625501Y-79888348D01*
X109625500Y-79888330D01*
X109625500Y-79224500D01*
X109645185Y-79157461D01*
X109697989Y-79111706D01*
X109749500Y-79100500D01*
X110675501Y-79100500D01*
X110684186Y-79103050D01*
G37*
%TD.AperFunction*%
%TD*%
M02*
