%TF.GenerationSoftware,KiCad,Pcbnew,9.0.7*%
%TF.CreationDate,2026-02-25T22:08:45+01:00*%
%TF.ProjectId,GasBee,47617342-6565-42e6-9b69-6361645f7063,rev?*%
%TF.SameCoordinates,Original*%
%TF.FileFunction,Legend,Top*%
%TF.FilePolarity,Positive*%
%FSLAX46Y46*%
G04 Gerber Fmt 4.6, Leading zero omitted, Abs format (unit mm)*
G04 Created by KiCad (PCBNEW 9.0.7) date 2026-02-25 22:08:45*
%MOMM*%
%LPD*%
G01*
G04 APERTURE LIST*
%ADD10C,0.150000*%
%ADD11C,0.120000*%
G04 APERTURE END LIST*
D10*
X131333333Y-75504819D02*
X130857143Y-75504819D01*
X130857143Y-75504819D02*
X130857143Y-74504819D01*
X132190476Y-75504819D02*
X131619048Y-75504819D01*
X131904762Y-75504819D02*
X131904762Y-74504819D01*
X131904762Y-74504819D02*
X131809524Y-74647676D01*
X131809524Y-74647676D02*
X131714286Y-74742914D01*
X131714286Y-74742914D02*
X131619048Y-74790533D01*
X108348333Y-80124819D02*
X108015000Y-79648628D01*
X107776905Y-80124819D02*
X107776905Y-79124819D01*
X107776905Y-79124819D02*
X108157857Y-79124819D01*
X108157857Y-79124819D02*
X108253095Y-79172438D01*
X108253095Y-79172438D02*
X108300714Y-79220057D01*
X108300714Y-79220057D02*
X108348333Y-79315295D01*
X108348333Y-79315295D02*
X108348333Y-79458152D01*
X108348333Y-79458152D02*
X108300714Y-79553390D01*
X108300714Y-79553390D02*
X108253095Y-79601009D01*
X108253095Y-79601009D02*
X108157857Y-79648628D01*
X108157857Y-79648628D02*
X107776905Y-79648628D01*
X108824524Y-80124819D02*
X109015000Y-80124819D01*
X109015000Y-80124819D02*
X109110238Y-80077200D01*
X109110238Y-80077200D02*
X109157857Y-80029580D01*
X109157857Y-80029580D02*
X109253095Y-79886723D01*
X109253095Y-79886723D02*
X109300714Y-79696247D01*
X109300714Y-79696247D02*
X109300714Y-79315295D01*
X109300714Y-79315295D02*
X109253095Y-79220057D01*
X109253095Y-79220057D02*
X109205476Y-79172438D01*
X109205476Y-79172438D02*
X109110238Y-79124819D01*
X109110238Y-79124819D02*
X108919762Y-79124819D01*
X108919762Y-79124819D02*
X108824524Y-79172438D01*
X108824524Y-79172438D02*
X108776905Y-79220057D01*
X108776905Y-79220057D02*
X108729286Y-79315295D01*
X108729286Y-79315295D02*
X108729286Y-79553390D01*
X108729286Y-79553390D02*
X108776905Y-79648628D01*
X108776905Y-79648628D02*
X108824524Y-79696247D01*
X108824524Y-79696247D02*
X108919762Y-79743866D01*
X108919762Y-79743866D02*
X109110238Y-79743866D01*
X109110238Y-79743866D02*
X109205476Y-79696247D01*
X109205476Y-79696247D02*
X109253095Y-79648628D01*
X109253095Y-79648628D02*
X109300714Y-79553390D01*
X140438095Y-70854819D02*
X140438095Y-71664342D01*
X140438095Y-71664342D02*
X140485714Y-71759580D01*
X140485714Y-71759580D02*
X140533333Y-71807200D01*
X140533333Y-71807200D02*
X140628571Y-71854819D01*
X140628571Y-71854819D02*
X140819047Y-71854819D01*
X140819047Y-71854819D02*
X140914285Y-71807200D01*
X140914285Y-71807200D02*
X140961904Y-71759580D01*
X140961904Y-71759580D02*
X141009523Y-71664342D01*
X141009523Y-71664342D02*
X141009523Y-70854819D01*
X141961904Y-70854819D02*
X141485714Y-70854819D01*
X141485714Y-70854819D02*
X141438095Y-71331009D01*
X141438095Y-71331009D02*
X141485714Y-71283390D01*
X141485714Y-71283390D02*
X141580952Y-71235771D01*
X141580952Y-71235771D02*
X141819047Y-71235771D01*
X141819047Y-71235771D02*
X141914285Y-71283390D01*
X141914285Y-71283390D02*
X141961904Y-71331009D01*
X141961904Y-71331009D02*
X142009523Y-71426247D01*
X142009523Y-71426247D02*
X142009523Y-71664342D01*
X142009523Y-71664342D02*
X141961904Y-71759580D01*
X141961904Y-71759580D02*
X141914285Y-71807200D01*
X141914285Y-71807200D02*
X141819047Y-71854819D01*
X141819047Y-71854819D02*
X141580952Y-71854819D01*
X141580952Y-71854819D02*
X141485714Y-71807200D01*
X141485714Y-71807200D02*
X141438095Y-71759580D01*
X126857142Y-72624819D02*
X126523809Y-72148628D01*
X126285714Y-72624819D02*
X126285714Y-71624819D01*
X126285714Y-71624819D02*
X126666666Y-71624819D01*
X126666666Y-71624819D02*
X126761904Y-71672438D01*
X126761904Y-71672438D02*
X126809523Y-71720057D01*
X126809523Y-71720057D02*
X126857142Y-71815295D01*
X126857142Y-71815295D02*
X126857142Y-71958152D01*
X126857142Y-71958152D02*
X126809523Y-72053390D01*
X126809523Y-72053390D02*
X126761904Y-72101009D01*
X126761904Y-72101009D02*
X126666666Y-72148628D01*
X126666666Y-72148628D02*
X126285714Y-72148628D01*
X127809523Y-72624819D02*
X127238095Y-72624819D01*
X127523809Y-72624819D02*
X127523809Y-71624819D01*
X127523809Y-71624819D02*
X127428571Y-71767676D01*
X127428571Y-71767676D02*
X127333333Y-71862914D01*
X127333333Y-71862914D02*
X127238095Y-71910533D01*
X128428571Y-71624819D02*
X128523809Y-71624819D01*
X128523809Y-71624819D02*
X128619047Y-71672438D01*
X128619047Y-71672438D02*
X128666666Y-71720057D01*
X128666666Y-71720057D02*
X128714285Y-71815295D01*
X128714285Y-71815295D02*
X128761904Y-72005771D01*
X128761904Y-72005771D02*
X128761904Y-72243866D01*
X128761904Y-72243866D02*
X128714285Y-72434342D01*
X128714285Y-72434342D02*
X128666666Y-72529580D01*
X128666666Y-72529580D02*
X128619047Y-72577200D01*
X128619047Y-72577200D02*
X128523809Y-72624819D01*
X128523809Y-72624819D02*
X128428571Y-72624819D01*
X128428571Y-72624819D02*
X128333333Y-72577200D01*
X128333333Y-72577200D02*
X128285714Y-72529580D01*
X128285714Y-72529580D02*
X128238095Y-72434342D01*
X128238095Y-72434342D02*
X128190476Y-72243866D01*
X128190476Y-72243866D02*
X128190476Y-72005771D01*
X128190476Y-72005771D02*
X128238095Y-71815295D01*
X128238095Y-71815295D02*
X128285714Y-71720057D01*
X128285714Y-71720057D02*
X128333333Y-71672438D01*
X128333333Y-71672438D02*
X128428571Y-71624819D01*
X108378333Y-81199580D02*
X108330714Y-81247200D01*
X108330714Y-81247200D02*
X108187857Y-81294819D01*
X108187857Y-81294819D02*
X108092619Y-81294819D01*
X108092619Y-81294819D02*
X107949762Y-81247200D01*
X107949762Y-81247200D02*
X107854524Y-81151961D01*
X107854524Y-81151961D02*
X107806905Y-81056723D01*
X107806905Y-81056723D02*
X107759286Y-80866247D01*
X107759286Y-80866247D02*
X107759286Y-80723390D01*
X107759286Y-80723390D02*
X107806905Y-80532914D01*
X107806905Y-80532914D02*
X107854524Y-80437676D01*
X107854524Y-80437676D02*
X107949762Y-80342438D01*
X107949762Y-80342438D02*
X108092619Y-80294819D01*
X108092619Y-80294819D02*
X108187857Y-80294819D01*
X108187857Y-80294819D02*
X108330714Y-80342438D01*
X108330714Y-80342438D02*
X108378333Y-80390057D01*
X108949762Y-80723390D02*
X108854524Y-80675771D01*
X108854524Y-80675771D02*
X108806905Y-80628152D01*
X108806905Y-80628152D02*
X108759286Y-80532914D01*
X108759286Y-80532914D02*
X108759286Y-80485295D01*
X108759286Y-80485295D02*
X108806905Y-80390057D01*
X108806905Y-80390057D02*
X108854524Y-80342438D01*
X108854524Y-80342438D02*
X108949762Y-80294819D01*
X108949762Y-80294819D02*
X109140238Y-80294819D01*
X109140238Y-80294819D02*
X109235476Y-80342438D01*
X109235476Y-80342438D02*
X109283095Y-80390057D01*
X109283095Y-80390057D02*
X109330714Y-80485295D01*
X109330714Y-80485295D02*
X109330714Y-80532914D01*
X109330714Y-80532914D02*
X109283095Y-80628152D01*
X109283095Y-80628152D02*
X109235476Y-80675771D01*
X109235476Y-80675771D02*
X109140238Y-80723390D01*
X109140238Y-80723390D02*
X108949762Y-80723390D01*
X108949762Y-80723390D02*
X108854524Y-80771009D01*
X108854524Y-80771009D02*
X108806905Y-80818628D01*
X108806905Y-80818628D02*
X108759286Y-80913866D01*
X108759286Y-80913866D02*
X108759286Y-81104342D01*
X108759286Y-81104342D02*
X108806905Y-81199580D01*
X108806905Y-81199580D02*
X108854524Y-81247200D01*
X108854524Y-81247200D02*
X108949762Y-81294819D01*
X108949762Y-81294819D02*
X109140238Y-81294819D01*
X109140238Y-81294819D02*
X109235476Y-81247200D01*
X109235476Y-81247200D02*
X109283095Y-81199580D01*
X109283095Y-81199580D02*
X109330714Y-81104342D01*
X109330714Y-81104342D02*
X109330714Y-80913866D01*
X109330714Y-80913866D02*
X109283095Y-80818628D01*
X109283095Y-80818628D02*
X109235476Y-80771009D01*
X109235476Y-80771009D02*
X109140238Y-80723390D01*
X131833333Y-64199580D02*
X131785714Y-64247200D01*
X131785714Y-64247200D02*
X131642857Y-64294819D01*
X131642857Y-64294819D02*
X131547619Y-64294819D01*
X131547619Y-64294819D02*
X131404762Y-64247200D01*
X131404762Y-64247200D02*
X131309524Y-64151961D01*
X131309524Y-64151961D02*
X131261905Y-64056723D01*
X131261905Y-64056723D02*
X131214286Y-63866247D01*
X131214286Y-63866247D02*
X131214286Y-63723390D01*
X131214286Y-63723390D02*
X131261905Y-63532914D01*
X131261905Y-63532914D02*
X131309524Y-63437676D01*
X131309524Y-63437676D02*
X131404762Y-63342438D01*
X131404762Y-63342438D02*
X131547619Y-63294819D01*
X131547619Y-63294819D02*
X131642857Y-63294819D01*
X131642857Y-63294819D02*
X131785714Y-63342438D01*
X131785714Y-63342438D02*
X131833333Y-63390057D01*
X132166667Y-63294819D02*
X132785714Y-63294819D01*
X132785714Y-63294819D02*
X132452381Y-63675771D01*
X132452381Y-63675771D02*
X132595238Y-63675771D01*
X132595238Y-63675771D02*
X132690476Y-63723390D01*
X132690476Y-63723390D02*
X132738095Y-63771009D01*
X132738095Y-63771009D02*
X132785714Y-63866247D01*
X132785714Y-63866247D02*
X132785714Y-64104342D01*
X132785714Y-64104342D02*
X132738095Y-64199580D01*
X132738095Y-64199580D02*
X132690476Y-64247200D01*
X132690476Y-64247200D02*
X132595238Y-64294819D01*
X132595238Y-64294819D02*
X132309524Y-64294819D01*
X132309524Y-64294819D02*
X132214286Y-64247200D01*
X132214286Y-64247200D02*
X132166667Y-64199580D01*
X98479819Y-72646666D02*
X98003628Y-72979999D01*
X98479819Y-73218094D02*
X97479819Y-73218094D01*
X97479819Y-73218094D02*
X97479819Y-72837142D01*
X97479819Y-72837142D02*
X97527438Y-72741904D01*
X97527438Y-72741904D02*
X97575057Y-72694285D01*
X97575057Y-72694285D02*
X97670295Y-72646666D01*
X97670295Y-72646666D02*
X97813152Y-72646666D01*
X97813152Y-72646666D02*
X97908390Y-72694285D01*
X97908390Y-72694285D02*
X97956009Y-72741904D01*
X97956009Y-72741904D02*
X98003628Y-72837142D01*
X98003628Y-72837142D02*
X98003628Y-73218094D01*
X97479819Y-71741904D02*
X97479819Y-72218094D01*
X97479819Y-72218094D02*
X97956009Y-72265713D01*
X97956009Y-72265713D02*
X97908390Y-72218094D01*
X97908390Y-72218094D02*
X97860771Y-72122856D01*
X97860771Y-72122856D02*
X97860771Y-71884761D01*
X97860771Y-71884761D02*
X97908390Y-71789523D01*
X97908390Y-71789523D02*
X97956009Y-71741904D01*
X97956009Y-71741904D02*
X98051247Y-71694285D01*
X98051247Y-71694285D02*
X98289342Y-71694285D01*
X98289342Y-71694285D02*
X98384580Y-71741904D01*
X98384580Y-71741904D02*
X98432200Y-71789523D01*
X98432200Y-71789523D02*
X98479819Y-71884761D01*
X98479819Y-71884761D02*
X98479819Y-72122856D01*
X98479819Y-72122856D02*
X98432200Y-72218094D01*
X98432200Y-72218094D02*
X98384580Y-72265713D01*
X125117080Y-87616666D02*
X125164700Y-87664285D01*
X125164700Y-87664285D02*
X125212319Y-87807142D01*
X125212319Y-87807142D02*
X125212319Y-87902380D01*
X125212319Y-87902380D02*
X125164700Y-88045237D01*
X125164700Y-88045237D02*
X125069461Y-88140475D01*
X125069461Y-88140475D02*
X124974223Y-88188094D01*
X124974223Y-88188094D02*
X124783747Y-88235713D01*
X124783747Y-88235713D02*
X124640890Y-88235713D01*
X124640890Y-88235713D02*
X124450414Y-88188094D01*
X124450414Y-88188094D02*
X124355176Y-88140475D01*
X124355176Y-88140475D02*
X124259938Y-88045237D01*
X124259938Y-88045237D02*
X124212319Y-87902380D01*
X124212319Y-87902380D02*
X124212319Y-87807142D01*
X124212319Y-87807142D02*
X124259938Y-87664285D01*
X124259938Y-87664285D02*
X124307557Y-87616666D01*
X124545652Y-86759523D02*
X125212319Y-86759523D01*
X124164700Y-86997618D02*
X124878985Y-87235713D01*
X124878985Y-87235713D02*
X124878985Y-86616666D01*
X136284819Y-78656666D02*
X135808628Y-78989999D01*
X136284819Y-79228094D02*
X135284819Y-79228094D01*
X135284819Y-79228094D02*
X135284819Y-78847142D01*
X135284819Y-78847142D02*
X135332438Y-78751904D01*
X135332438Y-78751904D02*
X135380057Y-78704285D01*
X135380057Y-78704285D02*
X135475295Y-78656666D01*
X135475295Y-78656666D02*
X135618152Y-78656666D01*
X135618152Y-78656666D02*
X135713390Y-78704285D01*
X135713390Y-78704285D02*
X135761009Y-78751904D01*
X135761009Y-78751904D02*
X135808628Y-78847142D01*
X135808628Y-78847142D02*
X135808628Y-79228094D01*
X135380057Y-78275713D02*
X135332438Y-78228094D01*
X135332438Y-78228094D02*
X135284819Y-78132856D01*
X135284819Y-78132856D02*
X135284819Y-77894761D01*
X135284819Y-77894761D02*
X135332438Y-77799523D01*
X135332438Y-77799523D02*
X135380057Y-77751904D01*
X135380057Y-77751904D02*
X135475295Y-77704285D01*
X135475295Y-77704285D02*
X135570533Y-77704285D01*
X135570533Y-77704285D02*
X135713390Y-77751904D01*
X135713390Y-77751904D02*
X136284819Y-78323332D01*
X136284819Y-78323332D02*
X136284819Y-77704285D01*
X102149819Y-72656666D02*
X101673628Y-72989999D01*
X102149819Y-73228094D02*
X101149819Y-73228094D01*
X101149819Y-73228094D02*
X101149819Y-72847142D01*
X101149819Y-72847142D02*
X101197438Y-72751904D01*
X101197438Y-72751904D02*
X101245057Y-72704285D01*
X101245057Y-72704285D02*
X101340295Y-72656666D01*
X101340295Y-72656666D02*
X101483152Y-72656666D01*
X101483152Y-72656666D02*
X101578390Y-72704285D01*
X101578390Y-72704285D02*
X101626009Y-72751904D01*
X101626009Y-72751904D02*
X101673628Y-72847142D01*
X101673628Y-72847142D02*
X101673628Y-73228094D01*
X101149819Y-72323332D02*
X101149819Y-71656666D01*
X101149819Y-71656666D02*
X102149819Y-72085237D01*
X108348333Y-76624819D02*
X108015000Y-76148628D01*
X107776905Y-76624819D02*
X107776905Y-75624819D01*
X107776905Y-75624819D02*
X108157857Y-75624819D01*
X108157857Y-75624819D02*
X108253095Y-75672438D01*
X108253095Y-75672438D02*
X108300714Y-75720057D01*
X108300714Y-75720057D02*
X108348333Y-75815295D01*
X108348333Y-75815295D02*
X108348333Y-75958152D01*
X108348333Y-75958152D02*
X108300714Y-76053390D01*
X108300714Y-76053390D02*
X108253095Y-76101009D01*
X108253095Y-76101009D02*
X108157857Y-76148628D01*
X108157857Y-76148628D02*
X107776905Y-76148628D01*
X108919762Y-76053390D02*
X108824524Y-76005771D01*
X108824524Y-76005771D02*
X108776905Y-75958152D01*
X108776905Y-75958152D02*
X108729286Y-75862914D01*
X108729286Y-75862914D02*
X108729286Y-75815295D01*
X108729286Y-75815295D02*
X108776905Y-75720057D01*
X108776905Y-75720057D02*
X108824524Y-75672438D01*
X108824524Y-75672438D02*
X108919762Y-75624819D01*
X108919762Y-75624819D02*
X109110238Y-75624819D01*
X109110238Y-75624819D02*
X109205476Y-75672438D01*
X109205476Y-75672438D02*
X109253095Y-75720057D01*
X109253095Y-75720057D02*
X109300714Y-75815295D01*
X109300714Y-75815295D02*
X109300714Y-75862914D01*
X109300714Y-75862914D02*
X109253095Y-75958152D01*
X109253095Y-75958152D02*
X109205476Y-76005771D01*
X109205476Y-76005771D02*
X109110238Y-76053390D01*
X109110238Y-76053390D02*
X108919762Y-76053390D01*
X108919762Y-76053390D02*
X108824524Y-76101009D01*
X108824524Y-76101009D02*
X108776905Y-76148628D01*
X108776905Y-76148628D02*
X108729286Y-76243866D01*
X108729286Y-76243866D02*
X108729286Y-76434342D01*
X108729286Y-76434342D02*
X108776905Y-76529580D01*
X108776905Y-76529580D02*
X108824524Y-76577200D01*
X108824524Y-76577200D02*
X108919762Y-76624819D01*
X108919762Y-76624819D02*
X109110238Y-76624819D01*
X109110238Y-76624819D02*
X109205476Y-76577200D01*
X109205476Y-76577200D02*
X109253095Y-76529580D01*
X109253095Y-76529580D02*
X109300714Y-76434342D01*
X109300714Y-76434342D02*
X109300714Y-76243866D01*
X109300714Y-76243866D02*
X109253095Y-76148628D01*
X109253095Y-76148628D02*
X109205476Y-76101009D01*
X109205476Y-76101009D02*
X109110238Y-76053390D01*
X114890819Y-70333333D02*
X114414628Y-70666666D01*
X114890819Y-70904761D02*
X113890819Y-70904761D01*
X113890819Y-70904761D02*
X113890819Y-70523809D01*
X113890819Y-70523809D02*
X113938438Y-70428571D01*
X113938438Y-70428571D02*
X113986057Y-70380952D01*
X113986057Y-70380952D02*
X114081295Y-70333333D01*
X114081295Y-70333333D02*
X114224152Y-70333333D01*
X114224152Y-70333333D02*
X114319390Y-70380952D01*
X114319390Y-70380952D02*
X114367009Y-70428571D01*
X114367009Y-70428571D02*
X114414628Y-70523809D01*
X114414628Y-70523809D02*
X114414628Y-70904761D01*
X114367009Y-69904761D02*
X114367009Y-69571428D01*
X114890819Y-69428571D02*
X114890819Y-69904761D01*
X114890819Y-69904761D02*
X113890819Y-69904761D01*
X113890819Y-69904761D02*
X113890819Y-69428571D01*
X114367009Y-68666666D02*
X114367009Y-68999999D01*
X114890819Y-68999999D02*
X113890819Y-68999999D01*
X113890819Y-68999999D02*
X113890819Y-68523809D01*
X113890819Y-67999999D02*
X114128914Y-67999999D01*
X114033676Y-68238094D02*
X114128914Y-67999999D01*
X114128914Y-67999999D02*
X114033676Y-67761904D01*
X114319390Y-68142856D02*
X114128914Y-67999999D01*
X114128914Y-67999999D02*
X114319390Y-67857142D01*
X113890819Y-67238094D02*
X114128914Y-67238094D01*
X114033676Y-67476189D02*
X114128914Y-67238094D01*
X114128914Y-67238094D02*
X114033676Y-66999999D01*
X114319390Y-67380951D02*
X114128914Y-67238094D01*
X114128914Y-67238094D02*
X114319390Y-67095237D01*
X135604819Y-88188094D02*
X134604819Y-88188094D01*
X134604819Y-88188094D02*
X134604819Y-87949999D01*
X134604819Y-87949999D02*
X134652438Y-87807142D01*
X134652438Y-87807142D02*
X134747676Y-87711904D01*
X134747676Y-87711904D02*
X134842914Y-87664285D01*
X134842914Y-87664285D02*
X135033390Y-87616666D01*
X135033390Y-87616666D02*
X135176247Y-87616666D01*
X135176247Y-87616666D02*
X135366723Y-87664285D01*
X135366723Y-87664285D02*
X135461961Y-87711904D01*
X135461961Y-87711904D02*
X135557200Y-87807142D01*
X135557200Y-87807142D02*
X135604819Y-87949999D01*
X135604819Y-87949999D02*
X135604819Y-88188094D01*
X134700057Y-87235713D02*
X134652438Y-87188094D01*
X134652438Y-87188094D02*
X134604819Y-87092856D01*
X134604819Y-87092856D02*
X134604819Y-86854761D01*
X134604819Y-86854761D02*
X134652438Y-86759523D01*
X134652438Y-86759523D02*
X134700057Y-86711904D01*
X134700057Y-86711904D02*
X134795295Y-86664285D01*
X134795295Y-86664285D02*
X134890533Y-86664285D01*
X134890533Y-86664285D02*
X135033390Y-86711904D01*
X135033390Y-86711904D02*
X135604819Y-87283332D01*
X135604819Y-87283332D02*
X135604819Y-86664285D01*
X121637080Y-78186666D02*
X121684700Y-78234285D01*
X121684700Y-78234285D02*
X121732319Y-78377142D01*
X121732319Y-78377142D02*
X121732319Y-78472380D01*
X121732319Y-78472380D02*
X121684700Y-78615237D01*
X121684700Y-78615237D02*
X121589461Y-78710475D01*
X121589461Y-78710475D02*
X121494223Y-78758094D01*
X121494223Y-78758094D02*
X121303747Y-78805713D01*
X121303747Y-78805713D02*
X121160890Y-78805713D01*
X121160890Y-78805713D02*
X120970414Y-78758094D01*
X120970414Y-78758094D02*
X120875176Y-78710475D01*
X120875176Y-78710475D02*
X120779938Y-78615237D01*
X120779938Y-78615237D02*
X120732319Y-78472380D01*
X120732319Y-78472380D02*
X120732319Y-78377142D01*
X120732319Y-78377142D02*
X120779938Y-78234285D01*
X120779938Y-78234285D02*
X120827557Y-78186666D01*
X120732319Y-77853332D02*
X120732319Y-77186666D01*
X120732319Y-77186666D02*
X121732319Y-77615237D01*
X108378333Y-85199580D02*
X108330714Y-85247200D01*
X108330714Y-85247200D02*
X108187857Y-85294819D01*
X108187857Y-85294819D02*
X108092619Y-85294819D01*
X108092619Y-85294819D02*
X107949762Y-85247200D01*
X107949762Y-85247200D02*
X107854524Y-85151961D01*
X107854524Y-85151961D02*
X107806905Y-85056723D01*
X107806905Y-85056723D02*
X107759286Y-84866247D01*
X107759286Y-84866247D02*
X107759286Y-84723390D01*
X107759286Y-84723390D02*
X107806905Y-84532914D01*
X107806905Y-84532914D02*
X107854524Y-84437676D01*
X107854524Y-84437676D02*
X107949762Y-84342438D01*
X107949762Y-84342438D02*
X108092619Y-84294819D01*
X108092619Y-84294819D02*
X108187857Y-84294819D01*
X108187857Y-84294819D02*
X108330714Y-84342438D01*
X108330714Y-84342438D02*
X108378333Y-84390057D01*
X108854524Y-85294819D02*
X109045000Y-85294819D01*
X109045000Y-85294819D02*
X109140238Y-85247200D01*
X109140238Y-85247200D02*
X109187857Y-85199580D01*
X109187857Y-85199580D02*
X109283095Y-85056723D01*
X109283095Y-85056723D02*
X109330714Y-84866247D01*
X109330714Y-84866247D02*
X109330714Y-84485295D01*
X109330714Y-84485295D02*
X109283095Y-84390057D01*
X109283095Y-84390057D02*
X109235476Y-84342438D01*
X109235476Y-84342438D02*
X109140238Y-84294819D01*
X109140238Y-84294819D02*
X108949762Y-84294819D01*
X108949762Y-84294819D02*
X108854524Y-84342438D01*
X108854524Y-84342438D02*
X108806905Y-84390057D01*
X108806905Y-84390057D02*
X108759286Y-84485295D01*
X108759286Y-84485295D02*
X108759286Y-84723390D01*
X108759286Y-84723390D02*
X108806905Y-84818628D01*
X108806905Y-84818628D02*
X108854524Y-84866247D01*
X108854524Y-84866247D02*
X108949762Y-84913866D01*
X108949762Y-84913866D02*
X109140238Y-84913866D01*
X109140238Y-84913866D02*
X109235476Y-84866247D01*
X109235476Y-84866247D02*
X109283095Y-84818628D01*
X109283095Y-84818628D02*
X109330714Y-84723390D01*
X124679580Y-77666666D02*
X124727200Y-77714285D01*
X124727200Y-77714285D02*
X124774819Y-77857142D01*
X124774819Y-77857142D02*
X124774819Y-77952380D01*
X124774819Y-77952380D02*
X124727200Y-78095237D01*
X124727200Y-78095237D02*
X124631961Y-78190475D01*
X124631961Y-78190475D02*
X124536723Y-78238094D01*
X124536723Y-78238094D02*
X124346247Y-78285713D01*
X124346247Y-78285713D02*
X124203390Y-78285713D01*
X124203390Y-78285713D02*
X124012914Y-78238094D01*
X124012914Y-78238094D02*
X123917676Y-78190475D01*
X123917676Y-78190475D02*
X123822438Y-78095237D01*
X123822438Y-78095237D02*
X123774819Y-77952380D01*
X123774819Y-77952380D02*
X123774819Y-77857142D01*
X123774819Y-77857142D02*
X123822438Y-77714285D01*
X123822438Y-77714285D02*
X123870057Y-77666666D01*
X123774819Y-76809523D02*
X123774819Y-76999999D01*
X123774819Y-76999999D02*
X123822438Y-77095237D01*
X123822438Y-77095237D02*
X123870057Y-77142856D01*
X123870057Y-77142856D02*
X124012914Y-77238094D01*
X124012914Y-77238094D02*
X124203390Y-77285713D01*
X124203390Y-77285713D02*
X124584342Y-77285713D01*
X124584342Y-77285713D02*
X124679580Y-77238094D01*
X124679580Y-77238094D02*
X124727200Y-77190475D01*
X124727200Y-77190475D02*
X124774819Y-77095237D01*
X124774819Y-77095237D02*
X124774819Y-76904761D01*
X124774819Y-76904761D02*
X124727200Y-76809523D01*
X124727200Y-76809523D02*
X124679580Y-76761904D01*
X124679580Y-76761904D02*
X124584342Y-76714285D01*
X124584342Y-76714285D02*
X124346247Y-76714285D01*
X124346247Y-76714285D02*
X124251009Y-76761904D01*
X124251009Y-76761904D02*
X124203390Y-76809523D01*
X124203390Y-76809523D02*
X124155771Y-76904761D01*
X124155771Y-76904761D02*
X124155771Y-77095237D01*
X124155771Y-77095237D02*
X124203390Y-77190475D01*
X124203390Y-77190475D02*
X124251009Y-77238094D01*
X124251009Y-77238094D02*
X124346247Y-77285713D01*
X102166666Y-70029819D02*
X102166666Y-70744104D01*
X102166666Y-70744104D02*
X102119047Y-70886961D01*
X102119047Y-70886961D02*
X102023809Y-70982200D01*
X102023809Y-70982200D02*
X101880952Y-71029819D01*
X101880952Y-71029819D02*
X101785714Y-71029819D01*
X102547619Y-70029819D02*
X103166666Y-70029819D01*
X103166666Y-70029819D02*
X102833333Y-70410771D01*
X102833333Y-70410771D02*
X102976190Y-70410771D01*
X102976190Y-70410771D02*
X103071428Y-70458390D01*
X103071428Y-70458390D02*
X103119047Y-70506009D01*
X103119047Y-70506009D02*
X103166666Y-70601247D01*
X103166666Y-70601247D02*
X103166666Y-70839342D01*
X103166666Y-70839342D02*
X103119047Y-70934580D01*
X103119047Y-70934580D02*
X103071428Y-70982200D01*
X103071428Y-70982200D02*
X102976190Y-71029819D01*
X102976190Y-71029819D02*
X102690476Y-71029819D01*
X102690476Y-71029819D02*
X102595238Y-70982200D01*
X102595238Y-70982200D02*
X102547619Y-70934580D01*
X111309819Y-84666666D02*
X110833628Y-84999999D01*
X111309819Y-85238094D02*
X110309819Y-85238094D01*
X110309819Y-85238094D02*
X110309819Y-84857142D01*
X110309819Y-84857142D02*
X110357438Y-84761904D01*
X110357438Y-84761904D02*
X110405057Y-84714285D01*
X110405057Y-84714285D02*
X110500295Y-84666666D01*
X110500295Y-84666666D02*
X110643152Y-84666666D01*
X110643152Y-84666666D02*
X110738390Y-84714285D01*
X110738390Y-84714285D02*
X110786009Y-84761904D01*
X110786009Y-84761904D02*
X110833628Y-84857142D01*
X110833628Y-84857142D02*
X110833628Y-85238094D01*
X110309819Y-84333332D02*
X110309819Y-83714285D01*
X110309819Y-83714285D02*
X110690771Y-84047618D01*
X110690771Y-84047618D02*
X110690771Y-83904761D01*
X110690771Y-83904761D02*
X110738390Y-83809523D01*
X110738390Y-83809523D02*
X110786009Y-83761904D01*
X110786009Y-83761904D02*
X110881247Y-83714285D01*
X110881247Y-83714285D02*
X111119342Y-83714285D01*
X111119342Y-83714285D02*
X111214580Y-83761904D01*
X111214580Y-83761904D02*
X111262200Y-83809523D01*
X111262200Y-83809523D02*
X111309819Y-83904761D01*
X111309819Y-83904761D02*
X111309819Y-84190475D01*
X111309819Y-84190475D02*
X111262200Y-84285713D01*
X111262200Y-84285713D02*
X111214580Y-84333332D01*
X138309819Y-81833333D02*
X139024104Y-81833333D01*
X139024104Y-81833333D02*
X139166961Y-81880952D01*
X139166961Y-81880952D02*
X139262200Y-81976190D01*
X139262200Y-81976190D02*
X139309819Y-82119047D01*
X139309819Y-82119047D02*
X139309819Y-82214285D01*
X139309819Y-80833333D02*
X139309819Y-81404761D01*
X139309819Y-81119047D02*
X138309819Y-81119047D01*
X138309819Y-81119047D02*
X138452676Y-81214285D01*
X138452676Y-81214285D02*
X138547914Y-81309523D01*
X138547914Y-81309523D02*
X138595533Y-81404761D01*
X109854819Y-93761904D02*
X110664342Y-93761904D01*
X110664342Y-93761904D02*
X110759580Y-93714285D01*
X110759580Y-93714285D02*
X110807200Y-93666666D01*
X110807200Y-93666666D02*
X110854819Y-93571428D01*
X110854819Y-93571428D02*
X110854819Y-93380952D01*
X110854819Y-93380952D02*
X110807200Y-93285714D01*
X110807200Y-93285714D02*
X110759580Y-93238095D01*
X110759580Y-93238095D02*
X110664342Y-93190476D01*
X110664342Y-93190476D02*
X109854819Y-93190476D01*
X109950057Y-92761904D02*
X109902438Y-92714285D01*
X109902438Y-92714285D02*
X109854819Y-92619047D01*
X109854819Y-92619047D02*
X109854819Y-92380952D01*
X109854819Y-92380952D02*
X109902438Y-92285714D01*
X109902438Y-92285714D02*
X109950057Y-92238095D01*
X109950057Y-92238095D02*
X110045295Y-92190476D01*
X110045295Y-92190476D02*
X110140533Y-92190476D01*
X110140533Y-92190476D02*
X110283390Y-92238095D01*
X110283390Y-92238095D02*
X110854819Y-92809523D01*
X110854819Y-92809523D02*
X110854819Y-92190476D01*
X114890819Y-92333333D02*
X114414628Y-92666666D01*
X114890819Y-92904761D02*
X113890819Y-92904761D01*
X113890819Y-92904761D02*
X113890819Y-92523809D01*
X113890819Y-92523809D02*
X113938438Y-92428571D01*
X113938438Y-92428571D02*
X113986057Y-92380952D01*
X113986057Y-92380952D02*
X114081295Y-92333333D01*
X114081295Y-92333333D02*
X114224152Y-92333333D01*
X114224152Y-92333333D02*
X114319390Y-92380952D01*
X114319390Y-92380952D02*
X114367009Y-92428571D01*
X114367009Y-92428571D02*
X114414628Y-92523809D01*
X114414628Y-92523809D02*
X114414628Y-92904761D01*
X114367009Y-91904761D02*
X114367009Y-91571428D01*
X114890819Y-91428571D02*
X114890819Y-91904761D01*
X114890819Y-91904761D02*
X113890819Y-91904761D01*
X113890819Y-91904761D02*
X113890819Y-91428571D01*
X114367009Y-90666666D02*
X114367009Y-90999999D01*
X114890819Y-90999999D02*
X113890819Y-90999999D01*
X113890819Y-90999999D02*
X113890819Y-90523809D01*
X113890819Y-89999999D02*
X114128914Y-89999999D01*
X114033676Y-90238094D02*
X114128914Y-89999999D01*
X114128914Y-89999999D02*
X114033676Y-89761904D01*
X114319390Y-90142856D02*
X114128914Y-89999999D01*
X114128914Y-89999999D02*
X114319390Y-89857142D01*
X113890819Y-89238094D02*
X114128914Y-89238094D01*
X114033676Y-89476189D02*
X114128914Y-89238094D01*
X114128914Y-89238094D02*
X114033676Y-88999999D01*
X114319390Y-89380951D02*
X114128914Y-89238094D01*
X114128914Y-89238094D02*
X114319390Y-89095237D01*
X87279819Y-81761904D02*
X88089342Y-81761904D01*
X88089342Y-81761904D02*
X88184580Y-81714285D01*
X88184580Y-81714285D02*
X88232200Y-81666666D01*
X88232200Y-81666666D02*
X88279819Y-81571428D01*
X88279819Y-81571428D02*
X88279819Y-81380952D01*
X88279819Y-81380952D02*
X88232200Y-81285714D01*
X88232200Y-81285714D02*
X88184580Y-81238095D01*
X88184580Y-81238095D02*
X88089342Y-81190476D01*
X88089342Y-81190476D02*
X87279819Y-81190476D01*
X88279819Y-80190476D02*
X88279819Y-80761904D01*
X88279819Y-80476190D02*
X87279819Y-80476190D01*
X87279819Y-80476190D02*
X87422676Y-80571428D01*
X87422676Y-80571428D02*
X87517914Y-80666666D01*
X87517914Y-80666666D02*
X87565533Y-80761904D01*
X91644104Y-85761905D02*
X91644104Y-85285715D01*
X91929819Y-85857143D02*
X90929819Y-85523810D01*
X90929819Y-85523810D02*
X91929819Y-85190477D01*
X91263152Y-84857143D02*
X91929819Y-84857143D01*
X91358390Y-84857143D02*
X91310771Y-84809524D01*
X91310771Y-84809524D02*
X91263152Y-84714286D01*
X91263152Y-84714286D02*
X91263152Y-84571429D01*
X91263152Y-84571429D02*
X91310771Y-84476191D01*
X91310771Y-84476191D02*
X91406009Y-84428572D01*
X91406009Y-84428572D02*
X91929819Y-84428572D01*
X91263152Y-84095238D02*
X91263152Y-83714286D01*
X90929819Y-83952381D02*
X91786961Y-83952381D01*
X91786961Y-83952381D02*
X91882200Y-83904762D01*
X91882200Y-83904762D02*
X91929819Y-83809524D01*
X91929819Y-83809524D02*
X91929819Y-83714286D01*
X91882200Y-83000000D02*
X91929819Y-83095238D01*
X91929819Y-83095238D02*
X91929819Y-83285714D01*
X91929819Y-83285714D02*
X91882200Y-83380952D01*
X91882200Y-83380952D02*
X91786961Y-83428571D01*
X91786961Y-83428571D02*
X91406009Y-83428571D01*
X91406009Y-83428571D02*
X91310771Y-83380952D01*
X91310771Y-83380952D02*
X91263152Y-83285714D01*
X91263152Y-83285714D02*
X91263152Y-83095238D01*
X91263152Y-83095238D02*
X91310771Y-83000000D01*
X91310771Y-83000000D02*
X91406009Y-82952381D01*
X91406009Y-82952381D02*
X91501247Y-82952381D01*
X91501247Y-82952381D02*
X91596485Y-83428571D01*
X91263152Y-82523809D02*
X91929819Y-82523809D01*
X91358390Y-82523809D02*
X91310771Y-82476190D01*
X91310771Y-82476190D02*
X91263152Y-82380952D01*
X91263152Y-82380952D02*
X91263152Y-82238095D01*
X91263152Y-82238095D02*
X91310771Y-82142857D01*
X91310771Y-82142857D02*
X91406009Y-82095238D01*
X91406009Y-82095238D02*
X91929819Y-82095238D01*
X91263152Y-81619047D02*
X91929819Y-81619047D01*
X91358390Y-81619047D02*
X91310771Y-81571428D01*
X91310771Y-81571428D02*
X91263152Y-81476190D01*
X91263152Y-81476190D02*
X91263152Y-81333333D01*
X91263152Y-81333333D02*
X91310771Y-81238095D01*
X91310771Y-81238095D02*
X91406009Y-81190476D01*
X91406009Y-81190476D02*
X91929819Y-81190476D01*
X91929819Y-80285714D02*
X91406009Y-80285714D01*
X91406009Y-80285714D02*
X91310771Y-80333333D01*
X91310771Y-80333333D02*
X91263152Y-80428571D01*
X91263152Y-80428571D02*
X91263152Y-80619047D01*
X91263152Y-80619047D02*
X91310771Y-80714285D01*
X91882200Y-80285714D02*
X91929819Y-80380952D01*
X91929819Y-80380952D02*
X91929819Y-80619047D01*
X91929819Y-80619047D02*
X91882200Y-80714285D01*
X91882200Y-80714285D02*
X91786961Y-80761904D01*
X91786961Y-80761904D02*
X91691723Y-80761904D01*
X91691723Y-80761904D02*
X91596485Y-80714285D01*
X91596485Y-80714285D02*
X91548866Y-80619047D01*
X91548866Y-80619047D02*
X91548866Y-80380952D01*
X91548866Y-80380952D02*
X91501247Y-80285714D01*
X91644104Y-79095237D02*
X91644104Y-78619047D01*
X91929819Y-79190475D02*
X90929819Y-78857142D01*
X90929819Y-78857142D02*
X91929819Y-78523809D01*
X91929819Y-78190475D02*
X91263152Y-78190475D01*
X91453628Y-78190475D02*
X91358390Y-78142856D01*
X91358390Y-78142856D02*
X91310771Y-78095237D01*
X91310771Y-78095237D02*
X91263152Y-77999999D01*
X91263152Y-77999999D02*
X91263152Y-77904761D01*
X91882200Y-77190475D02*
X91929819Y-77285713D01*
X91929819Y-77285713D02*
X91929819Y-77476189D01*
X91929819Y-77476189D02*
X91882200Y-77571427D01*
X91882200Y-77571427D02*
X91786961Y-77619046D01*
X91786961Y-77619046D02*
X91406009Y-77619046D01*
X91406009Y-77619046D02*
X91310771Y-77571427D01*
X91310771Y-77571427D02*
X91263152Y-77476189D01*
X91263152Y-77476189D02*
X91263152Y-77285713D01*
X91263152Y-77285713D02*
X91310771Y-77190475D01*
X91310771Y-77190475D02*
X91406009Y-77142856D01*
X91406009Y-77142856D02*
X91501247Y-77142856D01*
X91501247Y-77142856D02*
X91596485Y-77619046D01*
X91929819Y-76285713D02*
X91406009Y-76285713D01*
X91406009Y-76285713D02*
X91310771Y-76333332D01*
X91310771Y-76333332D02*
X91263152Y-76428570D01*
X91263152Y-76428570D02*
X91263152Y-76619046D01*
X91263152Y-76619046D02*
X91310771Y-76714284D01*
X91882200Y-76285713D02*
X91929819Y-76380951D01*
X91929819Y-76380951D02*
X91929819Y-76619046D01*
X91929819Y-76619046D02*
X91882200Y-76714284D01*
X91882200Y-76714284D02*
X91786961Y-76761903D01*
X91786961Y-76761903D02*
X91691723Y-76761903D01*
X91691723Y-76761903D02*
X91596485Y-76714284D01*
X91596485Y-76714284D02*
X91548866Y-76619046D01*
X91548866Y-76619046D02*
X91548866Y-76380951D01*
X91548866Y-76380951D02*
X91501247Y-76285713D01*
X136284819Y-82656666D02*
X135808628Y-82989999D01*
X136284819Y-83228094D02*
X135284819Y-83228094D01*
X135284819Y-83228094D02*
X135284819Y-82847142D01*
X135284819Y-82847142D02*
X135332438Y-82751904D01*
X135332438Y-82751904D02*
X135380057Y-82704285D01*
X135380057Y-82704285D02*
X135475295Y-82656666D01*
X135475295Y-82656666D02*
X135618152Y-82656666D01*
X135618152Y-82656666D02*
X135713390Y-82704285D01*
X135713390Y-82704285D02*
X135761009Y-82751904D01*
X135761009Y-82751904D02*
X135808628Y-82847142D01*
X135808628Y-82847142D02*
X135808628Y-83228094D01*
X136284819Y-81704285D02*
X136284819Y-82275713D01*
X136284819Y-81989999D02*
X135284819Y-81989999D01*
X135284819Y-81989999D02*
X135427676Y-82085237D01*
X135427676Y-82085237D02*
X135522914Y-82180475D01*
X135522914Y-82180475D02*
X135570533Y-82275713D01*
X146284819Y-68176666D02*
X145808628Y-68509999D01*
X146284819Y-68748094D02*
X145284819Y-68748094D01*
X145284819Y-68748094D02*
X145284819Y-68367142D01*
X145284819Y-68367142D02*
X145332438Y-68271904D01*
X145332438Y-68271904D02*
X145380057Y-68224285D01*
X145380057Y-68224285D02*
X145475295Y-68176666D01*
X145475295Y-68176666D02*
X145618152Y-68176666D01*
X145618152Y-68176666D02*
X145713390Y-68224285D01*
X145713390Y-68224285D02*
X145761009Y-68271904D01*
X145761009Y-68271904D02*
X145808628Y-68367142D01*
X145808628Y-68367142D02*
X145808628Y-68748094D01*
X145618152Y-67319523D02*
X146284819Y-67319523D01*
X145237200Y-67557618D02*
X145951485Y-67795713D01*
X145951485Y-67795713D02*
X145951485Y-67176666D01*
X126175595Y-79504819D02*
X126175595Y-80314342D01*
X126175595Y-80314342D02*
X126223214Y-80409580D01*
X126223214Y-80409580D02*
X126270833Y-80457200D01*
X126270833Y-80457200D02*
X126366071Y-80504819D01*
X126366071Y-80504819D02*
X126556547Y-80504819D01*
X126556547Y-80504819D02*
X126651785Y-80457200D01*
X126651785Y-80457200D02*
X126699404Y-80409580D01*
X126699404Y-80409580D02*
X126747023Y-80314342D01*
X126747023Y-80314342D02*
X126747023Y-79504819D01*
X127651785Y-79504819D02*
X127461309Y-79504819D01*
X127461309Y-79504819D02*
X127366071Y-79552438D01*
X127366071Y-79552438D02*
X127318452Y-79600057D01*
X127318452Y-79600057D02*
X127223214Y-79742914D01*
X127223214Y-79742914D02*
X127175595Y-79933390D01*
X127175595Y-79933390D02*
X127175595Y-80314342D01*
X127175595Y-80314342D02*
X127223214Y-80409580D01*
X127223214Y-80409580D02*
X127270833Y-80457200D01*
X127270833Y-80457200D02*
X127366071Y-80504819D01*
X127366071Y-80504819D02*
X127556547Y-80504819D01*
X127556547Y-80504819D02*
X127651785Y-80457200D01*
X127651785Y-80457200D02*
X127699404Y-80409580D01*
X127699404Y-80409580D02*
X127747023Y-80314342D01*
X127747023Y-80314342D02*
X127747023Y-80076247D01*
X127747023Y-80076247D02*
X127699404Y-79981009D01*
X127699404Y-79981009D02*
X127651785Y-79933390D01*
X127651785Y-79933390D02*
X127556547Y-79885771D01*
X127556547Y-79885771D02*
X127366071Y-79885771D01*
X127366071Y-79885771D02*
X127270833Y-79933390D01*
X127270833Y-79933390D02*
X127223214Y-79981009D01*
X127223214Y-79981009D02*
X127175595Y-80076247D01*
X114064580Y-80642857D02*
X114112200Y-80690476D01*
X114112200Y-80690476D02*
X114159819Y-80833333D01*
X114159819Y-80833333D02*
X114159819Y-80928571D01*
X114159819Y-80928571D02*
X114112200Y-81071428D01*
X114112200Y-81071428D02*
X114016961Y-81166666D01*
X114016961Y-81166666D02*
X113921723Y-81214285D01*
X113921723Y-81214285D02*
X113731247Y-81261904D01*
X113731247Y-81261904D02*
X113588390Y-81261904D01*
X113588390Y-81261904D02*
X113397914Y-81214285D01*
X113397914Y-81214285D02*
X113302676Y-81166666D01*
X113302676Y-81166666D02*
X113207438Y-81071428D01*
X113207438Y-81071428D02*
X113159819Y-80928571D01*
X113159819Y-80928571D02*
X113159819Y-80833333D01*
X113159819Y-80833333D02*
X113207438Y-80690476D01*
X113207438Y-80690476D02*
X113255057Y-80642857D01*
X114159819Y-79690476D02*
X114159819Y-80261904D01*
X114159819Y-79976190D02*
X113159819Y-79976190D01*
X113159819Y-79976190D02*
X113302676Y-80071428D01*
X113302676Y-80071428D02*
X113397914Y-80166666D01*
X113397914Y-80166666D02*
X113445533Y-80261904D01*
X113159819Y-79071428D02*
X113159819Y-78976190D01*
X113159819Y-78976190D02*
X113207438Y-78880952D01*
X113207438Y-78880952D02*
X113255057Y-78833333D01*
X113255057Y-78833333D02*
X113350295Y-78785714D01*
X113350295Y-78785714D02*
X113540771Y-78738095D01*
X113540771Y-78738095D02*
X113778866Y-78738095D01*
X113778866Y-78738095D02*
X113969342Y-78785714D01*
X113969342Y-78785714D02*
X114064580Y-78833333D01*
X114064580Y-78833333D02*
X114112200Y-78880952D01*
X114112200Y-78880952D02*
X114159819Y-78976190D01*
X114159819Y-78976190D02*
X114159819Y-79071428D01*
X114159819Y-79071428D02*
X114112200Y-79166666D01*
X114112200Y-79166666D02*
X114064580Y-79214285D01*
X114064580Y-79214285D02*
X113969342Y-79261904D01*
X113969342Y-79261904D02*
X113778866Y-79309523D01*
X113778866Y-79309523D02*
X113540771Y-79309523D01*
X113540771Y-79309523D02*
X113350295Y-79261904D01*
X113350295Y-79261904D02*
X113255057Y-79214285D01*
X113255057Y-79214285D02*
X113207438Y-79166666D01*
X113207438Y-79166666D02*
X113159819Y-79071428D01*
X111224580Y-76186666D02*
X111272200Y-76234285D01*
X111272200Y-76234285D02*
X111319819Y-76377142D01*
X111319819Y-76377142D02*
X111319819Y-76472380D01*
X111319819Y-76472380D02*
X111272200Y-76615237D01*
X111272200Y-76615237D02*
X111176961Y-76710475D01*
X111176961Y-76710475D02*
X111081723Y-76758094D01*
X111081723Y-76758094D02*
X110891247Y-76805713D01*
X110891247Y-76805713D02*
X110748390Y-76805713D01*
X110748390Y-76805713D02*
X110557914Y-76758094D01*
X110557914Y-76758094D02*
X110462676Y-76710475D01*
X110462676Y-76710475D02*
X110367438Y-76615237D01*
X110367438Y-76615237D02*
X110319819Y-76472380D01*
X110319819Y-76472380D02*
X110319819Y-76377142D01*
X110319819Y-76377142D02*
X110367438Y-76234285D01*
X110367438Y-76234285D02*
X110415057Y-76186666D01*
X111319819Y-75234285D02*
X111319819Y-75805713D01*
X111319819Y-75519999D02*
X110319819Y-75519999D01*
X110319819Y-75519999D02*
X110462676Y-75615237D01*
X110462676Y-75615237D02*
X110557914Y-75710475D01*
X110557914Y-75710475D02*
X110605533Y-75805713D01*
X121637080Y-82636666D02*
X121684700Y-82684285D01*
X121684700Y-82684285D02*
X121732319Y-82827142D01*
X121732319Y-82827142D02*
X121732319Y-82922380D01*
X121732319Y-82922380D02*
X121684700Y-83065237D01*
X121684700Y-83065237D02*
X121589461Y-83160475D01*
X121589461Y-83160475D02*
X121494223Y-83208094D01*
X121494223Y-83208094D02*
X121303747Y-83255713D01*
X121303747Y-83255713D02*
X121160890Y-83255713D01*
X121160890Y-83255713D02*
X120970414Y-83208094D01*
X120970414Y-83208094D02*
X120875176Y-83160475D01*
X120875176Y-83160475D02*
X120779938Y-83065237D01*
X120779938Y-83065237D02*
X120732319Y-82922380D01*
X120732319Y-82922380D02*
X120732319Y-82827142D01*
X120732319Y-82827142D02*
X120779938Y-82684285D01*
X120779938Y-82684285D02*
X120827557Y-82636666D01*
X120732319Y-81731904D02*
X120732319Y-82208094D01*
X120732319Y-82208094D02*
X121208509Y-82255713D01*
X121208509Y-82255713D02*
X121160890Y-82208094D01*
X121160890Y-82208094D02*
X121113271Y-82112856D01*
X121113271Y-82112856D02*
X121113271Y-81874761D01*
X121113271Y-81874761D02*
X121160890Y-81779523D01*
X121160890Y-81779523D02*
X121208509Y-81731904D01*
X121208509Y-81731904D02*
X121303747Y-81684285D01*
X121303747Y-81684285D02*
X121541842Y-81684285D01*
X121541842Y-81684285D02*
X121637080Y-81731904D01*
X121637080Y-81731904D02*
X121684700Y-81779523D01*
X121684700Y-81779523D02*
X121732319Y-81874761D01*
X121732319Y-81874761D02*
X121732319Y-82112856D01*
X121732319Y-82112856D02*
X121684700Y-82208094D01*
X121684700Y-82208094D02*
X121637080Y-82255713D01*
X143166666Y-96354819D02*
X143166666Y-97069104D01*
X143166666Y-97069104D02*
X143119047Y-97211961D01*
X143119047Y-97211961D02*
X143023809Y-97307200D01*
X143023809Y-97307200D02*
X142880952Y-97354819D01*
X142880952Y-97354819D02*
X142785714Y-97354819D01*
X143595238Y-96450057D02*
X143642857Y-96402438D01*
X143642857Y-96402438D02*
X143738095Y-96354819D01*
X143738095Y-96354819D02*
X143976190Y-96354819D01*
X143976190Y-96354819D02*
X144071428Y-96402438D01*
X144071428Y-96402438D02*
X144119047Y-96450057D01*
X144119047Y-96450057D02*
X144166666Y-96545295D01*
X144166666Y-96545295D02*
X144166666Y-96640533D01*
X144166666Y-96640533D02*
X144119047Y-96783390D01*
X144119047Y-96783390D02*
X143547619Y-97354819D01*
X143547619Y-97354819D02*
X144166666Y-97354819D01*
X106649819Y-72656666D02*
X106173628Y-72989999D01*
X106649819Y-73228094D02*
X105649819Y-73228094D01*
X105649819Y-73228094D02*
X105649819Y-72847142D01*
X105649819Y-72847142D02*
X105697438Y-72751904D01*
X105697438Y-72751904D02*
X105745057Y-72704285D01*
X105745057Y-72704285D02*
X105840295Y-72656666D01*
X105840295Y-72656666D02*
X105983152Y-72656666D01*
X105983152Y-72656666D02*
X106078390Y-72704285D01*
X106078390Y-72704285D02*
X106126009Y-72751904D01*
X106126009Y-72751904D02*
X106173628Y-72847142D01*
X106173628Y-72847142D02*
X106173628Y-73228094D01*
X105649819Y-71799523D02*
X105649819Y-71989999D01*
X105649819Y-71989999D02*
X105697438Y-72085237D01*
X105697438Y-72085237D02*
X105745057Y-72132856D01*
X105745057Y-72132856D02*
X105887914Y-72228094D01*
X105887914Y-72228094D02*
X106078390Y-72275713D01*
X106078390Y-72275713D02*
X106459342Y-72275713D01*
X106459342Y-72275713D02*
X106554580Y-72228094D01*
X106554580Y-72228094D02*
X106602200Y-72180475D01*
X106602200Y-72180475D02*
X106649819Y-72085237D01*
X106649819Y-72085237D02*
X106649819Y-71894761D01*
X106649819Y-71894761D02*
X106602200Y-71799523D01*
X106602200Y-71799523D02*
X106554580Y-71751904D01*
X106554580Y-71751904D02*
X106459342Y-71704285D01*
X106459342Y-71704285D02*
X106221247Y-71704285D01*
X106221247Y-71704285D02*
X106126009Y-71751904D01*
X106126009Y-71751904D02*
X106078390Y-71799523D01*
X106078390Y-71799523D02*
X106030771Y-71894761D01*
X106030771Y-71894761D02*
X106030771Y-72085237D01*
X106030771Y-72085237D02*
X106078390Y-72180475D01*
X106078390Y-72180475D02*
X106126009Y-72228094D01*
X106126009Y-72228094D02*
X106221247Y-72275713D01*
X97519580Y-91662857D02*
X97567200Y-91710476D01*
X97567200Y-91710476D02*
X97614819Y-91853333D01*
X97614819Y-91853333D02*
X97614819Y-91948571D01*
X97614819Y-91948571D02*
X97567200Y-92091428D01*
X97567200Y-92091428D02*
X97471961Y-92186666D01*
X97471961Y-92186666D02*
X97376723Y-92234285D01*
X97376723Y-92234285D02*
X97186247Y-92281904D01*
X97186247Y-92281904D02*
X97043390Y-92281904D01*
X97043390Y-92281904D02*
X96852914Y-92234285D01*
X96852914Y-92234285D02*
X96757676Y-92186666D01*
X96757676Y-92186666D02*
X96662438Y-92091428D01*
X96662438Y-92091428D02*
X96614819Y-91948571D01*
X96614819Y-91948571D02*
X96614819Y-91853333D01*
X96614819Y-91853333D02*
X96662438Y-91710476D01*
X96662438Y-91710476D02*
X96710057Y-91662857D01*
X97614819Y-90710476D02*
X97614819Y-91281904D01*
X97614819Y-90996190D02*
X96614819Y-90996190D01*
X96614819Y-90996190D02*
X96757676Y-91091428D01*
X96757676Y-91091428D02*
X96852914Y-91186666D01*
X96852914Y-91186666D02*
X96900533Y-91281904D01*
X97614819Y-89758095D02*
X97614819Y-90329523D01*
X97614819Y-90043809D02*
X96614819Y-90043809D01*
X96614819Y-90043809D02*
X96757676Y-90139047D01*
X96757676Y-90139047D02*
X96852914Y-90234285D01*
X96852914Y-90234285D02*
X96900533Y-90329523D01*
D11*
%TO.C,L1*%
X131899622Y-72940000D02*
X131100378Y-72940000D01*
X131899622Y-74060000D02*
X131100378Y-74060000D01*
%TO.C,R9*%
X108668641Y-78120000D02*
X108361359Y-78120000D01*
X108668641Y-78880000D02*
X108361359Y-78880000D01*
%TO.C,U5*%
X139140000Y-65440000D02*
X143260000Y-65440000D01*
X139140000Y-65535000D02*
X139140000Y-65440000D01*
X139140000Y-70560000D02*
X139140000Y-70465000D01*
X143260000Y-65440000D02*
X143260000Y-65535000D01*
X143260000Y-70465000D02*
X143260000Y-70560000D01*
X143260000Y-70560000D02*
X139140000Y-70560000D01*
X144040000Y-70800000D02*
X143560000Y-70800000D01*
X143800000Y-70470000D01*
X144040000Y-70800000D01*
G36*
X144040000Y-70800000D02*
G01*
X143560000Y-70800000D01*
X143800000Y-70470000D01*
X144040000Y-70800000D01*
G37*
%TO.C,R10*%
X127653641Y-70620000D02*
X127346359Y-70620000D01*
X127653641Y-71380000D02*
X127346359Y-71380000D01*
%TO.C,C8*%
X108437164Y-81640000D02*
X108652836Y-81640000D01*
X108437164Y-82360000D02*
X108652836Y-82360000D01*
%TO.C,C3*%
X131892164Y-64640000D02*
X132107836Y-64640000D01*
X131892164Y-65360000D02*
X132107836Y-65360000D01*
%TO.C,R5*%
X96145000Y-72336359D02*
X96145000Y-72643641D01*
X96905000Y-72336359D02*
X96905000Y-72643641D01*
%TO.C,C4*%
X125702500Y-87711252D02*
X125702500Y-87188748D01*
X127172500Y-87711252D02*
X127172500Y-87188748D01*
%TO.C,R2*%
X136620000Y-78643641D02*
X136620000Y-78336359D01*
X137380000Y-78643641D02*
X137380000Y-78336359D01*
%TO.C,R7*%
X100145000Y-72336359D02*
X100145000Y-72643641D01*
X100905000Y-72336359D02*
X100905000Y-72643641D01*
%TO.C,R8*%
X108668641Y-74620000D02*
X108361359Y-74620000D01*
X108668641Y-75380000D02*
X108361359Y-75380000D01*
%TO.C,SW2*%
X115350000Y-67000000D02*
X116500000Y-65850000D01*
X115350000Y-71000000D02*
X115350000Y-67000000D01*
X116500000Y-65850000D02*
X117200000Y-65850000D01*
X116519000Y-72150000D02*
X115350000Y-71000000D01*
X117200000Y-72150000D02*
X116519000Y-72150000D01*
X119800000Y-72150000D02*
X120500000Y-72150000D01*
X120500000Y-65850000D02*
X119800000Y-65850000D01*
X120500000Y-72150000D02*
X121650000Y-71000000D01*
X121650000Y-67000000D02*
X120500000Y-65850000D01*
X121650000Y-71000000D02*
X121650000Y-67000000D01*
%TO.C,D2*%
X136150000Y-89060000D02*
X136150000Y-86400000D01*
X136150000Y-89060000D02*
X137850000Y-89060000D01*
X137850000Y-89060000D02*
X137850000Y-86400000D01*
%TO.C,C7*%
X122077500Y-78127836D02*
X122077500Y-77912164D01*
X122797500Y-78127836D02*
X122797500Y-77912164D01*
%TO.C,C9*%
X108437164Y-85640000D02*
X108652836Y-85640000D01*
X108437164Y-86360000D02*
X108652836Y-86360000D01*
%TO.C,C6*%
X125265000Y-77761252D02*
X125265000Y-77238748D01*
X126735000Y-77761252D02*
X126735000Y-77238748D01*
%TO.C,J3*%
X96200000Y-67225000D02*
X96950000Y-67225000D01*
X96950000Y-64275000D02*
X102500000Y-64275000D01*
X96950000Y-67225000D02*
X96950000Y-64275000D01*
X107850000Y-69775000D02*
X109100000Y-69775000D01*
X108050000Y-64275000D02*
X102500000Y-64275000D01*
X108050000Y-67225000D02*
X108050000Y-64275000D01*
X108800000Y-67225000D02*
X108050000Y-67225000D01*
X109100000Y-69775000D02*
X109100000Y-68525000D01*
X98000000Y-69475000D02*
X96200000Y-69475000D01*
X96200000Y-68725000D01*
X98000000Y-68725000D01*
X98000000Y-69475000D01*
X105500000Y-69475000D02*
X99500000Y-69475000D01*
X99500000Y-68725000D01*
X105500000Y-68725000D01*
X105500000Y-69475000D01*
X108800000Y-69475000D02*
X107000000Y-69475000D01*
X107000000Y-68725000D01*
X108800000Y-68725000D01*
X108800000Y-69475000D01*
X108810000Y-69485000D02*
X96190000Y-69485000D01*
X96190000Y-63515000D01*
X108810000Y-63515000D01*
X108810000Y-69485000D01*
%TO.C,R3*%
X111645000Y-84653641D02*
X111645000Y-84346359D01*
X112405000Y-84653641D02*
X112405000Y-84346359D01*
%TO.C,J1*%
X142600000Y-76800000D02*
X144600000Y-76800000D01*
X142600000Y-86200000D02*
X144600000Y-86200000D01*
X146500000Y-76800000D02*
X148400000Y-76800000D01*
X146500000Y-86200000D02*
X148400000Y-86200000D01*
X148400000Y-86200000D02*
X148400000Y-76800000D01*
%TO.C,U2*%
X99440000Y-90940000D02*
X99495000Y-90940000D01*
X99440000Y-95060000D02*
X99440000Y-90940000D01*
X99495000Y-95060000D02*
X99440000Y-95060000D01*
X109505000Y-90940000D02*
X109560000Y-90940000D01*
X109560000Y-90940000D02*
X109560000Y-95060000D01*
X109560000Y-95060000D02*
X109505000Y-95060000D01*
X109840000Y-90640000D02*
X109510000Y-90400000D01*
X109840000Y-90160000D01*
X109840000Y-90640000D01*
G36*
X109840000Y-90640000D02*
G01*
X109510000Y-90400000D01*
X109840000Y-90160000D01*
X109840000Y-90640000D01*
G37*
%TO.C,SW1*%
X115350000Y-89000000D02*
X116500000Y-87850000D01*
X115350000Y-93000000D02*
X115350000Y-89000000D01*
X116500000Y-87850000D02*
X117200000Y-87850000D01*
X116519000Y-94150000D02*
X115350000Y-93000000D01*
X117200000Y-94150000D02*
X116519000Y-94150000D01*
X119800000Y-94150000D02*
X120500000Y-94150000D01*
X120500000Y-87850000D02*
X119800000Y-87850000D01*
X120500000Y-94150000D02*
X121650000Y-93000000D01*
X121650000Y-89000000D02*
X120500000Y-87850000D01*
X121650000Y-93000000D02*
X121650000Y-89000000D01*
%TO.C,U1*%
X88825000Y-74200000D02*
X89425000Y-74200000D01*
X88825000Y-74950000D02*
X88825000Y-74200000D01*
X88825000Y-86925000D02*
X88825000Y-87775000D01*
X89025000Y-74400000D02*
X105625000Y-74400000D01*
X89025000Y-87600000D02*
X89025000Y-74400000D01*
X94425000Y-87600000D02*
X94425000Y-74400000D01*
X105025000Y-74200000D02*
X105825000Y-74200000D01*
X105025000Y-87800000D02*
X105825000Y-87800000D01*
X105625000Y-74400000D02*
X105625000Y-87600000D01*
X105625000Y-87600000D02*
X89025000Y-87600000D01*
X105825000Y-74200000D02*
X105825000Y-75000000D01*
X105825000Y-87800000D02*
X105825000Y-87000000D01*
%TO.C,U4*%
X129480000Y-67445000D02*
X129530000Y-67445000D01*
X129480000Y-70665000D02*
X129480000Y-67445000D01*
X129530000Y-70665000D02*
X129480000Y-70665000D01*
X132650000Y-67445000D02*
X132700000Y-67445000D01*
X132700000Y-67445000D02*
X132700000Y-70665000D01*
X132700000Y-70665000D02*
X132650000Y-70665000D01*
X130120000Y-71525000D02*
X129640000Y-71525000D01*
X129880000Y-71195000D01*
X130120000Y-71525000D01*
G36*
X130120000Y-71525000D02*
G01*
X129640000Y-71525000D01*
X129880000Y-71195000D01*
X130120000Y-71525000D01*
G37*
%TO.C,R1*%
X136620000Y-82643641D02*
X136620000Y-82336359D01*
X137380000Y-82643641D02*
X137380000Y-82336359D01*
%TO.C,R4*%
X146620000Y-68163641D02*
X146620000Y-67856359D01*
X147380000Y-68163641D02*
X147380000Y-67856359D01*
%TO.C,U6*%
X126177500Y-80890000D02*
X127697500Y-80890000D01*
X126177500Y-80940000D02*
X126177500Y-80890000D01*
X126177500Y-82840000D02*
X126177500Y-82060000D01*
X126177500Y-84010000D02*
X126177500Y-83960000D01*
X127697500Y-80890000D02*
X127697500Y-81890000D01*
X127697500Y-83010000D02*
X127697500Y-84010000D01*
X127697500Y-84010000D02*
X126177500Y-84010000D01*
X125877500Y-82400000D02*
X125397500Y-82400000D01*
X125637500Y-82070000D01*
X125877500Y-82400000D01*
G36*
X125877500Y-82400000D02*
G01*
X125397500Y-82400000D01*
X125637500Y-82070000D01*
X125877500Y-82400000D01*
G37*
%TO.C,C10*%
X111290000Y-79738748D02*
X111290000Y-80261252D01*
X112760000Y-79738748D02*
X112760000Y-80261252D01*
%TO.C,C1*%
X111665000Y-76127836D02*
X111665000Y-75912164D01*
X112385000Y-76127836D02*
X112385000Y-75912164D01*
%TO.C,C5*%
X122077500Y-82577836D02*
X122077500Y-82362164D01*
X122797500Y-82577836D02*
X122797500Y-82362164D01*
%TO.C,J2*%
X140440000Y-93200000D02*
X141050000Y-93200000D01*
X140440000Y-94500000D02*
X141050000Y-94500000D01*
X141050000Y-91700000D02*
X141050000Y-95200000D01*
X141050000Y-95200000D02*
X143000000Y-95200000D01*
X143000000Y-95200000D02*
X143000000Y-95810000D01*
X143400000Y-92200000D02*
X143400000Y-91700000D01*
X143500000Y-91700000D02*
X143500000Y-92200000D01*
X143600000Y-91700000D02*
X143600000Y-92200000D01*
X143600000Y-92200000D02*
X143400000Y-92200000D01*
X144000000Y-95200000D02*
X145950000Y-95200000D01*
X144000000Y-95810000D02*
X144000000Y-95200000D01*
X144800000Y-95810000D02*
X144800000Y-96010000D01*
X144800000Y-95910000D02*
X145100000Y-95910000D01*
X144800000Y-96010000D02*
X145100000Y-96010000D01*
X145100000Y-96010000D02*
X145100000Y-95810000D01*
X145610000Y-96110000D02*
X146860000Y-96110000D01*
X145950000Y-91700000D02*
X141050000Y-91700000D01*
X145950000Y-95200000D02*
X145950000Y-91700000D01*
X146560000Y-93200000D02*
X145950000Y-93200000D01*
X146560000Y-94500000D02*
X145950000Y-94500000D01*
X146860000Y-96110000D02*
X146860000Y-94860000D01*
X146560000Y-95810000D02*
X140440000Y-95810000D01*
X140440000Y-91090000D01*
X146560000Y-91090000D01*
X146560000Y-95810000D01*
%TO.C,R6*%
X104645000Y-72336359D02*
X104645000Y-72643641D01*
X105405000Y-72336359D02*
X105405000Y-72643641D01*
%TO.C,C11*%
X95640000Y-90912164D02*
X95640000Y-91127836D01*
X96360000Y-90912164D02*
X96360000Y-91127836D01*
%TD*%
M02*
