M48
; DRILL file {KiCad 9.0.7} date 2026-02-25T22:14:53+0100
; FORMAT={-:-/ absolute / metric / decimal}
; #@! TF.CreationDate,2026-02-25T22:14:53+01:00
; #@! TF.GenerationSoftware,Kicad,Pcbnew,9.0.7
; #@! TF.FileFunction,MixedPlating,1,2
FMAT,2
METRIC
; #@! TA.AperFunction,Plated,PTH,ViaDrill
T1C0.300
; #@! TA.AperFunction,Plated,PTH,ComponentDrill
T2C0.600
; #@! TA.AperFunction,Plated,PTH,ComponentDrill
T3C0.750
; #@! TA.AperFunction,Plated,PTH,ComponentDrill
T4C0.950
; #@! TA.AperFunction,NonPlated,NPTH,ComponentDrill
T5C0.650
%
G90
G05
T1
X94.5Y-88.5
X94.5Y-95.0
X96.5Y-70.5
X96.5Y-77.5
X96.5Y-88.5
X98.0Y-73.0
X98.0Y-76.5
X98.125Y-89.875
X98.5Y-88.5
X100.0Y-85.5
X100.799Y-88.299
X101.325Y-92.175
X101.5Y-85.5
X102.5Y-71.5
X103.5Y-72.5
X103.5Y-79.0
X103.5Y-93.5
X106.5Y-75.0
X108.0Y-72.0
X108.0Y-87.5
X110.01Y-83.99
X112.0Y-95.0
X112.025Y-87.5
X112.5Y-73.0
X113.25Y-69.75
X114.5Y-79.0
X118.5Y-79.0
X119.5Y-80.5
X120.0Y-79.5
X125.5Y-65.0
X128.5Y-65.5
X130.0Y-65.0
X130.5Y-83.5
X130.5Y-87.5
X131.5Y-66.0
X136.5Y-66.5
X136.5Y-73.5
X138.5Y-73.5
X138.55Y-79.05
T3
X142.5Y-94.0
X144.5Y-94.0
T4
X98.75Y-67.025
X101.25Y-67.025
X103.75Y-67.025
X106.25Y-67.025
T5
X141.9Y-78.61
X141.9Y-84.39
T2
G00X140.82Y-77.18
M15
G01X141.92Y-77.18
M16
G05
G00X140.82Y-85.82
M15
G01X141.92Y-85.82
M16
G05
G00X145.25Y-77.18
M15
G01X145.85Y-77.18
M16
G05
G00X145.25Y-85.82
M15
G01X145.85Y-85.82
M16
G05
M30
