%TF.GenerationSoftware,KiCad,Pcbnew,9.0.7*%
%TF.CreationDate,2026-02-25T22:14:59+01:00*%
%TF.ProjectId,GasBee,47617342-6565-42e6-9b69-6361645f7063,rev?*%
%TF.SameCoordinates,Original*%
%TF.FileFunction,Soldermask,Top*%
%TF.FilePolarity,Negative*%
%FSLAX46Y46*%
G04 Gerber Fmt 4.6, Leading zero omitted, Abs format (unit mm)*
G04 Created by KiCad (PCBNEW 9.0.7) date 2026-02-25 22:14:59*
%MOMM*%
%LPD*%
G01*
G04 APERTURE LIST*
G04 Aperture macros list*
%AMRoundRect*
0 Rectangle with rounded corners*
0 $1 Rounding radius*
0 $2 $3 $4 $5 $6 $7 $8 $9 X,Y pos of 4 corners*
0 Add a 4 corners polygon primitive as box body*
4,1,4,$2,$3,$4,$5,$6,$7,$8,$9,$2,$3,0*
0 Add four circle primitives for the rounded corners*
1,1,$1+$1,$2,$3*
1,1,$1+$1,$4,$5*
1,1,$1+$1,$6,$7*
1,1,$1+$1,$8,$9*
0 Add four rect primitives between the rounded corners*
20,1,$1+$1,$2,$3,$4,$5,0*
20,1,$1+$1,$4,$5,$6,$7,0*
20,1,$1+$1,$6,$7,$8,$9,0*
20,1,$1+$1,$8,$9,$2,$3,0*%
%AMFreePoly0*
4,1,6,0.725000,-0.725000,-0.725000,-0.725000,-0.725000,0.125000,-0.125000,0.725000,0.725000,0.725000,0.725000,-0.725000,0.725000,-0.725000,$1*%
G04 Aperture macros list end*
%ADD10RoundRect,0.218750X0.218750X0.381250X-0.218750X0.381250X-0.218750X-0.381250X0.218750X-0.381250X0*%
%ADD11RoundRect,0.135000X0.135000X0.185000X-0.135000X0.185000X-0.135000X-0.185000X0.135000X-0.185000X0*%
%ADD12RoundRect,0.150000X0.825000X0.150000X-0.825000X0.150000X-0.825000X-0.150000X0.825000X-0.150000X0*%
%ADD13R,2.410000X3.300000*%
%ADD14RoundRect,0.140000X-0.140000X-0.170000X0.140000X-0.170000X0.140000X0.170000X-0.140000X0.170000X0*%
%ADD15RoundRect,0.135000X-0.185000X0.135000X-0.185000X-0.135000X0.185000X-0.135000X0.185000X0.135000X0*%
%ADD16RoundRect,0.250000X0.475000X-0.250000X0.475000X0.250000X-0.475000X0.250000X-0.475000X-0.250000X0*%
%ADD17RoundRect,0.135000X0.185000X-0.135000X0.185000X0.135000X-0.185000X0.135000X-0.185000X-0.135000X0*%
%ADD18RoundRect,0.500000X0.500000X-0.500000X0.500000X0.500000X-0.500000X0.500000X-0.500000X-0.500000X0*%
%ADD19RoundRect,0.112500X0.112500X-0.187500X0.112500X0.187500X-0.112500X0.187500X-0.112500X-0.187500X0*%
%ADD20RoundRect,0.140000X0.170000X-0.140000X0.170000X0.140000X-0.170000X0.140000X-0.170000X-0.140000X0*%
%ADD21RoundRect,0.250000X0.600000X0.725000X-0.600000X0.725000X-0.600000X-0.725000X0.600000X-0.725000X0*%
%ADD22O,1.700000X1.950000*%
%ADD23C,0.650000*%
%ADD24R,1.450000X0.600000*%
%ADD25R,1.450000X0.300000*%
%ADD26O,2.100000X1.000000*%
%ADD27O,1.600000X1.000000*%
%ADD28RoundRect,0.150000X-0.150000X0.825000X-0.150000X-0.825000X0.150000X-0.825000X0.150000X0.825000X0*%
%ADD29R,0.400000X0.800000*%
%ADD30R,0.800000X0.400000*%
%ADD31FreePoly0,90.000000*%
%ADD32R,1.450000X1.450000*%
%ADD33R,0.700000X0.700000*%
%ADD34RoundRect,0.050000X0.050000X-0.337500X0.050000X0.337500X-0.050000X0.337500X-0.050000X-0.337500X0*%
%ADD35R,2.350000X1.780000*%
%ADD36RoundRect,0.150000X-0.587500X-0.150000X0.587500X-0.150000X0.587500X0.150000X-0.587500X0.150000X0*%
%ADD37RoundRect,0.250000X-0.475000X0.250000X-0.475000X-0.250000X0.475000X-0.250000X0.475000X0.250000X0*%
%ADD38RoundRect,0.250000X0.350000X0.625000X-0.350000X0.625000X-0.350000X-0.625000X0.350000X-0.625000X0*%
%ADD39O,1.200000X1.750000*%
%ADD40RoundRect,0.140000X-0.170000X0.140000X-0.170000X-0.140000X0.170000X-0.140000X0.170000X0.140000X0*%
G04 APERTURE END LIST*
D10*
%TO.C,L1*%
X132562500Y-73500000D03*
X130437500Y-73500000D03*
%TD*%
D11*
%TO.C,R9*%
X109025000Y-78500000D03*
X108005000Y-78500000D03*
%TD*%
D12*
%TO.C,U5*%
X143675000Y-69905000D03*
X143675000Y-68635000D03*
X143675000Y-67365000D03*
X143675000Y-66095000D03*
X138725000Y-66095000D03*
X138725000Y-67365000D03*
X138725000Y-68635000D03*
X138725000Y-69905000D03*
D13*
X141200000Y-68000000D03*
%TD*%
D11*
%TO.C,R10*%
X128010000Y-71000000D03*
X126990000Y-71000000D03*
%TD*%
D14*
%TO.C,C8*%
X108065000Y-82000000D03*
X109025000Y-82000000D03*
%TD*%
%TO.C,C3*%
X131520000Y-65000000D03*
X132480000Y-65000000D03*
%TD*%
D15*
%TO.C,R5*%
X96525000Y-71980000D03*
X96525000Y-73000000D03*
%TD*%
D16*
%TO.C,C4*%
X126437500Y-88400000D03*
X126437500Y-86500000D03*
%TD*%
D17*
%TO.C,R2*%
X137000000Y-79000000D03*
X137000000Y-77980000D03*
%TD*%
D15*
%TO.C,R7*%
X100525000Y-71980000D03*
X100525000Y-73000000D03*
%TD*%
D11*
%TO.C,R8*%
X109025000Y-75000000D03*
X108005000Y-75000000D03*
%TD*%
D18*
%TO.C,SW2*%
X118500000Y-72000000D03*
X118500000Y-66000000D03*
%TD*%
D19*
%TO.C,D2*%
X137000000Y-88500000D03*
X137000000Y-86400000D03*
%TD*%
D20*
%TO.C,C7*%
X122437500Y-78500000D03*
X122437500Y-77540000D03*
%TD*%
D14*
%TO.C,C9*%
X108065000Y-86000000D03*
X109025000Y-86000000D03*
%TD*%
D16*
%TO.C,C6*%
X126000000Y-78450000D03*
X126000000Y-76550000D03*
%TD*%
D21*
%TO.C,J3*%
X106250000Y-67025000D03*
D22*
X103750000Y-67025000D03*
X101250000Y-67025000D03*
X98750000Y-67025000D03*
%TD*%
D17*
%TO.C,R3*%
X112025000Y-85010000D03*
X112025000Y-83990000D03*
%TD*%
D23*
%TO.C,J1*%
X141900000Y-84390000D03*
X141900000Y-78610000D03*
D24*
X140455000Y-84750000D03*
X140455000Y-83950000D03*
D25*
X140455000Y-82750000D03*
X140455000Y-81750000D03*
X140455000Y-81250000D03*
X140455000Y-80250000D03*
D24*
X140455000Y-79050000D03*
X140455000Y-78250000D03*
X140455000Y-78250000D03*
X140455000Y-79050000D03*
D25*
X140455000Y-79750000D03*
X140455000Y-80750000D03*
X140455000Y-82250000D03*
X140455000Y-83250000D03*
D24*
X140455000Y-83950000D03*
X140455000Y-84750000D03*
D26*
X141370000Y-85820000D03*
D27*
X145550000Y-85820000D03*
D26*
X141370000Y-77180000D03*
D27*
X145550000Y-77180000D03*
%TD*%
D28*
%TO.C,U2*%
X108945000Y-90525000D03*
X107675000Y-90525000D03*
X106405000Y-90525000D03*
X105135000Y-90525000D03*
X103865000Y-90525000D03*
X102595000Y-90525000D03*
X101325000Y-90525000D03*
X100055000Y-90525000D03*
X100055000Y-95475000D03*
X101325000Y-95475000D03*
X102595000Y-95475000D03*
X103865000Y-95475000D03*
X105135000Y-95475000D03*
X106405000Y-95475000D03*
X107675000Y-95475000D03*
X108945000Y-95475000D03*
%TD*%
D18*
%TO.C,SW1*%
X118500000Y-94000000D03*
X118500000Y-88000000D03*
%TD*%
D29*
%TO.C,U1*%
X96025000Y-86900000D03*
X96825000Y-86900000D03*
X97625000Y-86900000D03*
X98425000Y-86900000D03*
X99225000Y-86900000D03*
X100025000Y-86900000D03*
X100825000Y-86900000D03*
X101625000Y-86900000D03*
X102425000Y-86900000D03*
X103225000Y-86900000D03*
X104025000Y-86900000D03*
D30*
X104925000Y-85800000D03*
X104925000Y-85000000D03*
X104925000Y-84200000D03*
X104925000Y-83400000D03*
X104925000Y-82600000D03*
X104925000Y-81800000D03*
X104925000Y-81000000D03*
X104925000Y-80200000D03*
X104925000Y-79400000D03*
X104925000Y-78600000D03*
X104925000Y-77800000D03*
X104925000Y-77000000D03*
X104925000Y-76200000D03*
D29*
X104025000Y-75100000D03*
X103225000Y-75100000D03*
X102425000Y-75100000D03*
X101625000Y-75100000D03*
X100825000Y-75100000D03*
X100025000Y-75100000D03*
X99225000Y-75100000D03*
X98425000Y-75100000D03*
X97625000Y-75100000D03*
X96825000Y-75100000D03*
X96025000Y-75100000D03*
D30*
X95125000Y-76200000D03*
X95125000Y-77000000D03*
X95125000Y-77800000D03*
X95125000Y-78600000D03*
X95125000Y-79400000D03*
X95125000Y-80200000D03*
X95125000Y-81000000D03*
X95125000Y-81800000D03*
X95125000Y-82600000D03*
X95125000Y-83400000D03*
X95125000Y-84200000D03*
X95125000Y-85000000D03*
X95125000Y-85800000D03*
D31*
X98050000Y-82975000D03*
D32*
X100025000Y-82975000D03*
X102000000Y-82975000D03*
X98050000Y-81000000D03*
X100025000Y-81000000D03*
X102000000Y-81000000D03*
X98050000Y-79025000D03*
X100025000Y-79025000D03*
X102000000Y-79025000D03*
D33*
X95075000Y-75050000D03*
X104975000Y-75050000D03*
X104975000Y-86950000D03*
X95075000Y-86950000D03*
%TD*%
D34*
%TO.C,U4*%
X129890000Y-70542500D03*
X130290000Y-70542500D03*
X130690000Y-70542500D03*
X131090000Y-70542500D03*
X131490000Y-70542500D03*
X131890000Y-70542500D03*
X132290000Y-70542500D03*
X132290000Y-67567500D03*
X131890000Y-67567500D03*
X131490000Y-67567500D03*
X131090000Y-67567500D03*
X130690000Y-67567500D03*
X130290000Y-67567500D03*
X129890000Y-67567500D03*
D35*
X131090000Y-69055000D03*
%TD*%
D17*
%TO.C,R1*%
X137000000Y-83000000D03*
X137000000Y-81980000D03*
%TD*%
%TO.C,R4*%
X147000000Y-68520000D03*
X147000000Y-67500000D03*
%TD*%
D36*
%TO.C,U6*%
X126000000Y-81500000D03*
X126000000Y-83400000D03*
X127875000Y-82450000D03*
%TD*%
D37*
%TO.C,C10*%
X112025000Y-79050000D03*
X112025000Y-80950000D03*
%TD*%
D20*
%TO.C,C1*%
X112025000Y-76500000D03*
X112025000Y-75540000D03*
%TD*%
%TO.C,C5*%
X122437500Y-82950000D03*
X122437500Y-81990000D03*
%TD*%
D38*
%TO.C,J2*%
X144500000Y-94000000D03*
D39*
X142500000Y-94000000D03*
%TD*%
D15*
%TO.C,R6*%
X105025000Y-71980000D03*
X105025000Y-73000000D03*
%TD*%
D40*
%TO.C,C11*%
X96000000Y-90540000D03*
X96000000Y-91500000D03*
%TD*%
M02*
