%TF.GenerationSoftware,KiCad,Pcbnew,9.0.7*%
%TF.CreationDate,2026-02-25T22:14:59+01:00*%
%TF.ProjectId,GasBee,47617342-6565-42e6-9b69-6361645f7063,rev?*%
%TF.SameCoordinates,Original*%
%TF.FileFunction,Copper,L2,Bot*%
%TF.FilePolarity,Positive*%
%FSLAX46Y46*%
G04 Gerber Fmt 4.6, Leading zero omitted, Abs format (unit mm)*
G04 Created by KiCad (PCBNEW 9.0.7) date 2026-02-25 22:14:59*
%MOMM*%
%LPD*%
G01*
G04 APERTURE LIST*
G04 Aperture macros list*
%AMRoundRect*
0 Rectangle with rounded corners*
0 $1 Rounding radius*
0 $2 $3 $4 $5 $6 $7 $8 $9 X,Y pos of 4 corners*
0 Add a 4 corners polygon primitive as box body*
4,1,4,$2,$3,$4,$5,$6,$7,$8,$9,$2,$3,0*
0 Add four circle primitives for the rounded corners*
1,1,$1+$1,$2,$3*
1,1,$1+$1,$4,$5*
1,1,$1+$1,$6,$7*
1,1,$1+$1,$8,$9*
0 Add four rect primitives between the rounded corners*
20,1,$1+$1,$2,$3,$4,$5,0*
20,1,$1+$1,$4,$5,$6,$7,0*
20,1,$1+$1,$6,$7,$8,$9,0*
20,1,$1+$1,$8,$9,$2,$3,0*%
G04 Aperture macros list end*
%TA.AperFunction,ComponentPad*%
%ADD10RoundRect,0.250000X0.600000X0.725000X-0.600000X0.725000X-0.600000X-0.725000X0.600000X-0.725000X0*%
%TD*%
%TA.AperFunction,ComponentPad*%
%ADD11O,1.700000X1.950000*%
%TD*%
%TA.AperFunction,HeatsinkPad*%
%ADD12O,2.100000X1.000000*%
%TD*%
%TA.AperFunction,HeatsinkPad*%
%ADD13O,1.600000X1.000000*%
%TD*%
%TA.AperFunction,ComponentPad*%
%ADD14RoundRect,0.250000X0.350000X0.625000X-0.350000X0.625000X-0.350000X-0.625000X0.350000X-0.625000X0*%
%TD*%
%TA.AperFunction,ComponentPad*%
%ADD15O,1.200000X1.750000*%
%TD*%
%TA.AperFunction,ViaPad*%
%ADD16C,0.800000*%
%TD*%
%TA.AperFunction,Conductor*%
%ADD17C,0.200000*%
%TD*%
G04 APERTURE END LIST*
D10*
%TO.P,J3,1,Pin_1*%
%TO.N,+3.3V*%
X106250000Y-67025000D03*
D11*
%TO.P,J3,2,Pin_2*%
%TO.N,GND*%
X103750000Y-67025000D03*
%TO.P,J3,3,Pin_3*%
%TO.N,Net-(J3-Pin_3)*%
X101250000Y-67025000D03*
%TO.P,J3,4,Pin_4*%
%TO.N,Net-(J3-Pin_4)*%
X98750000Y-67025000D03*
%TD*%
D12*
%TO.P,J1,S1,SHIELD*%
%TO.N,GND*%
X141370000Y-85820000D03*
D13*
X145550000Y-85820000D03*
D12*
X141370000Y-77180000D03*
D13*
X145550000Y-77180000D03*
%TD*%
D14*
%TO.P,J2,1,Pin_1*%
%TO.N,GND*%
X144500000Y-94000000D03*
D15*
%TO.P,J2,2,Pin_2*%
%TO.N,+BATT*%
X142500000Y-94000000D03*
%TD*%
D16*
%TO.N,Net-(U1-GPIO8)*%
X106500000Y-75000000D03*
%TO.N,/SDA*%
X128500000Y-65500000D03*
X103500000Y-79000000D03*
%TO.N,/SCL*%
X125500000Y-65000000D03*
X96500000Y-77500000D03*
%TO.N,Net-(U1-GPIO9)*%
X113250000Y-69750000D03*
%TO.N,Net-(J3-Pin_4)*%
X103500000Y-72500000D03*
X101325000Y-92175000D03*
%TO.N,/HX711_DOUT*%
X94500000Y-95000000D03*
%TO.N,Net-(J3-Pin_3)*%
X100799000Y-88299000D03*
%TO.N,Net-(U1-GPIO9)*%
X98000000Y-73000000D03*
X98000000Y-76500000D03*
%TO.N,+3.3V*%
X96500000Y-70500000D03*
X112500000Y-73000000D03*
%TO.N,/HX711_DOUT*%
X103500000Y-93500000D03*
X94500000Y-88500000D03*
X100000000Y-85500000D03*
%TO.N,/HX711_SCK*%
X98500000Y-88500000D03*
%TO.N,+3.3V*%
X98125000Y-89875000D03*
%TO.N,/HX711_SCK*%
X96500000Y-88500000D03*
%TO.N,Net-(J1-D+-PadA6)*%
X102500000Y-71500000D03*
%TO.N,Net-(J1-D--PadA7)*%
X108000000Y-72000000D03*
X119500000Y-80500000D03*
%TO.N,Net-(J1-D+-PadA6)*%
X120000000Y-79500000D03*
%TO.N,+3.3V*%
X118500000Y-79000000D03*
X114500000Y-79000000D03*
%TO.N,+BATT*%
X131500000Y-66000000D03*
X130500000Y-87500000D03*
X130500000Y-83500000D03*
X136500000Y-73500000D03*
X136500000Y-66500000D03*
%TO.N,Net-(U5-CE)*%
X138500000Y-73500000D03*
X138550000Y-79050000D03*
%TO.N,Net-(U1-EN{slash}CHIP_PU)*%
X101500000Y-85500000D03*
X110010000Y-83990000D03*
%TO.N,+3.3V*%
X112000000Y-95000000D03*
X108000000Y-87500000D03*
X112025000Y-87500000D03*
%TO.N,Net-(U1-GPIO8)*%
X130000000Y-65000000D03*
%TD*%
D17*
%TO.N,Net-(U1-GPIO9)*%
X102774240Y-69000000D02*
X112500000Y-69000000D01*
X98000000Y-76500000D02*
X98000000Y-73000000D01*
X98000000Y-73000000D02*
X100000000Y-71000000D01*
X100000000Y-71000000D02*
X100000000Y-66000000D01*
X100000000Y-66000000D02*
X100500000Y-65500000D01*
X100500000Y-65500000D02*
X102000000Y-65500000D01*
X102000000Y-65500000D02*
X102500000Y-66000000D01*
X102500000Y-66000000D02*
X102500000Y-68725760D01*
X102500000Y-68725760D02*
X102774240Y-69000000D01*
X112500000Y-69000000D02*
X113250000Y-69750000D01*
%TO.N,Net-(J3-Pin_4)*%
X113000000Y-96500000D02*
X111000000Y-96500000D01*
X112500000Y-77500000D02*
X113000000Y-78000000D01*
X103500000Y-72500000D02*
X103500000Y-73491364D01*
X103500000Y-73491364D02*
X107508636Y-77500000D01*
X113000000Y-78000000D02*
X113000000Y-96500000D01*
X107508636Y-77500000D02*
X112500000Y-77500000D01*
X111000000Y-96500000D02*
X110500000Y-96000000D01*
X110500000Y-96000000D02*
X110500000Y-94491364D01*
X110500000Y-94491364D02*
X108183636Y-92175000D01*
X108183636Y-92175000D02*
X101325000Y-92175000D01*
%TO.N,Net-(U1-GPIO8)*%
X108000000Y-76500000D02*
X106500000Y-75000000D01*
X129201000Y-65209636D02*
X129790364Y-65209636D01*
X129790364Y-65209636D02*
X130000000Y-65000000D01*
X112098000Y-76500000D02*
X108000000Y-76500000D01*
X113799000Y-79290364D02*
X113799000Y-78201000D01*
X119790364Y-81201000D02*
X115709636Y-81201000D01*
X129201000Y-71790364D02*
X119790364Y-81201000D01*
X115709636Y-81201000D02*
X113799000Y-79290364D01*
X113799000Y-78201000D02*
X112098000Y-76500000D01*
X129201000Y-65209636D02*
X129201000Y-71790364D01*
%TO.N,/SDA*%
X101799000Y-71209636D02*
X101799000Y-77299000D01*
X114000000Y-71000000D02*
X113500000Y-70500000D01*
X103008636Y-70000000D02*
X101799000Y-71209636D01*
X128500000Y-65500000D02*
X123000000Y-71000000D01*
X123000000Y-71000000D02*
X114000000Y-71000000D01*
X101799000Y-77299000D02*
X103500000Y-79000000D01*
X113500000Y-70500000D02*
X111500000Y-70500000D01*
X111500000Y-70500000D02*
X111000000Y-70000000D01*
X111000000Y-70000000D02*
X103008636Y-70000000D01*
%TO.N,/SCL*%
X120500000Y-65000000D02*
X125500000Y-65000000D01*
%TO.N,/HX711_DOUT*%
X100000000Y-85500000D02*
X94526000Y-85500000D01*
X94526000Y-85500000D02*
X94526000Y-88474000D01*
X94526000Y-88474000D02*
X94500000Y-88500000D01*
X103000000Y-94000000D02*
X95500000Y-94000000D01*
X95500000Y-94000000D02*
X94500000Y-95000000D01*
%TO.N,Net-(J3-Pin_3)*%
X100799000Y-84701000D02*
X100799000Y-88299000D01*
X101000000Y-84500000D02*
X100799000Y-84701000D01*
X101250000Y-84250000D02*
X101000000Y-84500000D01*
X101250000Y-67025000D02*
X101250000Y-84250000D01*
%TO.N,+3.3V*%
X96500000Y-66000000D02*
X96500000Y-70500000D01*
X106250000Y-67025000D02*
X106250000Y-65750000D01*
X105000000Y-64500000D02*
X98000000Y-64500000D01*
X106250000Y-65750000D02*
X105000000Y-64500000D01*
X98000000Y-64500000D02*
X96500000Y-66000000D01*
X118500000Y-79000000D02*
X112500000Y-73000000D01*
%TO.N,/HX711_DOUT*%
X103000000Y-94000000D02*
X103500000Y-93500000D01*
%TO.N,/HX711_SCK*%
X96500000Y-88500000D02*
X98500000Y-88500000D01*
%TO.N,+3.3V*%
X98125000Y-89875000D02*
X99000000Y-89000000D01*
X106500000Y-89000000D02*
X99000000Y-89000000D01*
X108000000Y-87500000D02*
X106500000Y-89000000D01*
%TO.N,Net-(J1-D+-PadA6)*%
X102701000Y-71299000D02*
X102500000Y-71500000D01*
X113299000Y-71299000D02*
X102701000Y-71299000D01*
X113500000Y-71500000D02*
X113299000Y-71299000D01*
X114000000Y-72000000D02*
X113500000Y-71500000D01*
%TO.N,Net-(J1-D--PadA7)*%
X113000000Y-72000000D02*
X108000000Y-72000000D01*
X113500000Y-72500000D02*
X113000000Y-72000000D01*
X118500000Y-77500000D02*
X113500000Y-72500000D01*
X119500000Y-80500000D02*
X119299000Y-80299000D01*
X119299000Y-80299000D02*
X119299000Y-78299000D01*
X119299000Y-78299000D02*
X118500000Y-77500000D01*
%TO.N,Net-(J1-D+-PadA6)*%
X120000000Y-79500000D02*
X120000000Y-78000000D01*
X119500000Y-77500000D02*
X114000000Y-72000000D01*
X120000000Y-78000000D02*
X119500000Y-77500000D01*
%TO.N,+3.3V*%
X114500000Y-79000000D02*
X118500000Y-79000000D01*
%TO.N,+BATT*%
X131500000Y-66000000D02*
X136000000Y-66000000D01*
X136000000Y-66000000D02*
X136500000Y-66500000D01*
X130500000Y-83500000D02*
X130500000Y-87500000D01*
X130500000Y-79500000D02*
X130500000Y-83500000D01*
X136500000Y-73500000D02*
X130500000Y-79500000D01*
X136500000Y-66500000D02*
X136500000Y-73500000D01*
%TO.N,Net-(U5-CE)*%
X138500000Y-79000000D02*
X138500000Y-73500000D01*
X138550000Y-79050000D02*
X138500000Y-79000000D01*
%TO.N,Net-(U1-EN{slash}CHIP_PU)*%
X103010000Y-83990000D02*
X101500000Y-85500000D01*
X110010000Y-83990000D02*
X103010000Y-83990000D01*
%TO.N,+3.3V*%
X112025000Y-94975000D02*
X112000000Y-95000000D01*
X112025000Y-87500000D02*
X112025000Y-94975000D01*
X112025000Y-87500000D02*
X108000000Y-87500000D01*
%TO.N,/SCL*%
X119500000Y-64000000D02*
X120500000Y-65000000D01*
X95500000Y-64500000D02*
X96000000Y-64000000D01*
X95500000Y-73000000D02*
X95500000Y-64500000D01*
X116500000Y-64000000D02*
X119500000Y-64000000D01*
X96500000Y-77500000D02*
X95500000Y-76500000D01*
X95500000Y-76500000D02*
X95500000Y-73000000D01*
X96000000Y-64000000D02*
X116500000Y-64000000D01*
%TD*%
%TA.AperFunction,Conductor*%
%TO.N,GND*%
G36*
X148642539Y-62820185D02*
G01*
X148688294Y-62872989D01*
X148699500Y-62924500D01*
X148699500Y-97075500D01*
X148679815Y-97142539D01*
X148627011Y-97188294D01*
X148575500Y-97199500D01*
X113448628Y-97199500D01*
X113381589Y-97179815D01*
X113335834Y-97127011D01*
X113325890Y-97057853D01*
X113354915Y-96994297D01*
X113363195Y-96986493D01*
X113362969Y-96986267D01*
X113368716Y-96980520D01*
X113480520Y-96868716D01*
X113559577Y-96731784D01*
X113600500Y-96579057D01*
X113600500Y-93638389D01*
X141399500Y-93638389D01*
X141399500Y-94361611D01*
X141400179Y-94365896D01*
X141415472Y-94462458D01*
X141426598Y-94532701D01*
X141480127Y-94697445D01*
X141558768Y-94851788D01*
X141660586Y-94991928D01*
X141783072Y-95114414D01*
X141923212Y-95216232D01*
X142077555Y-95294873D01*
X142242299Y-95348402D01*
X142413389Y-95375500D01*
X142413390Y-95375500D01*
X142586610Y-95375500D01*
X142586611Y-95375500D01*
X142757701Y-95348402D01*
X142922445Y-95294873D01*
X143076788Y-95216232D01*
X143216928Y-95114414D01*
X143324836Y-95006505D01*
X143386155Y-94973023D01*
X143455847Y-94978007D01*
X143511781Y-95019878D01*
X143518053Y-95029093D01*
X143557682Y-95093343D01*
X143681654Y-95217315D01*
X143830875Y-95309356D01*
X143830880Y-95309358D01*
X143997302Y-95364505D01*
X143997309Y-95364506D01*
X144100019Y-95374999D01*
X144249999Y-95374999D01*
X144250000Y-95374998D01*
X144250000Y-94280330D01*
X144269745Y-94300075D01*
X144355255Y-94349444D01*
X144450630Y-94375000D01*
X144549370Y-94375000D01*
X144644745Y-94349444D01*
X144730255Y-94300075D01*
X144750000Y-94280330D01*
X144750000Y-95374999D01*
X144899972Y-95374999D01*
X144899986Y-95374998D01*
X145002697Y-95364505D01*
X145169119Y-95309358D01*
X145169124Y-95309356D01*
X145318345Y-95217315D01*
X145442315Y-95093345D01*
X145534356Y-94944124D01*
X145534358Y-94944119D01*
X145589505Y-94777697D01*
X145589506Y-94777690D01*
X145599999Y-94674986D01*
X145600000Y-94674973D01*
X145600000Y-94250000D01*
X144780330Y-94250000D01*
X144800075Y-94230255D01*
X144849444Y-94144745D01*
X144875000Y-94049370D01*
X144875000Y-93950630D01*
X144849444Y-93855255D01*
X144800075Y-93769745D01*
X144780330Y-93750000D01*
X145599999Y-93750000D01*
X145599999Y-93325028D01*
X145599998Y-93325013D01*
X145589505Y-93222302D01*
X145534358Y-93055880D01*
X145534356Y-93055875D01*
X145442315Y-92906654D01*
X145318345Y-92782684D01*
X145169124Y-92690643D01*
X145169119Y-92690641D01*
X145002697Y-92635494D01*
X145002690Y-92635493D01*
X144899986Y-92625000D01*
X144750000Y-92625000D01*
X144750000Y-93719670D01*
X144730255Y-93699925D01*
X144644745Y-93650556D01*
X144549370Y-93625000D01*
X144450630Y-93625000D01*
X144355255Y-93650556D01*
X144269745Y-93699925D01*
X144250000Y-93719670D01*
X144250000Y-92625000D01*
X144100027Y-92625000D01*
X144100012Y-92625001D01*
X143997302Y-92635494D01*
X143830880Y-92690641D01*
X143830875Y-92690643D01*
X143681654Y-92782684D01*
X143557684Y-92906654D01*
X143518053Y-92970907D01*
X143466105Y-93017631D01*
X143397142Y-93028853D01*
X143333060Y-93001010D01*
X143324833Y-92993491D01*
X143216930Y-92885588D01*
X143216928Y-92885586D01*
X143076788Y-92783768D01*
X142922445Y-92705127D01*
X142757701Y-92651598D01*
X142757699Y-92651597D01*
X142757698Y-92651597D01*
X142626271Y-92630781D01*
X142586611Y-92624500D01*
X142413389Y-92624500D01*
X142373728Y-92630781D01*
X142242302Y-92651597D01*
X142077552Y-92705128D01*
X141923211Y-92783768D01*
X141884603Y-92811819D01*
X141783072Y-92885586D01*
X141783070Y-92885588D01*
X141783069Y-92885588D01*
X141660588Y-93008069D01*
X141660588Y-93008070D01*
X141660586Y-93008072D01*
X141636738Y-93040896D01*
X141558768Y-93148211D01*
X141480128Y-93302552D01*
X141426597Y-93467302D01*
X141418334Y-93519475D01*
X141399500Y-93638389D01*
X113600500Y-93638389D01*
X113600500Y-80240461D01*
X113620185Y-80173422D01*
X113672989Y-80127667D01*
X113742147Y-80117723D01*
X113805703Y-80146748D01*
X113812181Y-80152780D01*
X115224775Y-81565374D01*
X115224785Y-81565385D01*
X115229115Y-81569715D01*
X115229116Y-81569716D01*
X115340920Y-81681520D01*
X115340922Y-81681521D01*
X115340926Y-81681524D01*
X115477845Y-81760573D01*
X115477852Y-81760577D01*
X115589655Y-81790534D01*
X115630578Y-81801500D01*
X115630579Y-81801500D01*
X119703695Y-81801500D01*
X119703711Y-81801501D01*
X119711307Y-81801501D01*
X119869418Y-81801501D01*
X119869421Y-81801501D01*
X120022149Y-81760577D01*
X120072268Y-81731639D01*
X120159080Y-81681520D01*
X120270884Y-81569716D01*
X120270884Y-81569714D01*
X120281092Y-81559507D01*
X120281094Y-81559504D01*
X129559506Y-72281092D01*
X129559511Y-72281088D01*
X129569714Y-72270884D01*
X129569716Y-72270884D01*
X129681520Y-72159080D01*
X129738968Y-72059577D01*
X129760577Y-72022149D01*
X129801500Y-71869421D01*
X129801500Y-71711307D01*
X129801500Y-66024500D01*
X129821185Y-65957461D01*
X129873989Y-65911706D01*
X129925500Y-65900500D01*
X130088693Y-65900500D01*
X130088694Y-65900499D01*
X130185286Y-65881286D01*
X130262658Y-65865896D01*
X130262661Y-65865894D01*
X130262666Y-65865894D01*
X130426547Y-65798013D01*
X130426548Y-65798012D01*
X130428048Y-65797391D01*
X130497517Y-65789922D01*
X130559996Y-65821197D01*
X130595648Y-65881286D01*
X130599500Y-65911952D01*
X130599500Y-66088695D01*
X130634103Y-66262658D01*
X130634106Y-66262667D01*
X130701983Y-66426540D01*
X130701990Y-66426553D01*
X130800535Y-66574034D01*
X130800538Y-66574038D01*
X130925961Y-66699461D01*
X130925965Y-66699464D01*
X131073446Y-66798009D01*
X131073459Y-66798016D01*
X131196363Y-66848923D01*
X131237334Y-66865894D01*
X131237336Y-66865894D01*
X131237341Y-66865896D01*
X131411304Y-66900499D01*
X131411307Y-66900500D01*
X131411309Y-66900500D01*
X131588693Y-66900500D01*
X131588694Y-66900499D01*
X131646682Y-66888964D01*
X131762658Y-66865896D01*
X131762661Y-66865894D01*
X131762666Y-66865894D01*
X131926547Y-66798013D01*
X132074035Y-66699464D01*
X132136681Y-66636817D01*
X132198002Y-66603334D01*
X132224361Y-66600500D01*
X135500085Y-66600500D01*
X135567124Y-66620185D01*
X135612879Y-66672989D01*
X135621702Y-66700309D01*
X135634103Y-66762658D01*
X135634106Y-66762667D01*
X135701983Y-66926540D01*
X135701990Y-66926553D01*
X135800534Y-67074033D01*
X135800535Y-67074034D01*
X135800536Y-67074035D01*
X135863182Y-67136681D01*
X135896666Y-67198002D01*
X135899500Y-67224361D01*
X135899500Y-72775638D01*
X135879815Y-72842677D01*
X135863181Y-72863319D01*
X135800538Y-72925961D01*
X135800535Y-72925965D01*
X135701990Y-73073446D01*
X135701983Y-73073459D01*
X135634106Y-73237332D01*
X135634103Y-73237341D01*
X135599500Y-73411304D01*
X135599500Y-73499902D01*
X135579815Y-73566941D01*
X135563181Y-73587583D01*
X130019481Y-79131282D01*
X130019479Y-79131285D01*
X130001679Y-79162116D01*
X129973279Y-79211307D01*
X129940423Y-79268215D01*
X129899499Y-79420943D01*
X129899499Y-79420945D01*
X129899499Y-79589046D01*
X129899500Y-79589059D01*
X129899500Y-82775638D01*
X129879815Y-82842677D01*
X129863181Y-82863319D01*
X129800538Y-82925961D01*
X129800535Y-82925965D01*
X129701990Y-83073446D01*
X129701983Y-83073459D01*
X129634106Y-83237332D01*
X129634103Y-83237341D01*
X129599500Y-83411304D01*
X129599500Y-83588695D01*
X129634103Y-83762658D01*
X129634106Y-83762667D01*
X129701983Y-83926540D01*
X129701990Y-83926553D01*
X129800534Y-84074033D01*
X129800535Y-84074034D01*
X129800536Y-84074035D01*
X129863182Y-84136681D01*
X129896666Y-84198002D01*
X129899500Y-84224361D01*
X129899500Y-86775638D01*
X129879815Y-86842677D01*
X129863181Y-86863319D01*
X129800538Y-86925961D01*
X129800535Y-86925965D01*
X129701990Y-87073446D01*
X129701983Y-87073459D01*
X129634106Y-87237332D01*
X129634103Y-87237341D01*
X129599500Y-87411304D01*
X129599500Y-87588695D01*
X129634103Y-87762658D01*
X129634106Y-87762667D01*
X129701983Y-87926540D01*
X129701990Y-87926553D01*
X129800535Y-88074034D01*
X129800538Y-88074038D01*
X129925961Y-88199461D01*
X129925965Y-88199464D01*
X130073446Y-88298009D01*
X130073459Y-88298016D01*
X130143461Y-88327011D01*
X130237334Y-88365894D01*
X130237336Y-88365894D01*
X130237341Y-88365896D01*
X130411304Y-88400499D01*
X130411307Y-88400500D01*
X130411309Y-88400500D01*
X130588693Y-88400500D01*
X130588694Y-88400499D01*
X130653086Y-88387691D01*
X130762658Y-88365896D01*
X130762661Y-88365894D01*
X130762666Y-88365894D01*
X130926547Y-88298013D01*
X131074035Y-88199464D01*
X131199464Y-88074035D01*
X131298013Y-87926547D01*
X131365894Y-87762666D01*
X131373394Y-87724965D01*
X131391467Y-87634103D01*
X131400500Y-87588691D01*
X131400500Y-87411309D01*
X131400500Y-87411306D01*
X131400499Y-87411304D01*
X131365896Y-87237341D01*
X131365893Y-87237332D01*
X131298016Y-87073459D01*
X131298009Y-87073446D01*
X131199464Y-86925965D01*
X131199461Y-86925961D01*
X131136819Y-86863319D01*
X131103334Y-86801996D01*
X131100500Y-86775638D01*
X131100500Y-85570000D01*
X139850138Y-85570000D01*
X140653012Y-85570000D01*
X140635795Y-85579940D01*
X140579940Y-85635795D01*
X140540444Y-85704204D01*
X140520000Y-85780504D01*
X140520000Y-85859496D01*
X140540444Y-85935796D01*
X140579940Y-86004205D01*
X140635795Y-86060060D01*
X140653012Y-86070000D01*
X139850138Y-86070000D01*
X139858430Y-86111690D01*
X139858430Y-86111692D01*
X139933807Y-86293671D01*
X139933814Y-86293684D01*
X140043247Y-86457461D01*
X140043251Y-86457466D01*
X140182533Y-86596748D01*
X140182537Y-86596751D01*
X140346315Y-86706185D01*
X140346328Y-86706192D01*
X140528306Y-86781569D01*
X140528318Y-86781572D01*
X140721504Y-86819999D01*
X140721508Y-86820000D01*
X141120000Y-86820000D01*
X141120000Y-86120000D01*
X141620000Y-86120000D01*
X141620000Y-86820000D01*
X142018492Y-86820000D01*
X142018495Y-86819999D01*
X142211681Y-86781572D01*
X142211693Y-86781569D01*
X142393671Y-86706192D01*
X142393684Y-86706185D01*
X142557462Y-86596751D01*
X142557466Y-86596748D01*
X142696753Y-86457461D01*
X142806185Y-86293684D01*
X142806192Y-86293671D01*
X142881569Y-86111692D01*
X142881569Y-86111690D01*
X142889862Y-86070000D01*
X142086988Y-86070000D01*
X142104205Y-86060060D01*
X142160060Y-86004205D01*
X142199556Y-85935796D01*
X142220000Y-85859496D01*
X142220000Y-85780504D01*
X142199556Y-85704204D01*
X142160060Y-85635795D01*
X142104205Y-85579940D01*
X142086988Y-85570000D01*
X142889862Y-85570000D01*
X144280138Y-85570000D01*
X145083012Y-85570000D01*
X145065795Y-85579940D01*
X145009940Y-85635795D01*
X144970444Y-85704204D01*
X144950000Y-85780504D01*
X144950000Y-85859496D01*
X144970444Y-85935796D01*
X145009940Y-86004205D01*
X145065795Y-86060060D01*
X145083012Y-86070000D01*
X144280138Y-86070000D01*
X144288430Y-86111690D01*
X144288430Y-86111692D01*
X144363807Y-86293671D01*
X144363814Y-86293684D01*
X144473247Y-86457461D01*
X144473251Y-86457466D01*
X144612533Y-86596748D01*
X144612537Y-86596751D01*
X144776315Y-86706185D01*
X144776328Y-86706192D01*
X144958306Y-86781569D01*
X144958318Y-86781572D01*
X145151504Y-86819999D01*
X145151508Y-86820000D01*
X145300000Y-86820000D01*
X145300000Y-86120000D01*
X145800000Y-86120000D01*
X145800000Y-86820000D01*
X145948492Y-86820000D01*
X145948495Y-86819999D01*
X146141681Y-86781572D01*
X146141693Y-86781569D01*
X146323671Y-86706192D01*
X146323684Y-86706185D01*
X146487462Y-86596751D01*
X146487466Y-86596748D01*
X146626753Y-86457461D01*
X146736185Y-86293684D01*
X146736192Y-86293671D01*
X146811569Y-86111692D01*
X146811569Y-86111690D01*
X146819862Y-86070000D01*
X146016988Y-86070000D01*
X146034205Y-86060060D01*
X146090060Y-86004205D01*
X146129556Y-85935796D01*
X146150000Y-85859496D01*
X146150000Y-85780504D01*
X146129556Y-85704204D01*
X146090060Y-85635795D01*
X146034205Y-85579940D01*
X146016988Y-85570000D01*
X146819862Y-85570000D01*
X146811569Y-85528309D01*
X146811569Y-85528307D01*
X146736192Y-85346328D01*
X146736185Y-85346315D01*
X146626751Y-85182537D01*
X146626748Y-85182533D01*
X146487466Y-85043251D01*
X146487462Y-85043248D01*
X146323684Y-84933814D01*
X146323671Y-84933807D01*
X146141693Y-84858430D01*
X146141681Y-84858427D01*
X145948495Y-84820000D01*
X145800000Y-84820000D01*
X145800000Y-85520000D01*
X145300000Y-85520000D01*
X145300000Y-84820000D01*
X145151504Y-84820000D01*
X144958318Y-84858427D01*
X144958306Y-84858430D01*
X144776328Y-84933807D01*
X144776315Y-84933814D01*
X144612537Y-85043248D01*
X144612533Y-85043251D01*
X144473251Y-85182533D01*
X144473248Y-85182537D01*
X144363814Y-85346315D01*
X144363807Y-85346328D01*
X144288430Y-85528307D01*
X144288430Y-85528309D01*
X144280138Y-85570000D01*
X142889862Y-85570000D01*
X142881569Y-85528309D01*
X142881569Y-85528307D01*
X142806192Y-85346328D01*
X142806185Y-85346315D01*
X142696751Y-85182537D01*
X142696748Y-85182533D01*
X142557466Y-85043251D01*
X142557462Y-85043248D01*
X142388613Y-84930426D01*
X142389568Y-84928996D01*
X142345568Y-84885777D01*
X142330105Y-84817640D01*
X142353934Y-84751960D01*
X142355702Y-84749913D01*
X142355568Y-84749811D01*
X142360507Y-84743372D01*
X142360515Y-84743365D01*
X142436281Y-84612135D01*
X142475500Y-84465766D01*
X142475500Y-84314234D01*
X142436281Y-84167865D01*
X142360515Y-84036635D01*
X142253365Y-83929485D01*
X142187750Y-83891602D01*
X142122136Y-83853719D01*
X142048950Y-83834109D01*
X141975766Y-83814500D01*
X141824234Y-83814500D01*
X141677863Y-83853719D01*
X141546635Y-83929485D01*
X141546632Y-83929487D01*
X141439487Y-84036632D01*
X141439485Y-84036635D01*
X141363719Y-84167863D01*
X141324500Y-84314234D01*
X141324500Y-84465765D01*
X141363719Y-84612136D01*
X141376402Y-84634103D01*
X141439485Y-84743365D01*
X141546635Y-84850515D01*
X141557998Y-84857075D01*
X141606213Y-84907639D01*
X141620000Y-84964463D01*
X141620000Y-85520000D01*
X141120000Y-85520000D01*
X141120000Y-84820000D01*
X140721504Y-84820000D01*
X140528318Y-84858427D01*
X140528306Y-84858430D01*
X140346328Y-84933807D01*
X140346315Y-84933814D01*
X140182537Y-85043248D01*
X140182533Y-85043251D01*
X140043251Y-85182533D01*
X140043248Y-85182537D01*
X139933814Y-85346315D01*
X139933807Y-85346328D01*
X139858430Y-85528307D01*
X139858430Y-85528309D01*
X139850138Y-85570000D01*
X131100500Y-85570000D01*
X131100500Y-84224361D01*
X131120185Y-84157322D01*
X131136814Y-84136684D01*
X131199464Y-84074035D01*
X131298013Y-83926547D01*
X131365894Y-83762666D01*
X131372923Y-83727332D01*
X131400499Y-83588695D01*
X131400500Y-83588693D01*
X131400500Y-83411306D01*
X131400499Y-83411304D01*
X131365896Y-83237341D01*
X131365893Y-83237332D01*
X131298016Y-83073459D01*
X131298009Y-83073446D01*
X131199464Y-82925965D01*
X131199461Y-82925961D01*
X131136819Y-82863319D01*
X131103334Y-82801996D01*
X131100500Y-82775638D01*
X131100500Y-79800097D01*
X131120185Y-79733058D01*
X131136819Y-79712416D01*
X136412416Y-74436819D01*
X136473739Y-74403334D01*
X136500097Y-74400500D01*
X136588693Y-74400500D01*
X136588694Y-74400499D01*
X136646682Y-74388964D01*
X136762658Y-74365896D01*
X136762661Y-74365894D01*
X136762666Y-74365894D01*
X136926547Y-74298013D01*
X137074035Y-74199464D01*
X137199464Y-74074035D01*
X137298013Y-73926547D01*
X137365894Y-73762666D01*
X137373514Y-73724361D01*
X137378383Y-73699882D01*
X137410768Y-73637971D01*
X137471483Y-73603397D01*
X137541253Y-73607136D01*
X137597925Y-73648003D01*
X137621617Y-73699882D01*
X137634103Y-73762658D01*
X137634106Y-73762667D01*
X137701983Y-73926540D01*
X137701990Y-73926553D01*
X137800534Y-74074033D01*
X137800535Y-74074034D01*
X137800536Y-74074035D01*
X137863182Y-74136681D01*
X137896666Y-74198002D01*
X137899500Y-74224361D01*
X137899500Y-78375638D01*
X137879815Y-78442677D01*
X137863181Y-78463319D01*
X137850538Y-78475961D01*
X137850535Y-78475965D01*
X137751990Y-78623446D01*
X137751983Y-78623459D01*
X137684106Y-78787332D01*
X137684103Y-78787341D01*
X137649500Y-78961304D01*
X137649500Y-79138695D01*
X137684103Y-79312658D01*
X137684106Y-79312667D01*
X137751983Y-79476540D01*
X137751990Y-79476553D01*
X137850535Y-79624034D01*
X137850538Y-79624038D01*
X137975961Y-79749461D01*
X137975965Y-79749464D01*
X138123446Y-79848009D01*
X138123459Y-79848016D01*
X138246363Y-79898923D01*
X138287334Y-79915894D01*
X138287336Y-79915894D01*
X138287341Y-79915896D01*
X138461304Y-79950499D01*
X138461307Y-79950500D01*
X138461309Y-79950500D01*
X138638693Y-79950500D01*
X138638694Y-79950499D01*
X138696682Y-79938964D01*
X138812658Y-79915896D01*
X138812661Y-79915894D01*
X138812666Y-79915894D01*
X138976547Y-79848013D01*
X139124035Y-79749464D01*
X139249464Y-79624035D01*
X139348013Y-79476547D01*
X139415894Y-79312666D01*
X139424737Y-79268213D01*
X139450499Y-79138695D01*
X139450500Y-79138693D01*
X139450500Y-78961306D01*
X139450499Y-78961304D01*
X139415896Y-78787341D01*
X139415893Y-78787332D01*
X139348016Y-78623459D01*
X139348008Y-78623444D01*
X139329001Y-78594999D01*
X139329000Y-78594998D01*
X139249464Y-78475965D01*
X139249461Y-78475961D01*
X139136819Y-78363319D01*
X139103334Y-78301996D01*
X139100500Y-78275638D01*
X139100500Y-76930000D01*
X139850138Y-76930000D01*
X140653012Y-76930000D01*
X140635795Y-76939940D01*
X140579940Y-76995795D01*
X140540444Y-77064204D01*
X140520000Y-77140504D01*
X140520000Y-77219496D01*
X140540444Y-77295796D01*
X140579940Y-77364205D01*
X140635795Y-77420060D01*
X140653012Y-77430000D01*
X139850138Y-77430000D01*
X139858430Y-77471690D01*
X139858430Y-77471692D01*
X139933807Y-77653671D01*
X139933814Y-77653684D01*
X140043248Y-77817462D01*
X140043251Y-77817466D01*
X140182533Y-77956748D01*
X140182537Y-77956751D01*
X140346315Y-78066185D01*
X140346328Y-78066192D01*
X140528306Y-78141569D01*
X140528318Y-78141572D01*
X140721504Y-78179999D01*
X140721508Y-78180000D01*
X141120000Y-78180000D01*
X141120000Y-77480000D01*
X141620000Y-77480000D01*
X141620000Y-78035536D01*
X141600315Y-78102575D01*
X141558002Y-78142922D01*
X141546638Y-78149483D01*
X141546632Y-78149487D01*
X141439487Y-78256632D01*
X141439485Y-78256635D01*
X141363719Y-78387863D01*
X141349032Y-78442677D01*
X141324500Y-78534234D01*
X141324500Y-78685766D01*
X141338319Y-78737341D01*
X141363719Y-78832136D01*
X141381723Y-78863319D01*
X141439485Y-78963365D01*
X141546635Y-79070515D01*
X141677865Y-79146281D01*
X141824234Y-79185500D01*
X141824236Y-79185500D01*
X141975764Y-79185500D01*
X141975766Y-79185500D01*
X142122135Y-79146281D01*
X142253365Y-79070515D01*
X142360515Y-78963365D01*
X142436281Y-78832135D01*
X142475500Y-78685766D01*
X142475500Y-78534234D01*
X142436281Y-78387865D01*
X142360515Y-78256635D01*
X142360510Y-78256630D01*
X142355568Y-78250189D01*
X142358386Y-78248026D01*
X142332697Y-78200979D01*
X142337681Y-78131287D01*
X142379553Y-78075354D01*
X142388620Y-78069585D01*
X142388613Y-78069574D01*
X142557462Y-77956751D01*
X142557466Y-77956748D01*
X142696748Y-77817466D01*
X142696751Y-77817462D01*
X142806185Y-77653684D01*
X142806192Y-77653671D01*
X142881569Y-77471692D01*
X142881569Y-77471690D01*
X142889862Y-77430000D01*
X142086988Y-77430000D01*
X142104205Y-77420060D01*
X142160060Y-77364205D01*
X142199556Y-77295796D01*
X142220000Y-77219496D01*
X142220000Y-77140504D01*
X142199556Y-77064204D01*
X142160060Y-76995795D01*
X142104205Y-76939940D01*
X142086988Y-76930000D01*
X142889862Y-76930000D01*
X144280138Y-76930000D01*
X145083012Y-76930000D01*
X145065795Y-76939940D01*
X145009940Y-76995795D01*
X144970444Y-77064204D01*
X144950000Y-77140504D01*
X144950000Y-77219496D01*
X144970444Y-77295796D01*
X145009940Y-77364205D01*
X145065795Y-77420060D01*
X145083012Y-77430000D01*
X144280138Y-77430000D01*
X144288430Y-77471690D01*
X144288430Y-77471692D01*
X144363807Y-77653671D01*
X144363814Y-77653684D01*
X144473248Y-77817462D01*
X144473251Y-77817466D01*
X144612533Y-77956748D01*
X144612537Y-77956751D01*
X144776315Y-78066185D01*
X144776328Y-78066192D01*
X144958306Y-78141569D01*
X144958318Y-78141572D01*
X145151504Y-78179999D01*
X145151508Y-78180000D01*
X145300000Y-78180000D01*
X145300000Y-77480000D01*
X145800000Y-77480000D01*
X145800000Y-78180000D01*
X145948492Y-78180000D01*
X145948495Y-78179999D01*
X146141681Y-78141572D01*
X146141693Y-78141569D01*
X146323671Y-78066192D01*
X146323684Y-78066185D01*
X146487462Y-77956751D01*
X146487466Y-77956748D01*
X146626748Y-77817466D01*
X146626751Y-77817462D01*
X146736185Y-77653684D01*
X146736192Y-77653671D01*
X146811569Y-77471692D01*
X146811569Y-77471690D01*
X146819862Y-77430000D01*
X146016988Y-77430000D01*
X146034205Y-77420060D01*
X146090060Y-77364205D01*
X146129556Y-77295796D01*
X146150000Y-77219496D01*
X146150000Y-77140504D01*
X146129556Y-77064204D01*
X146090060Y-76995795D01*
X146034205Y-76939940D01*
X146016988Y-76930000D01*
X146819862Y-76930000D01*
X146811569Y-76888309D01*
X146811569Y-76888307D01*
X146736192Y-76706328D01*
X146736185Y-76706315D01*
X146626751Y-76542537D01*
X146626748Y-76542533D01*
X146487466Y-76403251D01*
X146487462Y-76403248D01*
X146323684Y-76293814D01*
X146323671Y-76293807D01*
X146141693Y-76218430D01*
X146141681Y-76218427D01*
X145948495Y-76180000D01*
X145800000Y-76180000D01*
X145800000Y-76880000D01*
X145300000Y-76880000D01*
X145300000Y-76180000D01*
X145151504Y-76180000D01*
X144958318Y-76218427D01*
X144958306Y-76218430D01*
X144776328Y-76293807D01*
X144776315Y-76293814D01*
X144612537Y-76403248D01*
X144612533Y-76403251D01*
X144473251Y-76542533D01*
X144473248Y-76542537D01*
X144363814Y-76706315D01*
X144363807Y-76706328D01*
X144288430Y-76888307D01*
X144288430Y-76888309D01*
X144280138Y-76930000D01*
X142889862Y-76930000D01*
X142881569Y-76888309D01*
X142881569Y-76888307D01*
X142806192Y-76706328D01*
X142806185Y-76706315D01*
X142696751Y-76542537D01*
X142696748Y-76542533D01*
X142557466Y-76403251D01*
X142557462Y-76403248D01*
X142393684Y-76293814D01*
X142393671Y-76293807D01*
X142211693Y-76218430D01*
X142211681Y-76218427D01*
X142018495Y-76180000D01*
X141620000Y-76180000D01*
X141620000Y-76880000D01*
X141120000Y-76880000D01*
X141120000Y-76180000D01*
X140721504Y-76180000D01*
X140528318Y-76218427D01*
X140528306Y-76218430D01*
X140346328Y-76293807D01*
X140346315Y-76293814D01*
X140182537Y-76403248D01*
X140182533Y-76403251D01*
X140043251Y-76542533D01*
X140043248Y-76542537D01*
X139933814Y-76706315D01*
X139933807Y-76706328D01*
X139858430Y-76888307D01*
X139858430Y-76888309D01*
X139850138Y-76930000D01*
X139100500Y-76930000D01*
X139100500Y-74224361D01*
X139120185Y-74157322D01*
X139136814Y-74136684D01*
X139199464Y-74074035D01*
X139298013Y-73926547D01*
X139365894Y-73762666D01*
X139373514Y-73724361D01*
X139390698Y-73637971D01*
X139400500Y-73588691D01*
X139400500Y-73411309D01*
X139400500Y-73411306D01*
X139400499Y-73411304D01*
X139365896Y-73237341D01*
X139365893Y-73237332D01*
X139298016Y-73073459D01*
X139298009Y-73073446D01*
X139199464Y-72925965D01*
X139199461Y-72925961D01*
X139074038Y-72800538D01*
X139074034Y-72800535D01*
X138926553Y-72701990D01*
X138926540Y-72701983D01*
X138762667Y-72634106D01*
X138762658Y-72634103D01*
X138588694Y-72599500D01*
X138588691Y-72599500D01*
X138411309Y-72599500D01*
X138411306Y-72599500D01*
X138237341Y-72634103D01*
X138237332Y-72634106D01*
X138073459Y-72701983D01*
X138073446Y-72701990D01*
X137925965Y-72800535D01*
X137925961Y-72800538D01*
X137800538Y-72925961D01*
X137800535Y-72925965D01*
X137701990Y-73073446D01*
X137701983Y-73073459D01*
X137634106Y-73237332D01*
X137634104Y-73237340D01*
X137621617Y-73300118D01*
X137589232Y-73362028D01*
X137528516Y-73396603D01*
X137458747Y-73392863D01*
X137402075Y-73351996D01*
X137378383Y-73300118D01*
X137365895Y-73237340D01*
X137365894Y-73237334D01*
X137317348Y-73120132D01*
X137298016Y-73073459D01*
X137298009Y-73073446D01*
X137199464Y-72925965D01*
X137199461Y-72925961D01*
X137136819Y-72863319D01*
X137103334Y-72801996D01*
X137100500Y-72775638D01*
X137100500Y-67224361D01*
X137120185Y-67157322D01*
X137136814Y-67136684D01*
X137199464Y-67074035D01*
X137298013Y-66926547D01*
X137365894Y-66762666D01*
X137378467Y-66699461D01*
X137400499Y-66588695D01*
X137400500Y-66588693D01*
X137400500Y-66411306D01*
X137400499Y-66411304D01*
X137365896Y-66237341D01*
X137365893Y-66237332D01*
X137298016Y-66073459D01*
X137298009Y-66073446D01*
X137199464Y-65925965D01*
X137199461Y-65925961D01*
X137074038Y-65800538D01*
X137074034Y-65800535D01*
X136926553Y-65701990D01*
X136926540Y-65701983D01*
X136762667Y-65634106D01*
X136762658Y-65634103D01*
X136588694Y-65599500D01*
X136588691Y-65599500D01*
X136500098Y-65599500D01*
X136433059Y-65579815D01*
X136427194Y-65575804D01*
X136419308Y-65570072D01*
X136368716Y-65519480D01*
X136281904Y-65469360D01*
X136276269Y-65466106D01*
X136276267Y-65466105D01*
X136231785Y-65440423D01*
X136079057Y-65399499D01*
X135920943Y-65399499D01*
X135913347Y-65399499D01*
X135913331Y-65399500D01*
X132224361Y-65399500D01*
X132157322Y-65379815D01*
X132136684Y-65363185D01*
X132074035Y-65300536D01*
X132074034Y-65300535D01*
X132074033Y-65300534D01*
X131926553Y-65201990D01*
X131926540Y-65201983D01*
X131762667Y-65134106D01*
X131762658Y-65134103D01*
X131588694Y-65099500D01*
X131588691Y-65099500D01*
X131411309Y-65099500D01*
X131411306Y-65099500D01*
X131237341Y-65134103D01*
X131237332Y-65134106D01*
X131071952Y-65202608D01*
X131002482Y-65210077D01*
X130940003Y-65178801D01*
X130904352Y-65118712D01*
X130900500Y-65088047D01*
X130900500Y-64911306D01*
X130900499Y-64911304D01*
X130865896Y-64737341D01*
X130865893Y-64737332D01*
X130798016Y-64573459D01*
X130798009Y-64573446D01*
X130699464Y-64425965D01*
X130699461Y-64425961D01*
X130574038Y-64300538D01*
X130574034Y-64300535D01*
X130426553Y-64201990D01*
X130426540Y-64201983D01*
X130262667Y-64134106D01*
X130262658Y-64134103D01*
X130088694Y-64099500D01*
X130088691Y-64099500D01*
X129911309Y-64099500D01*
X129911306Y-64099500D01*
X129737341Y-64134103D01*
X129737332Y-64134106D01*
X129573459Y-64201983D01*
X129573446Y-64201990D01*
X129425965Y-64300535D01*
X129425961Y-64300538D01*
X129300538Y-64425961D01*
X129214778Y-64554309D01*
X129161165Y-64599113D01*
X129147649Y-64604084D01*
X129130984Y-64609136D01*
X129121943Y-64609136D01*
X128969216Y-64650059D01*
X128939617Y-64667146D01*
X128925951Y-64671290D01*
X128904712Y-64671475D01*
X128884071Y-64676482D01*
X128863317Y-64671837D01*
X128856084Y-64671901D01*
X128851947Y-64669293D01*
X128842527Y-64667185D01*
X128762666Y-64634106D01*
X128762662Y-64634105D01*
X128762658Y-64634103D01*
X128588694Y-64599500D01*
X128588691Y-64599500D01*
X128411309Y-64599500D01*
X128411306Y-64599500D01*
X128237341Y-64634103D01*
X128237332Y-64634106D01*
X128073459Y-64701983D01*
X128073446Y-64701990D01*
X127925965Y-64800535D01*
X127925961Y-64800538D01*
X127800538Y-64925961D01*
X127800535Y-64925965D01*
X127701990Y-65073446D01*
X127701983Y-65073459D01*
X127634106Y-65237332D01*
X127634103Y-65237341D01*
X127599500Y-65411304D01*
X127599500Y-65499902D01*
X127579815Y-65566941D01*
X127563181Y-65587583D01*
X122787584Y-70363181D01*
X122726261Y-70396666D01*
X122699903Y-70399500D01*
X114300098Y-70399500D01*
X114270657Y-70390855D01*
X114240671Y-70384332D01*
X114235655Y-70380577D01*
X114233059Y-70379815D01*
X114212417Y-70363181D01*
X114100088Y-70250852D01*
X114066603Y-70189529D01*
X114071587Y-70119837D01*
X114073190Y-70115762D01*
X114115894Y-70012666D01*
X114116517Y-70009537D01*
X114145601Y-69863319D01*
X114150500Y-69838691D01*
X114150500Y-69661309D01*
X114150500Y-69661306D01*
X114150499Y-69661304D01*
X114115896Y-69487341D01*
X114115893Y-69487332D01*
X114113071Y-69480520D01*
X114098923Y-69446363D01*
X114048016Y-69323459D01*
X114048009Y-69323446D01*
X113949464Y-69175965D01*
X113949461Y-69175961D01*
X113824038Y-69050538D01*
X113824034Y-69050535D01*
X113676553Y-68951990D01*
X113676540Y-68951983D01*
X113512667Y-68884106D01*
X113512658Y-68884103D01*
X113338694Y-68849500D01*
X113338691Y-68849500D01*
X113250097Y-68849500D01*
X113220656Y-68840855D01*
X113190670Y-68834332D01*
X113185654Y-68830577D01*
X113183058Y-68829815D01*
X113162416Y-68813181D01*
X112987590Y-68638355D01*
X112987588Y-68638352D01*
X112868717Y-68519481D01*
X112868716Y-68519480D01*
X112778243Y-68467246D01*
X112778242Y-68467245D01*
X112731783Y-68440422D01*
X112675881Y-68425443D01*
X112579057Y-68399499D01*
X112420943Y-68399499D01*
X112413347Y-68399499D01*
X112413331Y-68399500D01*
X110124000Y-68399500D01*
X110056961Y-68379815D01*
X110011206Y-68327011D01*
X110000000Y-68275500D01*
X110000000Y-64724500D01*
X110019685Y-64657461D01*
X110072489Y-64611706D01*
X110124000Y-64600500D01*
X116420943Y-64600500D01*
X119199903Y-64600500D01*
X119266942Y-64620185D01*
X119287583Y-64636818D01*
X120131284Y-65480520D01*
X120131286Y-65480521D01*
X120131290Y-65480524D01*
X120198765Y-65519480D01*
X120268216Y-65559577D01*
X120420943Y-65600501D01*
X120420945Y-65600501D01*
X120586654Y-65600501D01*
X120586670Y-65600500D01*
X124775639Y-65600500D01*
X124842678Y-65620185D01*
X124863315Y-65636814D01*
X124925962Y-65699461D01*
X124925966Y-65699465D01*
X125073446Y-65798009D01*
X125073459Y-65798016D01*
X125153922Y-65831344D01*
X125237334Y-65865894D01*
X125237336Y-65865894D01*
X125237341Y-65865896D01*
X125411304Y-65900499D01*
X125411307Y-65900500D01*
X125411309Y-65900500D01*
X125588693Y-65900500D01*
X125588694Y-65900499D01*
X125685286Y-65881286D01*
X125762658Y-65865896D01*
X125762661Y-65865894D01*
X125762666Y-65865894D01*
X125926547Y-65798013D01*
X126074035Y-65699464D01*
X126199464Y-65574035D01*
X126298013Y-65426547D01*
X126365894Y-65262666D01*
X126370932Y-65237341D01*
X126400499Y-65088695D01*
X126400500Y-65088693D01*
X126400500Y-64911306D01*
X126400499Y-64911304D01*
X126365896Y-64737341D01*
X126365893Y-64737332D01*
X126298016Y-64573459D01*
X126298009Y-64573446D01*
X126199464Y-64425965D01*
X126199461Y-64425961D01*
X126074038Y-64300538D01*
X126074034Y-64300535D01*
X125926553Y-64201990D01*
X125926540Y-64201983D01*
X125762667Y-64134106D01*
X125762658Y-64134103D01*
X125588694Y-64099500D01*
X125588691Y-64099500D01*
X125411309Y-64099500D01*
X125411306Y-64099500D01*
X125237341Y-64134103D01*
X125237332Y-64134106D01*
X125073459Y-64201983D01*
X125073446Y-64201990D01*
X124925966Y-64300534D01*
X124894643Y-64331857D01*
X124863318Y-64363182D01*
X124801998Y-64396666D01*
X124775639Y-64399500D01*
X120800098Y-64399500D01*
X120733059Y-64379815D01*
X120712417Y-64363181D01*
X119987590Y-63638355D01*
X119987588Y-63638352D01*
X119868717Y-63519481D01*
X119868716Y-63519480D01*
X119781904Y-63469360D01*
X119781904Y-63469359D01*
X119781900Y-63469358D01*
X119731785Y-63440423D01*
X119579057Y-63399499D01*
X119420943Y-63399499D01*
X119413347Y-63399499D01*
X119413331Y-63399500D01*
X110124000Y-63399500D01*
X110056961Y-63379815D01*
X110011206Y-63327011D01*
X110000000Y-63275500D01*
X110000000Y-62924500D01*
X110019685Y-62857461D01*
X110072489Y-62811706D01*
X110124000Y-62800500D01*
X148575500Y-62800500D01*
X148642539Y-62820185D01*
G37*
%TD.AperFunction*%
%TD*%
M02*
